<svg id="Layer_1" data-name="Layer 1" xmlns="http://www.w3.org/2000/svg" viewBox="0 0 719 299"><defs><style>.cls-1{fill:#46a597;}.cls-2{fill:#fff;}.cls-3{fill:#fdffff;}</style></defs><rect class="cls-1" x="211.47" y="113.82" width="14.1" height="185.18"/><rect class="cls-2" x="320.5" y="112.91" width="14.1" height="185.18"/><polygon class="cls-2" points="459.88 255.85 449.91 265.52 323.69 143.02 333.66 133.34 459.88 255.85"/><rect class="cls-2" x="447.38" y="112.91" width="14.1" height="185.18"/><polygon class="cls-2" points="137.98 289.14 128.01 298.82 34.96 208.51 44.93 198.84 137.98 289.14"/><polygon class="cls-2" points="43.52 217.18 33.55 207.5 127.79 116.04 137.76 125.71 43.52 217.18"/><rect class="cls-2" y="112.91" width="14.1" height="185.18"/><rect class="cls-2" y="112" width="138.16" height="13.68"/><path class="cls-1" d="M1168.68,317.25c-4,38.43-37.43,68.42-78.08,68.42-43.34,0-78.48-34.1-78.48-76.17s35.14-76.17,78.48-76.17a79.88,79.88,0,0,1,40.89,11.14V225.83a97.17,97.17,0,0,0-40.89-8.92c-52.69,0-95.39,41.45-95.39,92.59s42.7,92.59,95.39,92.59c50,0,91-37.33,95.06-84.84Z" transform="translate(-467 -104)"/><rect class="cls-2" x="682" y="199.57" width="37" height="13.68"/><circle class="cls-1" cx="218.5" cy="48.5" r="48.5"/><ellipse class="cls-3" cx="218.49" cy="48.65" rx="38.49" ry="38.35"/></svg>