<svg width="251" height="165" viewBox="0 0 251 165" fill="none" xmlns="http://www.w3.org/2000/svg">
<g clip-path="url(#clip0_747_13985)">
<path d="M127.14 27.0247L129.077 19.2134L124.303 18.0361L122.408 25.6355C121.16 25.3235 119.877 25.0468 118.599 24.7408L120.506 17.0884L115.756 15.9111L113.808 23.7107C112.771 23.4752 111.761 23.2378 110.776 22.9984L104.224 21.3619L102.959 26.436C102.959 26.436 106.408 27.2248 106.408 27.2954C108.333 27.7781 108.68 29.0614 108.622 30.0562L106.402 38.9506C106.571 38.9911 106.736 39.0442 106.897 39.1095L106.396 38.9859L103.289 51.4415C103.221 51.6584 103.112 51.8599 102.966 52.0342C102.821 52.2086 102.642 52.3524 102.441 52.4575C102.239 52.5625 102.019 52.6267 101.793 52.6463C101.567 52.6659 101.339 52.6406 101.122 52.5717H101.11C101.158 52.6424 97.6553 51.7123 97.6553 51.7123L95.3008 57.1514L101.482 58.6936C102.659 58.982 103.759 59.2823 104.866 59.5648L102.9 67.4585L107.644 68.6357L109.593 60.8245C110.853 61.1659 112.118 61.4897 113.378 61.8075L111.435 69.5835L116.185 70.7608L118.152 62.8789C126.251 64.4093 132.35 63.7912 134.91 56.4685C136.976 50.5821 134.81 47.168 130.543 44.9488C133.645 44.2307 135.987 42.194 136.611 37.9734L136.664 37.9499C137.524 32.1871 133.132 29.0908 127.14 27.0247ZM125.81 53.1722C124.344 59.0586 114.408 55.8799 111.188 55.0853L113.796 44.6251C117.004 45.4315 127.335 47.0209 125.798 53.1722H125.81ZM127.281 37.8675C125.939 43.2359 117.675 40.5046 114.991 39.8394L117.345 30.3564C120.024 31.0216 128.665 32.2695 127.246 37.8675H127.281Z" fill="#F87C00"/>
<path d="M116.995 87.7784C108.314 87.7784 99.8287 85.2043 92.6112 80.3817C85.3936 75.5591 79.7682 68.7045 76.4464 60.6848C73.1245 52.6651 72.2553 43.8405 73.9488 35.3268C75.6423 26.8132 79.8223 18.9929 85.9603 12.8549C92.0984 6.71685 99.9187 2.53681 108.432 0.843337C116.946 -0.850136 125.771 0.0190179 133.79 3.34088C141.81 6.66275 148.665 12.2881 153.487 19.5057C158.31 26.7232 160.884 35.2087 160.884 43.8892C160.871 55.5253 156.243 66.681 148.015 74.909C139.787 83.137 128.631 87.7652 116.995 87.7784ZM116.995 1.1773C108.547 1.1773 100.289 3.68231 93.2652 8.37555C86.2413 13.0688 80.7668 19.7395 77.534 27.5441C74.3013 35.3486 73.4554 43.9366 75.1035 52.2219C76.7515 60.5072 80.8194 68.1177 86.7928 74.091C92.7662 80.0644 100.377 84.1323 108.662 85.7804C116.947 87.4284 125.535 86.5826 133.34 83.3498C141.144 80.1171 147.815 74.6426 152.508 67.6186C157.202 60.5947 159.707 52.3368 159.707 43.8892C159.694 32.5652 155.19 21.7087 147.182 13.7015C139.175 5.6942 128.319 1.1901 116.995 1.1773ZM115.522 71.2438L109.629 69.7831L111.572 62.006C110.691 61.7841 109.805 61.5542 108.927 61.3191L106.981 69.1189L101.094 67.6582L103.062 59.7592C102.832 59.6994 102.601 59.6393 102.37 59.5787C101.68 59.3979 100.979 59.2145 100.249 59.0355L93.3924 57.3245L96.2241 50.7836L96.714 50.9138C97.3919 51.0937 98.1077 51.2805 98.7046 51.4326L98.6218 51.3084L100.187 51.7781C100.331 51.8254 100.483 51.8437 100.634 51.832C100.785 51.8202 100.932 51.7786 101.066 51.7095C101.201 51.6404 101.321 51.5453 101.418 51.4296C101.516 51.3139 101.589 51.18 101.635 51.0356L104.6 39.1493L104.597 39.1484L106.944 29.7393C106.991 28.6351 106.411 27.947 105.173 27.6368L103.851 27.3054L103.884 27.2845C103.259 27.133 102.475 26.949 101.736 26.7803L101.15 26.6467L102.703 20.4185L109.827 22.1976C110.626 22.3937 111.445 22.5873 112.284 22.7785L114.235 14.9687L120.128 16.4291L118.222 24.0754C118.557 24.1536 118.892 24.2309 119.227 24.3073C119.783 24.4352 120.338 24.5623 120.886 24.6945L122.782 17.0945L128.698 18.5534L126.748 26.417C131.421 28.0924 137.154 31.104 136.154 37.807L136.107 38.1269L136.05 38.1519C135.466 41.5458 133.744 43.8052 130.92 44.8871C135.043 47.5222 136.171 51.3124 134.374 56.4337C131.534 64.5531 124.319 64.5517 117.497 63.3284L115.522 71.2438ZM111.057 68.9243L114.665 69.8182L116.623 61.9678L117.169 62.071C126.487 63.8314 131.15 62.0853 133.263 56.0446C135.02 51.0365 133.723 47.6041 129.179 45.2412L127.763 44.5051L129.318 44.1456C132.565 43.394 134.403 41.2719 134.937 37.6576L134.984 37.3374L135.032 37.3161C135.56 32.7978 132.713 29.7158 125.856 27.3515L125.347 27.1761L127.271 19.414L123.64 18.5187L121.744 26.1199L121.173 25.977C120.445 25.7951 119.707 25.6255 118.964 25.4551C118.433 25.3332 117.901 25.2111 117.37 25.0837L116.792 24.9452L118.7 17.2885L115.092 16.3943L113.147 24.1829L112.585 24.055C111.545 23.8185 110.53 23.5825 109.544 23.3405L103.561 21.8459L102.583 25.7663C103.56 25.9596 104.527 26.2043 105.478 26.4995C107.255 26.9522 108.217 28.1764 108.117 29.8612L108.1 29.969L106.014 38.3296L106.021 38.3325L105.881 38.8633L105.854 38.8564L105.843 38.8903L105.875 38.8987L102.767 51.3544C102.68 51.6492 102.535 51.9236 102.34 52.1617C102.145 52.3998 101.905 52.5968 101.634 52.7412C101.362 52.8856 101.065 52.9746 100.759 53.0029C100.453 53.0312 100.144 52.9984 99.8505 52.9062L99.8521 52.9008C99.402 52.8401 98.5676 52.6234 96.9018 52.1816L95.0244 56.5186L100.532 57.8927C101.265 58.0727 101.972 58.2575 102.669 58.44C103.088 58.5495 103.503 58.6584 103.919 58.7648L104.486 58.9093L102.521 66.7994L106.123 67.6933L108.075 59.8696L108.655 60.0266C109.904 60.3654 111.174 60.6951 112.427 61.0064L113 61.1487L111.057 68.9243ZM118.86 57.0143C116.011 57.0143 112.888 56.1935 110.878 55.6655C110.53 55.5741 110.22 55.4924 109.955 55.4269L109.382 55.2855L112.275 43.6805L112.847 43.8245C113.17 43.9058 113.567 43.995 114.017 44.0964C117.292 44.8342 122.774 46.069 124.741 49.2608C125.316 50.183 125.553 51.2761 125.412 52.3538H125.459L125.289 53.0847C125.15 53.7043 124.885 54.2888 124.51 54.8016C124.136 55.3145 123.659 55.7448 123.112 56.0658C121.937 56.7614 120.441 57.0143 118.86 57.0143H118.86ZM110.808 54.4301C110.926 54.4609 111.049 54.4931 111.177 54.5267C113.925 55.2496 119.644 56.7511 122.511 55.053C123.252 54.6252 123.804 53.933 124.056 53.1152L124.135 52.7999C124.277 52.3123 124.315 51.8003 124.247 51.297C124.178 50.7938 124.005 50.3104 123.738 49.8782C122.032 47.1086 116.649 45.8963 113.758 45.245C113.537 45.195 113.328 45.1478 113.134 45.1033L110.808 54.4301ZM121.001 41.4823C118.661 41.4823 116.161 40.8169 114.544 40.3867C114.247 40.3076 113.982 40.2369 113.757 40.1812L113.185 40.0395L115.824 29.4137L116.395 29.5554C116.66 29.6213 116.984 29.6928 117.351 29.7739C120.039 30.3671 124.536 31.3604 126.241 34.124C126.781 34.9973 127.001 36.0315 126.862 37.0491H126.908L126.76 37.7806C126.63 38.3752 126.378 38.9366 126.021 39.4298C125.664 39.9229 125.21 40.3373 124.685 40.6471C123.553 41.2461 122.281 41.5343 121.001 41.4823V41.4823ZM114.61 39.1861C114.687 39.2062 114.766 39.2272 114.847 39.249C117.229 39.8825 121.662 41.0627 124.087 39.633C124.711 39.2718 125.191 38.7068 125.446 38.0332L125.583 37.4932C125.722 37.0361 125.763 36.5549 125.704 36.081C125.644 35.607 125.486 35.1509 125.239 34.7422C123.796 32.4023 119.438 31.4403 117.097 30.9235C116.953 30.8916 116.815 30.8612 116.684 30.8318L114.61 39.1861Z" fill="#3F3D56"/>
<path d="M139.588 78.3724C139.901 77.9315 140.313 77.5699 140.791 77.3166C141.269 77.0633 141.8 76.9252 142.341 76.9134C142.882 76.9016 143.418 77.0164 143.907 77.2486C144.395 77.4808 144.823 77.824 145.155 78.2508L156.826 74.2842L155.208 80.4817L144.374 83.2984C143.695 83.758 142.877 83.9641 142.062 83.8805C141.246 83.797 140.487 83.4291 139.916 82.8414C139.345 82.2537 138.999 81.4837 138.939 80.6666C138.879 79.8494 139.109 79.0372 139.588 78.3724Z" fill="#FFB8B8"/>
<path d="M231.252 164.504C232.112 155.242 234.488 146.184 238.284 137.691C239.341 135.328 240.506 133.017 241.777 130.757C242.103 130.176 241.21 129.654 240.883 130.235C236.261 138.464 233.024 147.397 231.299 156.676C230.819 159.267 230.459 161.876 230.217 164.504C230.156 165.167 231.191 165.163 231.252 164.504Z" fill="#E6E6E6"/>
<path d="M244.28 132.417C247.9 132.417 250.834 129.483 250.834 125.863C250.834 122.244 247.9 119.31 244.28 119.31C240.661 119.31 237.727 122.244 237.727 125.863C237.727 129.483 240.661 132.417 244.28 132.417Z" fill="#E6E6E6"/>
<path d="M231.923 164.679C232.481 158.67 234.022 152.793 236.484 147.284C237.171 145.751 237.926 144.251 238.751 142.785C238.792 142.709 238.802 142.619 238.778 142.535C238.755 142.451 238.7 142.38 238.625 142.336C238.549 142.292 238.46 142.279 238.375 142.3C238.291 142.32 238.218 142.373 238.171 142.447C235.173 147.785 233.072 153.58 231.953 159.6C231.642 161.281 231.408 162.974 231.252 164.679C231.212 165.109 231.883 165.106 231.923 164.679H231.923Z" fill="#E6E6E6"/>
<path d="M240.377 143.862C242.725 143.862 244.628 141.958 244.628 139.61C244.628 137.262 242.725 135.358 240.377 135.358C238.029 135.358 236.125 137.262 236.125 139.61C236.125 141.958 238.029 143.862 240.377 143.862Z" fill="#E6E6E6"/>
<path d="M231.073 164.277C227.817 159.196 225.418 153.614 223.971 147.756C223.569 146.125 223.243 144.478 222.991 142.815C222.977 142.729 222.929 142.652 222.859 142.601C222.789 142.549 222.702 142.527 222.615 142.538C222.529 142.55 222.451 142.594 222.397 142.663C222.343 142.731 222.317 142.818 222.326 142.904C223.245 148.958 225.153 154.819 227.974 160.254C228.762 161.77 229.619 163.249 230.544 164.69C230.777 165.053 231.305 164.638 231.073 164.277V164.277Z" fill="#E6E6E6"/>
<path d="M222.322 143.564C224.67 143.564 226.574 141.66 226.574 139.312C226.574 136.964 224.67 135.061 222.322 135.061C219.974 135.061 218.07 136.964 218.07 139.312C218.07 141.66 219.974 143.564 222.322 143.564Z" fill="#E6E6E6"/>
<path d="M197.063 102.97C197.342 102.547 197.525 102.068 197.599 101.566C197.673 101.064 197.636 100.552 197.491 100.067C197.346 99.5809 197.096 99.1328 196.758 98.7541C196.421 98.3753 196.005 98.0751 195.539 97.8746L196.433 85.5811L190.844 88.7103L190.852 99.9047C190.567 100.709 190.588 101.591 190.909 102.382C191.23 103.173 191.831 103.818 192.596 104.196C193.362 104.574 194.239 104.658 195.063 104.432C195.886 104.206 196.598 103.686 197.063 102.97V102.97Z" fill="#FFB8B8"/>
<path d="M195.67 55.1813L197.198 94.3025L190.989 93.9576L189.609 52.911L190.919 52.2949C191.417 52.0604 191.965 51.953 192.515 51.9822C193.065 52.0114 193.599 52.1763 194.069 52.4622C194.54 52.748 194.932 53.146 195.212 53.6205C195.491 54.0949 195.648 54.6312 195.67 55.1813Z" fill="#F87C00"/>
<path d="M176.471 160.818L172.242 160.818L170.23 144.507L176.472 144.507L176.471 160.818Z" fill="#FFB8B8"/>
<path d="M169.221 159.609H177.376V164.744H164.086C164.086 164.07 164.219 163.402 164.477 162.779C164.735 162.156 165.113 161.59 165.59 161.113C166.067 160.637 166.633 160.258 167.256 160C167.879 159.742 168.547 159.609 169.221 159.609Z" fill="#2F2E41"/>
<path d="M211.653 155.763L207.815 157.54L199.137 143.584L204.8 140.962L211.653 155.763Z" fill="#FFB8B8"/>
<path d="M204.566 157.713L211.967 154.287L214.124 158.947L202.063 164.53C201.491 163.294 201.434 161.882 201.903 160.603C202.372 159.325 203.33 158.285 204.566 157.713Z" fill="#2F2E41"/>
<path d="M166.43 107.586L170.791 157.356L176.655 156.666L180.989 111.204L204.939 154.596L211.148 152.871C211.148 152.871 191.164 93.0955 189.612 88.0941C187.91 82.6113 174.435 80.5057 174.435 80.5057L173.918 79.9883C168.127 87.7828 165.808 97.8964 166.43 107.586Z" fill="#2F2E41"/>
<path d="M189.663 47.9768C194.342 47.9768 198.135 44.1839 198.135 39.505C198.135 34.8262 194.342 31.0332 189.663 31.0332C184.984 31.0332 181.191 34.8262 181.191 39.505C181.191 44.1839 184.984 47.9768 189.663 47.9768Z" fill="#FFB8B8"/>
<path d="M194.983 55.8513L189.095 86.5396C189.095 86.5396 180.147 84.7529 176.96 82.6005C175.698 81.7451 174.553 80.8621 173.587 80.0619C173.397 79.9066 173.218 79.7514 173.042 79.6031C171.448 78.2406 170.469 77.2265 170.469 77.2265C170.469 77.2265 170.979 74.7258 171.603 71.7663C172.3 68.4516 173.145 64.5573 173.576 62.9672C174.525 59.48 177.781 55.4167 180.32 52.6504C181.239 51.6472 182.414 50.913 183.718 50.5266C185.023 50.1401 186.408 50.1159 187.725 50.4566L192.32 51.6432C193.216 51.8743 193.99 52.4381 194.485 53.2199C194.979 54.0018 195.158 54.9427 194.983 55.8513Z" fill="#F87C00"/>
<path opacity="0.2" d="M180.744 69.2555C180.744 69.2555 177.578 75.8368 173.042 79.6034C171.448 78.2409 170.469 77.2268 170.469 77.2268C170.469 77.2268 170.979 74.7261 171.603 71.7666C175.405 69.7591 179.323 68.4933 180.744 69.2555Z" fill="black"/>
<path d="M186.357 57.2091C186.044 57.0496 185.717 56.9198 185.38 56.8212C184.693 56.6327 183.969 56.6179 183.274 56.778C182.579 56.9382 181.934 57.2683 181.398 57.7388L162.787 71.3714L147.984 76.3504L150.659 82.6767L172.726 77.2875L187.361 64.2811C187.865 63.7981 188.246 63.2021 188.474 62.5425C188.702 61.8829 188.77 61.1786 188.672 60.4877C188.573 59.7968 188.312 59.1391 187.91 58.5691C187.507 57.999 186.975 57.5328 186.357 57.2091Z" fill="#F87C00"/>
<path d="M190.165 47.899C191.37 46.0943 192.322 43.5917 190.994 41.8745C189.684 40.1795 187.099 40.4292 185.093 39.6792C182.297 38.6345 180.676 35.3506 181.182 32.4096C181.687 29.4686 184.048 27.0306 186.861 26.0331C189.673 25.0355 192.845 25.36 195.599 26.5087C198.989 27.9228 201.897 30.6583 203.117 34.1234C204.337 37.5886 203.685 41.7491 201.155 44.4125C198.442 47.268 194.185 48.029 190.247 47.9828" fill="#2F2E41"/>
<path d="M203.468 37.9096C203.813 39.8381 205.928 40.9334 207.873 41.1742C209.817 41.4149 211.828 41.1062 213.721 41.6119C217.058 42.5033 219.259 45.7125 220.47 48.947C221.682 52.1815 222.219 55.6725 223.793 58.7469C225.367 61.8214 228.418 64.5319 231.86 64.2443C231.186 65.9419 230.004 67.3901 228.477 68.3914C226.949 69.3926 225.15 69.8981 223.324 69.8389C221.498 69.7797 219.735 69.1587 218.276 68.0606C216.816 66.9624 215.731 65.4407 215.168 63.703C213.903 59.7995 215.355 55.1443 213.144 51.6879C211.92 49.7753 209.807 48.6502 207.77 47.6478C205.733 46.6453 203.594 45.6164 202.228 43.8027C200.862 41.9889 200.589 39.1244 202.273 37.6006" fill="#2F2E41"/>
<path d="M244.721 164.926H134.243C134.134 164.926 134.029 164.883 133.952 164.806C133.875 164.729 133.832 164.624 133.832 164.515C133.832 164.406 133.875 164.302 133.952 164.225C134.029 164.148 134.134 164.104 134.243 164.104H244.721C244.83 164.104 244.935 164.148 245.012 164.225C245.089 164.302 245.132 164.406 245.132 164.515C245.132 164.624 245.089 164.729 245.012 164.806C244.935 164.883 244.83 164.926 244.721 164.926Z" fill="#3F3D56"/>
<path d="M110.889 164.926H0.410703C0.301778 164.926 0.197311 164.883 0.12029 164.806C0.0432692 164.729 0 164.624 0 164.515C0 164.406 0.0432692 164.302 0.12029 164.225C0.197311 164.148 0.301778 164.104 0.410703 164.104H110.889C110.998 164.104 111.103 164.148 111.18 164.225C111.257 164.302 111.3 164.406 111.3 164.515C111.3 164.624 111.257 164.729 111.18 164.806C111.103 164.883 110.998 164.926 110.889 164.926Z" fill="#3F3D56"/>
<path d="M70.9883 160.438L75.0312 159.197L72.1697 143.014L66.2031 144.845L70.9883 160.438Z" fill="#A0616A"/>
<path d="M83.9766 160.559L71.2711 164.458L69.7646 159.549L77.5611 157.156C78.863 156.757 80.2704 156.891 81.4735 157.529C82.6766 158.167 83.577 159.257 83.9766 160.559Z" fill="#2F2E41"/>
<path d="M35.114 160.531H39.3428L41.3544 144.22L35.1133 144.22L35.114 160.531Z" fill="#A0616A"/>
<path d="M47.5 164.457L34.2096 164.458L34.2094 159.323L42.3649 159.322C43.7267 159.322 45.0328 159.863 45.9959 160.826C46.9589 161.789 47.4999 163.095 47.5 164.457Z" fill="#2F2E41"/>
<path d="M36.1903 106.351C35.8429 106.046 35.5665 105.669 35.3805 105.246C35.1946 104.823 35.1036 104.364 35.1141 103.903C35.1245 103.441 35.2361 102.987 35.441 102.573C35.6459 102.158 35.9391 101.794 36.3 101.506L39.5786 60.2197L46.2464 61.8856L40.9077 102.159C41.3523 102.797 41.5472 103.576 41.4556 104.349C41.364 105.121 40.9923 105.833 40.4108 106.35C39.8293 106.867 39.0785 107.152 38.3006 107.152C37.5228 107.152 36.7719 106.867 36.1903 106.351Z" fill="#A0616A"/>
<path d="M51.9601 44.552C56.6389 44.552 60.4319 40.759 60.4319 36.0802C60.4319 31.4014 56.6389 27.6084 51.9601 27.6084C47.2812 27.6084 43.4883 31.4014 43.4883 36.0802C43.4883 40.759 47.2812 44.552 51.9601 44.552Z" fill="#A0616A"/>
<path d="M40.3887 61.0389C38.3755 58.275 38.3135 54.4683 40.4821 51.8246C41.8974 50.0994 44.2648 48.7188 48.2173 48.7188C58.7524 48.7188 62.7485 57.0742 62.7485 57.0742C62.7485 57.0742 67.1078 65.0664 64.5649 72.332C62.0219 79.5976 62.0219 80.3241 62.0219 80.3241L45.311 78.871C45.311 78.871 48.1302 71.6666 40.3887 61.0389Z" fill="#8FBAAD"/>
<path d="M35.2344 68.2707L38.8344 56.4928C39.0755 55.7042 39.4869 54.9781 40.0394 54.366C40.592 53.7538 41.2723 53.2705 42.0322 52.9501C42.7921 52.6297 43.6131 52.4802 44.4371 52.512C45.2612 52.5438 46.0682 52.7563 46.8012 53.1343C48.0728 53.7929 49.0463 54.9104 49.5245 56.2602C50.0026 57.6101 49.9496 59.0912 49.376 60.4034L44.7993 70.8264L35.2344 68.2707Z" fill="#8FBAAD"/>
<path d="M61.6566 78.5078L75.8245 151.89L68.1956 154.07L49.6684 105.754L41.3129 155.16L33.3207 156.25C33.3207 156.25 29.815 90.8793 45.309 78.8711L61.6566 78.5078Z" fill="#2F2E41"/>
<path d="M80.6982 70.891C80.5754 71.0372 80.4644 71.1928 80.3661 71.3564L63.28 72.1848L59.99 62.1406L54.2773 64.8557L59.654 79.8157L80.785 75.6832C81.2816 76.2253 81.9314 76.6034 82.6481 76.7672C83.3647 76.931 84.1143 76.8727 84.797 76.6002C85.4798 76.3276 86.0634 75.8536 86.4702 75.2413C86.877 74.629 87.0877 73.9073 87.0744 73.1723C87.0611 72.4373 86.8243 71.7237 86.3956 71.1265C85.9668 70.5294 85.3664 70.0769 84.6743 69.8292C83.9821 69.5816 83.2309 69.5505 82.5207 69.7402C81.8104 69.9299 81.1747 70.3312 80.6982 70.891V70.891Z" fill="#A0616A"/>
<path d="M51.7027 58.1291C51.6063 57.3101 51.691 56.4799 51.9507 55.6971C52.2105 54.9144 52.6391 54.1983 53.206 53.5995C53.773 53.0006 54.4646 52.5336 55.232 52.2314C55.9993 51.9293 56.8237 51.7993 57.6468 51.8508C59.0759 51.9426 60.4166 52.5743 61.3971 53.6181C62.3776 54.6618 62.9245 56.0393 62.9269 57.4714V68.8547L53.1416 70.3603L51.7027 58.1291Z" fill="#8FBAAD"/>
<path d="M53.8227 44.6285C52.5512 44.623 51.5703 43.2843 51.6273 42.014C51.6843 40.7437 52.5374 39.6261 53.5653 38.8776C54.5932 38.1291 55.7987 37.6732 56.9449 37.1228C58.0912 36.5725 59.2275 35.886 59.9352 34.8297C60.3627 34.1383 60.618 33.3543 60.6794 32.5437C60.7408 31.7331 60.6066 30.9196 60.2882 30.1716C59.6296 28.6757 58.4987 27.4369 57.0689 26.645C54.9413 25.4117 52.4308 25.0147 50.0266 25.5316C47.6505 26.0528 44.1095 27.496 42.7174 29.4908L41.2659 33.4429C39.7869 35.2214 40.932 37.8626 41.8412 39.9896C42.7504 42.1165 44.6862 43.7168 46.8707 44.4776C49.0869 45.1898 51.4594 45.2609 53.7144 44.6828" fill="#2F2E41"/>
<path d="M46.0778 31.466C45.4539 30.4659 44.3724 29.8299 43.2543 29.4566C41.959 29.0242 40.5814 28.8966 39.2287 29.0837C37.876 29.2708 36.5848 29.7676 35.4555 30.5354C34.3263 31.3032 33.3894 32.3212 32.718 33.5103C32.0466 34.6994 31.6587 36.0274 31.5845 37.391C31.466 39.569 32.148 41.6988 32.5487 43.8429C32.9495 45.987 33.0292 48.3551 31.847 50.1882C30.9465 51.5844 29.4449 52.4635 27.9628 53.2141C26.7275 53.8397 25.3913 54.4268 24.0123 54.3022C22.6332 54.1775 21.2472 53.0852 21.2838 51.701C20.8221 52.6935 20.5104 53.749 20.3588 54.8331C20.2618 55.9217 20.5301 57.0963 21.3163 57.8553C22.4591 58.9586 24.2698 58.8779 25.8403 58.6398C29.2403 58.1245 32.6831 57.1582 35.3692 55.0111C38.0552 52.8639 39.8376 49.3284 39.1302 45.9632C38.8347 44.5574 38.1403 43.2741 37.5792 41.9518C37.018 40.6294 36.5799 39.183 36.8377 37.7699C36.9903 37.0418 37.3008 36.3561 37.7474 35.7612C38.1939 35.1663 38.7656 34.6767 39.4221 34.3269C40.7497 33.6365 42.2689 33.4062 43.7415 33.6718C44.707 33.8303 45.9125 34.0763 46.4852 33.283C46.6369 33.0317 46.7144 32.7425 46.7087 32.449C46.703 32.1555 46.6143 31.8696 46.4528 31.6243C46.1225 31.1393 45.7017 30.7224 45.2137 30.3965" fill="#2F2E41"/>
<path d="M159.56 39.6007C167.683 39.6007 174.268 32.6825 174.268 24.1485C174.268 15.6145 167.683 8.69629 159.56 8.69629C151.437 8.69629 144.852 15.6145 144.852 24.1485C144.852 32.6825 151.437 39.6007 159.56 39.6007Z" fill="#33515B"/>
<g opacity="0.4">
<path opacity="0.4" d="M159.56 39.5988C167.683 39.5988 174.268 32.6806 174.268 24.1466C174.268 15.6125 167.683 8.69434 159.56 8.69434C151.437 8.69434 144.852 15.6125 144.852 24.1466C144.852 32.6806 151.437 39.5988 159.56 39.5988Z" fill="#33515B"/>
</g>
<path d="M173.06 23.4538C173.433 14.9288 167.157 7.70042 159.043 7.30883C150.928 6.91724 144.048 13.5107 143.675 22.0357C143.302 30.5608 149.578 37.7891 157.693 38.1807C165.807 38.5723 172.688 31.9789 173.06 23.4538Z" fill="#F87C00"/>
<g opacity="0.2">
<path opacity="0.2" d="M161.491 33.5832C167.403 31.6627 170.751 25.1944 168.968 19.136C167.186 13.0776 160.947 9.72317 155.034 11.6437C149.121 13.5642 145.773 20.0324 147.556 26.0908C149.339 32.1493 155.578 35.5037 161.491 33.5832Z" fill="white"/>
</g>
<g opacity="0.4">
<path opacity="0.4" d="M161.476 33.0129C158.692 33.9174 155.681 33.6458 153.084 32.2558C150.486 30.8658 148.507 28.4669 147.566 25.5686C147.596 25.6776 147.621 25.7841 147.653 25.8931C148.552 28.8475 150.526 31.3095 153.144 32.7437C155.762 34.1779 158.813 34.4684 161.633 33.5521C164.454 32.6358 166.817 30.5868 168.207 27.8504C169.598 25.1141 169.904 21.9117 169.059 18.9395C169.027 18.833 168.99 18.7266 168.955 18.6201C169.736 21.5699 169.392 24.7234 167.996 27.4109C166.599 30.0983 164.26 32.108 161.476 33.0129Z" fill="#F87C00"/>
</g>
<g opacity="0.3">
<path opacity="0.3" d="M155.048 11.6881C157.832 10.7832 160.843 11.0549 163.44 12.4456C166.037 13.8362 168.016 16.2361 168.955 19.1351C168.928 19.0287 168.901 18.9196 168.869 18.8132C168.434 17.3367 167.727 15.9646 166.787 14.7752C165.848 13.5859 164.695 12.6025 163.394 11.8814C162.093 11.1602 160.669 10.7153 159.205 10.5721C157.74 10.4289 156.263 10.5902 154.857 11.0468C153.452 11.5034 152.146 12.2463 151.014 13.2331C149.882 14.22 148.946 15.4314 148.259 16.7983C147.573 18.1652 147.149 19.6607 147.013 21.1995C146.877 22.7384 147.03 24.2903 147.465 25.7668C147.497 25.8732 147.532 25.9797 147.566 26.0836C146.784 23.1331 147.129 19.9786 148.526 17.2905C149.923 14.6024 152.262 12.5926 155.048 11.6881Z" fill="black"/>
</g>
<path d="M164.785 24.0124C164.321 22.4336 163.302 21.6417 162.123 21.569C162.736 20.8186 162.971 19.7358 162.603 18.4842C162.146 16.9263 160.999 16.098 159.333 16.2356L158.77 14.3193L157.084 14.8672L157.608 16.6485L156.651 16.9601L156.127 15.1788L154.442 15.7033L154.968 17.4846L153.433 17.9831L152.363 18.331L152.885 20.1175L153.953 19.7696L156.491 28.3668L155.309 28.7511L155.831 30.522L157.012 30.1377L158.547 29.6391L159.158 31.7164L160.841 31.1685L160.233 29.0913L161.187 28.7823L161.797 30.8595L163.483 30.3117L162.848 28.1669C164.667 27.2685 165.314 25.7988 164.785 24.0124ZM156.088 19.0789L158.369 18.3362C159.635 17.926 160.517 18.248 160.841 19.3749C161.165 20.5018 160.613 21.273 159.358 21.6832L156.77 22.5245L155.781 19.1749L156.088 19.0789ZM161.278 26.8244L158.52 27.7203L158.325 27.7852L157.284 24.272L160.25 23.3113C161.627 22.8647 162.531 23.1607 162.89 24.3759C163.248 25.5911 162.647 26.3675 161.268 26.8141L161.278 26.8244Z" fill="#F87C00"/>
<path d="M164.785 24.0124C164.321 22.4336 163.302 21.6417 162.123 21.569C162.736 20.8186 162.971 19.7358 162.603 18.4842C162.146 16.9263 160.999 16.098 159.333 16.2356L158.77 14.3193L157.084 14.8672L157.608 16.6485L156.651 16.9601L156.127 15.1788L154.442 15.7033L154.968 17.4846L153.433 17.9831L152.363 18.331L152.885 20.1175L153.953 19.7696L156.491 28.3668L155.309 28.7511L155.831 30.522L157.012 30.1377L158.547 29.6391L159.158 31.7164L160.841 31.1685L160.233 29.0913L161.187 28.7823L161.797 30.8595L163.483 30.3117L162.848 28.1669C164.667 27.2685 165.314 25.7988 164.785 24.0124ZM156.088 19.0789L158.369 18.3362C159.635 17.926 160.517 18.248 160.841 19.3749C161.165 20.5018 160.613 21.273 159.358 21.6832L156.77 22.5245L155.781 19.1749L156.088 19.0789ZM161.278 26.8244L158.52 27.7203L158.325 27.7852L157.284 24.272L160.25 23.3113C161.627 22.8647 162.531 23.1607 162.89 24.3759C163.248 25.5911 162.647 26.3675 161.268 26.8141L161.278 26.8244Z" fill="#33515B"/>
<path d="M163.97 24.2724C163.506 22.6937 162.487 21.9044 161.308 21.8291C161.921 21.0787 162.156 19.9959 161.788 18.7469C161.331 17.189 160.184 16.3607 158.518 16.4983L157.952 14.582L156.269 15.1273L156.793 16.9086L155.836 17.2202L155.312 15.4441L153.627 15.992L154.151 17.7732L152.618 18.2718L151.551 18.6041L152.07 20.3776L153.138 20.0296L155.671 28.6373L154.489 29.0216L155.011 30.7899L156.192 30.4056L157.727 29.907L158.338 31.9843L160.021 31.439L159.41 29.3617L160.367 29.0501L160.977 31.1274L162.663 30.5795L162.033 28.427C163.849 27.5363 164.499 26.0641 163.97 24.2724ZM155.273 19.339L157.554 18.5989C158.82 18.1861 159.702 18.5106 160.026 19.6376C160.35 20.7645 159.798 21.5357 158.543 21.9459L155.955 22.7872L154.966 19.4402L155.273 19.339ZM160.463 27.0871L157.705 27.983L157.51 28.0453L156.469 24.5321L159.435 23.574C160.812 23.1248 161.716 23.4208 162.072 24.636C162.428 25.8512 161.832 26.6327 160.448 27.0819L160.463 27.0871Z" fill="#F87C00"/>
<path d="M170.118 13.4186C170.089 13.442 169.703 12.8993 168.883 12.0294C167.445 10.5134 165.723 9.32751 163.826 8.54668C161.93 7.76585 159.9 7.40713 157.864 7.49321C156.432 7.54864 155.016 7.82781 153.663 8.32152C152.95 8.58092 152.258 8.89778 151.592 9.26927C150.213 10.0353 148.961 11.0295 147.884 12.2138C147.362 12.7868 146.883 13.4015 146.451 14.0522C146.033 14.6799 145.662 15.3405 145.341 16.0282C145.031 16.6869 144.768 17.3691 144.555 18.0691C144.154 19.3628 143.917 20.7064 143.851 22.0652C143.713 24.9863 144.36 27.8892 145.719 30.4418C146.29 31.5089 146.688 32.0464 146.656 32.0698C146.54 31.9578 146.438 31.8313 146.352 31.6933C146.253 31.5661 146.139 31.4077 146.013 31.2103C145.887 31.013 145.736 30.7897 145.591 30.5222C144.728 29.0234 144.121 27.3774 143.799 25.6589C143.578 24.4705 143.488 23.2596 143.529 22.0496C143.584 20.6587 143.815 19.2816 144.216 17.9548C144.43 17.2361 144.695 16.5356 145.01 15.8594C145.336 15.1521 145.713 14.4723 146.139 13.8263C146.58 13.1572 147.071 12.5252 147.605 11.936C148.707 10.7182 149.991 9.69734 151.406 8.91354C152.091 8.53133 152.803 8.20745 153.537 7.94502C154.924 7.44735 156.374 7.16907 157.84 7.11931C160.325 7.03039 162.791 7.60481 165.007 8.78891C166.494 9.57969 167.838 10.6387 168.976 11.9178C169.182 12.1385 169.347 12.3514 169.491 12.5332C169.634 12.7149 169.755 12.8733 169.844 13.0057C169.951 13.1308 170.044 13.2695 170.118 13.4186Z" fill="#FAFAFA"/>
<path d="M155.311 15.4446C155.33 15.5121 154.683 15.7847 153.672 16.1509L153.778 15.9431C153.946 16.4624 154.137 17.0545 154.334 17.714L154.391 17.9061L154.206 17.9659L153.754 18.1139C152.958 18.3735 152.214 18.602 151.593 18.7786L151.7 18.5683C151.981 19.6484 152.132 20.3677 152.068 20.3859C152.004 20.4041 151.742 19.7237 151.393 18.6669L151.344 18.5111L151.499 18.4566C152.105 18.2359 152.842 17.984 153.64 17.7244L154.095 17.579L153.966 17.8386C153.776 17.1765 153.608 16.5637 153.472 16.047L153.427 15.8782L153.576 15.8367C154.611 15.5225 155.291 15.3641 155.311 15.4446Z" fill="#FAFAFA"/>
<path d="M158.312 14.4894C158.344 14.5958 157.914 14.8321 157.35 15.0087C156.787 15.1853 156.307 15.2528 156.275 15.1463C156.243 15.0399 156.675 14.8036 157.237 14.627C157.798 14.4504 158.282 14.3829 158.312 14.4894Z" fill="#FAFAFA"/>
<path d="M155.544 28.5386C155.443 28.5724 154.803 26.708 154.118 24.3841C153.434 22.0602 152.959 20.1387 153.061 20.1049C153.162 20.0712 153.802 21.9225 154.487 24.2595C155.171 26.5964 155.646 28.5049 155.544 28.5386Z" fill="#FAFAFA"/>
<path d="M159.396 21.6763C159.428 21.7827 158.723 22.1047 157.826 22.3981C156.929 22.6915 156.178 22.8395 156.146 22.7305C156.113 22.6214 156.815 22.302 157.713 22.0086C158.61 21.7152 159.364 21.575 159.396 21.6763Z" fill="#FAFAFA"/>
<path d="M161.005 26.9147C161.037 27.0211 160.335 27.3431 159.438 27.6365C158.541 27.9299 157.787 28.078 157.755 27.9689C157.723 27.8598 158.425 27.5405 159.322 27.247C160.219 26.9536 160.973 26.8082 161.005 26.9147Z" fill="#FAFAFA"/>
<path d="M159.525 39.5923C159.073 39.1882 158.679 38.7177 158.355 38.1953C158.807 38.5994 159.201 39.0699 159.525 39.5923Z" fill="#263238"/>
<path d="M157.001 39.3174C156.566 38.9315 156.188 38.48 155.879 37.9775C156.11 38.1541 156.316 38.3649 156.489 38.6033C156.692 38.8137 156.865 39.0543 157.001 39.3174Z" fill="#263238"/>
<path d="M154.61 38.6933C154.379 38.5181 154.174 38.3071 154.002 38.0676C153.799 37.8571 153.626 37.6166 153.488 37.3535C153.721 37.5284 153.927 37.7394 154.099 37.9793C154.302 38.1896 154.474 38.4302 154.61 38.6933Z" fill="#263238"/>
<path d="M162.099 39.3794C161.859 39.1941 161.646 38.9737 161.466 38.725C161.254 38.5063 161.073 38.2561 160.93 37.9824C161.17 38.1669 161.383 38.3874 161.562 38.6368C161.774 38.8561 161.955 39.1062 162.099 39.3794Z" fill="#263238"/>
<path d="M164.402 38.7433C164.161 38.5593 163.947 38.3388 163.767 38.089C163.555 37.8687 163.374 37.6178 163.23 37.3438C163.681 37.7504 164.076 38.2216 164.402 38.7433Z" fill="#263238"/>
<path d="M166.571 37.7261C166.331 37.5415 166.118 37.3211 165.939 37.0717C165.727 36.8524 165.546 36.6023 165.402 36.3291C165.642 36.5144 165.855 36.7348 166.035 36.9834C166.247 37.2022 166.428 37.4524 166.571 37.7261Z" fill="#263238"/>
<path d="M168.505 36.4767C168.267 36.2896 168.054 36.0695 167.872 35.8224C167.66 35.603 167.479 35.3519 167.336 35.0771C167.575 35.2626 167.788 35.4829 167.969 35.7315C168.181 35.9509 168.362 36.202 168.505 36.4767Z" fill="#263238"/>
<path d="M170.257 34.8087C170.017 34.6238 169.803 34.4034 169.622 34.1544C169.41 33.935 169.229 33.6839 169.086 33.4092C169.325 33.5947 169.538 33.815 169.719 34.0635C169.931 34.2841 170.112 34.535 170.257 34.8087Z" fill="#263238"/>
<path d="M171.699 32.9298C171.46 32.7443 171.246 32.524 171.066 32.2755C170.854 32.0549 170.673 31.804 170.527 31.5303C170.768 31.7152 170.982 31.9356 171.163 32.1846C171.375 32.404 171.556 32.6551 171.699 32.9298Z" fill="#263238"/>
<path d="M172.761 31.0552C172.521 30.8714 172.307 30.6509 172.129 30.4008C171.918 30.1802 171.736 29.9304 171.59 29.6582C171.831 29.8422 172.045 30.0627 172.225 30.3125C172.437 30.5319 172.617 30.782 172.761 31.0552Z" fill="#263238"/>
<path d="M173.646 28.9458C173.406 28.7605 173.193 28.5401 173.013 28.2915C172.801 28.0721 172.621 27.822 172.477 27.5488C172.717 27.7334 172.93 27.9538 173.109 28.2032C173.322 28.4219 173.502 28.6721 173.646 28.9458Z" fill="#263238"/>
<path d="M174.251 26.6557C174.012 26.4704 173.798 26.2501 173.618 26.0014C173.407 25.7821 173.226 25.532 173.082 25.2588C173.322 25.4433 173.535 25.6638 173.715 25.9131C173.926 26.1325 174.107 26.3826 174.251 26.6557Z" fill="#263238"/>
<path d="M174.449 24.1867C174.21 24.0011 173.996 23.7808 173.816 23.5323C173.604 23.3117 173.423 23.0608 173.277 22.7871C173.517 22.973 173.731 23.1932 173.913 23.4414C174.124 23.6617 174.305 23.9126 174.449 24.1867Z" fill="#263238"/>
<path d="M174.263 21.651C173.981 21.4158 173.726 21.1455 173.505 20.846C173.251 20.5753 173.028 20.2747 172.84 19.9502C173.122 20.1866 173.378 20.4567 173.601 20.7551C173.855 21.0251 174.077 21.3258 174.263 21.651Z" fill="#263238"/>
<path d="M173.256 18.2379C172.973 18.0018 172.719 17.7317 172.497 17.4329C172.243 17.1622 172.02 16.8616 171.832 16.5371C172.115 16.7735 172.37 17.0436 172.593 17.342C172.848 17.6114 173.07 17.9122 173.256 18.2379Z" fill="#263238"/>
<g opacity="0.2">
<path opacity="0.2" d="M148.104 19.8091L159.562 16.0752L161.68 17.602H161.692H161.707L165.167 16.4491L166.097 16.1349L166.344 16.0519L166.391 16.0337C166.395 16.0487 166.402 16.0628 166.411 16.0752C166.446 16.1263 166.495 16.1646 166.552 16.1845C166.609 16.2045 166.671 16.2052 166.728 16.1866C166.785 16.168 166.835 16.1309 166.872 16.0806C166.908 16.0304 166.928 15.9695 166.93 15.9064C166.933 15.8553 166.923 15.8041 166.901 15.7585C166.878 15.7128 166.845 15.6742 166.804 15.6468C166.752 15.6121 166.689 15.5991 166.628 15.6104C166.586 15.6104 166.569 15.6364 166.569 15.6416C166.569 15.6468 166.665 15.6416 166.762 15.7091C166.787 15.7312 166.807 15.7596 166.82 15.7917C166.833 15.8238 166.839 15.8587 166.836 15.8935C166.833 15.9349 166.818 15.9744 166.793 16.0069C166.768 16.0394 166.735 16.0633 166.697 16.0756C166.659 16.0879 166.619 16.0881 166.581 16.0759C166.543 16.0638 166.51 16.0401 166.485 16.0077C166.464 15.9805 166.449 15.9483 166.443 15.9139C166.437 15.8795 166.438 15.844 166.448 15.8104C166.485 15.6857 166.579 15.6572 166.569 15.6416C166.559 15.626 166.544 15.6416 166.505 15.6416C166.449 15.6689 166.405 15.717 166.381 15.7766C166.365 15.8138 166.357 15.854 166.357 15.8948C166.357 15.9355 166.365 15.9758 166.381 16.0129H166.337L166.089 16.0882L165.155 16.3842L161.695 17.4981L159.594 15.961L159.579 15.948H159.56L148.087 19.7078L143.754 21.1152C143.754 21.1541 143.754 21.1905 143.754 21.2268L148.104 19.8091Z" fill="white"/>
<path opacity="0.2" d="M165.886 12.9502L168.11 14.5315H168.127H168.147L170.354 13.7967L170.32 13.7474L168.142 14.438L165.918 12.8438H165.898H165.873L164.433 13.3111L159.114 15.0586L157.5 15.6013L157.062 15.7545C157.011 15.7688 156.961 15.7888 156.914 15.8142C156.967 15.8049 157.019 15.7919 157.07 15.7753L157.512 15.6403L159.134 15.1209L164.477 13.402L165.886 12.9502Z" fill="white"/>
<path opacity="0.2" d="M155.427 22.3523L156.663 22.612H156.678L158.571 22.0096L159.065 21.8434H159.1C159.11 21.8714 159.128 21.8958 159.151 21.9135C159.173 21.9312 159.201 21.9414 159.229 21.9429C159.258 21.9444 159.286 21.9372 159.311 21.922C159.335 21.9069 159.355 21.8845 159.368 21.8577C159.38 21.8309 159.385 21.8008 159.381 21.7711C159.378 21.7414 159.366 21.7134 159.348 21.6907C159.329 21.6679 159.305 21.6513 159.278 21.6429C159.25 21.6345 159.221 21.6347 159.194 21.6434C159.159 21.656 159.129 21.6817 159.111 21.7157C159.093 21.7498 159.087 21.7897 159.095 21.8278H159.061L158.566 21.9758L156.673 22.5471L155.437 22.2874H155.42L147.368 24.884L144.548 25.8006L143.93 25.6344C143.93 25.6707 143.93 25.7071 143.949 25.7434L144.535 25.9044H144.55H144.562L147.397 24.9852L155.427 22.3523Z" fill="white"/>
<path opacity="0.2" d="M156.328 21.3533L155.179 21.2391L154.502 21.4624C154.371 21.0054 154.255 20.5691 154.131 20.1641L154.119 20.1173L154.077 20.1329L150.96 21.1819L150.097 21.4831L150.001 21.5169C149.988 21.4813 149.963 21.4523 149.93 21.4358C149.897 21.4194 149.86 21.4168 149.826 21.4286C149.807 21.4346 149.79 21.4443 149.775 21.4572C149.761 21.4701 149.748 21.4859 149.74 21.5037C149.731 21.5216 149.725 21.5411 149.723 21.5612C149.722 21.5812 149.724 21.6015 149.729 21.6208C149.735 21.64 149.744 21.6579 149.756 21.6734C149.769 21.689 149.784 21.7018 149.801 21.7112C149.818 21.7206 149.836 21.7264 149.855 21.7282C149.874 21.7301 149.894 21.728 149.912 21.722C149.948 21.7111 149.978 21.686 149.996 21.6519C150.014 21.6179 150.018 21.5778 150.008 21.5403L150.105 21.5091L150.977 21.2313L154.04 20.229C154.157 20.6444 154.278 21.0824 154.403 21.5429L154.418 21.5922L154.462 21.5766L155.179 21.3429L156.328 21.4598L157.648 21.0339L163.58 19.0891L164.83 19.4916H164.848L165.96 19.1177L166.254 19.0138H166.269C166.304 19.0644 166.354 19.1022 166.411 19.1218C166.468 19.1415 166.529 19.1421 166.587 19.1236C166.644 19.105 166.694 19.0683 166.731 19.0184C166.767 18.9685 166.788 18.9079 166.79 18.845C166.793 18.7937 166.782 18.7426 166.759 18.697C166.737 18.6514 166.703 18.6128 166.662 18.5854C166.61 18.5498 166.547 18.5359 166.486 18.5464C166.444 18.5464 166.427 18.5724 166.43 18.5776C166.432 18.5828 166.523 18.5776 166.62 18.6451C166.646 18.6676 166.666 18.6964 166.68 18.7289C166.693 18.7614 166.699 18.7967 166.696 18.832C166.693 18.8735 166.678 18.913 166.654 18.9455C166.629 18.978 166.596 19.0019 166.558 19.0142C166.52 19.0265 166.48 19.0266 166.442 19.0145C166.404 19.0024 166.37 18.9786 166.345 18.9463C166.325 18.9189 166.31 18.8868 166.304 18.8525C166.297 18.8183 166.298 18.7828 166.306 18.749C166.343 18.6243 166.437 18.5932 166.43 18.5776C166.422 18.562 166.402 18.5776 166.365 18.5776C166.309 18.6043 166.264 18.6525 166.239 18.7126C166.223 18.7547 166.217 18.8001 166.221 18.8452C166.225 18.8903 166.239 18.9339 166.261 18.9723H166.249L165.953 19.0605L164.84 19.4059L163.59 18.9852H163.577L157.621 20.9041L156.328 21.3533Z" fill="white"/>
<path opacity="0.2" d="M152.208 34.1374C152.156 34.1027 152.093 34.0897 152.032 34.101C151.99 34.101 151.973 34.127 151.976 34.1322C151.978 34.1374 152.07 34.1192 152.166 34.1997C152.192 34.2223 152.212 34.251 152.226 34.2835C152.239 34.316 152.245 34.3514 152.243 34.3867C152.239 34.4278 152.224 34.4669 152.199 34.4992C152.174 34.5314 152.142 34.5555 152.104 34.5684C152.066 34.5801 152.026 34.58 151.988 34.568C151.951 34.556 151.917 34.5327 151.892 34.5009C151.871 34.473 151.857 34.4404 151.85 34.4058C151.843 34.3711 151.844 34.3353 151.852 34.301C151.889 34.1789 151.983 34.1478 151.976 34.1322C151.968 34.1166 151.948 34.1322 151.911 34.1322C151.855 34.159 151.81 34.2072 151.785 34.2672C151.767 34.3131 151.76 34.3632 151.765 34.4128C151.77 34.4624 151.787 34.5097 151.815 34.5502C151.851 34.6009 151.9 34.6386 151.957 34.6583C152.014 34.6779 152.075 34.6785 152.133 34.66C152.19 34.6415 152.24 34.6047 152.277 34.5548C152.313 34.5049 152.334 34.4444 152.336 34.3815H152.378L152.591 34.3191L153.384 34.0777L156.162 33.1948H156.187V33.1663C156.33 32.5483 156.486 31.868 156.647 31.1773V31.1643V31.1487L156.4 30.3256C156.044 29.1234 155.708 27.9887 155.423 27.028V27.0072H155.404L153.866 26.3477H153.844L152.549 26.7865L152.203 26.9085L152.156 26.9267C152.136 26.8628 152.096 26.8079 152.042 26.7709C151.99 26.7362 151.928 26.7232 151.867 26.7345C151.825 26.7345 151.808 26.7605 151.81 26.7657C151.812 26.7709 151.906 26.7657 152 26.8332C152.026 26.8558 152.047 26.8845 152.06 26.917C152.073 26.9495 152.079 26.9849 152.077 27.0202C152.073 27.0613 152.058 27.1004 152.033 27.1327C152.009 27.165 151.976 27.189 151.939 27.2019C151.901 27.2136 151.86 27.2135 151.823 27.2015C151.785 27.1895 151.751 27.1662 151.726 27.1344C151.705 27.1065 151.691 27.074 151.684 27.0393C151.677 27.0046 151.678 26.9688 151.686 26.9345C151.724 26.8124 151.817 26.7813 151.81 26.7657C151.803 26.7501 151.785 26.7657 151.746 26.7657C151.689 26.7925 151.644 26.8407 151.62 26.9007C151.601 26.9466 151.594 26.9968 151.599 27.0463C151.605 27.0959 151.622 27.1432 151.649 27.1838C151.685 27.2344 151.735 27.2721 151.792 27.2918C151.848 27.3114 151.91 27.312 151.967 27.2935C152.024 27.275 152.075 27.2382 152.111 27.1883C152.148 27.1384 152.169 27.0779 152.171 27.015C152.175 26.9883 152.175 26.9612 152.171 26.9345H152.218L152.571 26.828L153.861 26.4256L155.362 27.0721C155.643 28.0354 155.97 29.1494 156.318 30.3516L156.565 31.1617L156.105 33.0988L153.365 34.0102L152.581 34.2698L152.374 34.3451L152.334 34.3607C152.331 34.3157 152.318 34.2719 152.297 34.2331C152.275 34.1943 152.244 34.1615 152.208 34.1374Z" fill="white"/>
<path opacity="0.2" d="M166.467 26.5172C166.502 26.5057 166.532 26.4806 166.55 26.4468C166.569 26.4131 166.574 26.3733 166.565 26.3354L166.978 26.2108L168.498 25.733L169.843 23.9751L173.056 22.9365C173.056 22.8976 173.056 22.8612 173.056 22.8223L169.835 23.8765H169.821L168.488 25.6525L166.988 26.1563L166.58 26.2991C166.567 26.2625 166.541 26.2326 166.508 26.2153C166.474 26.198 166.436 26.1945 166.4 26.2056C166.382 26.2115 166.364 26.2212 166.35 26.2341C166.335 26.247 166.323 26.2628 166.314 26.2806C166.305 26.2985 166.299 26.318 166.297 26.3381C166.296 26.3582 166.298 26.3785 166.304 26.3978C166.311 26.436 166.332 26.4697 166.362 26.492C166.393 26.5143 166.43 26.5233 166.467 26.5172Z" fill="white"/>
<path opacity="0.2" d="M160.906 37.906C160.891 37.8541 160.876 37.7892 160.854 37.7087L160.606 36.8051C160.394 36.0443 160.09 34.9875 159.749 33.8372C159.643 33.4737 159.539 33.1231 159.44 32.7986V32.7778H159.423L157.48 31.7054C157.393 31.4302 157.322 31.2043 157.265 31.0303C157.228 30.9135 157.201 30.8382 157.188 30.807C157.206 30.8096 157.225 30.8096 157.243 30.807C157.279 30.7984 157.311 30.7761 157.332 30.7443C157.354 30.7126 157.363 30.6736 157.359 30.6349C157.355 30.5962 157.337 30.5604 157.31 30.5345C157.282 30.5085 157.246 30.4941 157.209 30.4941C157.172 30.4941 157.136 30.5085 157.109 30.5345C157.081 30.5604 157.064 30.5962 157.06 30.6349C157.055 30.6736 157.065 30.7126 157.086 30.7443C157.108 30.7761 157.14 30.7984 157.176 30.807C157.176 30.8408 157.201 30.9186 157.233 31.0433C157.282 31.2224 157.347 31.4561 157.423 31.7418H157.436L159.351 32.8245L159.652 33.8632C159.994 35.0212 160.307 36.0651 160.537 36.8233C160.653 37.1868 160.747 37.488 160.819 37.7165C160.844 37.7944 160.866 37.8593 160.883 37.9086C160.851 37.9224 160.824 37.947 160.807 37.9787L161.034 37.9372C161.016 37.9218 160.996 37.9109 160.973 37.9055C160.951 37.9001 160.928 37.9003 160.906 37.906Z" fill="white"/>
<path opacity="0.2" d="M149.838 17.0347C149.846 17.0645 149.863 17.0909 149.886 17.1107C149.908 17.1305 149.936 17.1427 149.966 17.1458C149.995 17.1489 150.025 17.1427 150.051 17.128C150.076 17.1133 150.098 17.0908 150.111 17.0634C150.125 17.036 150.131 17.0049 150.128 16.974C150.125 16.9432 150.113 16.9141 150.094 16.8904C150.075 16.8667 150.049 16.8495 150.021 16.8409C149.993 16.8324 149.963 16.833 149.934 16.8426C149.898 16.8551 149.867 16.8822 149.849 16.9181C149.831 16.954 149.827 16.9958 149.838 17.0347Z" fill="white"/>
<path opacity="0.2" d="M163.963 28.3005L164.245 28.207L164.295 28.1889C164.293 28.1992 164.293 28.2097 164.295 28.22C164.3 28.2604 164.32 28.2972 164.35 28.3229C164.38 28.3486 164.418 28.3614 164.457 28.3586C164.496 28.3558 164.532 28.3376 164.558 28.3078C164.585 28.278 164.6 28.2387 164.6 28.198C164.6 28.1572 164.585 28.1179 164.558 28.0881C164.532 28.0583 164.496 28.0402 164.457 28.0373C164.418 28.0345 164.38 28.0473 164.35 28.073C164.32 28.0987 164.3 28.1355 164.295 28.1759H164.243L163.956 28.2538L162.898 28.555L159.349 29.5936C159.218 29.1834 159.082 28.7575 158.941 28.3213L158.83 27.9708C159.181 27.345 159.52 26.7478 159.819 26.1999V26.1817V26.1609C159.675 25.6858 159.542 25.2366 159.421 24.8315V24.8133H159.406L158.912 24.5381H158.897H158.882L157.283 25.0782L156.848 25.2314L156.793 25.2495C156.776 25.1829 156.735 25.1255 156.68 25.0886C156.628 25.0539 156.565 25.0409 156.504 25.0522C156.462 25.0522 156.445 25.0782 156.445 25.0834C156.445 25.0886 156.541 25.0834 156.638 25.1509C156.676 25.1842 156.702 25.2314 156.709 25.2833H156.697C156.697 25.2833 156.697 25.2833 156.712 25.2833C156.713 25.2989 156.713 25.3145 156.712 25.33C156.709 25.3715 156.694 25.4111 156.67 25.4435C156.645 25.476 156.611 25.4998 156.574 25.5118C156.535 25.5236 156.495 25.5232 156.457 25.5107C156.419 25.4982 156.386 25.4742 156.361 25.4417C156.34 25.4144 156.326 25.3822 156.319 25.3478C156.313 25.3135 156.314 25.2779 156.324 25.2444C156.361 25.1223 156.455 25.0912 156.445 25.0756C156.435 25.06 156.42 25.0756 156.381 25.0756C156.325 25.1029 156.281 25.151 156.257 25.2106C156.238 25.2564 156.231 25.3066 156.236 25.3563C156.241 25.4059 156.259 25.4533 156.287 25.4936C156.322 25.5447 156.371 25.583 156.428 25.6029C156.485 25.6229 156.547 25.6236 156.604 25.605C156.661 25.5864 156.712 25.5493 156.748 25.499C156.784 25.4488 156.804 25.3879 156.806 25.3248C156.81 25.3008 156.81 25.2762 156.806 25.2521L156.86 25.2366L157.303 25.1041L158.897 24.6056L159.366 24.8653C159.483 25.2625 159.614 25.6988 159.742 26.1635L158.736 27.9318V27.9526V27.9759C158.773 28.0954 158.815 28.2356 158.855 28.3525C159.001 28.8043 159.144 29.2431 159.28 29.6689L159.295 29.7183L159.342 29.7027L162.916 28.6329L163.963 28.3005Z" fill="white"/>
<path opacity="0.2" d="M161.719 28.2885C161.447 27.3173 161.163 26.2943 160.874 25.2583C160.832 25.1155 160.792 24.9726 160.752 24.8298V24.8091H160.733L159.101 23.8535H159.084H159.062L150.671 26.5851L146.188 31.3784C146.202 31.3972 146.215 31.4172 146.227 31.4381L150.725 26.6604L159.089 23.9496L160.683 24.8818C160.72 25.0194 160.76 25.1414 160.797 25.2894C161.093 26.3462 161.383 27.3849 161.659 28.3716L161.674 28.4235L161.721 28.4079L172.962 24.887C172.962 24.8584 172.962 24.8298 172.962 24.8013L161.719 28.2885Z" fill="white"/>
<path opacity="0.2" d="M160.42 22.7435C160.512 23.0343 160.638 23.4446 160.798 23.9613H160.811L163.636 25.418H163.653H163.67L166.839 24.3793L172.308 22.6189L173.069 22.3592C173.069 22.3384 173.069 22.3176 173.069 22.2969L172.291 22.5565L166.804 24.3222L163.655 25.3608L160.845 23.9483L160.445 22.7331L160.334 22.4137C160.323 22.3766 160.308 22.3409 160.289 22.3073C160.295 22.3452 160.304 22.3825 160.316 22.4189L160.42 22.7435Z" fill="white"/>
<path opacity="0.2" d="M162.402 18.2328H162.39L161.671 19.0352L159.088 19.8947L158.346 20.1543C158.275 20.1777 158.218 20.2011 158.168 20.2192C158.149 20.1609 158.111 20.1108 158.062 20.0764C158.01 20.0417 157.947 20.0287 157.887 20.0401C157.845 20.0401 157.825 20.066 157.827 20.0712C157.83 20.0764 157.924 20.0582 158.02 20.1387C158.053 20.1691 158.076 20.2088 158.087 20.253C158.091 20.2762 158.091 20.2999 158.087 20.3231C158.083 20.3643 158.068 20.4035 158.043 20.4356C158.018 20.4677 157.985 20.4913 157.947 20.5033C157.91 20.5153 157.869 20.5152 157.832 20.503C157.794 20.4908 157.761 20.467 157.736 20.4347C157.715 20.4075 157.701 20.3753 157.694 20.3409C157.688 20.3065 157.689 20.271 157.699 20.2374C157.733 20.1154 157.83 20.0842 157.82 20.0686C157.81 20.053 157.795 20.0686 157.756 20.0686C157.7 20.0959 157.656 20.1441 157.632 20.2036C157.613 20.2494 157.606 20.2997 157.611 20.3493C157.616 20.399 157.634 20.4463 157.662 20.4867C157.697 20.5378 157.746 20.576 157.803 20.596C157.86 20.616 157.922 20.6167 157.979 20.598C158.036 20.5794 158.087 20.5424 158.123 20.4921C158.159 20.4418 158.179 20.3809 158.181 20.3179C158.182 20.2862 158.178 20.2545 158.168 20.2244L158.346 20.1725L159.088 19.944L161.693 19.1183H161.705L162.427 18.3211L163.809 17.9031L168.074 16.5892L169.362 16.179L169.696 16.0673C169.702 16.0873 169.713 16.1056 169.726 16.1214C169.74 16.1371 169.756 16.15 169.774 16.1591C169.792 16.1683 169.812 16.1736 169.832 16.1748C169.852 16.176 169.872 16.173 169.891 16.166C169.91 16.159 169.928 16.1481 169.943 16.134C169.958 16.12 169.97 16.1029 169.978 16.0838C169.987 16.0648 169.992 16.0441 169.993 16.023C169.994 16.0019 169.992 15.9808 169.985 15.9608C169.974 15.9216 169.949 15.8885 169.915 15.8687C169.881 15.849 169.841 15.8443 169.803 15.8557C169.766 15.867 169.734 15.8935 169.716 15.9293C169.697 15.9651 169.692 16.0073 169.703 16.0465L169.367 16.14L168.067 16.5165L163.794 17.7992L162.402 18.2328Z" fill="white"/>
<path opacity="0.2" d="M158.202 34.9406C158.081 34.5277 157.955 34.1279 157.848 33.7462V33.7228H157.826L156.813 33.3281H156.798H156.783L154.764 34.0032L154.195 34.2032L154.129 34.2265C154.115 34.1907 154.09 34.1614 154.057 34.1445C154.024 34.1277 153.986 34.1245 153.951 34.1357C153.913 34.1482 153.882 34.1757 153.864 34.2122C153.846 34.2486 153.843 34.2912 153.854 34.3304C153.86 34.3497 153.869 34.3676 153.881 34.3832C153.894 34.3987 153.909 34.4116 153.926 34.421C153.943 34.4304 153.961 34.4362 153.981 34.438C154 34.4398 154.019 34.4377 154.037 34.4317C154.072 34.4208 154.102 34.3961 154.121 34.3628C154.139 34.3295 154.145 34.29 154.136 34.2525L154.203 34.2317L154.781 34.0578L156.796 33.4242L157.769 33.8111C157.878 34.1876 157.994 34.5901 158.113 34.9821L159.072 38.1941H159.148C158.882 37.2801 158.555 36.161 158.202 34.9406Z" fill="white"/>
<path opacity="0.2" d="M160.087 37.1706V37.1498V37.129C159.62 35.5451 159.178 34.0521 158.792 32.746V32.7278H158.777L157.295 31.9177C156.958 30.7986 156.684 29.8872 156.489 29.2432L156.261 28.5058C156.237 28.4305 156.217 28.3708 156.202 28.3214H156.244C156.281 28.3089 156.312 28.2814 156.331 28.2449C156.349 28.2085 156.352 28.166 156.341 28.1267C156.329 28.0878 156.303 28.0553 156.269 28.0363C156.235 28.0173 156.195 28.0134 156.158 28.0254C156.121 28.0375 156.09 28.0645 156.072 28.1005C156.053 28.1366 156.05 28.1787 156.061 28.2176C156.07 28.2491 156.089 28.2765 156.115 28.2957C156.14 28.315 156.171 28.3249 156.202 28.324C156.202 28.376 156.232 28.4383 156.252 28.5162C156.301 28.6953 156.37 28.9446 156.459 29.2588C156.647 29.9079 156.911 30.8323 157.238 31.9618V31.9774H157.253L158.721 32.7979L159.993 37.1446L159.89 37.3523L159.484 38.1599H159.605L159.981 37.412L160.087 37.1706Z" fill="white"/>
<path opacity="0.2" d="M171.982 27.6273L164.928 29.9019L163.384 30.4056H163.352V30.4419C163.31 31.1612 163.268 31.8519 163.23 32.5192V32.5374C163.725 34.1914 164.157 35.6533 164.498 36.7906L164.558 36.762C164.224 35.6195 163.801 34.1654 163.322 32.5166C163.361 31.8752 163.401 31.1975 163.443 30.4939L164.956 30.0057L172 27.7L172.333 27.5883C172.333 27.5623 172.351 27.5338 172.36 27.5078L171.982 27.6273Z" fill="white"/>
<path opacity="0.2" d="M161.737 23.5134V23.5368H161.759L162.342 23.7964L163.978 24.5494H163.996H164.013L167.614 23.3862L168.657 23.0304L168.904 22.9473C168.917 22.9836 168.943 23.0133 168.976 23.0302C169.009 23.0471 169.047 23.05 169.082 23.0382C169.1 23.0323 169.118 23.0225 169.132 23.0097C169.147 22.9968 169.159 22.981 169.168 22.9631C169.177 22.9453 169.183 22.9258 169.184 22.9057C169.186 22.8856 169.184 22.8653 169.179 22.8461C169.173 22.8268 169.164 22.8089 169.151 22.7934C169.139 22.7779 169.124 22.765 169.107 22.7556C169.09 22.7462 169.071 22.7404 169.052 22.7386C169.033 22.7367 169.014 22.7388 168.996 22.7448C168.96 22.7563 168.931 22.7815 168.913 22.8154C168.895 22.8492 168.89 22.8891 168.899 22.9266L168.652 22.9967L167.599 23.3238L164.015 24.4689L162.397 23.7185L161.833 23.4589L160.909 20.343L160.896 20.2988L160.854 20.3144L158.585 21.07L157.953 21.2881L157.869 21.3193C157.853 21.303 157.835 21.2883 157.817 21.2751C157.765 21.2404 157.702 21.2275 157.641 21.2388C157.599 21.2388 157.582 21.2648 157.584 21.2699C157.587 21.2751 157.678 21.2699 157.775 21.3375L157.787 21.3504C157.768 21.3565 157.75 21.3644 157.733 21.3738C157.733 21.3738 157.753 21.3738 157.792 21.3738C157.811 21.3958 157.826 21.4217 157.835 21.4498C157.845 21.4779 157.848 21.5077 157.846 21.5374C157.843 21.5785 157.828 21.6176 157.803 21.6499C157.778 21.6822 157.745 21.7062 157.708 21.7192C157.67 21.7309 157.63 21.7307 157.592 21.7187C157.554 21.7067 157.521 21.6834 157.495 21.6516C157.474 21.6244 157.459 21.5918 157.452 21.5569C157.445 21.522 157.446 21.4859 157.456 21.4517C157.493 21.3297 157.587 21.2985 157.58 21.2829C157.572 21.2674 157.552 21.2829 157.513 21.2829C157.457 21.3102 157.413 21.3584 157.389 21.418C157.371 21.4643 157.364 21.5148 157.369 21.5648C157.374 21.6148 157.391 21.6625 157.419 21.7036C157.454 21.7542 157.504 21.7919 157.561 21.8116C157.618 21.8313 157.679 21.8319 157.737 21.8133C157.794 21.7948 157.844 21.7581 157.881 21.7082C157.917 21.6583 157.938 21.5977 157.94 21.5348C157.94 21.4649 157.918 21.3971 157.876 21.3427L157.955 21.3193L158.595 21.1245L160.835 20.4183C161.099 21.3271 161.408 22.3787 161.737 23.5134Z" fill="white"/>
<path opacity="0.2" d="M172.359 19.0417L170.765 18.1562H170.745H170.725L170.606 18.1952L164.833 20.0803L163.782 19.7246H163.77L162.569 20.1167H162.554C162.186 20.8593 161.879 21.4799 161.645 21.9576C161.768 22.3662 161.865 22.6804 161.934 22.9002L162.01 23.1391C162.017 23.167 162.027 23.1941 162.04 23.2196C162.04 23.2196 162.04 23.191 162.02 23.1365C162 23.082 161.983 22.9937 161.956 22.8924L161.684 21.9862C161.931 21.5136 162.233 20.906 162.606 20.1686L163.773 19.7947L164.82 20.1582H164.835H164.848L170.636 18.2991L170.735 18.2653L172.332 19.1507H172.349H172.369L172.658 19.0573C172.658 19.0235 172.643 18.9898 172.633 18.956L172.359 19.0417Z" fill="white"/>
<path opacity="0.2" d="M151.099 10.3693H151.119L152.805 11.3015C153.237 12.7478 153.623 14.0434 153.932 15.0821V15.1028H153.952L155.434 15.5053H155.447L156.253 15.2301L156.46 15.1548C156.484 15.149 156.508 15.1394 156.529 15.1262C156.504 15.128 156.479 15.1332 156.455 15.1418L156.245 15.2041L155.439 15.4638L153.999 15.0431C153.695 14.0045 153.319 12.7062 152.896 11.2547V11.234H152.876L151.188 10.2966L150.926 9.41895L150.84 9.47347L151.087 10.3485L151.099 10.3693Z" fill="white"/>
<path opacity="0.2" d="M153.707 10.9756V10.9938V11.012C154.016 12.0324 154.278 12.9049 154.471 13.5358C154.562 13.8344 154.639 14.0759 154.696 14.2577C154.72 14.3465 154.751 14.4333 154.787 14.5173C154.773 14.4293 154.752 14.3425 154.725 14.2577C154.673 14.0759 154.607 13.8318 154.525 13.5306C154.342 12.8971 154.095 12.0298 153.803 11.012C154.112 10.3966 154.453 9.71367 154.809 9.01779L155.348 7.94021V7.92203V7.90126C155.321 7.81557 155.296 7.73248 155.271 7.6416L155.178 7.66237C155.2 7.74287 155.222 7.82077 155.247 7.90386C155.074 8.25007 154.897 8.60234 154.715 8.96066L153.707 10.9756Z" fill="white"/>
<path opacity="0.2" d="M155.346 10.5552C155.355 10.5287 155.358 10.4998 155.353 10.4719C155.347 10.444 155.335 10.4183 155.316 10.3976C155.297 10.377 155.274 10.3623 155.247 10.3553C155.221 10.3482 155.194 10.3491 155.168 10.3579C155.149 10.3636 155.132 10.373 155.117 10.3858C155.102 10.3986 155.089 10.4143 155.08 10.4322C155.071 10.4501 155.065 10.4697 155.063 10.49C155.061 10.5102 155.063 10.5306 155.069 10.5501C155.081 10.5892 155.107 10.6218 155.142 10.6408C155.176 10.6598 155.217 10.6636 155.254 10.6513C155.284 10.64 155.31 10.6191 155.328 10.5916C155.373 10.6228 155.432 10.6591 155.501 10.7007C155.687 10.8123 155.951 10.9603 156.263 11.1421L156.46 11.8328C156.619 12.3703 156.769 12.8558 156.881 13.2064C156.933 13.3981 157.001 13.5848 157.083 13.7646C157.054 13.5672 157.01 13.3726 156.95 13.183C156.856 12.8273 156.717 12.3391 156.559 11.8016C156.485 11.5419 156.413 11.316 156.347 11.0953V11.0746H156.329C156.008 10.9006 155.731 10.7552 155.534 10.6565L155.346 10.5552Z" fill="white"/>
<path opacity="0.2" d="M157.805 14.0973V14.1129H157.817L158.727 14.7698H158.747H158.769L163.062 13.3806L165.274 12.6588H165.294V12.638L166.544 9.89862L166.465 9.84149L165.227 12.5861L163.035 13.2975L158.769 14.6867L157.889 14.0557L155.951 7.53833V7.50977H155.895V7.54871C156.367 9.16119 157.029 11.4306 157.805 14.0973Z" fill="white"/>
<path opacity="0.2" d="M159.951 15.3386L158.93 15.6528L155.574 16.7407L155.436 16.2655L155.423 16.2292V16.2006H155.398L153.903 15.6813H153.888H153.873L151.182 16.5771L150.403 16.8368L150.198 16.9121C150.151 16.9303 150.127 16.9407 150.129 16.9433C150.154 16.946 150.179 16.946 150.203 16.9433L150.413 16.8809L151.199 16.642L153.888 15.7904L155.342 16.2863L155.497 16.8056L155.512 16.8576L155.562 16.8394L158.962 15.7229L159.976 15.3775L160.248 15.2788C160.28 15.2698 160.311 15.2558 160.339 15.2373L160.24 15.2581L159.951 15.3386Z" fill="white"/>
<path opacity="0.2" d="M146.516 13.5959L147.62 14.3567H147.64H147.662L150.085 13.5569L150.492 14.8812L150.591 15.1902C150.591 15.1902 150.591 15.1902 150.591 15.2031C150.591 15.2161 150.591 15.2031 150.606 15.2031L150.621 15.2447C150.633 15.2884 150.649 15.331 150.668 15.3719C150.665 15.3258 150.656 15.2803 150.641 15.2369V15.2057C150.696 15.2074 150.749 15.2284 150.791 15.2655C150.817 15.288 150.838 15.3167 150.851 15.3492C150.864 15.3817 150.87 15.4171 150.868 15.4524C150.864 15.4936 150.849 15.5327 150.825 15.5649C150.8 15.5972 150.767 15.6213 150.73 15.6342C150.692 15.6463 150.651 15.6461 150.613 15.6336C150.575 15.6211 150.542 15.5968 150.517 15.5641C150.496 15.5366 150.482 15.5045 150.475 15.4703C150.468 15.436 150.469 15.4006 150.478 15.3667C150.515 15.2447 150.609 15.2135 150.601 15.198C150.594 15.1824 150.574 15.198 150.537 15.198C150.48 15.2247 150.435 15.2729 150.411 15.333C150.392 15.3789 150.385 15.429 150.39 15.4786C150.396 15.5281 150.413 15.5755 150.44 15.616C150.476 15.6666 150.526 15.7044 150.583 15.724C150.64 15.7437 150.701 15.7443 150.758 15.7258C150.815 15.7072 150.866 15.6705 150.902 15.6206C150.939 15.5707 150.96 15.5101 150.962 15.4472C150.964 15.3959 150.953 15.3449 150.931 15.2994C150.908 15.2538 150.875 15.2152 150.833 15.1876C150.781 15.1529 150.719 15.1399 150.658 15.1512H150.633C150.611 15.0655 150.584 14.9617 150.549 14.8396C150.455 14.5021 150.324 14.0373 150.164 13.4686V13.4297H150.127L147.685 14.2087L146.607 13.4634L146.516 13.5959Z" fill="white"/>
</g>
<path d="M73.759 30.8009C81.8821 30.8009 88.4672 23.8827 88.4672 15.3487C88.4672 6.81468 81.8821 -0.103516 73.759 -0.103516C65.6359 -0.103516 59.0508 6.81468 59.0508 15.3487C59.0508 23.8827 65.6359 30.8009 73.759 30.8009Z" fill="#33515B"/>
<g opacity="0.4">
<path opacity="0.4" d="M73.759 30.799C81.8822 30.799 88.4672 23.8808 88.4672 15.3468C88.4672 6.81273 81.8822 -0.105469 73.759 -0.105469C65.6359 -0.105469 59.0508 6.81273 59.0508 15.3468C59.0508 23.8808 65.6359 30.799 73.759 30.799Z" fill="#33515B"/>
</g>
<path d="M87.2596 14.654C87.6324 6.12897 81.3564 -1.09939 73.2418 -1.49098C65.1272 -1.88257 58.2469 4.71089 57.8741 13.2359C57.5014 21.761 63.7774 28.9893 71.892 29.3809C80.0065 29.7725 86.8869 23.1791 87.2596 14.654Z" fill="#8FBAAD"/>
<g opacity="0.2">
<path opacity="0.2" d="M75.6898 24.7834C81.6026 22.8629 84.9505 16.3946 83.1676 10.3362C81.3848 4.27779 75.1462 0.923361 69.2334 2.84388C63.3206 4.7644 59.9727 11.2326 61.7556 17.291C63.5385 23.3495 69.777 26.7039 75.6898 24.7834Z" fill="white"/>
</g>
<g opacity="0.4">
<path opacity="0.4" d="M75.6755 24.2131C72.8908 25.1176 69.8801 24.846 67.2829 23.456C64.6856 22.066 62.7064 19.6671 61.7656 16.7688C61.7953 16.8778 61.82 16.9843 61.8521 17.0933C62.7517 20.0477 64.7249 22.5097 67.3429 23.9439C69.9609 25.3781 73.0119 25.6686 75.8326 24.7523C78.6534 23.836 81.0158 21.7869 82.4064 19.0506C83.7969 16.3143 84.103 13.1119 83.2583 10.1397C83.2261 10.0332 83.1891 9.92677 83.1545 9.82031C83.9356 12.7701 83.5914 15.9236 82.1949 18.6111C80.7984 21.2985 78.4597 23.3082 75.6755 24.2131Z" fill="#01B399"/>
</g>
<g opacity="0.3">
<path opacity="0.3" d="M69.2468 2.88834C72.0316 1.98341 75.0425 2.25514 77.6395 3.64577C80.2366 5.0364 82.215 7.43629 83.1543 10.3353C83.1271 10.2289 83.0999 10.1198 83.0678 10.0133C82.6332 8.53687 81.926 7.16479 80.9867 5.97543C80.0473 4.78607 78.8942 3.80273 77.5932 3.08156C76.2921 2.36039 74.8686 1.9155 73.4038 1.77231C71.9391 1.62911 70.4619 1.79041 69.0565 2.24699C67.6511 2.70357 66.3451 3.4465 65.213 4.43334C64.0809 5.42019 63.1449 6.63164 62.4585 7.99852C61.772 9.36539 61.3486 10.8609 61.2123 12.3997C61.0759 13.9386 61.2295 15.4905 61.6641 16.967C61.6962 17.0734 61.7308 17.1799 61.7654 17.2838C60.9836 14.3333 61.3278 11.1788 62.7249 8.49069C64.1219 5.80259 66.4616 3.79278 69.2468 2.88834Z" fill="black"/>
</g>
<path d="M78.9846 15.2126C78.5199 13.6338 77.5016 12.8419 76.3227 12.7692C76.9356 12.0188 77.1704 10.936 76.8022 9.68444C76.3449 8.12649 75.1981 7.29819 73.5323 7.4358L72.9688 5.51953L71.2832 6.06741L71.8072 7.84866L70.8507 8.16025L70.3267 6.379L68.6411 6.90351L69.1675 8.68476L67.6327 9.1833L66.5625 9.53124L67.084 11.3177L68.1517 10.9697L70.69 19.567L69.5086 19.9513L70.0301 21.7222L71.2115 21.3379L72.7463 20.8393L73.3568 22.9166L75.04 22.3687L74.432 20.2915L75.386 19.9825L75.9965 22.0597L77.6821 21.5118L77.0469 19.3671C78.8659 18.4687 79.5135 16.999 78.9846 15.2126ZM70.2871 10.2791L72.5684 9.53644C73.8338 9.12618 74.7162 9.44815 75.04 10.5751C75.3637 11.702 74.8126 12.4732 73.557 12.8834L70.9693 13.7247L69.9807 10.3751L70.2871 10.2791ZM75.4774 18.0246L72.7192 18.9205L72.5239 18.9854L71.4834 15.4722L74.4493 14.5115C75.8259 14.0649 76.7305 14.3609 77.0889 15.5761C77.4473 16.7913 76.8467 17.5676 75.4675 18.0143L75.4774 18.0246Z" fill="#8FBAAD"/>
<path d="M78.9846 15.2126C78.5199 13.6338 77.5016 12.8419 76.3227 12.7692C76.9356 12.0188 77.1704 10.936 76.8022 9.68444C76.3449 8.12649 75.1981 7.29819 73.5323 7.4358L72.9688 5.51953L71.2832 6.06741L71.8072 7.84866L70.8507 8.16025L70.3267 6.379L68.6411 6.90351L69.1675 8.68476L67.6327 9.1833L66.5625 9.53124L67.084 11.3177L68.1517 10.9697L70.69 19.567L69.5086 19.9513L70.0301 21.7222L71.2115 21.3379L72.7463 20.8393L73.3568 22.9166L75.04 22.3687L74.432 20.2915L75.386 19.9825L75.9965 22.0597L77.6821 21.5118L77.0469 19.3671C78.8659 18.4687 79.5135 16.999 78.9846 15.2126ZM70.2871 10.2791L72.5684 9.53644C73.8338 9.12618 74.7162 9.44815 75.04 10.5751C75.3637 11.702 74.8126 12.4732 73.557 12.8834L70.9693 13.7247L69.9807 10.3751L70.2871 10.2791ZM75.4774 18.0246L72.7192 18.9205L72.5239 18.9854L71.4834 15.4722L74.4493 14.5115C75.8259 14.0649 76.7305 14.3609 77.0889 15.5761C77.4473 16.7913 76.8467 17.5676 75.4675 18.0143L75.4774 18.0246Z" fill="#33515B"/>
<path d="M78.1696 15.4726C77.7049 13.8939 76.6867 13.1046 75.5077 13.0293C76.1207 12.2789 76.3555 11.1961 75.9872 9.94713C75.53 8.38919 74.3832 7.56088 72.7173 7.6985L72.1513 5.78223L70.4682 6.32751L70.9922 8.10876L70.0357 8.42035L69.5117 6.64429L67.8261 7.19217L68.3501 8.97342L66.8177 9.47196L65.75 9.80432L66.269 11.5778L67.3367 11.2298L69.8701 19.8375L68.6887 20.2218L69.2102 21.9901L70.3916 21.6058L71.9264 21.1072L72.5369 23.1845L74.22 22.6392L73.6096 20.5619L74.5661 20.2503L75.1765 22.3276L76.8621 21.7797L76.2319 19.6272C78.0485 18.7365 78.6985 17.2643 78.1696 15.4726ZM69.4722 10.5392L71.7534 9.79913C73.0189 9.38627 73.9012 9.71085 74.225 10.8378C74.5488 11.9647 73.9976 12.7359 72.742 13.1461L70.1543 13.9874L69.1657 10.6404L69.4722 10.5392ZM74.6624 18.2873L71.9042 19.1832L71.7089 19.2455L70.6684 15.7323L73.6343 14.7742C75.0109 14.325 75.9155 14.621 76.2714 15.8362C76.6273 17.0514 76.0317 17.8329 74.6476 18.2821L74.6624 18.2873Z" fill="#8FBAAD"/>
<path d="M84.3175 4.61879C84.2879 4.64216 83.9023 4.09948 83.0818 3.22963C81.644 1.71364 79.9223 0.527702 78.0257 -0.253128C76.1292 -1.03396 74.0989 -1.39268 72.0636 -1.30659C70.6316 -1.25116 69.2156 -0.971996 67.8619 -0.478283C67.1493 -0.218886 66.4569 0.0979739 65.7908 0.469468C64.4125 1.23545 63.1607 2.22969 62.0834 3.41398C61.5612 3.98702 61.0819 4.60165 60.6499 5.25236C60.2323 5.88012 59.8613 6.54074 59.5402 7.22835C59.2301 7.88711 58.9674 8.56932 58.7543 9.26926C58.3534 10.563 58.1166 11.9066 58.0499 13.2654C57.912 16.1865 58.5595 19.0894 59.9184 21.6419C60.4893 22.7091 60.8872 23.2466 60.8551 23.27C60.7395 23.158 60.6374 23.0315 60.5511 22.8935C60.4522 22.7663 60.3385 22.6079 60.2125 22.4105C60.0864 22.2132 59.9357 21.9899 59.7898 21.7224C58.927 20.2236 58.3205 18.5776 57.998 16.859C57.7774 15.6707 57.687 14.4597 57.7286 13.2498C57.7833 11.8589 58.0143 10.4818 58.4156 9.15501C58.6289 8.43633 58.8942 7.73581 59.209 7.05958C59.535 6.35226 59.9126 5.67253 60.3385 5.02646C60.7797 4.35742 61.2697 3.72542 61.8041 3.13615C62.9065 1.91839 64.1904 0.897537 65.6054 0.113736C66.2898 -0.268472 67.0022 -0.592352 67.7359 -0.854786C69.1234 -1.35246 70.5735 -1.63073 72.0389 -1.6805C74.524 -1.76942 76.9899 -1.19499 79.2064 -0.0108995C80.6936 0.779881 82.0371 1.83892 83.1757 3.11797C83.3808 3.33868 83.5464 3.5516 83.6898 3.73336C83.8331 3.91512 83.9542 4.07351 84.0432 4.20594C84.1506 4.33103 84.2428 4.46972 84.3175 4.61879Z" fill="#FAFAFA"/>
<path d="M69.5098 6.64478C69.5296 6.71229 68.882 6.98493 67.8712 7.35105L67.9774 7.14332C68.1455 7.66264 68.3358 8.25466 68.5335 8.91419L68.5904 9.10634L68.405 9.16606L67.9527 9.31406C67.1569 9.57372 66.413 9.80222 65.7926 9.97879L65.8989 9.76846C66.1806 10.8486 66.3314 11.5679 66.2671 11.5861C66.2029 11.6042 65.9409 10.9239 65.5924 9.86713L65.543 9.71134L65.6987 9.65681C66.3042 9.4361 67.0407 9.18423 67.839 8.92458L68.2938 8.77917L68.1653 9.03883C67.975 8.3767 67.8069 7.76391 67.671 7.24719L67.6265 7.07841L67.7748 7.03686C68.8104 6.72268 69.49 6.56429 69.5098 6.64478Z" fill="#FAFAFA"/>
<path d="M72.5109 5.68957C72.543 5.79603 72.113 6.03232 71.5495 6.20889C70.9859 6.38545 70.5065 6.45297 70.4743 6.34651C70.4422 6.24005 70.8747 6.00376 71.4358 5.82719C71.9968 5.65062 72.4812 5.58311 72.5109 5.68957Z" fill="#FAFAFA"/>
<path d="M69.7436 19.7388C69.6423 19.7726 69.0022 17.9082 68.3176 15.5843C67.6329 13.2604 67.1584 11.3389 67.2597 11.3051C67.3611 11.2714 68.0012 13.1227 68.6858 15.4597C69.3704 17.7966 69.845 19.7051 69.7436 19.7388Z" fill="#FAFAFA"/>
<path d="M73.5949 12.8765C73.6271 12.9829 72.9227 13.3049 72.0255 13.5983C71.1283 13.8917 70.3769 14.0397 70.3448 13.9307C70.3127 13.8216 71.0146 13.5022 71.9118 13.2088C72.809 12.9154 73.5628 12.7752 73.5949 12.8765Z" fill="#FAFAFA"/>
<path d="M75.2043 18.1149C75.2364 18.2213 74.5345 18.5433 73.6373 18.8367C72.7401 19.1301 71.9863 19.2782 71.9542 19.1691C71.9221 19.06 72.624 18.7407 73.5212 18.4472C74.4183 18.1538 75.1721 18.0084 75.2043 18.1149Z" fill="#FAFAFA"/>
<path d="M73.7238 30.7925C73.2721 30.3884 72.8783 29.9179 72.5547 29.3955C73.0064 29.7996 73.4001 30.2701 73.7238 30.7925Z" fill="#263238"/>
<path d="M71.2002 30.5176C70.7652 30.1317 70.387 29.6802 70.0781 29.1777C70.3093 29.3543 70.5149 29.5651 70.6886 29.8035C70.8915 30.0139 71.0639 30.2545 71.2002 30.5176Z" fill="#263238"/>
<path d="M68.8096 29.8935C68.5781 29.7183 68.3731 29.5073 68.2016 29.2678C67.998 29.0573 67.8249 28.8167 67.6875 28.5537C67.92 28.7286 68.1258 28.9396 68.298 29.1795C68.5009 29.3899 68.6733 29.6304 68.8096 29.8935Z" fill="#263238"/>
<path d="M76.2979 30.5796C76.0584 30.3942 75.8454 30.1739 75.6652 29.9252C75.453 29.7065 75.2723 29.4563 75.1289 29.1826C75.3691 29.3671 75.5822 29.5876 75.7616 29.837C75.9732 30.0563 76.1538 30.3064 76.2979 30.5796Z" fill="#263238"/>
<path d="M78.6012 29.9435C78.3599 29.7595 78.1459 29.539 77.966 29.2892C77.7543 29.0689 77.5737 28.818 77.4297 28.5439C77.8805 28.9506 78.2749 29.4217 78.6012 29.9435Z" fill="#263238"/>
<path d="M80.7706 28.9263C80.5305 28.7417 80.3173 28.5213 80.1379 28.2719C79.9263 28.0526 79.7457 27.8025 79.6016 27.5293C79.8411 27.7146 80.0541 27.935 80.2343 28.1836C80.4465 28.4024 80.6272 28.6526 80.7706 28.9263Z" fill="#263238"/>
<path d="M82.7042 27.6769C82.4661 27.4898 82.2533 27.2697 82.0715 27.0226C81.8589 26.8032 81.6781 26.5521 81.5352 26.2773C81.7746 26.4628 81.9876 26.6831 82.1679 26.9317C82.3805 27.1511 82.5612 27.4022 82.7042 27.6769Z" fill="#263238"/>
<path d="M84.4567 26.0089C84.2161 25.824 84.0022 25.6036 83.8215 25.3546C83.6089 25.1352 83.4281 24.8841 83.2852 24.6094C83.5245 24.7949 83.7375 25.0152 83.9179 25.2637C84.1299 25.4843 84.3112 25.7352 84.4567 26.0089Z" fill="#263238"/>
<path d="M85.8981 24.13C85.6587 23.9445 85.4457 23.7242 85.2654 23.4757C85.0534 23.2551 84.872 23.0042 84.7266 22.7305C84.9671 22.9154 85.181 23.1358 85.3617 23.3848C85.5744 23.6042 85.7551 23.8553 85.8981 24.13Z" fill="#263238"/>
<path d="M86.9606 22.2554C86.7198 22.0716 86.5065 21.8511 86.3279 21.601C86.1169 21.3804 85.9356 21.1306 85.7891 20.8584C86.0303 21.0424 86.2444 21.2629 86.4243 21.5127C86.6359 21.7321 86.8165 21.9822 86.9606 22.2554Z" fill="#263238"/>
<path d="M87.8448 20.146C87.6053 19.9607 87.3923 19.7403 87.2121 19.4916C87.0005 19.2723 86.8199 19.0222 86.6758 18.749C86.9159 18.9335 87.1291 19.154 87.3085 19.4034C87.5208 19.6221 87.7014 19.8723 87.8448 20.146Z" fill="#263238"/>
<path d="M88.4503 17.8559C88.2108 17.6706 87.9977 17.4503 87.8176 17.2016C87.606 16.9822 87.4253 16.7322 87.2812 16.459C87.5214 16.6435 87.7346 16.8639 87.914 17.1133C88.1256 17.3327 88.3062 17.5827 88.4503 17.8559Z" fill="#263238"/>
<path d="M88.6481 15.3869C88.4087 15.2013 88.1957 14.981 88.0154 14.7325C87.8034 14.5119 87.622 14.261 87.4766 13.9873C87.7164 14.1732 87.9302 14.3934 88.1117 14.6416C88.3235 14.8619 88.5041 15.1128 88.6481 15.3869Z" fill="#263238"/>
<path d="M88.4627 12.8511C88.1798 12.616 87.925 12.3457 87.7039 12.0462C87.4502 11.7755 87.2271 11.4749 87.0391 11.1504C87.3217 11.3868 87.5771 11.6569 87.8003 11.9553C88.0541 12.2253 88.2764 12.526 88.4627 12.8511Z" fill="#263238"/>
<path d="M87.4549 9.43806C87.1727 9.20204 86.918 8.93186 86.6961 8.63312C86.4424 8.36241 86.2193 8.06181 86.0312 7.7373C86.3138 7.9737 86.5693 8.24383 86.7925 8.54224C87.0469 8.81164 87.2693 9.11244 87.4549 9.43806Z" fill="#263238"/>
<g opacity="0.2">
<path opacity="0.2" d="M62.3031 11.0093L73.7612 7.27542L75.8793 8.8022H75.8917H75.9065L79.3667 7.64933L80.296 7.33514L80.5431 7.25205L80.5901 7.23387C80.5942 7.2489 80.6009 7.26299 80.6099 7.27542C80.645 7.32652 80.6945 7.36475 80.7514 7.38473C80.8083 7.40471 80.8698 7.40543 80.9271 7.38679C80.9844 7.36816 81.0347 7.3311 81.0709 7.28084C81.1071 7.23058 81.1274 7.16965 81.1289 7.10664C81.132 7.05546 81.122 7.00434 81.0998 6.95865C81.0776 6.91296 81.0441 6.87439 81.0029 6.84698C80.9507 6.81228 80.8881 6.79931 80.8274 6.81063C80.7854 6.81063 80.7681 6.8366 80.7681 6.84179C80.7681 6.84698 80.8644 6.84179 80.9608 6.9093C80.9865 6.93144 81.0066 6.95978 81.0195 6.99189C81.0324 7.024 81.0377 7.05892 81.035 7.09366C81.0319 7.13511 81.017 7.17463 80.9923 7.20711C80.9676 7.23959 80.9342 7.26353 80.8964 7.27584C80.8586 7.28814 80.8181 7.28825 80.7803 7.27614C80.7424 7.26403 80.7089 7.24026 80.684 7.20791C80.663 7.18066 80.6487 7.14845 80.6422 7.11406C80.6358 7.07967 80.6374 7.04415 80.6469 7.01057C80.684 6.88593 80.7779 6.85737 80.7681 6.84179C80.7582 6.82621 80.7433 6.84179 80.7038 6.84179C80.648 6.86908 80.604 6.91722 80.5802 6.97681C80.5643 7.01396 80.5561 7.05423 80.5561 7.09496C80.5561 7.13569 80.5643 7.17595 80.5802 7.2131H80.5357L80.2886 7.2884L79.3543 7.58441L75.8941 8.69834L73.7933 7.16117L73.7785 7.14819H73.7587L62.2858 10.908L57.9531 12.3154C57.9531 12.3543 57.9531 12.3907 57.9531 12.427L62.3031 11.0093Z" fill="white"/>
<path opacity="0.2" d="M80.085 4.1504L82.3094 5.73172H82.3267H82.3465L84.5536 4.99689L84.519 4.94755L82.3416 5.63824L80.1172 4.04395H80.0974H80.0727L78.6317 4.51133L73.313 6.25883L71.699 6.80151L71.2616 6.95471C71.2102 6.96898 71.1605 6.989 71.1133 7.01443C71.166 7.0051 71.218 6.99209 71.269 6.97548L71.7114 6.84046L73.3327 6.32114L78.6762 4.60221L80.085 4.1504Z" fill="white"/>
<path opacity="0.2" d="M69.6266 13.5525L70.8624 13.8122H70.8772L72.7704 13.2098L73.2647 13.0436H73.2993C73.3092 13.0716 73.3268 13.096 73.3497 13.1137C73.3727 13.1314 73.4001 13.1416 73.4285 13.1431C73.457 13.1446 73.4852 13.1374 73.5098 13.1222C73.5343 13.1071 73.5541 13.0847 73.5667 13.0579C73.5793 13.0311 73.5842 13.001 73.5807 12.9713C73.5772 12.9416 73.5655 12.9136 73.547 12.8908C73.5286 12.8681 73.5042 12.8515 73.4769 12.8431C73.4495 12.8347 73.4204 12.8349 73.3932 12.8436C73.358 12.8562 73.3284 12.8819 73.3102 12.9159C73.2919 12.95 73.2863 12.9899 73.2944 13.028H73.2598L72.7655 13.176L70.8722 13.7472L69.6365 13.4876H69.6192L61.5668 16.0842L58.7468 17.0008L58.1289 16.8346C58.1289 16.8709 58.1289 16.9073 58.1487 16.9436L58.7344 17.1046H58.7493H58.7616L61.5965 16.1854L69.6266 13.5525Z" fill="white"/>
<path opacity="0.2" d="M70.5275 12.5535L69.3782 12.4393L68.701 12.6626C68.57 12.2056 68.4538 11.7693 68.3303 11.3643L68.3179 11.3175L68.2759 11.3331L65.1593 12.3821L64.2967 12.6833L64.2003 12.7171C64.1875 12.6815 64.1621 12.6525 64.1294 12.636C64.0967 12.6196 64.0593 12.617 64.0248 12.6288C64.0065 12.6348 63.9894 12.6445 63.9747 12.6574C63.9599 12.6703 63.9477 12.6861 63.9387 12.7039C63.9298 12.7218 63.9243 12.7413 63.9225 12.7614C63.9207 12.7814 63.9227 12.8017 63.9284 12.821C63.9341 12.8402 63.9433 12.8581 63.9556 12.8736C63.9679 12.8892 63.9829 12.902 63.9999 12.9114C64.0169 12.9208 64.0355 12.9266 64.0546 12.9284C64.0737 12.9303 64.093 12.9282 64.1113 12.9222C64.1469 12.9113 64.177 12.8862 64.195 12.8521C64.2131 12.8181 64.2176 12.778 64.2077 12.7405L64.3041 12.7093L65.1766 12.4315L68.2388 11.4292C68.3558 11.8446 68.4769 12.2826 68.6021 12.7431L68.617 12.7924L68.6615 12.7768L69.3782 12.5431L70.5275 12.66L71.8473 12.2341L77.779 10.2893L79.0296 10.6918H79.047L80.1592 10.3179L80.4533 10.214H80.4681C80.5037 10.2646 80.5534 10.3024 80.6103 10.322C80.6672 10.3417 80.7285 10.3423 80.7858 10.3238C80.843 10.3052 80.8934 10.2685 80.9299 10.2186C80.9664 10.1687 80.9873 10.1081 80.9896 10.0452C80.9919 9.99386 80.9813 9.94278 80.9587 9.89717C80.9361 9.85155 80.9024 9.81304 80.8611 9.78556C80.8093 9.74995 80.7467 9.73605 80.6856 9.74661C80.6436 9.74661 80.6263 9.77258 80.6287 9.77777C80.6312 9.78296 80.7227 9.77777 80.8191 9.84528C80.845 9.86784 80.8655 9.89655 80.8788 9.92905C80.8921 9.96156 80.8979 9.99692 80.8957 10.0322C80.8926 10.0737 80.8777 10.1132 80.853 10.1457C80.8283 10.1782 80.7949 10.2021 80.7571 10.2144C80.7193 10.2267 80.6788 10.2268 80.641 10.2147C80.6031 10.2026 80.5696 10.1788 80.5447 10.1465C80.524 10.1191 80.5097 10.087 80.5028 10.0527C80.496 10.0185 80.4968 9.98301 80.5052 9.94915C80.5422 9.82451 80.6362 9.79335 80.6287 9.77777C80.6213 9.76219 80.6016 9.77777 80.5645 9.77777C80.5078 9.80453 80.4628 9.85274 80.4384 9.91279C80.4225 9.95486 80.4162 10.0003 80.42 10.0454C80.4239 10.0905 80.4378 10.134 80.4607 10.1724H80.4483L80.1517 10.2607L79.0395 10.6061L77.7889 10.1854H77.7766L71.8201 12.1043L70.5275 12.5535Z" fill="white"/>
<path opacity="0.2" d="M66.4072 25.3376C66.355 25.3029 66.2924 25.2899 66.2317 25.3012C66.1897 25.3012 66.1724 25.3272 66.1748 25.3324C66.1773 25.3376 66.2688 25.3194 66.3652 25.3999C66.3911 25.4225 66.4116 25.4512 66.4249 25.4837C66.4382 25.5162 66.444 25.5515 66.4418 25.5869C66.438 25.628 66.4229 25.6671 66.3983 25.6994C66.3737 25.7316 66.3407 25.7557 66.3034 25.7686C66.2655 25.7803 66.2253 25.7802 66.1875 25.7682C66.1497 25.7562 66.1161 25.7329 66.0908 25.7011C66.0701 25.6732 66.0557 25.6406 66.0489 25.606C66.042 25.5713 66.0428 25.5354 66.0513 25.5012C66.0883 25.3791 66.1823 25.348 66.1748 25.3324C66.1674 25.3168 66.1477 25.3324 66.1106 25.3324C66.0539 25.3591 66.0089 25.4074 65.9845 25.4674C65.966 25.5133 65.9589 25.5634 65.9641 25.613C65.9693 25.6626 65.9866 25.7099 66.0142 25.7504C66.0498 25.801 66.0995 25.8388 66.1564 25.8585C66.2133 25.8781 66.2746 25.8787 66.3319 25.8602C66.3891 25.8417 66.4395 25.8049 66.476 25.755C66.5125 25.7051 66.5334 25.6445 66.5357 25.5817H66.5777L66.7903 25.5193L67.5836 25.2779L70.3616 24.395H70.3864V24.3665C70.5297 23.7485 70.6854 23.0682 70.8461 22.3775V22.3645V22.3489L70.5989 21.5258C70.243 20.3236 69.9069 19.1889 69.6226 18.2282V18.2074H69.6029L68.0656 17.5479H68.0433L66.7482 17.9867L66.4022 18.1087L66.3553 18.1269C66.3352 18.063 66.2951 18.0081 66.2416 17.9711C66.1895 17.9364 66.1268 17.9234 66.0661 17.9347C66.0241 17.9347 66.0068 17.9607 66.0092 17.9659C66.0117 17.9711 66.1056 17.9659 66.1996 18.0334C66.2255 18.056 66.246 18.0847 66.2593 18.1172C66.2726 18.1497 66.2784 18.1851 66.2762 18.2204C66.2724 18.2615 66.2573 18.3006 66.2327 18.3329C66.2081 18.3651 66.1751 18.3892 66.1378 18.4021C66.0999 18.4138 66.0597 18.4137 66.0219 18.4017C65.9841 18.3897 65.9505 18.3664 65.9252 18.3346C65.9045 18.3067 65.8901 18.2742 65.8833 18.2395C65.8764 18.2048 65.8772 18.169 65.8857 18.1347C65.9227 18.0126 66.0167 17.9815 66.0092 17.9659C66.0018 17.9503 65.9845 17.9659 65.945 17.9659C65.8883 17.9927 65.8433 18.0409 65.8189 18.1009C65.8004 18.1468 65.7933 18.1969 65.7985 18.2465C65.8037 18.2961 65.821 18.3434 65.8486 18.3839C65.8842 18.4346 65.9339 18.4723 65.9908 18.492C66.0477 18.5116 66.109 18.5122 66.1663 18.4937C66.2235 18.4752 66.2739 18.4384 66.3104 18.3885C66.3469 18.3386 66.3678 18.2781 66.3701 18.2152C66.3741 18.1885 66.3741 18.1613 66.3701 18.1347H66.4171L66.7705 18.0282L68.0606 17.6257L69.5609 18.2723C69.8426 19.2356 70.1689 20.3496 70.5173 21.5518L70.7645 22.3619L70.3048 24.2989L67.5638 25.2103L66.7804 25.47L66.5728 25.5453L66.5332 25.5609C66.5305 25.5158 66.5176 25.4721 66.4957 25.4333C66.4738 25.3945 66.4435 25.3617 66.4072 25.3376Z" fill="white"/>
<path opacity="0.2" d="M80.6659 17.7174C80.7012 17.7059 80.7311 17.6808 80.7494 17.647C80.7678 17.6133 80.7733 17.5734 80.7647 17.5356L81.1775 17.411L82.6975 16.9332L84.042 15.1753L87.255 14.1367C87.255 14.0978 87.255 14.0614 87.255 14.0225L84.0346 15.0767H84.0197L82.6876 16.8527L81.1874 17.3565L80.7795 17.4993C80.7662 17.4627 80.7402 17.4328 80.7067 17.4155C80.6733 17.3982 80.6349 17.3947 80.5991 17.4058C80.5808 17.4117 80.5637 17.4214 80.5489 17.4343C80.5341 17.4472 80.5219 17.463 80.5129 17.4808C80.504 17.4987 80.4984 17.5182 80.4967 17.5383C80.495 17.5584 80.497 17.5787 80.5027 17.5979C80.5099 17.6362 80.531 17.6699 80.5614 17.6922C80.5918 17.7145 80.6292 17.7235 80.6659 17.7174Z" fill="white"/>
<path opacity="0.2" d="M75.1048 29.1062C75.0899 29.0543 75.0751 28.9894 75.0529 28.9089L74.8057 28.0053C74.5932 27.2445 74.2892 26.1877 73.9481 25.0374C73.8418 24.6739 73.738 24.3233 73.6391 23.9988V23.978H73.6218L71.6792 22.9056C71.5927 22.6304 71.521 22.4045 71.4642 22.2305C71.4271 22.1136 71.3999 22.0383 71.3876 22.0072C71.4056 22.0098 71.4239 22.0098 71.4419 22.0072C71.4781 21.9986 71.51 21.9763 71.5315 21.9445C71.5529 21.9128 71.5625 21.8738 71.5584 21.8351C71.5543 21.7964 71.5367 21.7606 71.5091 21.7347C71.4814 21.7087 71.4457 21.6943 71.4086 21.6943C71.3715 21.6943 71.3357 21.7087 71.3081 21.7347C71.2804 21.7606 71.2629 21.7964 71.2588 21.8351C71.2546 21.8738 71.2642 21.9128 71.2857 21.9445C71.3072 21.9763 71.339 21.9986 71.3752 22.0072C71.3752 22.0409 71.3999 22.1188 71.4321 22.2435C71.4815 22.4226 71.5457 22.6563 71.6224 22.942H71.6347L73.5502 24.0247L73.8517 25.0634C74.1928 26.2214 74.5067 27.2653 74.7365 28.0235C74.8527 28.387 74.9466 28.6882 75.0183 28.9167C75.043 28.9946 75.0652 29.0595 75.0825 29.1088C75.0502 29.1225 75.0233 29.1472 75.0059 29.1789L75.2333 29.1374C75.2157 29.122 75.1949 29.1111 75.1726 29.1057C75.1503 29.1003 75.127 29.1004 75.1048 29.1062Z" fill="white"/>
<path opacity="0.2" d="M64.0373 8.23494C64.0456 8.26468 64.0622 8.29113 64.0849 8.31091C64.1076 8.33069 64.1355 8.3429 64.1648 8.34598C64.1942 8.34905 64.2238 8.34286 64.2498 8.32818C64.2757 8.3135 64.297 8.29101 64.3107 8.26359C64.3245 8.23616 64.3301 8.20505 64.327 8.17423C64.3238 8.14341 64.312 8.11428 64.293 8.09057C64.2739 8.06686 64.2486 8.04965 64.2203 8.04114C64.1919 8.03263 64.1617 8.03321 64.1337 8.0428C64.097 8.05534 64.0664 8.08243 64.0484 8.11831C64.0304 8.15419 64.0264 8.19603 64.0373 8.23494Z" fill="white"/>
<path opacity="0.2" d="M78.1627 19.5007L78.4444 19.4072L78.4939 19.3891C78.4927 19.3994 78.4927 19.4099 78.4939 19.4202C78.4992 19.4606 78.5189 19.4974 78.549 19.5231C78.5792 19.5488 78.6175 19.5616 78.6562 19.5588C78.6949 19.556 78.7312 19.5378 78.7577 19.508C78.7842 19.4782 78.7989 19.4389 78.7989 19.3982C78.7989 19.3574 78.7842 19.3181 78.7577 19.2883C78.7312 19.2585 78.6949 19.2403 78.6562 19.2375C78.6175 19.2347 78.5792 19.2475 78.549 19.2732C78.5189 19.2989 78.4992 19.3357 78.4939 19.3761H78.442L78.1553 19.454L77.0974 19.7552L73.5483 20.7938C73.4173 20.3836 73.2814 19.9577 73.1405 19.5215L73.0293 19.171C73.3802 18.5452 73.7188 17.948 74.0179 17.4001V17.3819V17.3611C73.8745 16.886 73.7411 16.4368 73.62 16.0317V16.0135H73.6051L73.1108 15.7383H73.096H73.0812L71.4821 16.2784L71.0471 16.4316L70.9927 16.4497C70.9752 16.3831 70.9346 16.3257 70.879 16.2888C70.8269 16.254 70.7643 16.2411 70.7035 16.2524C70.6615 16.2524 70.6442 16.2784 70.6442 16.2836C70.6442 16.2888 70.7406 16.2836 70.837 16.3511C70.8756 16.3844 70.9011 16.4316 70.9087 16.4835H70.8963C70.8963 16.4835 70.8963 16.4835 70.9111 16.4835C70.9124 16.4991 70.9124 16.5147 70.9111 16.5302C70.9083 16.5717 70.8936 16.6113 70.8688 16.6437C70.8441 16.6762 70.8106 16.7 70.7727 16.712C70.7347 16.7237 70.6942 16.7234 70.6563 16.7109C70.6185 16.6984 70.585 16.6744 70.5602 16.6419C70.5392 16.6146 70.5248 16.5824 70.5184 16.548C70.5119 16.5137 70.5135 16.4781 70.5231 16.4445C70.5602 16.3225 70.6541 16.2914 70.6442 16.2758C70.6343 16.2602 70.6195 16.2758 70.5799 16.2758C70.5242 16.3031 70.4801 16.3512 70.4564 16.4108C70.4373 16.4566 70.43 16.5068 70.4352 16.5565C70.4404 16.6061 70.4579 16.6535 70.486 16.6938C70.5211 16.7449 70.5707 16.7832 70.6276 16.8031C70.6845 16.8231 70.7459 16.8238 70.8032 16.8052C70.8605 16.7866 70.9108 16.7495 70.947 16.6992C70.9832 16.649 71.0035 16.5881 71.005 16.525C71.0088 16.501 71.0088 16.4764 71.005 16.4523L71.0594 16.4368L71.5018 16.3043L73.096 15.8058L73.5656 16.0655C73.6817 16.4627 73.8127 16.899 73.9413 17.3637L72.9353 19.132V19.1528V19.1761C72.9724 19.2956 73.0144 19.4358 73.054 19.5527C73.1998 20.0045 73.3431 20.4433 73.4791 20.8691L73.4939 20.9184L73.5409 20.9029L77.1147 19.8331L78.1627 19.5007Z" fill="white"/>
<path opacity="0.2" d="M75.918 19.4887C75.6461 18.5175 75.3619 17.4945 75.0727 16.4585C75.0307 16.3156 74.9911 16.1728 74.9516 16.03V16.0093H74.9318L73.3006 15.0537H73.2833H73.2611L64.8701 17.7853L60.3867 22.5786C60.4013 22.5974 60.4145 22.6174 60.4263 22.6383L64.9245 17.8606L73.2882 15.1498L74.8824 16.082C74.9195 16.2196 74.959 16.3416 74.9961 16.4896C75.2927 17.5464 75.5818 18.5851 75.8587 19.5718L75.8735 19.6237L75.9205 19.6081L87.1611 16.0871C87.1611 16.0586 87.1611 16.03 87.1611 16.0015L75.918 19.4887Z" fill="white"/>
<path opacity="0.2" d="M74.6193 13.9437C74.7107 14.2345 74.8368 14.6448 74.9974 15.1615H75.0098L77.8348 16.6182H77.8521H77.8694L81.0379 15.5795L86.5075 13.819L87.2687 13.5594C87.2687 13.5386 87.2687 13.5178 87.2687 13.4971L86.4902 13.7567L81.0033 15.5224L77.8545 16.561L75.0444 15.1485L74.644 13.9333L74.5328 13.6139C74.5218 13.5768 74.5069 13.5411 74.4883 13.5075C74.4945 13.5454 74.5036 13.5827 74.5155 13.6191L74.6193 13.9437Z" fill="white"/>
<path opacity="0.2" d="M76.6015 9.43305H76.5891L75.8699 10.2354L73.2871 11.0949L72.5456 11.3545C72.474 11.3779 72.4171 11.4012 72.3677 11.4194C72.3478 11.3611 72.3105 11.311 72.2614 11.2766C72.2093 11.2419 72.1467 11.2289 72.0859 11.2403C72.0439 11.2403 72.0241 11.2662 72.0266 11.2714C72.0291 11.2766 72.123 11.2584 72.2194 11.3389C72.2519 11.3693 72.2751 11.409 72.2861 11.4532C72.29 11.4764 72.29 11.5001 72.2861 11.5233C72.2826 11.5645 72.2674 11.6037 72.2425 11.6358C72.2177 11.6679 72.1842 11.6915 72.1465 11.7035C72.1088 11.7155 72.0685 11.7154 72.0309 11.7032C71.9932 11.691 71.9599 11.6672 71.9352 11.6349C71.9142 11.6077 71.8998 11.5755 71.8934 11.5411C71.8869 11.5067 71.8885 11.4712 71.8981 11.4376C71.9327 11.3156 72.0291 11.2844 72.0192 11.2688C72.0093 11.2532 71.9945 11.2688 71.9549 11.2688C71.8992 11.2961 71.8551 11.3443 71.8314 11.4038C71.8123 11.4496 71.805 11.4999 71.8102 11.5495C71.8154 11.5992 71.8329 11.6465 71.861 11.6869C71.8961 11.738 71.9457 11.7762 72.0026 11.7962C72.0595 11.8162 72.1209 11.8169 72.1782 11.7982C72.2355 11.7796 72.2858 11.7426 72.322 11.6923C72.3582 11.642 72.3785 11.5811 72.38 11.5181C72.3814 11.4864 72.3772 11.4547 72.3677 11.4246L72.5456 11.3727L73.2871 11.1442L75.8921 10.3185H75.9045L76.6262 9.52133L78.0078 9.10328L82.2737 7.78941L83.5614 7.37915L83.895 7.2675C83.9017 7.28745 83.912 7.30582 83.9254 7.32158C83.9388 7.33733 83.9551 7.35016 83.9732 7.35932C83.9913 7.36848 84.011 7.3738 84.0311 7.37498C84.0512 7.37616 84.0713 7.37316 84.0903 7.36617C84.1093 7.35918 84.1268 7.34833 84.1418 7.33424C84.1567 7.32015 84.169 7.30309 84.1777 7.28404C84.1864 7.26499 84.1915 7.24433 84.1926 7.22322C84.1937 7.20212 84.1909 7.18099 84.1842 7.16104C84.1734 7.12179 84.1482 7.08866 84.1141 7.06894C84.08 7.04921 84.0399 7.04452 84.0025 7.05588C83.9652 7.06724 83.9336 7.09373 83.9149 7.12953C83.8961 7.16532 83.8916 7.20748 83.9024 7.24673L83.5663 7.34021L82.2663 7.71671L77.9929 8.99942L76.6015 9.43305Z" fill="white"/>
<path opacity="0.2" d="M72.4011 26.1408C72.28 25.7279 72.1539 25.3281 72.0476 24.9464V24.923H72.0254L71.0121 24.5283H70.9972H70.9824L68.9631 25.2034L68.3947 25.4034L68.3279 25.4267C68.3146 25.3909 68.2889 25.3616 68.2559 25.3447C68.2229 25.3279 68.1851 25.3247 68.15 25.3359C68.1127 25.3484 68.0817 25.3759 68.0636 25.4124C68.0455 25.4488 68.0419 25.4913 68.0536 25.5306C68.0592 25.5499 68.0684 25.5678 68.0807 25.5834C68.093 25.5989 68.108 25.6118 68.125 25.6212C68.142 25.6306 68.1606 25.6364 68.1797 25.6382C68.1989 25.64 68.2182 25.6379 68.2365 25.6319C68.2717 25.621 68.3015 25.5963 68.3199 25.563C68.3383 25.5296 68.3438 25.4902 68.3354 25.4527L68.4021 25.4319L68.9804 25.258L70.9948 24.6244L71.9686 25.0113C72.0773 25.3878 72.1935 25.7903 72.3121 26.1823L73.2711 29.3943H73.3477C73.0808 28.4803 72.7545 27.3612 72.4011 26.1408Z" fill="white"/>
<path opacity="0.2" d="M74.2866 28.3708V28.35V28.3292C73.8195 26.7453 73.3771 25.2523 72.9915 23.9462V23.928H72.9767L71.4938 23.1179C71.1576 21.9988 70.8833 21.0874 70.688 20.4434L70.4606 19.706C70.4359 19.6307 70.4162 19.571 70.4013 19.5216H70.4433C70.4806 19.5091 70.5117 19.4816 70.5297 19.4451C70.5478 19.4086 70.5514 19.3661 70.5397 19.3269C70.5283 19.288 70.5026 19.2555 70.4683 19.2365C70.434 19.2175 70.3939 19.2136 70.3568 19.2256C70.3198 19.2377 70.2888 19.2647 70.2708 19.3007C70.2527 19.3368 70.249 19.3789 70.2605 19.4178C70.2696 19.4493 70.2884 19.4767 70.3138 19.4959C70.3393 19.5152 70.37 19.5251 70.4013 19.5242C70.4013 19.5762 70.431 19.6385 70.4508 19.7164C70.5002 19.8955 70.5694 20.1448 70.6584 20.459C70.8462 21.1081 71.1107 22.0325 71.4369 23.162V23.1776H71.4517L72.9199 23.9981L74.1927 28.3448L74.0889 28.5525L73.6836 29.3601H73.8047L74.1804 28.6122L74.2866 28.3708Z" fill="white"/>
<path opacity="0.2" d="M86.1815 18.8275L79.1276 21.1021L77.5829 21.6058H77.5508V21.6421C77.5088 22.3614 77.4668 23.0521 77.4297 23.7194V23.7376C77.924 25.3916 78.3565 26.8535 78.6976 27.9908L78.7569 27.9622C78.4233 26.8197 78.0006 25.3656 77.5211 23.7168C77.5607 23.0754 77.6002 22.3977 77.6422 21.6941L79.1548 21.2059L86.1988 18.9002L86.5324 18.7885C86.5324 18.7625 86.5497 18.734 86.5596 18.708L86.1815 18.8275Z" fill="white"/>
<path opacity="0.2" d="M75.9359 14.7136V14.737H75.9582L76.5414 14.9966L78.1776 15.7496H78.1949H78.2122L81.8133 14.5864L82.8563 14.2306L83.1034 14.1475C83.1163 14.1838 83.1419 14.2135 83.1751 14.2304C83.2082 14.2473 83.2463 14.2502 83.2814 14.2384C83.2997 14.2324 83.3168 14.2227 83.3315 14.2099C83.3463 14.197 83.3585 14.1812 83.3675 14.1633C83.3764 14.1455 83.3819 14.126 83.3837 14.1059C83.3855 14.0858 83.3834 14.0655 83.3778 14.0463C83.3721 14.027 83.3629 14.0091 83.3506 13.9936C83.3383 13.9781 83.3233 13.9652 83.3063 13.9558C83.2893 13.9464 83.2707 13.9406 83.2516 13.9388C83.2325 13.9369 83.2132 13.939 83.1949 13.945C83.1596 13.9564 83.1299 13.9817 83.112 14.0156C83.094 14.0494 83.0892 14.0893 83.0985 14.1268L82.8513 14.1969L81.7984 14.524L78.2147 15.6691L76.5958 14.9187L76.0323 14.6591L75.1079 11.5432L75.0956 11.499L75.0536 11.5146L72.7847 12.2702L72.152 12.4883L72.0679 12.5195C72.0519 12.5032 72.0345 12.4885 72.016 12.4753C71.9639 12.4406 71.9013 12.4277 71.8405 12.439C71.7985 12.439 71.7812 12.465 71.7837 12.4701C71.7862 12.4753 71.8776 12.4701 71.974 12.5377L71.9864 12.5506C71.9676 12.5567 71.9494 12.5646 71.932 12.574C71.932 12.574 71.9518 12.574 71.9913 12.574C72.0104 12.596 72.0251 12.6218 72.0344 12.65C72.0438 12.6781 72.0476 12.7079 72.0457 12.7376C72.0419 12.7787 72.0268 12.8178 72.0022 12.8501C71.9776 12.8824 71.9446 12.9064 71.9073 12.9194C71.8694 12.931 71.8292 12.9309 71.7914 12.9189C71.7537 12.9069 71.72 12.8836 71.6947 12.8518C71.6729 12.8245 71.6579 12.792 71.651 12.7571C71.6441 12.7222 71.6455 12.6861 71.6552 12.6519C71.6922 12.5299 71.7862 12.4987 71.7787 12.4831C71.7713 12.4675 71.7516 12.4831 71.712 12.4831C71.6563 12.5104 71.6122 12.5586 71.5884 12.6181C71.5699 12.6645 71.5629 12.715 71.5681 12.765C71.5733 12.815 71.5905 12.8627 71.6181 12.9038C71.6537 12.9544 71.7034 12.9921 71.7603 13.0118C71.8172 13.0315 71.8785 13.0321 71.9358 13.0135C71.993 12.995 72.0434 12.9583 72.0799 12.9084C72.1164 12.8585 72.1373 12.7979 72.1396 12.735C72.1397 12.6651 72.117 12.5973 72.0753 12.5428L72.1544 12.5195L72.7946 12.3247L75.0338 11.6185C75.2982 12.5273 75.6072 13.5789 75.9359 14.7136Z" fill="white"/>
<path opacity="0.2" d="M86.558 10.2419L84.9638 9.35645H84.944H84.9242L84.8056 9.39539L79.0321 11.2805L77.9816 10.9248H77.9693L76.7681 11.3169H76.7533C76.385 12.0595 76.0785 12.6801 75.8438 13.1578C75.9673 13.5664 76.0637 13.8805 76.1329 14.1004L76.2095 14.3393C76.2164 14.3672 76.2263 14.3943 76.2392 14.4198C76.2392 14.4198 76.2392 14.3912 76.2194 14.3367C76.1997 14.2821 76.1824 14.1939 76.1552 14.0926L75.8833 13.1864C76.1305 12.7138 76.432 12.1062 76.8052 11.3688L77.9718 10.9949L79.0197 11.3584H79.0345H79.0469L84.8353 9.49926L84.9341 9.4655L86.5308 10.3509H86.5481H86.5678L86.857 10.2575C86.857 10.2237 86.8422 10.1899 86.8323 10.1562L86.558 10.2419Z" fill="white"/>
<path opacity="0.2" d="M65.2986 1.56949H65.3184L67.004 2.50166C67.4365 3.94795 67.822 5.24364 68.131 6.28227V6.30305H68.1508L69.6337 6.70552H69.6461L70.4518 6.43028L70.6594 6.35498C70.6837 6.34918 70.707 6.33955 70.7286 6.32642C70.7033 6.32821 70.6784 6.33344 70.6544 6.34199L70.4444 6.40431L69.6386 6.66397L68.1977 6.24332C67.8937 5.20469 67.518 3.90641 67.0954 2.45492V2.43415H67.0756L65.3876 1.49678L65.1256 0.619141L65.0391 0.673668L65.2862 1.54872L65.2986 1.56949Z" fill="white"/>
<path opacity="0.2" d="M67.9062 2.1758V2.19398V2.21215C68.2152 3.23261 68.4772 4.10506 68.67 4.73602C68.7614 5.03463 68.838 5.27611 68.8949 5.45787C68.9192 5.54666 68.9498 5.63345 68.9863 5.71753C68.972 5.62945 68.9514 5.54265 68.9245 5.45787C68.8726 5.27611 68.8059 5.03203 68.7243 4.73083C68.5414 4.09727 68.2943 3.23001 68.0026 2.21215C68.3116 1.59676 68.6527 0.913864 69.0086 0.217982L69.5474 -0.859597V-0.877772V-0.898546C69.5202 -0.984233 69.4955 -1.06732 69.4707 -1.1582L69.3768 -1.13743C69.3991 -1.05694 69.4213 -0.979039 69.446 -0.895949C69.273 -0.549739 69.0959 -0.19747 68.9146 0.160858L67.9062 2.1758Z" fill="white"/>
<path opacity="0.2" d="M69.545 1.75544C69.5547 1.7289 69.557 1.70001 69.5518 1.67211C69.5465 1.64422 69.5338 1.61845 69.5152 1.59781C69.4966 1.57716 69.4728 1.56248 69.4466 1.55545C69.4203 1.54842 69.3928 1.54934 69.367 1.5581C69.3484 1.56375 69.3311 1.57324 69.316 1.58599C69.301 1.59875 69.2885 1.61453 69.2793 1.63242C69.2701 1.6503 69.2643 1.66993 69.2624 1.69016C69.2605 1.71039 69.2625 1.73082 69.2681 1.75025C69.2801 1.78941 69.3063 1.82203 69.341 1.841C69.3757 1.85997 69.4161 1.86375 69.4535 1.85152C69.4835 1.8402 69.5095 1.81933 69.5277 1.7918C69.5721 1.82295 69.6315 1.85931 69.7007 1.90085C69.886 2.01251 70.1505 2.16051 70.4619 2.34227L70.6596 3.03296C70.8178 3.57045 70.9686 4.05601 71.0798 4.40655C71.1323 4.59828 71.2001 4.78502 71.2824 4.96481C71.2535 4.76735 71.2089 4.57279 71.149 4.38318C71.0551 4.02745 70.9166 3.53929 70.7585 3.0018C70.6843 2.74214 70.6127 2.51624 70.5459 2.29553V2.27476H70.5286C70.2073 2.10079 69.9305 1.95538 69.7328 1.85671L69.545 1.75544Z" fill="white"/>
<path opacity="0.2" d="M72.0043 5.29747V5.31305H72.0166L72.9262 5.96999H72.9459H72.9682L77.2613 4.58082L79.4733 3.85897H79.4931V3.8382L80.7437 1.09881L80.6646 1.04169L79.4263 3.78627L77.2341 4.49773L72.9682 5.8869L72.0883 5.25593L70.1506 -1.26148V-1.29004H70.0938V-1.25109C70.5658 0.361383 71.2282 2.63079 72.0043 5.29747Z" fill="white"/>
<path opacity="0.2" d="M74.1503 6.53877L73.1295 6.85295L69.7731 7.94092L69.6347 7.46574L69.6224 7.42939V7.40083H69.5976L68.1024 6.88151H68.0875H68.0727L65.3812 7.77733L64.6026 8.03699L64.3975 8.11229C64.3505 8.13047 64.3258 8.14085 64.3283 8.14345C64.3529 8.14624 64.3778 8.14624 64.4024 8.14345L64.6125 8.08113L65.3985 7.84225L68.0875 6.99057L69.5408 7.48652L69.6965 8.00583L69.7113 8.05776L69.7608 8.03959L73.1616 6.92306L74.175 6.57772L74.4468 6.47905C74.4791 6.47001 74.5099 6.45601 74.5383 6.4375L74.4394 6.45827L74.1503 6.53877Z" fill="white"/>
<path opacity="0.2" d="M60.7148 4.79606L61.8196 5.55686H61.8394H61.8617L64.2838 4.75712L64.6916 6.08137L64.7905 6.39036C64.7905 6.39036 64.7905 6.39036 64.7905 6.40334C64.7905 6.41633 64.7905 6.40334 64.8053 6.40334L64.8201 6.44489C64.8324 6.48859 64.8481 6.53115 64.8671 6.57212C64.8643 6.52597 64.8551 6.48049 64.8399 6.4371V6.40594C64.8951 6.4076 64.9482 6.42862 64.9907 6.46566C65.0166 6.48822 65.0371 6.51693 65.0504 6.54943C65.0638 6.58194 65.0695 6.6173 65.0673 6.65262C65.0635 6.69376 65.0484 6.73285 65.0238 6.76512C64.9992 6.7974 64.9663 6.82146 64.9289 6.83438C64.8908 6.84648 64.8502 6.84627 64.8123 6.83377C64.7744 6.82126 64.7409 6.79704 64.7163 6.76427C64.6956 6.73684 64.6813 6.70474 64.6744 6.67049C64.6676 6.63624 64.6684 6.60079 64.6768 6.56693C64.7139 6.44489 64.8078 6.41373 64.8004 6.39815C64.7929 6.38257 64.7732 6.39815 64.7361 6.39815C64.6794 6.42491 64.6344 6.47312 64.61 6.53317C64.5915 6.57906 64.5845 6.6292 64.5896 6.67876C64.5948 6.72832 64.6121 6.77565 64.6397 6.8162C64.6753 6.86681 64.725 6.90455 64.7819 6.92422C64.8388 6.94388 64.9001 6.94449 64.9574 6.92596C65.0146 6.90743 65.065 6.87068 65.1015 6.82078C65.138 6.77089 65.1589 6.71031 65.1612 6.64742C65.1633 6.59611 65.1525 6.54512 65.13 6.49956C65.1074 6.45399 65.0739 6.41544 65.0327 6.38776C64.9806 6.35306 64.918 6.34009 64.8572 6.35141H64.8325C64.8102 6.26573 64.7831 6.16186 64.7485 6.03982C64.6545 5.70227 64.5235 5.23748 64.3629 4.66883V4.62988H64.3258L61.8839 5.40886L60.8063 4.66364L60.7148 4.79606Z" fill="white"/>
</g>
</g>
<defs>
<clipPath id="clip0_747_13985">
<rect width="250.835" height="165" fill="white"/>
</clipPath>
</defs>
</svg>
