<?xml version="1.0" standalone="no"?>
<!DOCTYPE svg PUBLIC "-//W3C//DTD SVG 20010904//EN"
 "http://www.w3.org/TR/2001/REC-SVG-20010904/DTD/svg10.dtd">
<svg version="1.0" xmlns="http://www.w3.org/2000/svg"
 width="225.000000pt" height="225.000000pt" viewBox="0 0 225.000000 225.000000"
 preserveAspectRatio="xMidYMid meet">

<g transform="translate(0.000000,225.000000) scale(0.100000,-0.100000)"
fill="#000000" stroke="none">
<path d="M930 2095 c-203 -43 -376 -140 -520 -291 -118 -124 -199 -268 -247
-446 -26 -93 -25 -364 1 -468 97 -383 417 -679 800 -740 103 -17 319 -7 411
18 341 93 616 367 707 706 25 94 35 309 19 412 -34 207 -139 403 -297 553
-124 119 -242 186 -414 238 -71 21 -110 26 -240 29 -107 2 -175 -1 -220 -11z
m-52 -420 c62 -19 115 -62 145 -119 20 -37 22 -59 25 -213 l4 -173 74 0 74 0
0 163 c0 158 1 165 28 218 76 150 262 183 382 66 69 -67 70 -69 70 -495 0
-423 1 -419 -66 -486 -112 -111 -288 -91 -379 44 l-30 45 -4 173 -3 173 -67
-7 c-36 -3 -69 -8 -73 -11 -5 -2 -8 -68 -8 -146 -1 -92 -6 -155 -14 -180 -70
-196 -323 -219 -436 -40 l-30 47 0 385 c0 354 2 389 19 426 31 68 90 118 157
134 57 13 75 13 132 -4z"/>
<path d="M732 1560 c-55 -34 -62 -65 -62 -290 0 -110 2 -200 4 -200 2 0 23 11
47 24 40 22 98 41 189 63 l35 9 3 124 c4 166 -2 199 -41 245 -29 34 -39 38
-88 42 -42 3 -61 0 -87 -17z"/>
<path d="M1375 1562 c-58 -36 -69 -65 -73 -199 -5 -148 -1 -173 33 -173 43 0
129 39 188 85 l57 45 0 76 c0 85 -16 128 -57 158 -38 28 -111 32 -148 8z"/>
<path d="M1511 1142 c-35 -20 -96 -43 -135 -52 l-71 -16 0 -155 c0 -132 3
-159 18 -182 46 -71 142 -89 200 -37 54 47 58 65 55 281 l-3 196 -64 -35z"/>
<path d="M870 1044 c-49 -17 -102 -42 -149 -72 l-53 -33 4 -98 c3 -87 6 -100
29 -125 55 -59 144 -64 200 -10 40 39 50 85 47 221 l-3 118 -30 2 c-16 1 -37
0 -45 -3z"/>
</g>
</svg>
