<svg width="16" height="16" viewBox="0 0 16 16" fill="none" xmlns="http://www.w3.org/2000/svg">
<rect width="16" height="16" fill="#0E0D0D"/>
<path d="M10.7074 5.65895V4.76211C10.7074 4.57263 10.5558 4.42105 10.3789 4.42105H6.47579C6.28632 4.42105 6.13474 4.57263 6.13474 4.76211V5.59579C6.13474 5.77263 5.99579 5.92421 5.80632 5.92421H4.97263C4.78316 5.92421 4.63158 6.07579 4.63158 6.26526V7.16211C4.63158 7.33895 4.78316 7.49053 4.97263 7.49053H5.80632C5.99579 7.49053 6.13474 7.64211 6.13474 7.83158V8.66526C6.13474 8.84211 6.28632 8.99368 6.47579 8.99368H8.81263C8.98947 8.99368 9.14105 9.14526 9.14105 9.33474V10.1053C9.14105 10.2821 8.98947 10.4337 8.81263 10.4337H4.97263C4.78316 10.4337 4.63158 10.5853 4.63158 10.7747V11.6716C4.63158 11.8484 4.78316 12 4.97263 12H8.87579C9.05263 12 9.20421 11.8484 9.20421 11.6716V10.8253C9.20421 10.6484 9.35579 10.4968 9.54526 10.4968H10.3789C10.5558 10.4968 10.7074 10.3453 10.7074 10.1684V9.27158C10.7074 9.08211 10.5558 8.93053 10.3789 8.93053H9.54526C9.35579 8.93053 9.20421 8.77895 9.20421 8.60211V7.76842C9.20421 7.57895 9.05263 7.42737 8.87579 7.42737H6.53895C6.34947 7.42737 6.19789 7.27579 6.19789 7.09895V6.32842C6.19789 6.13895 6.34947 5.98737 6.53895 5.98737H10.3789C10.5558 5.98737 10.7074 5.83579 10.7074 5.65895Z" fill="#FFFEFE"/>
</svg>
