<svg width="21" height="19" viewBox="0 0 21 19" fill="none" xmlns="http://www.w3.org/2000/svg">
<path d="M1.55566 2.3806V7.71392M1.55566 7.71392H6.88899M1.55566 7.71392L5.6801 3.83837C6.90758 2.61297 8.50006 1.81968 10.2176 1.57803C11.9351 1.33639 13.6847 1.65947 15.2026 2.49861C16.7206 3.33775 17.9247 4.64748 18.6335 6.23046C19.3424 7.81344 19.5176 9.58392 19.1327 11.2751C18.7479 12.9663 17.8238 14.4867 16.4998 15.607C15.1757 16.7274 13.5234 17.3871 11.7918 17.4868C10.0603 17.5864 8.34319 17.1206 6.89935 16.1596C5.45551 15.1985 4.36312 13.7943 3.78677 12.1584" stroke="#F6C138" stroke-width="2" stroke-linecap="round" stroke-linejoin="round"/>
</svg>
