<svg width="12" height="17" viewBox="0 0 12 17" fill="none" xmlns="http://www.w3.org/2000/svg">
<path d="M6 10.6426C7.42286 10.6426 8.57143 9.49408 8.57143 8.07122V2.92836C8.57143 1.50551 7.42286 0.356934 6 0.356934C4.57714 0.356934 3.42857 1.50551 3.42857 2.92836V8.07122C3.42857 9.49408 4.57714 10.6426 6 10.6426ZM5.14286 2.92836C5.14286 2.45693 5.52857 2.07122 6 2.07122C6.47143 2.07122 6.85714 2.45693 6.85714 2.92836V8.07122C6.85714 8.54265 6.47143 8.92836 6 8.92836C5.52857 8.92836 5.14286 8.54265 5.14286 8.07122V2.92836ZM10.2857 8.07122C10.2857 10.4369 8.36571 12.3569 6 12.3569C3.63429 12.3569 1.71429 10.4369 1.71429 8.07122H0C0 11.0969 2.23714 13.5826 5.14286 14.0026V16.6426H6.85714V14.0026C9.76286 13.5826 12 11.0969 12 8.07122H10.2857Z" fill="white"/>
</svg>
