<svg width="26" height="24" viewBox="0 0 26 24" fill="none" xmlns="http://www.w3.org/2000/svg">
<path d="M20.504 8.86825C20.504 7.00789 19.7314 5.22373 18.3561 3.90826C16.9808 2.59278 15.1156 1.85376 13.1707 1.85376C11.2257 1.85376 9.36047 2.59278 7.98521 3.90826C6.60994 5.22373 5.83732 7.00789 5.83732 8.86825C5.83732 14.8022 3.38369 17.6628 2.03471 18.7871C1.83215 18.9559 1.96402 19.39 2.22771 19.39H8.69279C8.80976 19.39 8.91139 19.4691 8.94587 19.5809C9.16976 20.3067 10.1693 22.8538 13.1707 22.8538C16.172 22.8538 17.1715 20.3067 17.3954 19.5809C17.4299 19.4691 17.5316 19.39 17.6485 19.39H24.1136C24.3773 19.39 24.5092 18.9559 24.3066 18.7871C22.9576 17.6628 20.504 14.8022 20.504 8.86825Z" stroke="#F8F8F8" stroke-width="2"/>
</svg>
