<svg width="16" height="15" viewBox="0 0 16 15" fill="none" xmlns="http://www.w3.org/2000/svg">
<path d="M11.0524 1.08238L10.6917 1.64305C10.545 1.54865 10.3786 1.50016 10.2112 1.50016H5.78906C5.62163 1.50016 5.45529 1.54865 5.30855 1.64305C5.1618 1.73767 5.03973 1.87516 4.95912 2.04318L4.77763 2.42148H4.77743L4.60121 2.78865L4.41969 3.16687H4.00017H1.60018H1.5999C1.36144 3.16687 1.12683 3.26535 0.949545 3.45003C0.771278 3.63573 0.666667 3.89299 0.666667 4.16691V12.5001C0.666667 12.7739 0.771299 13.0313 0.949542 13.217C1.12683 13.4017 1.36145 13.5002 1.5999 13.5002H14.4001C14.6386 13.5002 14.8732 13.4017 15.0505 13.217C15.2287 13.0313 15.3333 12.7739 15.3333 12.5001V4.16691C15.3333 3.89299 15.2287 3.63572 15.0505 3.45003C14.8732 3.26535 14.6386 3.16687 14.4001 3.16687H12.0001H11.5807L11.3991 2.78874L11.0412 2.04335L11.0412 2.04318C10.9605 1.87505 10.8383 1.73749 10.6914 1.64282L11.0524 1.08238ZM11.0524 1.08238C10.7996 0.919714 10.5083 0.833496 10.2112 0.833496H5.78906C5.49201 0.833496 5.20072 0.919714 4.94786 1.08238L12.0001 2.5002L11.6422 1.75481C11.5094 1.47788 11.3051 1.24519 11.0524 1.08238ZM8.00028 12.3336C9.03482 12.3336 10.021 11.9052 10.7439 11.1523L8.00028 12.3336ZM8.00028 12.3336C6.96573 12.3336 5.97951 11.9052 5.25669 11.1523L8.00028 12.3336ZM11.8669 8.33355C11.8669 9.38577 11.4659 10.4003 10.7439 11.1522L5.25664 11.1522C4.53461 10.4003 4.13367 9.38577 4.13367 8.33355C4.13367 7.28126 4.53466 6.26693 5.25664 5.51487C5.97951 4.76187 6.96579 4.3336 8.00028 4.3336C9.03477 4.3336 10.021 4.76187 10.7439 5.51487C11.4659 6.26693 11.8669 7.28126 11.8669 8.33355Z" stroke="white" stroke-width="1.33333"/>
</svg>
