<svg width="35" height="29" viewBox="0 0 35 29" fill="none" xmlns="http://www.w3.org/2000/svg">
<path d="M3.70369 4.08998H8.90872L9.68457 2.53806H9.68486C9.973 1.9615 10.4159 1.47698 10.964 1.13806C11.5124 0.79938 12.1442 0.619873 12.7884 0.619873H22.379C23.0233 0.619873 23.655 0.79938 24.2034 1.13806C24.7515 1.47702 25.1945 1.96149 25.4826 2.53806L26.2587 4.08998H31.4638C32.3839 4.08998 33.2666 4.45567 33.9173 5.1063C34.5682 5.75722 34.9336 6.63963 34.9336 7.5601V24.91C34.9336 25.8301 34.5682 26.7128 33.9173 27.3638C33.2666 28.0144 32.3839 28.3801 31.4638 28.3801H3.70309C2.78291 28.3801 1.90021 28.0144 1.24958 27.3638C0.598663 26.7129 0.233261 25.8301 0.233261 24.91V7.5601C0.233261 6.63963 0.598663 5.75723 1.24958 5.1063C1.90021 4.45567 2.78291 4.08998 3.70309 4.08998H3.70369ZM17.584 23.1754C19.4247 23.1754 21.1898 22.444 22.4913 21.1424C23.7929 19.8412 24.524 18.0758 24.524 16.2351C24.524 14.3945 23.7929 12.6294 22.4913 11.3278C21.1898 10.0262 19.4247 9.29517 17.584 9.29517C15.7434 9.29517 13.9783 10.0262 12.6767 11.3278C11.3752 12.6294 10.6441 14.3945 10.6441 16.2351C10.6441 18.0758 11.3752 19.8412 12.6767 21.1424C13.9783 22.444 15.7434 23.1754 17.584 23.1754Z" fill="#F6C138"/>
</svg>
