<svg width="21" height="19" viewBox="0 0 21 19" fill="none" xmlns="http://www.w3.org/2000/svg">
<path d="M12 0.614197C7.03 0.614197 3 4.6442 3 9.6142H0L3.89 13.5042L3.96 13.6442L8 9.6142H5C5 5.7442 8.13 2.6142 12 2.6142C15.87 2.6142 19 5.7442 19 9.6142C19 13.4842 15.87 16.6142 12 16.6142C10.07 16.6142 8.32 15.8242 7.06 14.5542L5.64 15.9742C7.27 17.6042 9.51 18.6142 12 18.6142C16.97 18.6142 21 14.5842 21 9.6142C21 4.6442 16.97 0.614197 12 0.614197ZM11 5.6142V10.6142L15.28 13.1542L16 11.9442L12.5 9.8642V5.6142H11Z" fill="white"/>
</svg>
