<svg width="18" height="18" viewBox="0 0 18 18" fill="none" xmlns="http://www.w3.org/2000/svg">
<path fill-rule="evenodd" clip-rule="evenodd" d="M9.16674 15.8242C9.11128 15.8251 9.0557 15.8255 9 15.8255C4.02944 15.8255 0 12.5039 0 8.40662C0 4.3093 4.02944 0.987762 9 0.987762C13.9706 0.987762 18 4.3093 18 8.40662C18 9.44284 17.7423 10.4294 17.2768 11.3253C16.6523 12.5917 15.6883 13.722 14.6428 14.697C13.0496 16.1827 11.2063 17.3041 9.89374 17.9362C9.54653 18.1033 9.16674 17.8416 9.16674 17.477V15.8242ZM5.91429 8.79035C5.91429 9.49678 5.33865 10.0695 4.62857 10.0695C3.91849 10.0695 3.34286 9.49678 3.34286 8.79035C3.34286 8.08391 3.91849 7.51124 4.62857 7.51124C5.33865 7.51124 5.91429 8.08391 5.91429 8.79035ZM9 10.0695C9.71008 10.0695 10.2857 9.49678 10.2857 8.79035C10.2857 8.08391 9.71008 7.51124 9 7.51124C8.28992 7.51124 7.71429 8.08391 7.71429 8.79035C7.71429 9.49678 8.28992 10.0695 9 10.0695ZM14.6571 8.79035C14.6571 9.49678 14.0815 10.0695 13.3714 10.0695C12.6613 10.0695 12.0857 9.49678 12.0857 8.79035C12.0857 8.08391 12.6613 7.51124 13.3714 7.51124C14.0815 7.51124 14.6571 8.08391 14.6571 8.79035Z" fill="#F6C138"/>
</svg>
