<svg width="14" height="15" viewBox="0 0 14 15" fill="none" xmlns="http://www.w3.org/2000/svg">
<path d="M2.33333 13.5H11.6667C12.403 13.5 13 12.903 13 12.1667V2.83333C13 2.09695 12.403 1.5 11.6667 1.5H2.33333C1.59695 1.5 1 2.09695 1 2.83333V12.1667C1 12.903 1.59695 13.5 2.33333 13.5ZM2.33333 13.5L9.66667 6.16667L13 9.5M5.66667 5.16667C5.66667 5.71895 5.21895 6.16667 4.66667 6.16667C4.11438 6.16667 3.66667 5.71895 3.66667 5.16667C3.66667 4.61438 4.11438 4.16667 4.66667 4.16667C5.21895 4.16667 5.66667 4.61438 5.66667 5.16667Z" stroke="#F6C138" stroke-width="2" stroke-linecap="round" stroke-linejoin="round"/>
</svg>
