<svg width="25" height="25" viewBox="0 0 25 25" fill="none" xmlns="http://www.w3.org/2000/svg">
<g opacity="0.9" filter="url(#filter0_d_1_3912)">
<path d="M18.7929 4.29289C19.1834 3.90237 19.8166 3.90237 20.2071 4.29289C20.5976 4.68342 20.5976 5.31658 20.2071 5.70711L13.6642 12.25L20.2071 18.7929C20.5976 19.1834 20.5976 19.8166 20.2071 20.2071C19.8166 20.5976 19.1834 20.5976 18.7929 20.2071L12.25 13.6642L5.70711 20.2071C5.31658 20.5976 4.68342 20.5976 4.29289 20.2071C3.90237 19.8166 3.90237 19.1834 4.29289 18.7929L10.8358 12.25L4.29289 5.70711C3.90237 5.31658 3.90237 4.68342 4.29289 4.29289C4.68342 3.90237 5.31658 3.90237 5.70711 4.29289L12.25 10.8358L18.7929 4.29289Z" fill="white"/>
</g>
<defs>
<filter id="filter0_d_1_3912" x="0" y="0.33" width="24.5" height="24.5" filterUnits="userSpaceOnUse" color-interpolation-filters="sRGB">
<feFlood flood-opacity="0" result="BackgroundImageFix"/>
<feColorMatrix in="SourceAlpha" type="matrix" values="0 0 0 0 0 0 0 0 0 0 0 0 0 0 0 0 0 0 127 0" result="hardAlpha"/>
<feOffset dy="0.33"/>
<feGaussianBlur stdDeviation="2"/>
<feColorMatrix type="matrix" values="0 0 0 0 0 0 0 0 0 0 0 0 0 0 0 0 0 0 0.2 0"/>
<feBlend mode="normal" in2="BackgroundImageFix" result="effect1_dropShadow_1_3912"/>
<feBlend mode="normal" in="SourceGraphic" in2="effect1_dropShadow_1_3912" result="shape"/>
</filter>
</defs>
</svg>
