<svg width="25" height="24" viewBox="0 0 25 24" fill="none" xmlns="http://www.w3.org/2000/svg">
<path fill-rule="evenodd" clip-rule="evenodd" d="M12.5 21.399C13.7705 22.6955 15.5413 23.5 17.5 23.5C21.366 23.5 24.5 20.366 24.5 16.5C24.5 13.2013 22.2183 10.4355 19.147 9.69486C19.4276 8.84516 19.5435 7.94681 19.4854 7.04836C19.4081 5.85242 19.025 4.69637 18.3729 3.6909C17.7208 2.68544 16.8214 1.86424 15.7609 1.30595C14.7005 0.747664 13.5145 0.470984 12.3165 0.502407C11.1184 0.533831 9.94855 0.872307 8.91883 1.48542C7.8891 2.09853 7.03404 2.96575 6.43551 4.00402C5.83698 5.04229 5.51504 6.21683 5.50052 7.41518C5.49109 8.19277 5.61132 8.96349 5.85351 9.69639C5.77324 9.71582 5.69322 9.73669 5.61348 9.759C4.19475 10.156 2.93745 10.9906 2.02063 12.1438C1.1038 13.297 0.574204 14.7101 0.507238 16.1818C0.440272 17.6535 0.839356 19.1089 1.64766 20.3406C2.45596 21.5723 3.63228 22.5176 5.00909 23.0418C6.38591 23.5661 7.89303 23.6425 9.31585 23.2604C10.5283 22.9347 11.6269 22.2901 12.5 21.399ZM14.8293 3.07568C14.0718 2.6769 13.2246 2.47927 12.3689 2.50172C11.5132 2.52416 10.6775 2.76593 9.94202 3.20387C9.2065 3.64181 8.59574 4.26125 8.16822 5.00287C7.7407 5.74449 7.51074 6.58345 7.50037 7.43941C7.49171 8.15439 7.63649 8.86123 7.92303 9.5128C8.60228 9.55392 9.27601 9.6941 9.92229 9.93247C10.8994 10.2929 11.7785 10.8647 12.5 11.601C13.6784 10.3985 15.2872 9.61924 17.0771 9.51257C17.3995 8.77924 17.5414 7.97837 17.4896 7.1774C17.4344 6.32316 17.1607 5.49741 16.6949 4.77922C16.2291 4.06103 15.5867 3.47446 14.8293 3.07568ZM11.299 13.2492C10.7458 12.6028 10.0345 12.1055 9.23021 11.8089C8.2429 11.4448 7.16587 11.4014 6.15249 11.685C5.13911 11.9686 4.24104 12.5647 3.58616 13.3884C2.93129 14.2122 2.553 15.2215 2.50517 16.2727C2.45734 17.324 2.7424 18.3635 3.31976 19.2433C3.89712 20.1231 4.73734 20.7983 5.72078 21.1727C6.70422 21.5472 7.78074 21.6018 8.79704 21.3288C9.77204 21.067 10.6439 20.5163 11.299 19.7508C10.7887 18.7794 10.5 17.6734 10.5 16.5C10.5 15.3266 10.7887 14.2206 11.299 13.2492ZM17.5 21.5C20.2614 21.5 22.5 19.2614 22.5 16.5C22.5 13.7386 20.2614 11.5 17.5 11.5C14.7386 11.5 12.5 13.7386 12.5 16.5C12.5 19.2614 14.7386 21.5 17.5 21.5Z" fill="white"/>
</svg>
