<svg width="19" height="25" viewBox="0 0 19 25" fill="none" xmlns="http://www.w3.org/2000/svg">
<path d="M4.82803 1.9253C5.08182 1.07934 5.86047 0.5 6.74368 0.5H14.2627C15.8044 0.5 16.7664 2.17094 15.9922 3.50427L13.3239 8.09979C13.2852 8.16645 13.3333 8.25 13.4103 8.25H16.6311C18.2285 8.25 19.1813 10.0303 18.2952 11.3594L15.4557 15.6187C15.3682 15.75 15.1824 15.7684 15.0709 15.6568L13.9892 14.5752C13.905 14.4909 13.8919 14.3589 13.958 14.2597L16.6311 10.25H13.2366C11.6949 10.25 10.7329 8.57906 11.5071 7.24573L14.1754 2.65021C14.2141 2.58355 14.166 2.5 14.089 2.5H6.92969C6.81929 2.5 6.72196 2.57242 6.69023 2.67816L5.74942 5.8142C5.69506 5.99539 5.46695 6.0529 5.33319 5.91914L4.12854 4.71449C4.0635 4.64946 4.03943 4.55397 4.06586 4.46588L4.82803 1.9253Z" fill="white"/>
<path fill-rule="evenodd" clip-rule="evenodd" d="M0.292893 5.29289C0.683417 4.90237 1.31658 4.90237 1.70711 5.29289L11.4921 15.0779L11.4999 15.0857L13.0938 16.6795L13.1017 16.6875L17.2071 20.7929C17.5976 21.1834 17.5976 21.8166 17.2071 22.2071C16.8166 22.5976 16.1834 22.5976 15.7929 22.2071L13.1081 19.5223L9.93239 23.7566C8.72045 25.3725 6.14989 24.3778 6.3414 22.367L6.90017 16.4999H3.35389C2.00828 16.4999 1.04661 15.1978 1.44234 13.9117L2.86708 9.28129L0.292893 6.70711C-0.0976311 6.31658 -0.0976311 5.68342 0.292893 5.29289ZM4.46725 10.8815L8.08568 14.4999H3.48929C3.42201 14.4999 3.37393 14.4348 3.39371 14.3705L4.46725 10.8815Z" fill="white"/>
</svg>
