<svg width="20" height="28" viewBox="0 0 20 28" fill="none" xmlns="http://www.w3.org/2000/svg">
<path d="M4.63689 27.9204C4.43225 27.834 4.26219 27.6819 4.15355 27.4882C4.0449 27.2944 4.00386 27.07 4.0369 26.8504L5.85689 15.0004H1.0269C0.87377 15.0045 0.721745 14.9734 0.58255 14.9094C0.443354 14.8455 0.32071 14.7504 0.224079 14.6315C0.127448 14.5127 0.0594136 14.3732 0.0252251 14.2239C-0.00896337 14.0746 -0.00839194 13.9194 0.026895 13.7704L3.0269 0.770357C3.07968 0.546627 3.20794 0.347915 3.39008 0.207671C3.57221 0.0674266 3.7971 -0.00578596 4.0269 0.000357412H14.0269C14.1763 -0.00015056 14.3239 0.0328211 14.4589 0.0968497C14.5939 0.160878 14.7128 0.254337 14.8069 0.370357C14.9023 0.487689 14.9699 0.625143 15.0046 0.772374C15.0392 0.919605 15.04 1.07278 15.0069 1.22036L13.2769 9.00036H18.0269C18.2143 8.99998 18.3981 9.05229 18.5572 9.1513C18.7163 9.25031 18.8444 9.39205 18.9269 9.56036C18.9986 9.7219 19.0261 9.89954 19.0068 10.0752C18.9875 10.2509 18.922 10.4183 18.8169 10.5604L5.8169 27.5604C5.72903 27.6906 5.61172 27.7983 5.47447 27.8748C5.33722 27.9512 5.18388 27.9942 5.0269 28.0004C4.89309 27.9979 4.76088 27.9707 4.63689 27.9204V27.9204Z" fill="white"/>
</svg>
