<svg width="28" height="22" viewBox="0 0 28 22" fill="none" xmlns="http://www.w3.org/2000/svg">
<path d="M5.50003 12C5.50003 12.8478 4.51117 13.311 3.85984 12.7682L0.859841 10.2682C0.435564 9.91466 0.378239 9.28409 0.731804 8.85982C1.08537 8.43554 1.71593 8.37822 2.14021 8.73178L3.50003 9.86496V6C3.50003 2.68629 6.18632 0 9.50002 0H19.5C20.3655 0 21.2076 0.280712 21.9 0.800001L23.1 1.7C23.5419 2.03137 23.6314 2.65817 23.3 3.1C22.9687 3.54183 22.3419 3.63137 21.9 3.3L20.7 2.4C20.3538 2.14036 19.9328 2 19.5 2H9.50002C7.29089 2 5.50003 3.79086 5.50003 6V12Z" fill="white"/>
<path d="M22.5001 9.99992C22.5001 9.15208 23.489 8.68892 24.1403 9.2317L27.1403 11.7317C27.5646 12.0853 27.6219 12.7158 27.2684 13.1401C26.9148 13.5644 26.2842 13.6217 25.86 13.2681L24.5001 12.135V15.9999C24.5001 19.3136 21.8139 21.9999 18.5001 21.9999H8.50014C7.63466 21.9999 6.79253 21.7192 6.10014 21.1999L4.90014 20.2999C4.45832 19.9685 4.36877 19.3417 4.70014 18.8999C5.03151 18.4581 5.65832 18.3685 6.10014 18.6999L7.30014 19.5999C7.64634 19.8596 8.0674 19.9999 8.50014 19.9999H18.5001C20.7093 19.9999 22.5001 18.2091 22.5001 15.9999V9.99992Z" fill="white"/>
<path fill-rule="evenodd" clip-rule="evenodd" d="M18.5001 11C18.5001 13.4852 16.4854 15.5 14.0001 15.5C11.5148 15.5 9.50008 13.4852 9.50008 11C9.50008 8.51468 11.5148 6.49996 14.0001 6.49996C16.4854 6.49996 18.5001 8.51468 18.5001 11ZM16.5001 11C16.5001 12.3807 15.3808 13.5 14.0001 13.5C12.6194 13.5 11.5001 12.3807 11.5001 11C11.5001 9.61925 12.6194 8.49996 14.0001 8.49996C15.3808 8.49996 16.5001 9.61925 16.5001 11Z" fill="white"/>
</svg>
