<svg width="34" height="34" viewBox="0 0 34 34" fill="none" xmlns="http://www.w3.org/2000/svg">
<path fill-rule="evenodd" clip-rule="evenodd" d="M1.9334 6.47023C1.9334 3.96471 3.96452 1.93359 6.47004 1.93359H17.53C20.0355 1.93359 22.0666 3.96472 22.0666 6.47023V8.31355V17.5302C22.0666 20.0357 20.0355 22.0668 17.53 22.0668L8.31336 22.0668L6.47004 22.0668C3.96452 22.0668 1.9334 20.0357 1.9334 17.5302V12.02C1.93309 12.0068 1.93309 11.9937 1.9334 11.9806V6.47023ZM20.3666 6.47023V7.48263C15.4574 7.7059 12.2528 9.86231 10.2709 12.564C7.97198 10.7458 5.35586 10.6108 3.6334 10.906V6.47023C3.6334 4.9036 4.9034 3.63359 6.47004 3.63359H17.53C19.0966 3.63359 20.3666 4.9036 20.3666 6.47023ZM3.6334 17.5302V12.6362C4.97134 12.3344 7.33263 12.3324 9.35008 14.0068C8.14535 16.1864 7.61615 18.5214 7.49261 20.3668H6.47004C4.9034 20.3668 3.6334 19.0968 3.6334 17.5302ZM11.1527 14.2926C9.88829 16.3244 9.33154 18.5995 9.19686 20.3668H17.53C19.0966 20.3668 20.3666 19.0968 20.3666 17.5302V9.18456C15.5976 9.42405 12.7791 11.6792 11.1527 14.2926ZM7.85253 8.31355C8.61606 8.31355 9.23502 7.69459 9.23502 6.93106C9.23502 6.16754 8.61606 5.54857 7.85253 5.54857C7.089 5.54857 6.47004 6.16754 6.47004 6.93106C6.47004 7.69459 7.089 8.31355 7.85253 8.31355Z" fill="white"/>
</svg>
