<svg width="21" height="19" viewBox="0 0 21 19" fill="none" xmlns="http://www.w3.org/2000/svg">
<path d="M17.9298 2.90231C17.4815 2.45387 16.9493 2.09813 16.3636 1.85542C15.7778 1.61271 15.15 1.48779 14.516 1.48779C13.8819 1.48779 13.2541 1.61271 12.6683 1.85542C12.0826 2.09813 11.5504 2.45387 11.1022 2.90231L10.1719 3.83255L9.24167 2.90231C8.33627 1.99691 7.10828 1.48826 5.82786 1.48826C4.54743 1.48826 3.31945 1.99691 2.41405 2.90231C1.50865 3.80771 1 5.03569 1 6.31612C1 7.59655 1.50865 8.82453 2.41405 9.72993L3.34429 10.6602L10.1719 17.4878L16.9995 10.6602L17.9298 9.72993C18.3782 9.2817 18.7339 8.7495 18.9767 8.16375C19.2194 7.578 19.3443 6.95016 19.3443 6.31612C19.3443 5.68207 19.2194 5.05424 18.9767 4.46849C18.7339 3.88274 18.3782 3.35054 17.9298 2.90231V2.90231Z" stroke="#F6C138" stroke-width="2" stroke-linecap="round" stroke-linejoin="round"/>
</svg>
