<svg width="21" height="18" viewBox="0 0 21 18" fill="none" xmlns="http://www.w3.org/2000/svg">
<path d="M18.1533 2.41452C17.705 1.96607 17.1728 1.61034 16.5871 1.36763C16.0013 1.12492 15.3735 1 14.7394 1C14.1054 1 13.4776 1.12492 12.8918 1.36763C12.3061 1.61034 11.7739 1.96607 11.3256 2.41452L10.3954 3.34476L9.46515 2.41452C8.55975 1.50912 7.33176 1.00047 6.05134 1.00047C4.77091 1.00047 3.54293 1.50912 2.63753 2.41452C1.73213 3.31992 1.22348 4.5479 1.22348 5.82833C1.22348 7.10875 1.73213 8.33674 2.63753 9.24214L3.56777 10.1724L10.3954 17L17.223 10.1724L18.1533 9.24214C18.6017 8.79391 18.9574 8.26171 19.2001 7.67596C19.4428 7.0902 19.5678 6.46237 19.5678 5.82833C19.5678 5.19428 19.4428 4.56645 19.2001 3.9807C18.9574 3.39494 18.6017 2.86275 18.1533 2.41452Z" fill="#F6C138" stroke="#F6C138" stroke-width="2" stroke-linecap="round" stroke-linejoin="round"/>
</svg>
