<svg width="24" height="25" viewBox="0 0 24 25" fill="none" xmlns="http://www.w3.org/2000/svg">
<path d="M1.69564 12.8662L11.8854 1.92893L22.0751 12.8662C22.4019 13.217 22.5945 13.702 22.5945 14.224V22.7246C22.5945 23.1942 22.2528 23.4555 21.9818 23.4555H16.1379C15.8775 23.4555 15.5465 23.2056 15.5465 22.7474V17.6059C15.5465 15.5448 13.9721 13.7496 11.8854 13.7496C9.79862 13.7496 8.22421 15.5448 8.22421 17.6059V22.7474C8.22421 23.2056 7.89323 23.4555 7.63283 23.4555H1.78893C1.51789 23.4555 1.17627 23.1942 1.17627 22.7246V14.224C1.17627 13.702 1.36881 13.217 1.69564 12.8662Z" stroke="white" stroke-width="2"/>
</svg>
