<svg width="20" height="20" viewBox="0 0 20 20" fill="none" xmlns="http://www.w3.org/2000/svg">
<path fill-rule="evenodd" clip-rule="evenodd" d="M5.65688 0.888313C6.68325 0.843313 7.0105 0.833313 9.625 0.833313C12.2395 0.833313 12.5668 0.844146 13.5923 0.888313C14.6178 0.93248 15.3177 1.08831 15.9302 1.31415C16.5716 1.54498 17.1535 1.90581 17.6348 2.37248C18.1248 2.82998 18.5028 3.38331 18.7443 3.99498C18.9823 4.57831 19.145 5.24498 19.1922 6.21998C19.2395 7.19915 19.25 7.51081 19.25 9.99998C19.25 12.49 19.2386 12.8016 19.1922 13.7791C19.1459 14.7541 18.9823 15.4208 18.7443 16.0041C18.5027 16.6159 18.1241 17.1701 17.6348 17.6283C17.1535 18.095 16.5716 18.455 15.9302 18.685C15.3177 18.9116 14.6177 19.0666 13.594 19.1116C12.5667 19.1566 12.2395 19.1666 9.625 19.1666C7.0105 19.1666 6.68325 19.1558 5.65688 19.1116C4.63313 19.0675 3.93313 18.9116 3.32063 18.685C2.67831 18.4549 2.09634 18.0944 1.61525 17.6283C1.12558 17.1705 0.74665 16.6165 0.504875 16.005C0.26775 15.4216 0.105 14.755 0.05775 13.78C0.0105 12.8008 0 12.4891 0 9.99998C0 7.50998 0.011375 7.19831 0.05775 6.22165C0.104125 5.24498 0.26775 4.57831 0.504875 3.99498C0.747007 3.38338 1.12623 2.82941 1.61612 2.37165C2.09654 1.9054 2.67791 1.54452 3.31975 1.31415C3.93225 1.08831 4.63225 0.933313 5.656 0.888313H5.65688ZM13.5144 2.53831C12.4994 2.49415 12.1949 2.48498 9.625 2.48498C7.05512 2.48498 6.75062 2.49415 5.73562 2.53831C4.79675 2.57915 4.2875 2.72831 3.948 2.85415C3.49913 3.02081 3.178 3.21831 2.84113 3.53915C2.52179 3.83502 2.27603 4.19521 2.12188 4.59331C1.98975 4.91665 1.83312 5.40165 1.79025 6.29581C1.74388 7.26248 1.73425 7.55248 1.73425 9.99998C1.73425 12.4475 1.74388 12.7375 1.79025 13.7041C1.83312 14.5983 1.98975 15.0833 2.12188 15.4066C2.27587 15.8041 2.52175 16.165 2.84113 16.4608C3.15175 16.765 3.53063 16.9991 3.948 17.1458C4.2875 17.2716 4.79675 17.4208 5.73562 17.4616C6.75062 17.5058 7.05425 17.515 9.625 17.515C12.1958 17.515 12.4994 17.5058 13.5144 17.4616C14.4532 17.4208 14.9625 17.2716 15.302 17.1458C15.7509 16.9791 16.072 16.7816 16.4089 16.4608C16.7283 16.165 16.9741 15.8041 17.1281 15.4066C17.2603 15.0833 17.4169 14.5983 17.4598 13.7041C17.5061 12.7375 17.5157 12.4475 17.5157 9.99998C17.5157 7.55248 17.5061 7.26248 17.4598 6.29581C17.4169 5.40165 17.2603 4.91665 17.1281 4.59331C16.9531 4.16581 16.7458 3.85998 16.4089 3.53915C16.0982 3.23504 15.72 3.00099 15.302 2.85415C14.9625 2.72831 14.4532 2.57915 13.5144 2.53831ZM8.39563 12.8258C9.0822 13.098 9.84671 13.1347 10.5586 12.9297C11.2704 12.7248 11.8855 12.2907 12.2987 11.7018C12.7118 11.113 12.8975 10.4057 12.824 9.7009C12.7505 8.99609 12.4224 8.33746 11.8956 7.83748C11.5598 7.51788 11.1538 7.27316 10.7068 7.12093C10.2598 6.96871 9.78288 6.91278 9.31043 6.95716C8.83799 7.00154 8.38176 7.14513 7.97458 7.37759C7.5674 7.61005 7.2194 7.9256 6.95564 8.30152C6.69188 8.67744 6.51892 9.10439 6.4492 9.55161C6.37949 9.99884 6.41476 10.4552 6.55247 10.8879C6.69019 11.3206 6.92692 11.7188 7.24563 12.0539C7.56434 12.389 7.9571 12.6526 8.39563 12.8258ZM6.12675 6.66831C6.58615 6.23079 7.13153 5.88373 7.73176 5.64695C8.33199 5.41016 8.97532 5.28829 9.625 5.28829C10.2747 5.28829 10.918 5.41016 11.5182 5.64695C12.1185 5.88373 12.6639 6.23079 13.1233 6.66831C13.5826 7.10583 13.9471 7.62525 14.1957 8.19689C14.4443 8.76854 14.5723 9.38123 14.5723 9.99998C14.5723 10.6187 14.4443 11.2314 14.1957 11.8031C13.9471 12.3747 13.5826 12.8941 13.1233 13.3316C12.1955 14.2153 10.9371 14.7117 9.625 14.7117C8.3129 14.7117 7.05454 14.2153 6.12675 13.3316C5.19896 12.448 4.67773 11.2496 4.67773 9.99998C4.67773 8.75036 5.19896 7.55193 6.12675 6.66831ZM15.6695 5.98998C15.7833 5.8877 15.8745 5.76471 15.9375 5.62829C16.0006 5.49187 16.0342 5.34479 16.0365 5.19575C16.0388 5.04672 16.0096 4.89877 15.9508 4.76065C15.892 4.62254 15.8046 4.49707 15.694 4.39168C15.5833 4.28629 15.4516 4.20311 15.3065 4.14708C15.1615 4.09104 15.0062 4.06329 14.8497 4.06547C14.6932 4.06764 14.5388 4.09969 14.3955 4.15973C14.2523 4.21976 14.1231 4.30656 14.0157 4.41498C13.8069 4.62584 13.6926 4.90591 13.697 5.19575C13.7014 5.48559 13.8243 5.76238 14.0395 5.96735C14.2547 6.17232 14.5454 6.28934 14.8497 6.29356C15.154 6.29779 15.4481 6.18889 15.6695 5.98998Z" fill="#F8F8F8"/>
</svg>
