<svg width="14" height="17" viewBox="0 0 14 17" fill="none" xmlns="http://www.w3.org/2000/svg">
<path d="M3.66667 7.83337V5.16671C3.66667 4.28265 4.01786 3.43481 4.64298 2.80968C5.2681 2.18456 6.11595 1.83337 7 1.83337C7.88406 1.83337 8.7319 2.18456 9.35702 2.80968C9.98214 3.43481 10.3333 4.28265 10.3333 5.16671V7.83337M2.33333 7.83337H11.6667C12.403 7.83337 13 8.43033 13 9.16671V13.8334C13 14.5698 12.403 15.1667 11.6667 15.1667H2.33333C1.59695 15.1667 1 14.5698 1 13.8334V9.16671C1 8.43033 1.59695 7.83337 2.33333 7.83337Z" stroke="#F6C138" stroke-width="2" stroke-linecap="round" stroke-linejoin="round"/>
</svg>
