<svg width="17" height="17" viewBox="0 0 17 17" fill="none" xmlns="http://www.w3.org/2000/svg">
<path d="M11.4583 10.4657H10.7342L10.4775 10.2182C11.3758 9.17316 11.9167 7.81649 11.9167 6.34066C11.9167 3.04982 9.24917 0.382324 5.95833 0.382324C2.6675 0.382324 0 3.04982 0 6.34066C0 9.63149 2.6675 12.299 5.95833 12.299C7.43417 12.299 8.79083 11.7582 9.83583 10.8598L10.0833 11.1165V11.8407L14.6667 16.4148L16.0325 15.049L11.4583 10.4657ZM5.95833 10.4657C3.67583 10.4657 1.83333 8.62316 1.83333 6.34066C1.83333 4.05816 3.67583 2.21566 5.95833 2.21566C8.24083 2.21566 10.0833 4.05816 10.0833 6.34066C10.0833 8.62316 8.24083 10.4657 5.95833 10.4657Z" fill="white"/>
</svg>
