<svg width="29" height="44" viewBox="0 0 29 44" fill="none" xmlns="http://www.w3.org/2000/svg">
<g clip-path="url(#clip0_2_4075)">
<path d="M14.083 28.6084C17.7672 28.6084 20.7538 25.6217 20.7538 21.9376V7.00429C20.7538 3.32015 17.7672 0.333496 14.083 0.333496C10.3989 0.333496 7.41223 3.32015 7.41223 7.00429V21.9555C7.41223 25.6217 10.3989 28.6084 14.083 28.6084ZM9.20065 7.00429C9.20065 4.30378 11.4004 2.12191 14.083 2.12191C16.7656 2.12191 18.9654 4.30378 18.9654 7.00429V21.9555C18.9654 24.6381 16.7835 26.8378 14.083 26.8378C11.4004 26.8378 9.20065 24.656 9.20065 21.9555V7.00429Z" fill="white"/>
<path d="M27.3709 17.1982C26.8702 17.1982 26.4767 17.5917 26.4767 18.0925V21.7766C26.4767 28.5189 21.1294 34.1345 14.387 34.2419C7.53741 34.3313 1.92178 28.7872 1.92178 21.9554V18.0925C1.92178 17.5917 1.52833 17.1982 1.02757 17.1982C0.526813 17.1982 0.133362 17.5917 0.133362 18.0925V21.7766C0.133362 29.5204 6.3034 35.9408 14.0472 36.0124C17.9996 36.0482 21.5765 34.4743 24.1518 31.899C26.6913 29.3595 28.2652 25.8363 28.2652 21.9554V18.0925C28.2652 17.5917 27.8538 17.1982 27.3709 17.1982Z" fill="white"/>
<path d="M21.6122 41.8784H15.0845V36.0303H13.2961V41.8784H6.58955C6.08879 41.8784 5.69534 42.2718 5.69534 42.7726C5.69534 43.2734 6.08879 43.6668 6.58955 43.6668H21.6122C22.113 43.6668 22.5065 43.2734 22.5065 42.7726C22.5065 42.2718 22.113 41.8784 21.6122 41.8784Z" fill="white"/>
<path d="M14.4334 27.2002C17.5505 27.2002 20.0667 24.2969 20.0667 20.7002V7.7002C20.0667 4.10353 17.5505 1.2002 14.4334 1.2002C11.3162 1.2002 8.80002 4.10353 8.80002 7.7002V20.7002C8.80002 24.2969 11.3162 27.2002 14.4334 27.2002Z" fill="white"/>
</g>
<defs>
<clipPath id="clip0_2_4075">
<rect width="28.1318" height="43.3333" fill="white" transform="translate(0.133362 0.333496)"/>
</clipPath>
</defs>
</svg>
