<svg width="85" height="83" viewBox="0 0 85 83" fill="none" xmlns="http://www.w3.org/2000/svg">
<path fill-rule="evenodd" clip-rule="evenodd" d="M28.8282 9.41293H56.1718C66.5919 9.41293 75.0389 17.7967 75.0389 28.1385V55.277C75.0389 65.6188 66.5919 74.0025 56.1718 74.0025H28.8282C18.4082 74.0025 9.96109 65.6188 9.96109 55.277V28.1385C9.96109 17.7967 18.4082 9.41293 28.8282 9.41293ZM1.48456 28.1385C1.48456 13.1503 13.7267 1 28.8282 1H56.1718C71.2733 1 83.5155 13.1503 83.5155 28.1385V55.277C83.5155 70.2652 71.2733 82.4155 56.1718 82.4155H28.8282C13.7267 82.4155 1.48456 70.2652 1.48456 55.277V28.1385ZM37.7737 51.1018H37.7675L37.7675 44.4445V33.9049L37.7675 33.8925V33.8609C37.7575 27.8164 32.8174 22.9195 26.7249 22.9195C26.567 22.9195 26.4099 22.9228 26.2536 22.9293C28.4797 20.9746 31.4065 19.7882 34.6124 19.7882C38.9198 19.7882 42.7231 21.9298 45.0003 25.1988L45.0005 25.1989C46.1257 26.8141 46.8783 28.7046 47.135 30.7479H47.2326V38.5764L47.2326 38.5764V49.1177L47.2326 49.1416C47.2326 55.1945 52.1766 60.1014 58.2752 60.1014C58.4331 60.1014 58.5902 60.0981 58.7465 60.0916C56.5204 62.0463 53.5936 63.2327 50.3877 63.2327C45.1159 63.2327 40.5991 60.0246 38.7111 55.4681C38.2199 54.2827 37.9067 53.0061 37.8043 51.671C37.7899 51.4824 37.7796 51.2926 37.7737 51.1018ZM58.2751 21.3538C55.6614 21.3538 53.5426 23.4727 53.5426 26.0864V49.5006C53.5426 52.1143 55.6614 54.2332 58.2751 54.2332C60.8889 54.2332 63.0077 52.1143 63.0077 49.5006V26.0864C63.0077 23.4727 60.8889 21.3538 58.2751 21.3538ZM26.7249 29.1823C24.1111 29.1823 21.9923 31.3011 21.9923 33.9148V57.3291C21.9923 59.9428 24.1111 62.0616 26.7249 62.0616C29.3386 62.0616 31.4574 59.9428 31.4574 57.3291V33.9148C31.4574 31.3011 29.3386 29.1823 26.7249 29.1823Z" fill="white" fill-opacity="0.2"/>
<path d="M37.7675 51.1018L37.2675 51.1018L37.2675 51.6018H37.7675V51.1018ZM37.7737 51.1018L38.2734 51.0862L38.2583 50.6018H37.7737V51.1018ZM37.7675 44.4445L37.2675 44.4445L37.2675 44.4445L37.7675 44.4445ZM37.7675 33.9049L37.2675 33.9043V33.9049H37.7675ZM37.7675 33.8925L38.2675 33.8931V33.8925H37.7675ZM37.7675 33.8609L38.2675 33.8609L38.2675 33.86L37.7675 33.8609ZM26.2536 22.9293L25.9237 22.5536L24.8598 23.4878L26.2744 23.4289L26.2536 22.9293ZM45.0003 25.1988L44.5901 25.4846L44.6486 25.5686L44.7353 25.6228L45.0003 25.1988ZM45.0005 25.1989L45.4107 24.9131L45.3522 24.8291L45.2655 24.7749L45.0005 25.1989ZM47.135 30.7479L46.6389 30.8102L46.6939 31.2479H47.135V30.7479ZM47.2326 30.7479H47.7326V30.2479H47.2326V30.7479ZM47.2326 38.5764H46.7326V39.2485L47.3763 39.0554L47.2326 38.5764ZM47.2326 38.5764H47.7326V37.9044L47.089 38.0975L47.2326 38.5764ZM47.2326 49.1177L47.7326 49.1182V49.1177H47.2326ZM47.2326 49.1416L46.7326 49.1411L46.7326 49.1416L47.2326 49.1416ZM58.7465 60.0916L59.0764 60.4673L60.1404 59.5331L58.7257 59.592L58.7465 60.0916ZM38.7111 55.4681L39.173 55.2767L39.173 55.2767L38.7111 55.4681ZM37.8043 51.671L37.3058 51.7092L37.3058 51.7092L37.8043 51.671ZM56.1718 8.91293H28.8282V9.91293H56.1718V8.91293ZM75.5389 28.1385C75.5389 17.517 66.8644 8.91293 56.1718 8.91293V9.91293C66.3193 9.91293 74.5389 18.0763 74.5389 28.1385H75.5389ZM75.5389 55.277V28.1385H74.5389V55.277H75.5389ZM56.1718 74.5025C66.8644 74.5025 75.5389 65.8985 75.5389 55.277H74.5389C74.5389 65.3391 66.3193 73.5025 56.1718 73.5025V74.5025ZM28.8282 74.5025H56.1718V73.5025H28.8282V74.5025ZM9.46109 55.277C9.46109 65.8985 18.1356 74.5025 28.8282 74.5025V73.5025C18.6808 73.5025 10.4611 65.3391 10.4611 55.277H9.46109ZM9.46109 28.1385V55.277H10.4611V28.1385H9.46109ZM28.8282 8.91293C18.1356 8.91293 9.46109 17.517 9.46109 28.1385H10.4611C10.4611 18.0763 18.6808 9.91293 28.8282 9.91293V8.91293ZM28.8282 0.5C13.4541 0.5 0.984558 12.8706 0.984558 28.1385H1.98456C1.98456 13.43 13.9993 1.5 28.8282 1.5V0.5ZM56.1718 0.5H28.8282V1.5H56.1718V0.5ZM84.0155 28.1385C84.0155 12.8706 71.5459 0.5 56.1718 0.5V1.5C71.0007 1.5 83.0155 13.43 83.0155 28.1385H84.0155ZM84.0155 55.277V28.1385H83.0155V55.277H84.0155ZM56.1718 82.9155C71.5459 82.9155 84.0155 70.5449 84.0155 55.277H83.0155C83.0155 69.9855 71.0007 81.9155 56.1718 81.9155V82.9155ZM28.8282 82.9155H56.1718V81.9155H28.8282V82.9155ZM0.984558 55.277C0.984558 70.5449 13.4541 82.9155 28.8282 82.9155V81.9155C13.9993 81.9155 1.98456 69.9855 1.98456 55.277H0.984558ZM0.984558 28.1385V55.277H1.98456V28.1385H0.984558ZM37.7675 51.6018H37.7737V50.6018H37.7675V51.6018ZM37.2675 44.4445L37.2675 51.1018L38.2675 51.1018L38.2675 44.4445L37.2675 44.4445ZM37.2675 33.9049V44.4445H38.2675V33.9049H37.2675ZM37.2675 33.8919L37.2675 33.9043L38.2675 33.9055L38.2675 33.8931L37.2675 33.8919ZM37.2675 33.8609V33.8925H38.2675V33.8609H37.2675ZM26.7249 23.4195C32.545 23.4195 37.2579 28.0965 37.2675 33.8617L38.2675 33.86C38.257 27.5363 33.0897 22.4195 26.7249 22.4195V23.4195ZM26.2744 23.4289C26.4238 23.4226 26.5739 23.4195 26.7249 23.4195V22.4195C26.5601 22.4195 26.396 22.4229 26.2328 22.4297L26.2744 23.4289ZM34.6124 19.2882C31.2809 19.2882 28.2379 20.5216 25.9237 22.5536L26.5835 23.305C28.7216 21.4277 31.5321 20.2882 34.6124 20.2882V19.2882ZM45.4106 24.913C43.0433 21.5147 39.0892 19.2882 34.6124 19.2882V20.2882C38.7503 20.2882 42.4029 22.3449 44.5901 25.4846L45.4106 24.913ZM45.2655 24.7749L45.2653 24.7748L44.7353 25.6228L44.7355 25.6229L45.2655 24.7749ZM47.6311 30.6856C47.364 28.5596 46.5808 26.5928 45.4107 24.9131L44.5902 25.4847C45.6705 27.0355 46.3926 28.8496 46.6389 30.8102L47.6311 30.6856ZM47.2326 30.2479H47.135V31.2479H47.2326V30.2479ZM47.7326 38.5764V30.7479H46.7326V38.5764H47.7326ZM47.089 38.0975L47.0889 38.0975L47.3763 39.0554L47.3763 39.0553L47.089 38.0975ZM47.7326 49.1177V38.5764H46.7326V49.1177H47.7326ZM47.7326 49.1422L47.7326 49.1182L46.7326 49.1171L46.7326 49.1411L47.7326 49.1422ZM58.2752 59.6014C52.4491 59.6014 47.7326 54.9148 47.7326 49.1416L46.7326 49.1416C46.7326 55.4742 51.904 60.6014 58.2752 60.6014V59.6014ZM58.7257 59.592C58.5763 59.5982 58.4262 59.6014 58.2752 59.6014V60.6014C58.4401 60.6014 58.6041 60.598 58.7673 60.5912L58.7257 59.592ZM50.3877 63.7327C53.7192 63.7327 56.7622 62.4993 59.0764 60.4673L58.4166 59.7159C56.2785 61.5932 53.4681 62.7327 50.3877 62.7327V63.7327ZM38.2492 55.6594C40.2125 60.3979 44.9084 63.7327 50.3877 63.7327V62.7327C45.3233 62.7327 40.9856 59.6513 39.173 55.2767L38.2492 55.6594ZM37.3058 51.7092C37.4122 53.0979 37.7381 54.4261 38.2492 55.6594L39.173 55.2767C38.7017 54.1393 38.4011 52.9143 38.3029 51.6328L37.3058 51.7092ZM37.2739 51.1174C37.2801 51.3158 37.2907 51.5131 37.3058 51.7092L38.3029 51.6328C38.289 51.4517 38.2791 51.2695 38.2734 51.0862L37.2739 51.1174ZM54.0426 26.0864C54.0426 23.7488 55.9376 21.8538 58.2751 21.8538V20.8538C55.3853 20.8538 53.0426 23.1965 53.0426 26.0864H54.0426ZM54.0426 49.5006V26.0864H53.0426V49.5006H54.0426ZM58.2751 53.7332C55.9376 53.7332 54.0426 51.8382 54.0426 49.5006H53.0426C53.0426 52.3905 55.3853 54.7332 58.2751 54.7332V53.7332ZM62.5077 49.5006C62.5077 51.8382 60.6127 53.7332 58.2751 53.7332V54.7332C61.165 54.7332 63.5077 52.3905 63.5077 49.5006H62.5077ZM62.5077 26.0864V49.5006H63.5077V26.0864H62.5077ZM58.2751 21.8538C60.6127 21.8538 62.5077 23.7488 62.5077 26.0864H63.5077C63.5077 23.1965 61.165 20.8538 58.2751 20.8538V21.8538ZM22.4923 33.9148C22.4923 31.5773 24.3873 29.6823 26.7249 29.6823V28.6823C23.835 28.6823 21.4923 31.025 21.4923 33.9148H22.4923ZM22.4923 57.3291V33.9148H21.4923V57.3291H22.4923ZM26.7249 61.5616C24.3873 61.5616 22.4923 59.6666 22.4923 57.3291H21.4923C21.4923 60.2189 23.835 62.5616 26.7249 62.5616V61.5616ZM30.9574 57.3291C30.9574 59.6666 29.0624 61.5616 26.7249 61.5616V62.5616C29.6147 62.5616 31.9574 60.2189 31.9574 57.3291H30.9574ZM30.9574 33.9148V57.3291H31.9574V33.9148H30.9574ZM26.7249 29.6823C29.0624 29.6823 30.9574 31.5773 30.9574 33.9148H31.9574C31.9574 31.025 29.6147 28.6823 26.7249 28.6823V29.6823Z" fill="#23222C"/>
</svg>
