<svg width="28" height="28" viewBox="0 0 28 28" fill="none" xmlns="http://www.w3.org/2000/svg">
<path d="M9.13 4.89036L9.8 2.00036H17.8L15.8 11.0004H21L18.51 14.2504L19.94 15.6804L23.81 10.6104C23.9151 10.4683 23.9806 10.3009 23.9999 10.1252C24.0192 9.94954 23.9917 9.7719 23.92 9.61036C23.8434 9.42961 23.7154 9.27539 23.5518 9.16692C23.3882 9.05844 23.1963 9.00052 23 9.00036H18.25L20 1.22036C20.0331 1.07278 20.0323 0.919605 19.9977 0.772374C19.963 0.625143 19.8954 0.487689 19.8 0.370357C19.7038 0.251665 19.5816 0.156601 19.443 0.0924616C19.3043 0.0283224 19.1528 -0.00318538 19 0.000357412H9C8.77021 -0.00578596 8.54532 0.0674266 8.36318 0.207671C8.18105 0.347915 8.05279 0.546627 8 0.770357L7.46 3.22036L9.13 4.89036ZM28 26.5904L18.69 17.2804L17.27 15.8504L8.6 7.19036L6.93 5.52036L1.41 0.000357412L0 1.41036L6.4 7.82036L5 13.7704C4.96471 13.9194 4.96414 14.0746 4.99833 14.2239C5.03252 14.3732 5.10055 14.5127 5.19718 14.6315C5.29382 14.7504 5.41646 14.8455 5.55565 14.9094C5.69485 14.9734 5.84687 15.0045 6 15.0004H10.83L9 26.8504C8.96697 27.07 9.00801 27.2944 9.11665 27.4882C9.2253 27.6819 9.39536 27.834 9.6 27.9204C9.72711 27.972 9.86282 27.9991 10 28.0004C10.1527 28 10.3033 27.9646 10.4403 27.897C10.5772 27.8294 10.6968 27.7314 10.79 27.6104L17.47 18.8804L26.59 28.0004L28 26.5904ZM7.26 13.0004L8.07 9.48036L11.59 13.0004H7.26ZM11.58 23.2804L13 14.3704L16 17.4504L11.58 23.2804Z" fill="white"/>
</svg>
