<svg width="100" height="52" viewBox="0 0 100 52" fill="none" xmlns="http://www.w3.org/2000/svg">
<path d="M97.303 27.4771L82.8578 18.6509C82.6171 18.4983 82.3393 18.4148 82.0544 18.4094C81.7696 18.4041 81.4888 18.4772 81.2427 18.6208C80.9929 18.758 80.7847 18.96 80.64 19.2056C80.4952 19.4512 80.4193 19.7313 80.4201 20.0165V37.6889C80.4193 37.974 80.4952 38.2542 80.64 38.4998C80.7847 38.7454 80.9929 38.9474 81.2427 39.0846C81.4888 39.2281 81.7696 39.3012 82.0544 39.2959C82.3393 39.2906 82.6171 39.2071 82.8578 39.0545L97.303 30.2283C97.5398 30.0853 97.7356 29.8836 97.8715 29.6426C98.0075 29.4015 98.0789 29.1295 98.0789 28.8527C98.0789 28.5759 98.0075 28.3038 97.8715 28.0628C97.7356 27.8218 97.5398 27.62 97.303 27.4771V27.4771Z" fill="white"/>
</svg>
