<svg width="24" height="25" viewBox="0 0 24 25" fill="none" xmlns="http://www.w3.org/2000/svg">
<path fill-rule="evenodd" clip-rule="evenodd" d="M22.732 24.0491C22.931 23.8414 22.9316 23.5141 22.7333 23.3058L18.0585 18.3938C19.6439 16.5349 20.6151 14.0913 20.6151 11.3995C20.6151 5.61327 16.1477 0.919189 10.6408 0.919189C5.13403 0.919189 0.666626 5.61327 0.666626 11.3995C0.666626 17.1858 5.13403 21.8798 10.6408 21.8798C13.2131 21.8798 15.544 20.8484 17.3131 19.1715L21.9538 24.0477C22.1653 24.27 22.5197 24.2706 22.732 24.0491ZM1.71654 11.3995C1.71654 6.23106 5.72198 2.02238 10.6408 2.02238C15.5597 2.02238 19.5651 6.23106 19.5651 11.3995C19.5651 16.568 15.5597 20.7766 10.6408 20.7766C5.72198 20.7766 1.71654 16.568 1.71654 11.3995Z" fill="white" stroke="white" stroke-linecap="round" stroke-linejoin="round"/>
</svg>
