<svg width="27" height="27" viewBox="0 0 27 27" fill="none" xmlns="http://www.w3.org/2000/svg">
<path d="M13.1544 25.213C19.814 25.213 25.2128 19.8143 25.2128 13.1547C25.2128 6.49503 19.814 1.09633 13.1544 1.09633C6.49477 1.09633 1.09607 6.49503 1.09607 13.1547C1.09607 19.8143 6.49477 25.213 13.1544 25.213Z" fill="#0D99FF"/>
<path fill-rule="evenodd" clip-rule="evenodd" d="M13.93 7.26379L18.9779 12.3117C19.1919 12.5257 19.1919 12.8727 18.9779 13.0867L18.2027 13.8619C17.9887 14.076 17.6417 14.076 17.4276 13.8619L14.2511 10.6855V18.3616C14.2511 18.6644 14.0057 18.9097 13.703 18.9097H12.6067C12.3041 18.9097 12.0587 18.6644 12.0587 18.3616V10.6855L8.88221 13.8619C8.66816 14.076 8.32111 14.076 8.10707 13.8619L7.33193 13.0867C7.11787 12.8727 7.11787 12.5257 7.33193 12.3117L12.3797 7.26379C12.8078 6.83569 13.5019 6.83569 13.93 7.26379Z" fill="white"/>
</svg>
