<svg width="12" height="13" viewBox="0 0 12 13" fill="none" xmlns="http://www.w3.org/2000/svg">
<path d="M1.61726 0.777478C1.24729 0.407507 0.647448 0.407507 0.277478 0.777478C-0.0924926 1.14745 -0.0924926 1.74729 0.277478 2.11726L4.66022 6.5L0.277478 10.8827C-0.0924924 11.2527 -0.0924924 11.8526 0.277478 12.2225C0.647448 12.5925 1.24729 12.5925 1.61726 12.2225L6 7.83978L10.3827 12.2225C10.7527 12.5925 11.3526 12.5925 11.7225 12.2225C12.0925 11.8526 12.0925 11.2527 11.7225 10.8827L7.33978 6.5L11.7225 2.11726C12.0925 1.74729 12.0925 1.14745 11.7225 0.777478C11.3526 0.407507 10.7527 0.407507 10.3827 0.777478L6 5.16022L1.61726 0.777478Z" fill="white"/>
</svg>
