<svg width="30" height="30" viewBox="0 0 30 30" fill="none" xmlns="http://www.w3.org/2000/svg">
<g clip-path="url(#clip0_1_4120)">
<path d="M3.75 11.2501V18.7501H8.75L15 25.0001V5.0001L8.75 11.2501H3.75ZM12.5 11.0376V18.9626L9.7875 16.2501H6.25V13.7501H9.7875L12.5 11.0376ZM20.625 15.0001C20.625 12.7876 19.35 10.8876 17.5 9.9626V20.0251C19.35 19.1126 20.625 17.2126 20.625 15.0001ZM17.5 4.0376V6.6126C21.1125 7.6876 23.75 11.0376 23.75 15.0001C23.75 18.9626 21.1125 22.3126 17.5 23.3876V25.9626C22.5125 24.8251 26.25 20.3501 26.25 15.0001C26.25 9.6501 22.5125 5.1751 17.5 4.0376V4.0376Z" fill="white"/>
</g>
<defs>
<clipPath id="clip0_1_4120">
<rect width="30" height="30" fill="white"/>
</clipPath>
</defs>
</svg>
