<svg width="22" height="19" viewBox="0 0 22 19" fill="none" xmlns="http://www.w3.org/2000/svg">
<path d="M15.2222 17.5V15.7222C15.2222 14.7792 14.8476 13.8749 14.1808 13.2081C13.514 12.5413 12.6097 12.1667 11.6667 12.1667H4.55556C3.61256 12.1667 2.70819 12.5413 2.0414 13.2081C1.3746 13.8749 1 14.7792 1 15.7222V17.5M20.5556 17.5V15.7222C20.555 14.9344 20.2928 14.1691 19.8101 13.5465C19.3274 12.9239 18.6517 12.4792 17.8889 12.2822M14.3333 1.61556C15.0981 1.81138 15.776 2.25618 16.2601 2.87983C16.7442 3.50348 17.007 4.27052 17.007 5.06C17.007 5.84948 16.7442 6.61652 16.2601 7.24017C15.776 7.86382 15.0981 8.30862 14.3333 8.50444M11.6667 5.05556C11.6667 7.01923 10.0748 8.61111 8.11111 8.61111C6.14743 8.61111 4.55556 7.01923 4.55556 5.05556C4.55556 3.09188 6.14743 1.5 8.11111 1.5C10.0748 1.5 11.6667 3.09188 11.6667 5.05556Z" stroke="#F6C138" stroke-width="2" stroke-linecap="round" stroke-linejoin="round"/>
</svg>
