<svg width="24" height="24" viewBox="0 0 24 24" fill="none" xmlns="http://www.w3.org/2000/svg">
<path d="M6.50001 1C6.50001 0.447715 6.94772 0 7.50001 0H14C14.5523 0 15 0.447715 15 1C15 1.55228 14.5523 2 14 2H7.50001C6.94772 2 6.50001 1.55228 6.50001 1Z" fill="white"/>
<path d="M18.9556 3.55274C19.3573 3.93179 19.3756 4.56469 18.9965 4.96636L17.7624 6.27413C18.7201 7.17241 19.5004 8.25029 20.0556 9.45241C20.2871 9.95381 20.0684 10.548 19.567 10.7795C19.0656 11.0111 18.4714 10.7924 18.2398 10.291C17.5902 8.88433 16.5576 7.68905 15.2602 6.84201C13.9629 5.99496 12.4532 5.53037 10.9041 5.50144C9.35492 5.47251 7.82895 5.8804 6.50086 6.67842C5.17278 7.47643 4.09625 8.63231 3.39455 10.0137C2.69286 11.3951 2.39435 12.9462 2.5332 14.4894C2.67206 16.0325 3.24267 17.5054 4.1797 18.7393C5.11673 19.9733 6.38231 20.9184 7.83152 21.4665C9.28074 22.0146 10.855 22.1436 12.3741 21.8386C12.9156 21.7298 13.4427 22.0807 13.5514 22.6221C13.6601 23.1636 13.3093 23.6907 12.7678 23.7994C10.8805 24.1784 8.92455 24.0182 7.12401 23.3372C5.32347 22.6562 3.75109 21.482 2.5869 19.9489C1.42271 18.4158 0.713769 16.5859 0.54125 14.6686C0.368731 12.7513 0.739608 10.8242 1.61142 9.10794C2.48322 7.39166 3.82072 5.95557 5.47077 4.96409C7.12082 3.97262 9.01672 3.46584 10.9414 3.50179C12.7928 3.53636 14.5989 4.07178 16.1684 5.04922L17.542 3.5937C17.921 3.19203 18.5539 3.17369 18.9556 3.55274Z" fill="white"/>
<path d="M12 9.5C12 8.94771 11.5523 8.5 11 8.5C10.4477 8.5 10 8.94771 10 9.5V13.5401L6.84921 16.2407C6.42989 16.6002 6.38133 17.2315 6.74075 17.6508C7.10017 18.0701 7.73147 18.1187 8.1508 17.7593L12 14.4599V9.5Z" fill="white"/>
<path d="M18.9802 15.6598C18.9026 15.7985 18.868 15.9572 18.8806 16.1157C18.9244 16.6662 18.5137 17.1481 17.9631 17.1919C17.4126 17.2358 16.9308 16.825 16.8869 16.2745C16.8429 15.7217 16.9638 15.1682 17.2343 14.6841C17.5048 14.2 17.9128 13.807 18.4067 13.5548C18.9006 13.3026 19.4581 13.2025 20.0089 13.2672C20.5597 13.3319 21.0789 13.5584 21.5009 13.9182C21.9229 14.2779 22.2288 14.7547 22.3798 15.2883C22.5308 15.8219 22.5202 16.3883 22.3493 16.9159C22.2588 17.1952 22.1256 17.457 21.9556 17.6926C22.3339 18.0245 22.6327 18.44 22.8268 18.9085C23.0761 19.5105 23.1414 20.1729 23.0142 20.812C22.8871 21.4511 22.5733 22.0382 22.1126 22.4989C21.6518 22.9597 21.0648 23.2735 20.4257 23.4006C19.7866 23.5277 19.1241 23.4625 18.5221 23.2131C17.9201 22.9637 17.4056 22.5415 17.0435 21.9997C16.6815 21.4579 16.4883 20.8209 16.4883 20.1693C16.4883 19.617 16.936 19.1693 17.4883 19.1693C18.0406 19.1693 18.4883 19.617 18.4883 20.1693C18.4883 20.4253 18.5642 20.6756 18.7065 20.8885C18.8487 21.1014 19.0509 21.2674 19.2875 21.3653C19.524 21.4633 19.7844 21.489 20.0355 21.439C20.2866 21.3891 20.5173 21.2658 20.6984 21.0847C20.8794 20.9036 21.0027 20.673 21.0527 20.4218C21.1026 20.1707 21.077 19.9104 20.979 19.6738C20.881 19.4373 20.7151 19.2351 20.5022 19.0928C20.2893 18.9506 20.039 18.8746 19.7829 18.8746C19.2306 18.8746 18.7829 18.4269 18.7829 17.8746C18.7829 17.4975 18.9916 17.1692 19.2999 16.9988C19.4306 16.918 19.582 16.8662 19.7457 16.8532C19.9042 16.8406 20.0554 16.7812 20.1801 16.6827C20.3049 16.5842 20.3976 16.4508 20.4466 16.2996C20.4956 16.1483 20.4987 15.986 20.4554 15.833C20.4121 15.68 20.3244 15.5433 20.2034 15.4402C20.0824 15.337 19.9336 15.2721 19.7757 15.2535C19.6178 15.235 19.4579 15.2637 19.3163 15.336C19.1747 15.4083 19.0578 15.521 18.9802 15.6598Z" fill="white"/>
</svg>
