<svg width="20" height="16" viewBox="0 0 20 16" fill="none" xmlns="http://www.w3.org/2000/svg">
<path d="M19.9376 2.11415C19.2069 2.42248 18.4221 2.63082 17.597 2.72498C18.4483 2.23981 19.0853 1.4762 19.389 0.576649C18.5891 1.02914 17.7136 1.34765 16.8007 1.51832C16.1868 0.894037 15.3736 0.480255 14.4875 0.341211C13.6013 0.202168 12.6918 0.345642 11.9 0.74936C11.1083 1.15308 10.4786 1.79445 10.1088 2.5739C9.73904 3.35335 9.64979 4.22727 9.85495 5.05998C8.23418 4.98248 6.64862 4.58127 5.2012 3.8824C3.75377 3.18353 2.47681 2.20262 1.4532 1.00332C1.1032 1.57832 0.901949 2.24498 0.901949 2.95498C0.901559 3.59415 1.06683 4.22352 1.38309 4.78726C1.69936 5.351 2.15684 5.83168 2.71495 6.18665C2.06769 6.16704 1.43471 6.00047 0.868699 5.70082V5.75082C0.868634 6.64727 1.19423 7.51613 1.79023 8.20998C2.38624 8.90383 3.21595 9.37992 4.13857 9.55748C3.53814 9.71225 2.90862 9.73504 2.29757 9.62415C2.55788 10.3955 3.06495 11.07 3.74777 11.5533C4.4306 12.0365 5.255 12.3043 6.10557 12.3192C4.66168 13.3987 2.87848 13.9842 1.04282 13.9816C0.717658 13.9817 0.392766 13.9636 0.0698242 13.9275C1.93312 15.0685 4.10212 15.674 6.31732 15.6716C13.8161 15.6716 17.9155 9.75665 17.9155 4.62665C17.9155 4.45998 17.9111 4.29165 17.9032 4.12498C18.7006 3.57579 19.3889 2.89573 19.9358 2.11665L19.9376 2.11415Z" fill="#F8F8F8"/>
</svg>
