<svg width="25" height="20" viewBox="0 0 25 20" fill="none" xmlns="http://www.w3.org/2000/svg">
<path d="M16.75 14L12.75 9.99998M12.75 9.99998L8.74996 14M12.75 9.99998V19M21.14 16.39C22.1153 15.8583 22.8858 15.0169 23.3298 13.9986C23.7739 12.9804 23.8662 11.8432 23.5922 10.7667C23.3182 9.69013 22.6934 8.7355 21.8166 8.05343C20.9398 7.37137 19.8608 7.00072 18.75 6.99998H17.49C17.1873 5.82923 16.6231 4.74232 15.8399 3.82098C15.0567 2.89964 14.0748 2.16783 12.9681 1.68059C11.8613 1.19335 10.6585 0.963343 9.45008 1.00787C8.24164 1.05239 7.05903 1.37028 5.99114 1.93765C4.92325 2.50501 3.99787 3.30709 3.28458 4.28357C2.57129 5.26004 2.08865 6.38552 1.87294 7.57538C1.65723 8.76524 1.71407 9.98851 2.03917 11.1532C2.36428 12.318 2.9492 13.3938 3.74996 14.3" stroke="white" stroke-width="2" stroke-linecap="round" stroke-linejoin="round"/>
</svg>
