<svg width="30" height="30" viewBox="0 0 30 30" fill="none" xmlns="http://www.w3.org/2000/svg">
<g clip-path="url(#clip0_116_4345)">
<path d="M20.625 15C20.625 12.7875 19.35 10.8875 17.5 9.9625V12.725L20.5625 15.7875C20.6 15.5375 20.625 15.275 20.625 15V15ZM23.75 15C23.75 16.175 23.5 17.275 23.075 18.3L24.9625 20.1875C25.7875 18.6375 26.25 16.875 26.25 15C26.25 9.65 22.5125 5.175 17.5 4.0375V6.6125C21.1125 7.6875 23.75 11.0375 23.75 15ZM5.3375 3.75L3.75 5.3375L9.6625 11.25H3.75V18.75H8.75L15 25V16.5875L20.3125 21.9C19.475 22.55 18.5375 23.0625 17.5 23.375V25.95C19.225 25.5625 20.7875 24.7625 22.1125 23.6875L24.6625 26.25L26.25 24.6625L15 13.4125L5.3375 3.75ZM15 5L12.3875 7.6125L15 10.225V5Z" fill="white"/>
</g>
<defs>
<clipPath id="clip0_116_4345">
<rect width="30" height="30" fill="white"/>
</clipPath>
</defs>
</svg>
