<svg width="17" height="16" viewBox="0 0 17 16" fill="none" xmlns="http://www.w3.org/2000/svg">
<path fill-rule="evenodd" clip-rule="evenodd" d="M0 2C0 0.895431 0.89543 0 2 0H12.25C13.3546 0 14.25 0.895431 14.25 2V3C15.3546 3 16.25 3.89543 16.25 5V14C16.25 15.1046 15.3546 16 14.25 16H2C0.895431 16 0 15.1046 0 14V2ZM12.75 3V2C12.75 1.72386 12.5261 1.5 12.25 1.5H2C1.72386 1.5 1.5 1.72386 1.5 2V3H12.75ZM1.5 4.5V14C1.5 14.2761 1.72386 14.5 2 14.5H14.25C14.5261 14.5 14.75 14.2761 14.75 14V12H12.25C10.8693 12 9.75 10.8807 9.75 9.5C9.75 8.11929 10.8693 7 12.25 7H14.75V5C14.75 4.72386 14.5261 4.5 14.25 4.5H1.5ZM14.75 8.5H12.25C11.6977 8.5 11.25 8.94772 11.25 9.5C11.25 10.0523 11.6977 10.5 12.25 10.5H14.75V8.5Z" fill="white"/>
</svg>
