<svg width="23" height="23" viewBox="0 0 23 23" fill="none" xmlns="http://www.w3.org/2000/svg">
<g clip-path="url(#clip0_2166_593)">
<path d="M16.7941 21.0315C17.2521 20.5231 17.5037 19.8628 17.4999 19.1794C17.4961 18.496 17.2371 17.8386 16.7734 17.3353C16.9149 17.3051 17.0473 17.2421 17.1597 17.1514C17.2722 17.0606 17.3616 16.9447 17.4207 16.813L21.1049 8.54821C21.1673 8.40839 21.1936 8.25525 21.1815 8.10271C21.1694 7.95016 21.1192 7.80306 21.0356 7.67475C20.952 7.54644 20.8375 7.44101 20.7026 7.36802C20.5677 7.29504 20.4167 7.25682 20.2632 7.25684H1.84211C1.68865 7.25683 1.53762 7.29505 1.40274 7.36803C1.26786 7.44101 1.1534 7.54643 1.06978 7.67472C0.986149 7.80301 0.935997 7.9501 0.923877 8.10262C0.911758 8.25515 0.938055 8.40828 1.00038 8.5481L4.68459 16.8129C4.74366 16.9446 4.83307 17.0605 4.94554 17.1513C5.05801 17.242 5.19037 17.305 5.33186 17.3352C4.86821 17.8385 4.60921 18.4959 4.60538 19.1793C4.60154 19.8627 4.85316 20.5229 5.31114 21.0314H0V22.868H22.1053V21.0315H16.7941ZM14.7369 18.2766C14.919 18.2766 15.0971 18.3304 15.2486 18.4313C15.4 18.5322 15.5181 18.6757 15.5878 18.8435C15.6575 19.0113 15.6758 19.1959 15.6402 19.374C15.6047 19.5522 15.517 19.7158 15.3881 19.8442C15.2593 19.9726 15.0952 20.0601 14.9165 20.0955C14.7379 20.131 14.5527 20.1128 14.3844 20.0433C14.2161 19.9738 14.0722 19.8561 13.971 19.7051C13.8698 19.554 13.8158 19.3765 13.8158 19.1949C13.8161 18.9514 13.9132 18.718 14.0859 18.5458C14.2585 18.3737 14.4927 18.2768 14.7369 18.2766ZM8.28948 19.1949C8.28948 19.3765 8.23546 19.554 8.13426 19.7051C8.03305 19.8561 7.8892 19.9738 7.7209 20.0433C7.5526 20.1128 7.36741 20.131 7.18874 20.0955C7.01007 20.0601 6.84596 19.9726 6.71715 19.8442C6.58833 19.7158 6.50061 19.5522 6.46507 19.374C6.42953 19.1959 6.44777 19.0113 6.51749 18.8435C6.5872 18.6757 6.70525 18.5322 6.85672 18.4313C7.00819 18.3304 7.18626 18.2766 7.36843 18.2766C7.61262 18.2768 7.84674 18.3737 8.01941 18.5458C8.19208 18.718 8.28921 18.9514 8.28948 19.1949V19.1949ZM9.42572 17.3583H12.6796C12.2251 17.8627 11.9737 18.5168 11.9737 19.1949C11.9737 19.8729 12.2251 20.5271 12.6796 21.0315H9.42572C9.88019 20.5271 10.1316 19.8729 10.1316 19.1949C10.1316 18.5168 9.88019 17.8627 9.42572 17.3583Z" fill="#8FBAAD"/>
<path d="M15.8428 3.59C15.405 2.83176 14.7924 2.18837 14.0556 1.71307C13.3189 1.23777 12.4792 0.944228 11.6061 0.856728C10.733 0.769227 9.85154 0.890287 9.03466 1.20989C8.21779 1.52949 7.48899 2.03845 6.90859 2.69464C6.38996 2.62957 5.86338 2.67523 5.36381 2.8286C4.86424 2.98196 4.4031 3.23951 4.01101 3.58416C3.61891 3.92881 3.30483 4.35267 3.0896 4.8276C2.87438 5.30254 2.76295 5.81768 2.7627 6.33884H18.4206C18.4197 5.64042 18.1532 4.96833 17.6748 4.45816C17.1964 3.948 16.5417 3.63774 15.8428 3.59V3.59ZM8.28902 5.42053C8.10685 5.42053 7.92877 5.36668 7.77731 5.26577C7.62584 5.16486 7.50779 5.02144 7.43807 4.85364C7.36836 4.68585 7.35012 4.5012 7.38566 4.32307C7.4212 4.14493 7.50892 3.98131 7.63773 3.85288C7.76655 3.72445 7.93066 3.63699 8.10933 3.60156C8.28799 3.56612 8.47319 3.58431 8.64149 3.65381C8.80979 3.72332 8.95364 3.84102 9.05484 3.99204C9.15605 4.14305 9.21007 4.3206 9.21007 4.50222C9.21007 4.74577 9.11303 4.97935 8.9403 5.15157C8.76757 5.32378 8.5333 5.42053 8.28902 5.42053ZM11.9732 4.50222C11.7911 4.50222 11.613 4.44836 11.4615 4.34746C11.3101 4.24655 11.192 4.10313 11.1223 3.93533C11.0526 3.76754 11.0343 3.58289 11.0699 3.40476C11.1054 3.22662 11.1931 3.063 11.3219 2.93457C11.4508 2.80614 11.6149 2.71868 11.7935 2.68325C11.9722 2.64781 12.1574 2.666 12.3257 2.7355C12.494 2.80501 12.6379 2.92271 12.7391 3.07373C12.8403 3.22474 12.8943 3.40229 12.8943 3.58391C12.8943 3.82746 12.7972 4.06104 12.6245 4.23326C12.4518 4.40547 12.2175 4.50222 11.9732 4.50222Z" fill="#8FBAAD"/>
</g>
<defs>
<clipPath id="clip0_2166_593">
<rect width="22.1053" height="22.0395" fill="white" transform="translate(0 0.829102)"/>
</clipPath>
</defs>
</svg>
