<svg width="20" height="20" viewBox="0 0 20 20" fill="none" xmlns="http://www.w3.org/2000/svg">
<g clip-path="url(#clip0)">
<path d="M15.1947 18.3334C15.6091 17.872 15.8367 17.2728 15.8332 16.6527C15.8298 16.0325 15.5954 15.4359 15.1759 14.9792C15.304 14.9518 15.4237 14.8947 15.5255 14.8123C15.6272 14.73 15.7081 14.6248 15.7616 14.5052L19.0949 7.00525C19.1513 6.87836 19.1751 6.7394 19.1642 6.60097C19.1532 6.46254 19.1078 6.32905 19.0322 6.21262C18.9565 6.09618 18.8529 6.0005 18.7309 5.93427C18.6089 5.86804 18.4722 5.83336 18.3333 5.83337H1.66667C1.52782 5.83337 1.39117 5.86805 1.26914 5.93428C1.14711 6.0005 1.04355 6.09617 0.967892 6.21259C0.892229 6.32901 0.846853 6.46248 0.835888 6.6009C0.824923 6.73931 0.848716 6.87827 0.905104 7.00514L4.23844 14.5051C4.29188 14.6246 4.37277 14.7299 4.47453 14.8122C4.57629 14.8946 4.69604 14.9517 4.82406 14.9791C4.40456 15.4358 4.17023 16.0324 4.16676 16.6526C4.1633 17.2727 4.39095 17.8719 4.80531 18.3333H0V19.9999H20V18.3334H15.1947ZM13.3333 15.8334C13.4982 15.8334 13.6593 15.8822 13.7963 15.9738C13.9333 16.0654 14.0402 16.1955 14.1032 16.3478C14.1663 16.5001 14.1828 16.6676 14.1507 16.8293C14.1185 16.9909 14.0391 17.1394 13.9226 17.256C13.806 17.3725 13.6576 17.4519 13.4959 17.484C13.3343 17.5162 13.1667 17.4997 13.0144 17.4366C12.8622 17.3735 12.732 17.2667 12.6404 17.1297C12.5489 16.9926 12.5 16.8315 12.5 16.6667C12.5002 16.4458 12.5881 16.234 12.7444 16.0777C12.9006 15.9215 13.1124 15.8336 13.3333 15.8334ZM7.5 16.6667C7.5 16.8315 7.45113 16.9926 7.35956 17.1297C7.26799 17.2667 7.13784 17.3735 6.98557 17.4366C6.8333 17.4997 6.66574 17.5162 6.50409 17.484C6.34244 17.4519 6.19395 17.3725 6.07741 17.256C5.96087 17.1394 5.8815 16.9909 5.84935 16.8293C5.81719 16.6676 5.83369 16.5001 5.89677 16.3478C5.95984 16.1955 6.06665 16.0654 6.20369 15.9738C6.34073 15.8822 6.50185 15.8334 6.66667 15.8334C6.8876 15.8336 7.09942 15.9215 7.25565 16.0777C7.41187 16.234 7.49975 16.4458 7.5 16.6667ZM8.52802 15H11.472C11.0608 15.4578 10.8333 16.0514 10.8333 16.6667C10.8333 17.282 11.0608 17.8756 11.472 18.3334H8.52802C8.93921 17.8756 9.16667 17.282 9.16667 16.6667C9.16667 16.0514 8.93921 15.4578 8.52802 15Z" fill="#266150"/>
<path d="M14.3344 2.50553C13.9383 1.81746 13.384 1.23361 12.7174 0.802294C12.0508 0.370977 11.2911 0.104595 10.5012 0.0251917C9.71122 -0.0542119 8.9137 0.0556455 8.17463 0.345673C7.43555 0.635701 6.77617 1.09756 6.25104 1.69303C5.78181 1.63398 5.30538 1.67542 4.85339 1.81459C4.4014 1.95376 3.98418 2.18748 3.62942 2.50024C3.27467 2.81299 2.9905 3.19763 2.79578 3.62862C2.60105 4.0596 2.50023 4.52708 2.5 5.00001H16.6667C16.6659 4.36622 16.4247 3.75632 15.9919 3.29336C15.559 2.83041 14.9667 2.54886 14.3344 2.50553ZM7.5 4.16668C7.33518 4.16668 7.17406 4.1178 7.03702 4.02624C6.89998 3.93467 6.79317 3.80452 6.7301 3.65225C6.66703 3.49998 6.65052 3.33242 6.68268 3.17077C6.71483 3.00912 6.7942 2.86063 6.91074 2.74409C7.02729 2.62755 7.17577 2.54818 7.33742 2.51602C7.49907 2.48387 7.66663 2.50037 7.8189 2.56345C7.97117 2.62652 8.10132 2.73333 8.19289 2.87037C8.28446 3.00741 8.33333 3.16853 8.33333 3.33335C8.33333 3.55436 8.24553 3.76632 8.08925 3.9226C7.93297 4.07888 7.72101 4.16668 7.5 4.16668ZM10.8333 3.33335C10.6685 3.33335 10.5074 3.28447 10.3704 3.1929C10.2333 3.10134 10.1265 2.97119 10.0634 2.81892C10.0004 2.66664 9.98386 2.49909 10.016 2.33744C10.0482 2.17579 10.1275 2.0273 10.2441 1.91076C10.3606 1.79421 10.5091 1.71485 10.6708 1.68269C10.8324 1.65054 11 1.66704 11.1522 1.73011C11.3045 1.79319 11.4347 1.9 11.5262 2.03704C11.6178 2.17408 11.6667 2.33519 11.6667 2.50001C11.6667 2.72103 11.5789 2.93299 11.4226 3.08927C11.2663 3.24555 11.0543 3.33335 10.8333 3.33335Z" fill="#266150"/>
</g>
<defs>s
<clipPath id="clip0">
<rect width="20" height="20" fill="none"/>
</clipPath>
</defs>
</svg>
