<svg width="20" height="20" viewBox="0 0 20 20" fill="none" xmlns="http://www.w3.org/2000/svg">
<path d="M19.131 3.91297V15.2173C19.131 16.1778 18.3523 16.9564 17.3918 16.9564H2.60926C1.64879 16.9564 0.870117 16.1778 0.870117 15.2173V3.91297C0.870117 2.9525 1.64875 2.17383 2.60926 2.17383H17.3919C18.3523 2.17383 19.131 2.9525 19.131 3.91297Z" fill="#F2EFE2"/>
<path d="M10.4348 6.08652C10.4348 8.96801 8.09887 11.3039 5.21738 11.3039C2.3359 11.3039 0 8.96801 0 6.08652C0 3.20504 2.3359 0.869141 5.21738 0.869141C8.09887 0.869141 10.4348 3.20504 10.4348 6.08652Z" fill="#E8BA52"/>
<path d="M9.56578 6.08707C9.56578 8.48828 7.61918 10.4349 5.21797 10.4349C2.81676 10.4349 0.870117 8.48828 0.870117 6.08707C0.870117 3.68586 2.81672 1.73926 5.21793 1.73926C7.61914 1.73926 9.56578 3.68586 9.56578 6.08707Z" fill="#ECDBAC"/>
<path d="M7.70238 6.08703C7.70238 7.45918 6.59004 8.57153 5.21789 8.57153C3.84574 8.57153 2.7334 7.45918 2.7334 6.08703C2.7334 4.71488 3.84574 3.60254 5.21789 3.60254C6.59004 3.60254 7.70238 4.71488 7.70238 6.08703Z" fill="#EEDA5F"/>
<path d="M6.16406 3.4407V2.60832C6.16406 2.42824 6.01805 2.28223 5.83797 2.28223C5.65789 2.28223 5.51187 2.42824 5.51187 2.60832V3.29156C5.41488 3.28141 5.31648 3.27602 5.21684 3.27602C5.11719 3.27602 5.01879 3.28141 4.9218 3.29156V2.60832C4.9218 2.42824 4.77578 2.28223 4.5957 2.28223C4.41562 2.28223 4.26961 2.42824 4.26961 2.60832V3.44066C3.18457 3.83027 2.40625 4.8691 2.40625 6.08656C2.40625 7.30402 3.18457 8.34285 4.26961 8.73246V9.56481C4.26961 9.74488 4.41562 9.8909 4.5957 9.8909C4.77578 9.8909 4.9218 9.74488 4.9218 9.56481V8.88156C5.01879 8.89172 5.11719 8.89711 5.21684 8.89711C5.31648 8.89711 5.41488 8.89172 5.51187 8.88156V9.56481C5.51187 9.74488 5.65789 9.8909 5.83797 9.8909C6.01805 9.8909 6.16406 9.74488 6.16406 9.56481V8.73246C7.2491 8.34285 8.02742 7.30402 8.02742 6.08656C8.02742 4.8691 7.2491 3.83031 6.16406 3.4407ZM4.26961 8.02551C3.55305 7.67402 3.05844 6.93711 3.05844 6.0866C3.05844 5.23609 3.55305 4.49918 4.26961 4.1477V8.02551ZM5.51187 8.2243C5.41535 8.23754 5.31695 8.245 5.21684 8.245C5.11672 8.245 5.01836 8.23762 4.9218 8.2243V3.94891C5.01832 3.93566 5.11672 3.9282 5.21684 3.9282C5.31695 3.9282 5.41531 3.93559 5.51187 3.94891V8.2243ZM6.16406 8.02551V4.1477C6.88062 4.49918 7.37523 5.23613 7.37523 6.0866C7.37523 6.93707 6.88062 7.67402 6.16406 8.02551Z" fill="#266150"/>
<path d="M8.69477 9.26367H19.1295C19.6098 9.26367 19.9991 9.65297 19.9991 10.1332V18.6951C19.9991 19.1754 19.6098 19.5647 19.1295 19.5647H8.69477C8.21449 19.5647 7.8252 19.1754 7.8252 18.6951V10.1332C7.8252 9.65297 8.21449 9.26367 8.69477 9.26367Z" fill="#266150"/>
<path d="M12.5087 11.6054C12.5087 12.1226 12.0894 12.5419 11.5722 12.5419C11.055 12.5419 10.6357 12.1226 10.6357 11.6054C10.6357 11.0882 11.055 10.6689 11.5722 10.6689C12.0894 10.6689 12.5087 11.0882 12.5087 11.6054ZM16.2545 10.6689C15.7373 10.6689 15.318 11.0882 15.318 11.6054C15.318 12.1226 15.7373 12.5419 16.2545 12.5419C16.7717 12.5419 17.191 12.1226 17.191 11.6054C17.191 11.0882 16.7717 10.6689 16.2545 10.6689Z" fill="#1F7E63"/>
<path d="M16.5805 8.79613V11.6055C16.5805 11.7855 16.4345 11.9316 16.2545 11.9316C16.0744 11.9316 15.9284 11.7855 15.9284 11.6055V8.79613C15.9284 7.68504 15.0244 6.78109 13.9133 6.78109C12.8022 6.78109 11.8983 7.68504 11.8983 8.79613V11.6055C11.8983 11.7855 11.7523 11.9316 11.5722 11.9316C11.3921 11.9316 11.2461 11.7855 11.2461 11.6055V8.79613C11.2461 7.32543 12.4426 6.12891 13.9133 6.12891C15.384 6.12891 16.5805 7.32543 16.5805 8.79613Z" fill="#50D0AB"/>
<path d="M19.456 3.80091V7.71395C19.456 7.89403 19.31 8.04005 19.1299 8.04005C18.9498 8.04005 18.8038 7.89403 18.8038 7.71395V3.80091C18.8038 3.02177 18.1699 2.38786 17.3908 2.38786H13.4932V3.51747C13.4932 3.56294 13.4702 3.60661 13.4295 3.63876C13.3446 3.70575 13.207 3.70575 13.1221 3.63876L11.4312 2.30438C11.2614 2.1704 11.2614 1.95317 11.4312 1.81915L13.1221 0.484814C13.207 0.417822 13.3446 0.417822 13.4295 0.484814C13.4703 0.517002 13.4932 0.560635 13.4932 0.606104V1.73567H17.3908C18.5295 1.73567 19.456 2.66216 19.456 3.80091ZM8.56781 16.8256L6.87691 15.4912C6.79199 15.4242 6.65437 15.4242 6.56949 15.4912C6.52871 15.5234 6.50582 15.567 6.50582 15.6125V16.7421H2.6082C1.82906 16.7421 1.19516 16.1082 1.19516 15.3291V11.416C1.19516 11.2359 1.04914 11.0899 0.869062 11.0899C0.688984 11.0899 0.542969 11.2359 0.542969 11.416V15.3291C0.542969 16.4678 1.46945 17.3943 2.6082 17.3943H6.50582V18.5239C6.50582 18.5693 6.52875 18.613 6.56949 18.6452C6.65441 18.7122 6.79203 18.7122 6.87691 18.6452L8.56781 17.3108C8.73758 17.1768 8.73758 16.9595 8.56781 16.8256Z" fill="#F7931A"/>
</svg>
