<svg width="16" height="20" viewBox="0 0 16 20" fill="#266150" xmlns="http://www.w3.org/2000/svg">
<path d="M14.1297 0H1.88611C0.942137 0.00101198 0.177282 0.765868 0.17627 1.70984V2.98454H1.54406C1.74444 2.98454 1.90676 3.14686 1.90676 3.34723C1.90676 3.5474 1.74444 3.70993 1.54406 3.70993H0.17627V7.41965H1.54406C1.74444 7.41965 1.90676 7.58217 1.90676 7.78234C1.90676 7.98272 1.74444 8.14504 1.54406 8.14504H0.17627V11.855H1.54406C1.74444 11.855 1.90676 12.0173 1.90676 12.2177C1.90676 12.4178 1.74444 12.5804 1.54406 12.5804H0.17627V16.2901H1.54406C1.74444 16.2901 1.90676 16.4526 1.90676 16.6528C1.90676 16.8531 1.74444 17.0155 1.54406 17.0155H0.17627V18.2902C0.177282 19.2341 0.942137 19.999 1.88611 20H14.1297C15.0737 19.999 15.8385 19.2341 15.8395 18.2902V1.70984C15.8385 0.765868 15.0737 0.00101198 14.1297 0ZM8.00537 4.97409C9.30738 4.97409 10.3629 6.02959 10.3629 7.33161C10.3629 8.63362 9.30738 9.68912 8.00537 9.68912C6.70335 9.68912 5.64785 8.63362 5.64785 7.33161C5.64887 6.03 6.70376 4.97511 8.00537 4.97409ZM11.3318 15.0259H4.67878C4.58244 15.0265 4.48994 14.9885 4.42174 14.9203C4.35353 14.8523 4.31548 14.7596 4.31609 14.6632C4.31609 13.6114 4.69963 12.6425 5.39385 11.9327C6.08442 11.2362 7.02455 10.8446 8.00537 10.8446C8.98598 10.8446 9.92611 11.2362 10.6167 11.9327C11.3109 12.6425 11.6944 13.6114 11.6944 14.6632C11.6951 14.7596 11.657 14.8523 11.5888 14.9203C11.5206 14.9885 11.4281 15.0265 11.3318 15.0259Z" fill="#266150"/>
</svg>
