<svg width="22" height="28" viewBox="0 0 22 28" fill="none" xmlns="http://www.w3.org/2000/svg">
<g clip-path="url(#clip0_2166_582)">
<path d="M4.84615 23.3041H17.1538C18.1719 23.3041 19 22.4352 19 21.367V7.72152H14.6923C13.6743 7.72152 12.8462 6.85259 12.8462 5.78446V1.26465H4.84615C3.82814 1.26465 3 2.13357 3 3.20171V21.367C3 22.4352 3.82814 23.3041 4.84615 23.3041ZM7.30769 10.3473H14.6923C15.0325 10.3473 15.3077 10.6361 15.3077 10.993C15.3077 11.3499 15.0325 11.6387 14.6923 11.6387H7.30769C6.96755 11.6387 6.69231 11.3499 6.69231 10.993C6.69231 10.6361 6.96755 10.3473 7.30769 10.3473ZM7.30769 12.9301H14.6923C15.0325 12.9301 15.3077 13.2188 15.3077 13.5757C15.3077 13.9326 15.0325 14.2214 14.6923 14.2214H7.30769C6.96755 14.2214 6.69231 13.9326 6.69231 13.5757C6.69231 13.2188 6.96755 12.9301 7.30769 12.9301ZM7.30769 15.5128H14.6923C15.0325 15.5128 15.3077 15.8016 15.3077 16.1585C15.3077 16.5154 15.0325 16.8042 14.6923 16.8042H7.30769C6.96755 16.8042 6.69231 16.5154 6.69231 16.1585C6.69231 15.8016 6.96755 15.5128 7.30769 15.5128ZM7.30769 18.0955H12.2308C12.5709 18.0955 12.8462 18.3843 12.8462 18.7412C12.8462 19.0981 12.5709 19.3869 12.2308 19.3869H7.30769C6.96755 19.3869 6.69231 19.0981 6.69231 18.7412C6.69231 18.3843 6.96755 18.0955 7.30769 18.0955Z" fill="#8FBAAD"/>
<path d="M14.4158 6.80087H18.4048L13.7939 0.913086V6.00674C13.7939 6.44489 14.0727 6.80087 14.4158 6.80087Z" fill="#8FBAAD"/>
</g>
<defs>
<clipPath id="clip0_2166_582">
<rect width="21.2277" height="27.1066" fill="white" transform="translate(0.0703125 0.449219)"/>
</clipPath>
</defs>
</svg>
