<svg width="20" height="20" viewBox="0 0 20 20" fill="none" xmlns="http://www.w3.org/2000/svg">
<path d="M4.38623 4.99998H11.0716V3.95072L10.7562 1.42859H5.27911L4.38623 4.99998Z" fill="#D1F3DC"/>
<path d="M4.28586 0.714353H10.7144V0.357207C10.7144 0.159955 10.5545 6.10352e-05 10.3573 6.10352e-05H4.28586C4.08861 6.10352e-05 3.92871 0.159955 3.92871 0.357207C3.92871 0.554458 4.08864 0.714353 4.28586 0.714353Z" fill="#D1F3DC"/>
<path d="M8.57117 11.0714H12.9251C13.1617 9.77968 14.0294 8.69218 15.2364 8.17461C16.4434 7.65704 17.8293 7.77813 18.9283 8.49716V6.78575C18.9267 5.40569 17.8083 4.28735 16.4283 4.28577H11.7854V7.85716C11.7854 8.44888 11.3057 8.9286 10.714 8.9286H9.49505C9.11698 8.9306 8.76648 8.73092 8.57541 8.40468C7.28862 6.16033 4.58085 5.15748 2.14258 6.02219V6.78575C3.57551 6.18755 5.21263 6.34563 6.50462 7.20695C7.79665 8.06827 8.57222 9.51867 8.57117 11.0714Z" fill="#D1F3DC"/>
<path d="M9.19524 8.04928C9.25867 8.15384 9.37298 8.21671 9.49525 8.21427H10.7142C10.9114 8.21427 11.0713 8.05438 11.0713 7.85713V5.71429H6.7749C7.78558 6.24901 8.62462 7.05845 9.19524 8.04928Z" fill="#D1F3DC"/>
<path d="M13.5713 11.7858C13.5713 13.0858 14.3544 14.2578 15.5555 14.7554C16.7566 15.2529 18.1391 14.9778 19.0584 14.0586C19.9777 13.1393 20.2527 11.7568 19.7552 10.5557C19.2577 9.35462 18.0856 8.57147 16.7856 8.57147C15.0113 8.57364 13.5735 10.0114 13.5713 11.7858ZM18.9284 11.7858C18.9284 12.9692 17.969 13.9286 16.7856 13.9286C15.6021 13.9286 14.6427 12.9692 14.6427 11.7858C14.6427 10.6023 15.6021 9.64291 16.7856 9.64291C17.9685 9.64409 18.9272 10.6028 18.9284 11.7858Z" fill="#D1F3DC"/>
<path d="M15.3569 11.7858C15.3569 12.5748 15.9965 13.2143 16.7855 13.2143C17.5744 13.2143 18.214 12.5748 18.214 11.7858C18.214 10.9968 17.5744 10.3572 16.7855 10.3572C15.9965 10.3572 15.3569 10.9968 15.3569 11.7858ZM17.1426 11.7858C17.1426 11.983 16.9827 12.1429 16.7855 12.1429C16.5882 12.1429 16.4283 11.983 16.4283 11.7858C16.4283 11.5885 16.5882 11.4286 16.7855 11.4286C16.9827 11.4286 17.1426 11.5885 17.1426 11.7858Z" fill="#D1F3DC"/>
<path d="M9.99663 17.0543C11.4704 16.5013 12.9816 16.0535 14.5188 15.7143H5.47949C7.01475 16.0545 8.52417 16.5022 9.99663 17.0543Z" fill="#D1F3DC"/>
<path d="M13.5713 1.42859H14.2856V3.57143H13.5713V1.42859Z" fill="#D1F3DC"/>
<path d="M0 19.6428C0 19.8401 0.159894 20 0.357146 20H4.18033C4.27713 19.936 4.37425 19.8739 4.47105 19.8118C3.00357 19.395 1.50988 19.0766 0 18.8589V19.6428Z" fill="#D1F3DC"/>
<path d="M0 17.2521V18.1364C1.7909 18.3878 3.55958 18.778 5.28998 19.3036C5.72022 19.0479 6.15103 18.8071 6.58246 18.5815C4.43814 17.9199 2.23299 17.4745 0 17.2521H0Z" fill="#D1F3DC"/>
<path d="M19.6428 20C19.84 20 19.9999 19.8401 19.9999 19.6428V18.8571C18.2672 19.1076 16.5561 19.4896 14.8813 20H19.6428Z" fill="#D1F3DC"/>
<path d="M12.6693 19.9999C15.0361 19.108 17.4948 18.4822 20 18.1342V17.2528C16.4329 17.6055 12.9464 18.5332 9.67578 19.9999H12.6693Z" fill="#D1F3DC"/>
<path d="M19.6448 15.7143C14.665 16.0131 9.82579 17.4813 5.51953 20H8.04058C11.7752 18.1073 15.8318 16.9322 19.9998 16.5357V16.0714C19.9998 15.875 19.8412 15.7155 19.6448 15.7143Z" fill="#D1F3DC"/>
<path d="M8.99352 17.4504C6.20771 16.4765 3.30071 15.8923 0.354974 15.7143C0.158578 15.7155 0 15.875 0 16.0714V16.5357C2.54979 16.7844 5.06376 17.3176 7.49496 18.1253C7.99831 17.8823 8.49781 17.6573 8.99352 17.4504Z" fill="#D1F3DC"/>
<path d="M3.92849 13.2143C5.11197 13.2143 6.07133 12.2549 6.07133 11.0714C6.07133 9.88799 5.11193 8.92859 3.92849 8.92859C2.74505 8.92859 1.78564 9.88799 1.78564 11.0714C1.78683 12.2544 2.74554 13.2131 3.92849 13.2143ZM3.92849 10.7143C4.12574 10.7143 4.28564 10.8742 4.28564 11.0714C4.28564 11.2687 4.12574 11.4286 3.92849 11.4286C3.73124 11.4286 3.57134 11.2687 3.57134 11.0714C3.57138 10.8742 3.73127 10.7143 3.92849 10.7143Z" fill="#D1F3DC"/>
<path d="M3.92854 15.0001C6.09821 15.0001 7.85708 13.2412 7.85708 11.0715C7.85708 8.90185 6.09824 7.14294 3.92854 7.14294C1.75884 7.14294 0 8.90182 0 11.0715C0.00256726 13.2401 1.75992 14.9975 3.92854 15.0001ZM3.92854 8.21435C5.50648 8.21435 6.78567 9.49354 6.78567 11.0715C6.78567 12.6494 5.50648 13.9286 3.92854 13.9286C2.35059 13.9286 1.0714 12.6494 1.0714 11.0715C1.07318 9.49426 2.35135 8.21613 3.92854 8.21435Z" fill="#D1F3DC"/>
</svg>
