<svg width="21" height="25" viewBox="0 0 21 25" fill="none" xmlns="http://www.w3.org/2000/svg">
<g clip-path="url(#clip0_2166_587)">
<path fill-rule="evenodd" clip-rule="evenodd" d="M10.5 0.958984C16.2991 0.958984 21 6.26986 21 12.8223C21 18.0627 17.9949 22.5082 13.8253 24.0784C13.293 24.1952 13.104 23.8248 13.104 23.5089C13.104 23.1178 13.1166 21.8404 13.1166 20.2529C13.1166 19.1468 12.7806 18.4248 12.4037 18.0569C14.742 17.763 17.199 16.7597 17.199 12.2031C17.199 10.9072 16.7916 9.84971 16.1175 9.01893C16.2267 8.71925 16.5868 7.51258 16.0146 5.8788C16.0146 5.8788 15.1347 5.56091 13.1302 7.09519C12.2738 6.83213 11.3891 6.69761 10.5 6.69575C9.61162 6.69752 8.72754 6.83205 7.87185 7.09519C5.8653 5.56091 4.9833 5.8788 4.9833 5.8788C4.41315 7.51258 4.7733 8.71925 4.88145 9.01893C4.2105 9.84971 3.79995 10.9072 3.79995 12.2031C3.79995 16.7481 6.2517 17.7668 8.58375 18.0665C8.28345 18.3627 8.0115 18.8852 7.917 19.6523C7.3185 19.9555 5.7981 20.4802 4.8615 18.667C4.8615 18.667 4.30605 17.5272 3.25185 17.4439C3.25185 17.4439 2.2281 17.4289 3.18045 18.1648C3.18045 18.1648 3.8682 18.5292 4.34595 19.9004C4.34595 19.9004 4.9623 22.0178 7.8834 21.3004C7.88865 22.292 7.8981 23.2265 7.8981 23.5089C7.8981 23.8224 7.7049 24.1894 7.18095 24.0795C3.00825 22.5117 0 18.0639 0 12.8223C0 6.26986 4.7019 0.958984 10.5 0.958984Z" fill="#8FBAAD"/>
</g>
<defs>
<clipPath id="clip0_2166_587">
<rect width="21" height="23.1414" fill="white" transform="translate(0 0.958984)"/>
</clipPath>
</defs>
</svg>
