<svg width="20" height="20" viewBox="0 0 20 20" fill="#266150" xmlns="http://www.w3.org/2000/svg">
<path fill-rule="evenodd" clip-rule="evenodd" d="M10 0C15.523 0 20 4.58993 20 10.2529C20 14.7819 17.138 18.624 13.167 19.981C12.66 20.082 12.48 19.7618 12.48 19.4888C12.48 19.1508 12.492 18.0468 12.492 16.6748C12.492 15.7188 12.172 15.0949 11.813 14.7769C14.04 14.5229 16.38 13.6558 16.38 9.71777C16.38 8.59777 15.992 7.68382 15.35 6.96582C15.454 6.70682 15.797 5.66395 15.252 4.25195C15.252 4.25195 14.414 3.97722 12.505 5.30322C11.6894 5.07588 10.8467 4.95961 10 4.95801C9.15392 4.95954 8.31194 5.0758 7.497 5.30322C5.586 3.97722 4.746 4.25195 4.746 4.25195C4.203 5.66395 4.546 6.70682 4.649 6.96582C4.01 7.68382 3.619 8.59777 3.619 9.71777C3.619 13.6458 5.954 14.5262 8.175 14.7852C7.889 15.0412 7.63 15.4928 7.54 16.1558C6.97 16.4178 5.522 16.8712 4.63 15.3042C4.63 15.3042 4.101 14.3191 3.097 14.2471C3.097 14.2471 2.122 14.2341 3.029 14.8701C3.029 14.8701 3.684 15.1851 4.139 16.3701C4.139 16.3701 4.726 18.2001 7.508 17.5801C7.513 18.4371 7.522 19.2448 7.522 19.4888C7.522 19.7598 7.338 20.0769 6.839 19.9819C2.865 18.6269 0 14.7829 0 10.2529C0 4.58993 4.478 0 10 0Z" fill="#266150"/>
</svg>
