<svg width="20" height="20" viewBox="0 0 20 20" fill="#D1F3DC" xmlns="http://www.w3.org/2000/svg">
<path d="M19.4603 8.69904C19.4598 8.69858 19.4594 8.69812 19.4589 8.69766L11.3005 0.539551C10.9527 0.19165 10.4904 0 9.99862 0C9.50682 0 9.04448 0.191498 8.69658 0.539398L0.54244 8.69339C0.539693 8.69614 0.536947 8.69904 0.5342 8.70178C-0.179911 9.42001 -0.17869 10.5853 0.53771 11.3017C0.865011 11.6292 1.29729 11.8188 1.75948 11.8387C1.77825 11.8405 1.79717 11.8414 1.81624 11.8414H2.14141V17.8453C2.14141 19.0334 3.10805 20 4.29641 20H7.48824C7.81173 20 8.07418 19.7377 8.07418 19.4141V14.707C8.07418 14.1649 8.51516 13.7239 9.0573 13.7239H10.9399C11.4821 13.7239 11.9231 14.1649 11.9231 14.707V19.4141C11.9231 19.7377 12.1854 20 12.509 20H15.7008C16.8892 20 17.8558 19.0334 17.8558 17.8453V11.8414H18.1573C18.649 11.8414 19.1113 11.6499 19.4594 11.302C20.1765 10.5844 20.1768 9.41711 19.4603 8.69904Z" fill="#266150"/>
</svg>
