<svg width="22" height="21" viewBox="0 0 22 21" fill="none" xmlns="http://www.w3.org/2000/svg">
<g clip-path="url(#clip0_2166_598)">
<path d="M20.462 8.88263C20.4616 8.88217 20.4611 8.88171 20.4606 8.88126L12.0581 0.723145C11.6999 0.375244 11.2238 0.183594 10.7172 0.183594C10.2107 0.183594 9.73456 0.375092 9.37625 0.722992L0.978119 8.87698C0.97529 8.87973 0.972462 8.88263 0.969633 8.88538C0.234154 9.60361 0.235411 10.7689 0.973247 11.4853C1.31034 11.8128 1.75556 12.0024 2.23158 12.0223C2.25091 12.0241 2.27039 12.025 2.29004 12.025H2.62493V18.0289C2.62493 19.2169 3.6205 20.1836 4.84441 20.1836H8.13175C8.46492 20.1836 8.73522 19.9213 8.73522 19.5977V14.8906C8.73522 14.3485 9.1894 13.9075 9.74777 13.9075H11.6867C12.2451 13.9075 12.6993 14.3485 12.6993 14.8906V19.5977C12.6993 19.9213 12.9694 20.1836 13.3027 20.1836H16.5901C17.814 20.1836 18.8096 19.2169 18.8096 18.0289V12.025H19.1201C19.6264 12.025 20.1026 11.8335 20.4611 11.4856C21.1997 10.768 21.2 9.60071 20.462 8.88263Z" fill="#8FBAAD"/>
</g>
<defs>
<clipPath id="clip0_2166_598">
<rect width="20.5984" height="20" fill="white" transform="translate(0.419922 0.183594)"/>
</clipPath>
</defs>
</svg>
