<svg width="20" height="20" viewBox="0 0 20 20" fill="none" xmlns="http://www.w3.org/2000/svg">
<path d="M9.03205 3.22448L5.48367 2.25806L4.61174 2.98321C4.33788 2.57256 4.19336 2.09482 4.19336 1.60161V0.806437C4.19336 0.361607 4.55497 0 4.9998 0C5.44463 0 5.80623 0.361607 5.80623 0.806437V1.129C5.80623 1.21768 5.87879 1.29031 5.96755 1.29031C6.0563 1.29031 6.12886 1.21775 6.12886 1.129V0.806437C6.12886 0.361607 6.49047 0 6.9353 0C7.38013 0 7.74173 0.361607 7.74173 0.806437V1.129C7.74173 1.21768 7.81429 1.29031 7.90305 1.29031C7.9918 1.29031 8.06436 1.21775 8.06436 1.129V0.806437C8.06436 0.361607 8.42597 0 8.8708 0C9.31563 0 9.67723 0.361607 9.67723 0.806437V1.60161C9.67723 2.09482 9.53271 2.57289 9.25886 2.98321L9.03205 3.22448Z" fill="#F9BA48"/>
<path d="M3.94709 8.06359L3.30191 7.74103H2.25806V2.90234H0V9.03134H2.25806V8.38615H3.14965L3.79484 8.70871H4.19356V8.06353L3.94709 8.06359ZM1.61287 8.38622H0.645189V3.54747H1.61294V8.38622H1.61287Z" fill="#266150"/>
<path d="M7.09919 15.1617C7.04082 15.1617 6.98271 15.1607 6.92401 15.1582C4.74657 15.0704 2.94307 13.225 2.90402 11.0447C2.8837 9.92012 3.30468 8.85662 4.08886 8.05045C4.78049 7.33916 5.16142 6.45177 5.16142 5.55238L6.77429 4.5166L7.41948 5.16179V8.38627H9.67754L10.0553 7.99788C10.8521 8.79012 11.2904 9.84463 11.2904 10.9682C11.2904 12.1205 10.8327 13.1947 10.0014 13.9931C9.21306 14.7504 8.18794 15.1617 7.09919 15.1617Z" fill="#F9BA48"/>
<path d="M8.71025 10.3212V10.1613C8.71025 9.53866 8.20379 9.03093 7.58119 9.03093H7.41987V8.38574H6.77469V9.03093H6.61337C5.99077 9.03093 5.48438 9.5374 5.48438 10.1599C5.48438 10.7825 5.99084 11.289 6.61337 11.289H7.58112C7.84791 11.289 8.065 11.5061 8.065 11.7729C8.065 12.0397 7.84791 12.2567 7.58112 12.2567H6.61344C6.34665 12.2567 6.12956 12.0409 6.12956 11.7741V11.6116H5.48438V11.7741C5.48438 12.3967 5.99084 12.9019 6.61337 12.9019H6.77469V13.5471H7.41987V12.9019H7.58119C8.20379 12.9019 8.71025 12.3954 8.71025 11.7729C8.71025 11.1503 8.20379 10.6438 7.58119 10.6438H6.61344C6.34665 10.6438 6.12956 10.4267 6.12956 10.1599C6.12956 9.89314 6.34665 9.67605 6.61344 9.67605H7.58119C7.84798 9.67605 8.06506 9.89447 8.06506 10.1612V10.3212L8.71025 10.3212Z" fill="white"/>
<path d="M10.071 4.5162C10.2259 4.34455 10.3226 4.11907 10.3226 3.87041C10.3226 3.33689 9.88844 2.90199 9.35486 2.90199H8.15423L7.92968 2.62134L5.40876 1.90039L3.43168 3.54711H1.93555V4.1923H3.66522L5.55941 2.61454L7.55455 3.18484L8.23325 4.03292C8.32294 4.14519 8.36259 4.28585 8.34453 4.42838C8.32647 4.57097 8.25291 4.69743 8.13777 4.78352C7.92968 4.93964 7.63391 4.91865 7.44941 4.73448L6.79842 4.08349L4.96007 5.55424L5.36299 6.05811L6.75038 4.9481L6.99298 5.19097C7.0285 5.22648 7.06814 5.25547 7.10719 5.28545C7.13071 5.52093 7.21653 5.65932 7.34846 5.80544C7.19361 5.97708 7.09686 6.20223 7.09686 6.4509C7.09686 6.69956 7.19394 6.92478 7.34846 7.09609C7.19361 7.26773 7.09686 7.49187 7.09686 7.74061C7.09686 8.27479 7.53103 8.70836 8.06461 8.70836H9.35492C9.88844 8.70836 10.3227 8.27479 10.3227 7.74128C10.3227 7.49254 10.2256 7.26806 10.0711 7.09642C10.2259 6.92478 10.3227 6.7003 10.3227 6.45123C10.3227 6.20223 10.2256 5.97768 10.0711 5.80604C10.2259 5.6344 10.3227 5.40959 10.3227 5.16085C10.3226 4.91232 10.2255 4.68777 10.071 4.5162ZM9.35486 8.06324H8.06454C7.88677 8.06324 7.74198 7.91838 7.74198 7.74068C7.74198 7.5629 7.88684 7.41811 8.06454 7.41811H9.35486C9.53263 7.41811 9.67742 7.56297 9.67742 7.74068C9.67748 7.91845 9.53263 8.06324 9.35486 8.06324ZM9.35486 6.77292H8.06454C7.88677 6.77292 7.74198 6.62807 7.74198 6.45036C7.74198 6.27259 7.88684 6.1278 8.06454 6.1278H9.35486C9.53263 6.1278 9.67742 6.27266 9.67742 6.45036C9.67748 6.62814 9.53263 6.77292 9.35486 6.77292ZM9.35486 5.48261H8.15969C8.28842 5.44423 8.41263 5.3842 8.52483 5.30004C8.68741 5.17811 8.80741 5.01779 8.88744 4.83749H9.35486C9.53263 4.83749 9.67742 4.98235 9.67742 5.16005C9.67742 5.33776 9.53263 5.48261 9.35486 5.48261ZM9.35486 4.1923H8.97646C8.94681 3.98908 8.86905 3.79551 8.73679 3.63007L8.67035 3.54718H9.35486C9.53263 3.54718 9.67742 3.69203 9.67742 3.86974C9.67748 4.04745 9.53263 4.1923 9.35486 4.1923Z" fill="#266150"/>
<path d="M12.959 15.16V16.1278H10.7987L9.91225 15.5368L7.19357 14.5726C6.93484 14.4817 6.65712 14.5001 6.41258 14.6243C6.16771 14.7485 5.98934 14.9613 5.90965 15.2239C5.77192 15.6784 5.97642 16.1704 6.39579 16.393L7.09415 16.7639L6.07869 16.7671L5.66125 15.7233C5.52386 15.3813 5.19703 15.16 4.82803 15.16C4.53998 15.16 4.26773 15.3 4.09962 15.5336C3.93157 15.7678 3.88606 16.0704 3.97801 16.3433L4.07576 16.6329L3.36801 16.2461C3.14286 16.1226 2.8738 16.0987 2.63027 16.181C2.38673 16.2623 2.18637 16.4432 2.08056 16.6771C1.87347 17.1345 2.0641 17.6671 2.51446 17.8894L4.10675 18.6752L7.41192 19.3474L11.7006 19.3535L12.959 19.1019V19.9987H15.2171V15.16H12.959ZM4.62354 15.91C4.73195 15.7591 4.99321 15.791 5.0619 15.9633L5.38446 16.7694L4.80317 16.7713L4.58962 16.1371C4.5635 16.0594 4.57576 15.9768 4.62354 15.91ZM11.6367 18.7084H7.50707L4.35415 18.0778L2.79998 17.311C2.66351 17.2435 2.60548 17.082 2.66838 16.9429C2.70096 16.8709 2.76 16.8174 2.83516 16.7926C2.90965 16.7668 2.98967 16.7742 3.05904 16.8126L4.16711 17.418H7.22875L8.50167 16.7816L6.69876 15.8232C6.55104 15.7445 6.47875 15.5713 6.52712 15.411C6.55517 15.3184 6.61807 15.2429 6.70456 15.1994C6.79071 15.1552 6.88873 15.1494 6.98001 15.181L9.58842 16.0961L10.6033 16.7729H12.9591V18.4439L11.6367 18.7084ZM14.5719 19.3535H13.6041V15.8052H14.5719V19.3535Z" fill="#266150"/>
</svg>
