<svg width="20" height="20" viewBox="0 0 20 20" fill="none" xmlns="http://www.w3.org/2000/svg">
<path d="M10.0002 17.5229C14.1549 17.5229 17.5229 14.1549 17.5229 10.0002C17.5229 5.84556 14.1549 2.47754 10.0002 2.47754C5.84556 2.47754 2.47754 5.84556 2.47754 10.0002C2.47754 14.1549 5.84556 17.5229 10.0002 17.5229Z" fill="#FFAD61"/>
<path d="M10.4578 6.11461C10.4578 6.11461 10.3537 6.31602 10.7703 6.53125C10.94 6.61891 11.2512 6.70422 11.5606 6.77465L11.5904 6.31828C11.6314 5.6891 11.1322 5.15625 10.5017 5.15625H9.49732C8.86682 5.15625 8.36756 5.6891 8.40861 6.31828L8.45322 7.00274C10.0357 6.91477 10.4578 6.11461 10.4578 6.11461Z" fill="#D35B38"/>
<path d="M10.7712 6.5309C10.3545 6.31559 10.4587 6.11426 10.4587 6.11426C10.4587 6.11426 10.0365 6.91441 8.4541 7.00242L8.55832 8.60074C8.59043 9.09312 8.8716 9.53512 9.30395 9.77289C9.73762 10.0114 10.2632 10.0114 10.6968 9.77289C11.1291 9.53508 11.4103 9.09312 11.4424 8.60074L11.5615 6.7743C11.2521 6.70387 10.9408 6.61855 10.7712 6.5309Z" fill="#FFE6B8"/>
<path d="M13.9796 13.0311C13.8012 12.0463 13.0324 11.2952 12.0782 11.1155C11.9347 11.0884 11.7869 11.0742 11.6363 11.0742H11.1354L10 12.2096L8.86465 11.0743H8.36371C8.21313 11.0743 8.06535 11.0885 7.9218 11.1155C6.96762 11.2952 6.19895 12.0463 6.02051 13.0312C5.93391 13.5094 6.30129 13.9493 6.78727 13.9493H13.2128C13.6988 13.9493 14.0662 13.5093 13.9796 13.0311Z" fill="#BCC987"/>
<path d="M16.4384 4.0114C16.5404 4.0114 16.6424 3.9725 16.7202 3.89468L16.8488 3.76605C17.0043 3.61043 17.0043 3.35816 16.8487 3.20257C16.6931 3.04703 16.4409 3.04707 16.2853 3.20265L16.1567 3.33128C16.0011 3.48691 16.0011 3.73918 16.1568 3.89476C16.2346 3.97253 16.3365 4.0114 16.4384 4.0114Z" fill="#266150"/>
<path d="M19.568 0H17.039C16.819 0 16.6406 0.178398 16.6406 0.398398C16.6406 0.618398 16.819 0.796797 17.039 0.796797H18.6919L17.3145 2.17414C17.1589 2.32973 17.1589 2.58199 17.3145 2.73762C17.3923 2.81539 17.4943 2.8543 17.5962 2.8543C17.6982 2.8543 17.8002 2.81539 17.878 2.73762L19.1696 1.44598V2.92738C19.1696 3.14738 19.348 3.32578 19.568 3.32578C19.788 3.32578 19.9664 3.14738 19.9664 2.92738V0.398398C19.9664 0.178398 19.788 0 19.568 0Z" fill="#266150"/>
<mask id="path-7-inside-1_1676_2403" fill="white">
<path d="M19.5678 16.6742C19.3478 16.6742 19.1694 16.8526 19.1694 17.0726V18.554L15.9249 15.3095C17.1971 13.9037 17.9731 12.0408 17.9731 9.99996C17.9731 5.63227 14.4197 2.07887 10.052 2.07887C8.01117 2.07887 6.14824 2.8548 4.74238 4.12695L1.41219 0.796797H3.06508C3.28512 0.796797 3.46348 0.618398 3.46348 0.398398C3.46348 0.178398 3.28516 0 3.06512 0H0.536094C0.316055 0 0.137695 0.178398 0.137695 0.398398V2.92742C0.137695 3.14742 0.316055 3.32582 0.536094 3.32582C0.756133 3.32582 0.934492 3.14742 0.934492 2.92742V1.44598L4.17899 4.69043C2.9068 6.09625 2.13086 7.95918 2.13086 10C2.13086 12.0408 2.9068 13.9038 4.17899 15.3096L0.934492 18.554V17.0726C0.934492 16.8526 0.756133 16.6742 0.536094 16.6742C0.316055 16.6742 0.137695 16.8526 0.137695 17.0726V19.6016C0.137695 19.8216 0.316055 20 0.536094 20H3.06512C3.28516 20 3.46352 19.8216 3.46352 19.6016C3.46352 19.3816 3.28516 19.2032 3.06512 19.2032H1.41219L4.74242 15.873C6.14824 17.1451 8.01113 17.9211 10.052 17.9211C12.0929 17.9211 13.9557 17.1451 15.3616 15.873L18.6917 19.2032H17.0388C16.8188 19.2032 16.6404 19.3816 16.6404 19.6016C16.6404 19.8216 16.8188 20 17.0388 20H19.5678C19.7878 20 19.9662 19.8216 19.9662 19.6016V17.0726C19.9662 16.8526 19.7879 16.6742 19.5678 16.6742ZM2.9277 10C2.9277 6.07164 6.12363 2.87574 10.052 2.87574C13.9803 2.87574 17.1762 6.07164 17.1762 10C17.1762 13.9284 13.9803 17.1243 10.052 17.1243C6.12363 17.1243 2.9277 13.9284 2.9277 10Z"/>
</mask>
<path d="M19.5678 16.6742C19.3478 16.6742 19.1694 16.8526 19.1694 17.0726V18.554L15.9249 15.3095C17.1971 13.9037 17.9731 12.0408 17.9731 9.99996C17.9731 5.63227 14.4197 2.07887 10.052 2.07887C8.01117 2.07887 6.14824 2.8548 4.74238 4.12695L1.41219 0.796797H3.06508C3.28512 0.796797 3.46348 0.618398 3.46348 0.398398C3.46348 0.178398 3.28516 0 3.06512 0H0.536094C0.316055 0 0.137695 0.178398 0.137695 0.398398V2.92742C0.137695 3.14742 0.316055 3.32582 0.536094 3.32582C0.756133 3.32582 0.934492 3.14742 0.934492 2.92742V1.44598L4.17899 4.69043C2.9068 6.09625 2.13086 7.95918 2.13086 10C2.13086 12.0408 2.9068 13.9038 4.17899 15.3096L0.934492 18.554V17.0726C0.934492 16.8526 0.756133 16.6742 0.536094 16.6742C0.316055 16.6742 0.137695 16.8526 0.137695 17.0726V19.6016C0.137695 19.8216 0.316055 20 0.536094 20H3.06512C3.28516 20 3.46352 19.8216 3.46352 19.6016C3.46352 19.3816 3.28516 19.2032 3.06512 19.2032H1.41219L4.74242 15.873C6.14824 17.1451 8.01113 17.9211 10.052 17.9211C12.0929 17.9211 13.9557 17.1451 15.3616 15.873L18.6917 19.2032H17.0388C16.8188 19.2032 16.6404 19.3816 16.6404 19.6016C16.6404 19.8216 16.8188 20 17.0388 20H19.5678C19.7878 20 19.9662 19.8216 19.9662 19.6016V17.0726C19.9662 16.8526 19.7879 16.6742 19.5678 16.6742ZM2.9277 10C2.9277 6.07164 6.12363 2.87574 10.052 2.87574C13.9803 2.87574 17.1762 6.07164 17.1762 10C17.1762 13.9284 13.9803 17.1243 10.052 17.1243C6.12363 17.1243 2.9277 13.9284 2.9277 10Z" fill="#266150"/>
<path d="M19.1694 18.554L17.7552 19.9682L21.1694 23.3824V18.554H19.1694ZM15.9249 15.3095L14.442 13.9676L13.1653 15.3784L14.5107 16.7238L15.9249 15.3095ZM4.74238 4.12695L3.32818 5.54118L4.67354 6.88652L6.08431 5.60993L4.74238 4.12695ZM1.41219 0.796797V-1.2032H-3.41628L-0.00201745 2.21102L1.41219 0.796797ZM0.934492 1.44598L2.3487 0.0317544L-1.06551 -3.38241V1.44598H0.934492ZM4.17899 4.69043L5.66192 6.0324L6.93861 4.62161L5.59319 3.27621L4.17899 4.69043ZM4.17899 15.3096L5.59319 16.7238L6.93861 15.3784L5.66192 13.9676L4.17899 15.3096ZM0.934492 18.554H-1.06551V23.3824L2.3487 19.9682L0.934492 18.554ZM1.41219 19.2032L-0.00201768 17.7889L-3.41628 21.2032H1.41219V19.2032ZM4.74242 15.873L6.08437 14.39L4.6736 13.1134L3.32822 14.4587L4.74242 15.873ZM15.3616 15.873L16.7758 14.4588L15.4304 13.1134L14.0196 14.39L15.3616 15.873ZM18.6917 19.2032V21.2032H23.5201L20.1059 17.789L18.6917 19.2032ZM19.9662 17.0726L17.9662 17.0723V17.0726H19.9662ZM19.5678 14.6742C18.2431 14.6742 17.1694 15.7481 17.1694 17.0726H21.1694C21.1694 17.957 20.4525 18.6742 19.5678 18.6742V14.6742ZM17.1694 17.0726V18.554H21.1694V17.0726H17.1694ZM20.5836 17.1398L17.3391 13.8953L14.5107 16.7238L17.7552 19.9682L20.5836 17.1398ZM17.4079 16.6515C18.9987 14.8936 19.973 12.5575 19.973 9.99996H15.9731C15.9731 11.5241 15.3956 12.9138 14.442 13.9676L17.4079 16.6515ZM19.973 9.99996C19.973 4.5277 15.5242 0.0788673 10.052 0.0788673V4.07887C13.3151 4.07887 15.9731 6.73684 15.9731 9.99996H19.973ZM10.052 0.0788673C7.49447 0.0788673 5.15836 1.05326 3.40045 2.64398L6.08431 5.60993C7.13813 4.65635 8.52787 4.07887 10.052 4.07887V0.0788673ZM6.15659 2.71273L2.82639 -0.617425L-0.00201745 2.21102L3.32818 5.54118L6.15659 2.71273ZM1.41219 2.7968H3.06508V-1.2032H1.41219V2.7968ZM3.06508 2.7968C4.38982 2.7968 5.46348 1.72284 5.46348 0.398398H1.46348C1.46348 -0.486043 2.18042 -1.2032 3.06508 -1.2032V2.7968ZM5.46348 0.398398C5.46348 -0.925788 4.39011 -2 3.06512 -2V2C2.1802 2 1.46348 1.28258 1.46348 0.398398H5.46348ZM3.06512 -2H0.536094V2H3.06512V-2ZM0.536094 -2C-0.788642 -2 -1.8623 -0.926044 -1.8623 0.398398H2.1377C2.1377 1.28284 1.42075 2 0.536094 2V-2ZM-1.8623 0.398398V2.92742H2.1377V0.398398H-1.8623ZM-1.8623 2.92742C-1.8623 4.25186 -0.788642 5.32582 0.536094 5.32582V1.32582C1.42075 1.32582 2.1377 2.04298 2.1377 2.92742H-1.8623ZM0.536094 5.32582C1.86083 5.32582 2.93449 4.25186 2.93449 2.92742H-1.06551C-1.06551 2.04298 -0.348564 1.32582 0.536094 1.32582V5.32582ZM2.93449 2.92742V1.44598H-1.06551V2.92742H2.93449ZM-0.479713 2.8602L2.76478 6.10465L5.59319 3.27621L2.3487 0.0317544L-0.479713 2.8602ZM2.69605 3.34846C1.10525 5.10635 0.13086 7.44249 0.13086 10H4.13086C4.13086 8.47587 4.70834 7.08615 5.66192 6.0324L2.69605 3.34846ZM0.13086 10C0.13086 12.5575 1.10525 14.8937 2.69605 16.6515L5.66192 13.9676C4.70834 12.9138 4.13086 11.5241 4.13086 10H0.13086ZM2.76478 13.8953L-0.479713 17.1398L2.3487 19.9682L5.59319 16.7238L2.76478 13.8953ZM2.93449 18.554V17.0726H-1.06551V18.554H2.93449ZM2.93449 17.0726C2.93449 15.7482 1.86083 14.6742 0.536094 14.6742V18.6742C-0.348562 18.6742 -1.06551 17.9571 -1.06551 17.0726H2.93449ZM0.536094 14.6742C-0.78864 14.6742 -1.8623 15.7482 -1.8623 17.0726H2.1377C2.1377 17.9571 1.42075 18.6742 0.536094 18.6742V14.6742ZM-1.8623 17.0726V19.6016H2.1377V17.0726H-1.8623ZM-1.8623 19.6016C-1.8623 20.926 -0.78864 22 0.536094 22V18C1.42075 18 2.1377 18.7171 2.1377 19.6016H-1.8623ZM0.536094 22H3.06512V18H0.536094V22ZM3.06512 22C4.38985 22 5.46352 20.926 5.46352 19.6016H1.46352C1.46352 18.7171 2.18046 18 3.06512 18V22ZM5.46352 19.6016C5.46352 18.2771 4.38985 17.2032 3.06512 17.2032V21.2032C2.18046 21.2032 1.46352 20.486 1.46352 19.6016H5.46352ZM3.06512 17.2032H1.41219V21.2032H3.06512V17.2032ZM2.82639 20.6174L6.15663 17.2872L3.32822 14.4587L-0.00201768 17.7889L2.82639 20.6174ZM3.40047 17.3559C5.15835 18.9467 7.49444 19.9211 10.052 19.9211V15.9211C8.52783 15.9211 7.13813 15.3436 6.08437 14.39L3.40047 17.3559ZM10.052 19.9211C12.6096 19.9211 14.9456 18.9467 16.7035 17.3559L14.0196 14.39C12.9658 15.3436 11.5761 15.9211 10.052 15.9211V19.9211ZM13.9473 17.2872L17.2775 20.6174L20.1059 17.789L16.7758 14.4588L13.9473 17.2872ZM18.6917 17.2032H17.0388V21.2032H18.6917V17.2032ZM17.0388 17.2032C15.7141 17.2032 14.6404 18.2771 14.6404 19.6016H18.6404C18.6404 20.486 17.9235 21.2032 17.0388 21.2032V17.2032ZM14.6404 19.6016C14.6404 20.9255 15.7135 22 17.0388 22V18C17.924 18 18.6404 18.7176 18.6404 19.6016H14.6404ZM17.0388 22H19.5678V18H17.0388V22ZM19.5678 22C20.8925 22 21.9662 20.926 21.9662 19.6016H17.9662C17.9662 18.7172 18.6831 18 19.5678 18V22ZM21.9662 19.6016V17.0726H17.9662V19.6016H21.9662ZM21.9662 17.073C21.9664 15.7483 20.8926 14.6742 19.5678 14.6742V18.6742C18.6831 18.6742 17.966 17.9569 17.9662 17.0723L21.9662 17.073ZM4.9277 10C4.9277 7.17622 7.2282 4.87574 10.052 4.87574V0.875742C5.01907 0.875742 0.927696 4.96706 0.927696 10H4.9277ZM10.052 4.87574C12.8757 4.87574 15.1762 7.17622 15.1762 10H19.1762C19.1762 4.96706 15.0848 0.875742 10.052 0.875742V4.87574ZM15.1762 10C15.1762 12.8238 12.8757 15.1243 10.052 15.1243V19.1243C15.0848 19.1243 19.1762 15.0329 19.1762 10H15.1762ZM10.052 15.1243C7.2282 15.1243 4.9277 12.8238 4.9277 10H0.927696C0.927696 15.0329 5.01907 19.1243 10.052 19.1243V15.1243Z" fill="#266150" mask="url(#path-7-inside-1_1676_2403)"/>
<path d="M8.10823 7.02867L8.21245 8.62699C8.25366 9.25844 8.60921 9.81738 9.16363 10.1223C9.44179 10.2754 9.74691 10.3518 10.0521 10.3518C10.3572 10.3518 10.6623 10.2754 10.9405 10.1223C11.4949 9.81742 11.8505 9.2584 11.8917 8.62699L12.0108 6.80055L12.0406 6.34418C12.0673 5.9348 11.9217 5.52828 11.6412 5.22891C11.3607 4.92953 10.9646 4.75781 10.5543 4.75781H9.54995C9.13972 4.75781 8.74355 4.92953 8.46304 5.22891C8.18253 5.52828 8.03698 5.9348 8.06366 6.34418L8.10823 7.02867ZM10.5564 9.42418C10.2406 9.59793 9.86351 9.59789 9.54765 9.42414C9.23288 9.25101 9.03101 8.93363 9.00761 8.57519L8.92843 7.36156C9.6723 7.2584 10.1518 7.00328 10.4472 6.76758C10.5046 6.80922 10.5689 6.84844 10.64 6.8852C10.7666 6.95062 10.9494 7.01543 11.1939 7.08145L11.0964 8.57516C11.0732 8.93363 10.8713 9.25105 10.5564 9.42418ZM11.0058 6.1773C10.973 6.16039 10.9482 6.14535 10.9292 6.13258L11.0625 5.77703C11.1872 5.91176 11.2522 6.08488 11.2466 6.26754C11.1051 6.22387 11.0358 6.19277 11.0058 6.1773ZM9.04441 5.77375C9.17675 5.63246 9.35628 5.55465 9.54988 5.55465H10.2949L10.1502 5.94047C10.0983 6.01465 9.7739 6.42277 8.87644 6.56402L8.85874 6.29238C8.84613 6.09922 8.91206 5.91504 9.04441 5.77375Z" fill="#266150"/>
<path d="M12.2036 10.724C12.034 10.692 11.8604 10.6758 11.688 10.6758H11.1871C11.0814 10.6758 10.98 10.7178 10.9054 10.7925L10.0517 11.6461L9.19802 10.7925C9.12333 10.7178 9.02196 10.6758 8.9163 10.6758H8.41536C8.24286 10.6758 8.06938 10.692 7.89974 10.7239C6.77606 10.9355 5.88407 11.8341 5.68013 12.96C5.61774 13.3045 5.71064 13.6562 5.93501 13.9248C6.15939 14.1935 6.48884 14.3476 6.83892 14.3476H13.2644C13.6145 14.3476 13.944 14.1935 14.1683 13.9248C14.3927 13.6562 14.4856 13.3045 14.4232 12.96C14.2192 11.8341 13.3272 10.9355 12.2036 10.724ZM13.5568 13.4141C13.5142 13.4652 13.4194 13.5508 13.2645 13.5508H6.83892C6.68388 13.5508 6.58923 13.4652 6.54661 13.4141C6.50399 13.363 6.43657 13.2546 6.46419 13.1021C6.6097 12.2989 7.24587 11.6579 8.0472 11.507C8.16841 11.4842 8.29228 11.4726 8.41536 11.4726H8.7513L9.76993 12.4913C9.84462 12.566 9.94599 12.608 10.0517 12.608C10.1573 12.608 10.2587 12.566 10.3334 12.4913L11.352 11.4726H11.6879C11.8111 11.4726 11.935 11.4842 12.0561 11.507C12.8575 11.6579 13.4936 12.2989 13.6391 13.1021C13.6668 13.2546 13.5994 13.363 13.5568 13.4141Z" fill="#266150"/>
</svg>
