<svg width="20" height="20" viewBox="0 0 20 20" fill="#8FBAAD" xmlns="http://www.w3.org/2000/svg">
<g clip-path="url(#clip0)">
<path d="M9.99996 5.0001C11.3806 5.0001 12.4999 3.88083 12.4999 2.50014C12.4999 1.11945 11.3806 0.000183105 9.99996 0.000183105C8.61927 0.000183105 7.5 1.11945 7.5 2.50014C7.5 3.88083 8.61927 5.0001 9.99996 5.0001Z" fill="#8FBAAD"/>
<path d="M13.7448 11.795L13.1773 7.37504C13.1136 6.7338 12.5786 6.25006 11.9348 6.25006H11.2499C11.0836 6.25006 10.9249 6.31631 10.8074 6.43256L9.99988 7.24004L9.19239 6.43256C9.07489 6.31631 8.91614 6.25006 8.7499 6.25006H8.06616C7.42117 6.25006 6.88618 6.7338 6.82368 7.35879L6.25494 11.7962C6.23244 11.9737 6.28744 12.1537 6.40619 12.2875C6.52494 12.4225 6.69493 12.5 6.87493 12.5H7.54992L8.07241 18.8748C8.13491 19.5148 8.67115 19.9998 9.31614 19.9998H10.6849C11.3299 19.9998 11.8648 19.5148 11.9298 18.8636L12.4511 12.5H13.1248C13.3048 12.5 13.4748 12.4225 13.5936 12.2875C13.7136 12.1537 13.7686 11.9737 13.7448 11.795Z" fill="#8FBAAD"/>
<path d="M16.2495 5.0001C17.6302 5.0001 18.7494 3.88083 18.7494 2.50014C18.7494 1.11945 17.6302 0.000183105 16.2495 0.000183105C14.8688 0.000183105 13.7495 1.11945 13.7495 2.50014C13.7495 3.88083 14.8688 5.0001 16.2495 5.0001Z" fill="#8FBAAD"/>
<path d="M3.74996 0.000183105C2.37123 0.000183105 1.25 1.12141 1.25 2.50014C1.25 3.87887 2.37123 5.0001 3.74996 5.0001C5.12743 5.0001 6.24991 3.87887 6.24991 2.50014C6.24991 1.12141 5.12743 0.000183105 3.74996 0.000183105Z" fill="#8FBAAD"/>
<path d="M19.9948 11.795L19.4273 7.37629C19.3636 6.7338 18.8298 6.25006 18.1849 6.25006H17.4999C17.3336 6.25006 17.1749 6.31631 17.0574 6.43256L16.2499 7.24004L15.4424 6.43256C15.3249 6.31631 15.1662 6.25006 15.0012 6.25006H14.3162C14.2387 6.25006 14.1687 6.27756 14.0949 6.29131C14.2562 6.57631 14.3824 6.88505 14.4199 7.23129L14.9862 11.6362C15.0562 12.1725 14.8887 12.7124 14.5287 13.1187C14.3587 13.3137 14.1412 13.4512 13.9087 13.5587L14.3237 17.6249C14.3874 18.2661 14.9224 18.7498 15.5674 18.7498H16.9361C17.5811 18.7498 18.1161 18.2648 18.1811 17.6136L18.7011 12.5H19.3748C19.5548 12.5 19.7248 12.4225 19.8436 12.2875C19.9636 12.1537 20.0186 11.9737 19.9948 11.795Z" fill="#8FBAAD"/>
<path d="M5.46739 13.1124C5.11239 12.7112 4.9474 12.1725 5.01489 11.6387L5.58363 7.20004C5.61613 6.86755 5.73863 6.56756 5.89488 6.29006C5.82488 6.27756 5.75863 6.25006 5.68488 6.25006H4.9999C4.83365 6.25006 4.6749 6.31631 4.5574 6.43256L3.74992 7.24004L2.94243 6.43256C2.82493 6.31631 2.66619 6.25006 2.50119 6.25006H1.81616C1.17117 6.25006 0.636181 6.7338 0.573682 7.35879L0.004942 11.7962C-0.0175576 11.9737 0.0374414 12.1537 0.156189 12.2875C0.274937 12.4225 0.446184 12.5 0.624931 12.5H1.29992L1.82241 17.6249C1.88491 18.2648 2.42115 18.7498 3.06614 18.7498H4.43487C5.07985 18.7498 5.61485 18.2648 5.67984 17.6136L6.09484 13.5574C5.86113 13.4487 5.64238 13.3099 5.46739 13.1124Z" fill="#8FBAAD"/>
</g>
<defs>
<clipPath id="clip0">
<rect width="20" height="20" fill="#8FBAAD"/>
</clipPath>
</defs>
</svg>
