<svg width="20" height="20" viewBox="0 0 20 20" fill="none" xmlns="http://www.w3.org/2000/svg">
<path d="M18.75 8.12492V4.37498C18.75 3.68497 18.19 3.125 17.5 3.125H1.24998C0.559973 3.12493 0 3.68497 0 4.37498V15C0 15.69 0.559973 16.2499 1.24998 16.2499H17.5C18.19 16.2499 18.75 15.69 18.75 15V11.25C19.44 11.25 20 10.69 20 9.99999V9.37496C20.0001 8.68496 19.4406 8.12492 18.75 8.12492Z" fill="#42957D"/>
<path d="M3.12498 0H15.625C16.315 0 16.875 0.559971 16.875 1.2506V9.99997C16.875 10.6906 16.315 11.2499 15.625 11.2499H3.12498C2.43497 11.2499 1.875 10.69 1.875 9.99997V1.2506C1.875 0.559971 2.43497 0 3.12498 0Z" fill="#E4E7E7"/>
<path d="M5.78987 3.13809C5.78987 3.13809 6.54802 3.125 7.26428 3.125C7.98116 3.125 8.10804 4.33001 8.10804 4.33001C8.10804 4.33001 8.12114 5.59061 8.12114 5.90127C8.12114 6.21255 7.50427 6.82942 7.50427 6.82942V7.46253L9.37989 8.21252V9.37503H3.74609L3.75233 8.18818L5.62981 7.46884V6.84882C5.62981 6.84882 5.00608 6.2907 5.00608 5.90134V4.32994C5.00608 4.32994 5.05983 3.13809 5.78987 3.13809Z" fill="#868686"/>
<path d="M14.375 5.625H10V6.87498H14.375V5.625Z" fill="#B7BBBD"/>
<path d="M14.375 3.125H10V4.3756H14.375V3.125Z" fill="#B7BBBD"/>
<path d="M15.625 0H3.12498C2.43497 0 1.875 0.559971 1.875 1.2506V1.875H16.8751V1.2506C16.875 0.559971 16.3156 0 15.625 0Z" fill="#B7BBBD"/>
<path d="M1.24998 5.0006L15 6.87498C15.69 6.87498 16.25 7.43495 16.25 8.12496V18.75C16.25 19.44 15.69 19.9999 15 19.9999L1.24998 18.125C0.559973 18.125 0 17.565 0 16.8749V3.75C0 4.44501 0.559973 5.0006 1.24998 5.0006Z" fill="#F4B459"/>
<path d="M13.4375 11.25C13.9549 11.25 14.3749 11.67 14.3749 12.1875C14.3749 12.7049 13.9549 13.1249 13.4375 13.1249C12.92 13.1249 12.5 12.7056 12.5 12.1875C12.5 11.6694 12.92 11.25 13.4375 11.25Z" fill="#E4E7E7"/>
<path d="M1.24998 18.125L15 20C15.69 20 16.25 19.44 16.25 18.75V16.25L1.24998 14.375C0.559973 14.375 0 13.8193 0 13.125V16.875C0 17.5656 0.559973 18.125 1.24998 18.125Z" fill="#266150"/>
<path d="M16.875 10.625C16.875 10.625 20 9.97308 20 9.375V11.25C20 11.25 19.44 12.5 18.75 12.5L16.875 13.125C16.1844 13.125 15.625 12.565 15.625 11.875C15.625 11.1849 16.185 10.625 16.875 10.625Z" fill="#266150"/>
</svg>
