<?xml version="1.0" encoding="utf-8"?>
<!-- Generator: Adobe Illustrator 26.0.2, SVG Export Plug-In . SVG Version: 6.00 Build 0)  -->
<svg version="1.1" id="Layer_1" xmlns="http://www.w3.org/2000/svg" xmlns:xlink="http://www.w3.org/1999/xlink" x="0px" y="0px"
	 viewBox="0 0 682 253" style="enable-background:new 0 0 682 253;" xml:space="preserve">
<style type="text/css">
	.st0{fill:#002B49;}
	.st1{fill:#1ECAD3;}
	.st2{fill:#0095A9;}
	.st3{fill:#FFFFFF;}
	.st4{opacity:0.55;fill:#002B49;}
	.st5{opacity:0.55;}
	.st6{fill:#FF7F30;}
	.st7{fill:none;stroke:#002B49;stroke-width:19;stroke-linecap:round;stroke-miterlimit:10;}
	.st8{fill:none;stroke:#FFFFFF;stroke-width:47;stroke-linecap:round;stroke-miterlimit:10;}
	.st9{fill:#DB6015;}
	.st10{opacity:0.8;}
	.st11{fill:#00B189;}
	.st12{fill:#007853;}
	.st13{opacity:0.6;}
	.st14{fill:#A7A4DF;}
	.st15{fill:#7C7ABC;}
	.st16{opacity:0.8;fill:#002B49;}
</style>
<g>
	<g>
		<g>
			<path class="st0" d="M575.8,31H472c-24,0-43.6,19.6-43.6,43.6v103.8c0,24,19.6,43.6,43.6,43.6h103.8c24,0,43.6-19.6,43.6-43.6
				V74.6C619.4,50.6,599.8,31,575.8,31z"/>
		</g>
		<g>
			<path class="st1" d="M76.8,178.4c-1.6,1.6-3.6,2.4-5.9,2.4c-2.3,0-4.3-0.8-5.9-2.4c-1.6-1.6-2.4-3.6-2.4-5.9V79.7
				c0-2.5,0.8-4.7,2.4-6.6c1.6-1.9,3.7-2.9,6.2-3.1c7.5-0.8,14.7-1.2,21.6-1.2c14.5,0,25.5,2.7,32.8,8c7.4,5.3,11,12.8,11,22.3
				c0,7.7-1.9,14.2-5.8,19.6c-3.9,5.4-9.2,9.2-16,11.3c-0.1,0-0.2,0.1-0.2,0.2c0,0.2,0,0.3,0.2,0.3c4.3,2.9,8.3,8.9,12,17.9
				l9.7,24.5c0.8,1.9,0.6,3.7-0.6,5.4c-1.2,1.7-2.8,2.6-4.8,2.6c-2.6,0-5-0.7-7.1-2.2c-2.1-1.5-3.6-3.4-4.5-5.8l-9.5-24.5
				c-2.1-5.4-4.5-9-7-10.5c-2.6-1.6-7.4-2.3-14.6-2.3h-7.7c-0.9,0-1.4,0.5-1.4,1.4v35.7C79.3,174.8,78.5,176.8,76.8,178.4z
				 M79.3,84.5V121c0,0.9,0.5,1.4,1.4,1.4h7.7c21.4,0,32.1-7.3,32.1-21.8c0-6.2-2.3-10.8-6.9-13.9c-4.6-3.1-12-4.6-22.2-4.6
				c-3.8,0-7.5,0.3-10.9,0.9C79.7,83.2,79.3,83.7,79.3,84.5z"/>
			<path class="st1" d="M185.8,182.3c-26.2,0-39.4-13.4-39.4-40.1V78.8c0-2.3,0.8-4.3,2.5-6c1.7-1.7,3.7-2.5,6-2.5
				c2.3,0,4.3,0.8,6,2.5c1.7,1.7,2.5,3.7,2.5,6v64.2c0,8.9,1.8,15.3,5.5,19.4c3.7,4,9.4,6.1,17.2,6.1c7.8,0,13.5-2,17.2-6.1
				c3.7-4,5.5-10.5,5.5-19.4V78.5c0-2.2,0.8-4.1,2.4-5.8c1.6-1.6,3.5-2.4,5.8-2.4c2.2,0,4.1,0.8,5.8,2.4c1.6,1.6,2.4,3.5,2.4,5.8
				v63.7C225.2,168.9,212.1,182.3,185.8,182.3z"/>
			<path class="st1" d="M252.7,178.4c-1.6,1.6-3.5,2.4-5.8,2.4c-2.2,0-4.1-0.8-5.8-2.4c-1.6-1.6-2.4-3.5-2.4-5.8V78.5
				c0-2.2,0.8-4.1,2.4-5.8c1.6-1.6,3.5-2.4,5.8-2.4c5.3,0,9.4,2.4,12.3,7.1l43,75.2c0,0.1,0.1,0.2,0.3,0.2c0.1,0,0.2-0.1,0.2-0.2
				V78.5c0-2.2,0.8-4.1,2.4-5.8c1.6-1.6,3.5-2.4,5.8-2.4c2.2,0,4.1,0.8,5.8,2.4c1.6,1.6,2.4,3.5,2.4,5.8v94.1c0,2.2-0.8,4.1-2.4,5.8
				c-1.6,1.6-3.5,2.4-5.8,2.4c-5.3,0-9.4-2.4-12.3-7.1l-43.1-75.2c0-0.1-0.1-0.2-0.2-0.2c-0.1,0-0.2,0.1-0.2,0.2v74.2
				C255.2,174.8,254.4,176.8,252.7,178.4z"/>
			<path class="st0" d="M394.2,88.6l-27.5,26.8c-0.1,0.1-0.2,0.2-0.2,0.3c0,0.1,0,0.2,0.2,0.2h2.9c9.8,0,17.4,2.6,22.9,7.8
				c5.4,5.2,8.2,12.6,8.2,22.3c0,11.5-3.5,20.4-10.5,26.8c-7,6.4-16.9,9.5-29.6,9.5c-7.2,0-14.3-1-21.3-2.9c-2.2-0.6-4-1.8-5.4-3.7
				c-1.4-1.9-2-4-2-6.4c0-1.8,0.8-3.2,2.3-4.2c1.6-1,3.2-1.2,4.9-0.6c8,2.8,15.1,4.2,21.5,4.2c7.5,0,13.2-2,17.3-5.9
				s6.1-9.5,6.1-16.8c0-6.2-2.2-10.7-6.6-13.7c-4.4-3-11.5-4.5-21.4-4.5h-4.2c-1.7,0-3.2-0.6-4.5-1.9c-1.3-1.3-1.9-2.7-1.9-4.5
				c0-4.3,1.5-7.9,4.5-10.7l27.9-26.3c0.1-0.1,0.2-0.2,0.2-0.3c0-0.1-0.1-0.2-0.2-0.2h-40c-1.9,0-3.5-0.7-4.8-2
				c-1.3-1.3-2-2.9-2-4.8c0-1.9,0.7-3.5,2-4.8c1.3-1.3,2.9-2,4.8-2h54.5c1.9,0,3.5,0.7,4.8,2c1.3,1.3,2,2.9,2,4.8
				C399,81.7,397.4,85.6,394.2,88.6z"/>
		</g>
	</g>
	<g>
		<path class="st2" d="M500.8,105.8c-2.2,0-4.3-0.8-6-2.5c-3.3-3.3-3.3-8.6,0-11.9l22.5-22.5c3.5-3.5,9-4,13-1l25.8,18.9
			c3.8,2.7,4.6,8,1.8,11.8c-2.7,3.8-8,4.6-11.8,1.8L525.1,85l-18.4,18.4C505.1,105,502.9,105.8,500.8,105.8z"/>
	</g>
	<g>
		<path class="st2" d="M461.3,191.9c-2.2,0-4.3-0.8-6-2.5c-3.3-3.3-3.3-8.6,0-11.9l55.4-55.4c3.3-3.3,8.6-3.3,11.9,0
			c3.3,3.3,3.3,8.6,0,11.9l-55.4,55.4C465.6,191.1,463.5,191.9,461.3,191.9z"/>
	</g>
	<g>
		<circle class="st1" cx="573.4" cy="71.4" r="13.3"/>
	</g>
	<g>
		<path class="st1" d="M512.6,191.9c-2.2,0-4.4-0.9-6-2.5c-3.2-3.3-3.2-8.7,0.2-11.9l24.8-24.1l-19.9-19.9c-1.6-1.6-2.5-3.8-2.5-6.1
			c0-2.3,0.9-4.5,2.5-6.1l33.6-33.6c2.5-2.5,6.2-3.2,9.4-1.9c3.3,1.3,5.4,4.5,5.4,8v16.9H586c4.7,0,8.4,3.8,8.4,8.4
			s-3.8,8.4-8.4,8.4h-34.1c-4.8,0-8.8-3.9-8.8-8.8v-5.3l-13.8,13.8l17.9,17.9c4.5,4.5,4.5,11.8,0,16.3l-0.1,0.1l-28.6,27.9
			C516.9,191.1,514.7,191.9,512.6,191.9z M523.6,133.1L523.6,133.1C523.5,133.1,523.5,133.1,523.6,133.1z M557.1,99.5L557.1,99.5
			C557.1,99.5,557.1,99.5,557.1,99.5z"/>
	</g>
</g>
</svg>
