<svg fill="#fff" height="512pt" viewBox="-32 0 512 512" width="512pt" xmlns="http://www.w3.org/2000/svg"><path d="m235.605469 203.519531v25.742188c0 8.175781 1.632812 15.035156 4.855469 20.378906 4.445312 7.375 11.742187 11.601563 20.027343 11.601563 8.117188 0 16.183594-3.953126 23.972657-11.742188l85.023437-85.023438c18.667969-18.667968 18.667969-49.042968 0-67.710937l-85.023437-85.023437c-7.789063-7.792969-15.855469-11.742188-23.972657-11.742188-12.386719 0-24.882812 9.890625-24.882812 31.980469v23.378906c-120.710938 7.128906-220.640625 99.765625-235.492188 221.050781-.832031 6.773438 3.019531 13.257813 9.367188 15.769532 1.796875.710937 3.667969 1.054687 5.515625 1.054687 4.679687 0 9.21875-2.191406 12.109375-6.140625 39.835937-54.429688 103.796875-86.925781 171.09375-86.925781 12.46875 0 25.007812 1.125 37.40625 3.351562zm0 0"/><path d="m438.253906 219.820312c-6.347656-2.515624-13.589844-.421874-17.625 5.089844-39.832031 54.425782-103.792968 86.921875-171.089844 86.921875-12.46875 0-25.007812-1.125-37.40625-3.351562v-25.742188c0-22.089843-12.5-31.980469-24.882812-31.980469-8.117188 0-16.183594 3.953126-23.976562 11.746094l-85.023438 85.019532c-18.664062 18.667968-18.664062 49.042968.003906 67.714843l85.019532 85.019531c7.792968 7.792969 15.859374 11.742188 23.976562 11.742188 12.382812 0 24.882812-9.890625 24.882812-31.980469v-23.378906c120.714844-7.128906 220.640626-99.765625 235.492188-221.046875.832031-6.777344-3.019531-13.261719-9.371094-15.773438zm0 0"/></svg>