<svg width="24" height="25" viewBox="0 0 24 25" fill="none" xmlns="http://www.w3.org/2000/svg">
<path d="M24 12.2398C24 5.57192 18.6274 0.166504 12 0.166504C5.37258 0.166504 0 5.57192 0 12.2398C0 18.266 4.38822 23.2608 10.125 24.1665V15.7298H7.07813V12.2398H10.125V9.57994C10.125 6.55405 11.9165 4.88266 14.6576 4.88266C15.9705 4.88266 17.3438 5.11846 17.3438 5.11846V8.08963H15.8306C14.3399 8.08963 13.875 9.0203 13.875 9.97509V12.2398H17.2031L16.6711 15.7298H13.875V24.1665C19.6118 23.2608 24 18.266 24 12.2398Z" fill="#8FBAAD"/>
<path d="M16.98 16.0651L17.5218 12.5H14.1321V10.1865C14.1321 9.21112 14.6056 8.26041 16.1239 8.26041H17.6651V5.22525C17.6651 5.22525 16.2664 4.98438 14.9291 4.98438C12.1373 4.98438 10.3126 6.69176 10.3126 9.78281V12.5H7.20935V16.0651H10.3126V24.6835C10.9444 24.7834 11.5829 24.8335 12.2224 24.8333C12.8721 24.8333 13.5098 24.782 14.1321 24.6835V16.0651H16.98Z" fill="#002A0E"/>
</svg>
