<svg width="48" height="48" viewBox="0 0 48 48" fill="none" xmlns="http://www.w3.org/2000/svg">
<g clip-path="url(#clip0_72_1259)">
<path d="M30.0064 8C30.5238 8 31.1744 8.13666 31.6968 8.26344C33.5162 8.7049 35.674 9.25068 37.2064 10.4C38.6324 11.4694 39.7402 13.3367 40.5952 15.2323C42.3766 19.1816 43.6136 24.4476 44.042 28.4512C44.2456 30.3532 44.2968 32.2642 43.9296 33.5494C43.7486 34.1824 43.3594 34.6576 43.085 34.9486C42.2493 35.8351 41.1735 36.4974 40.1106 37.1001L39.5814 37.3972C39.2374 37.5895 38.8844 37.7802 38.5323 37.9661L37.4875 38.5064L36.0545 39.2209L34.9008 39.7888C33.913 40.2828 32.7116 39.8824 32.2176 38.8944C31.8278 38.1148 31.995 37.2022 32.5684 36.6092L31.6996 34.8718C29.3528 35.6002 26.738 35.9998 23.9998 35.9998C21.2616 35.9998 18.6467 35.6002 16.2999 34.8718L15.4336 36.6046C16.0107 37.1974 16.1798 38.1126 15.789 38.8944C15.295 39.8824 14.0936 40.2828 13.1057 39.7888L12.0184 39.2494C10.8103 38.652 9.6025 38.055 8.42506 37.3972C7.1983 36.712 5.89648 35.9828 4.92158 34.9486C4.64722 34.6576 4.25788 34.1824 4.07702 33.5494C3.70986 32.2642 3.76102 30.3532 3.96454 28.4512C4.3929 24.4476 5.62992 19.1816 7.41134 15.2323C8.26638 13.3367 9.37416 11.4694 10.8001 10.4C12.3326 9.25068 14.4904 8.7049 16.3097 8.26344C16.8322 8.13666 17.4827 8 18.0001 8C19.1046 8 20 8.89544 20 10C20 10.1001 19.9927 10.1984 19.9785 10.2945C21.2732 10.1015 22.6198 10 24.0002 10C25.3828 10 26.7314 10.1018 28.0282 10.2955C28.0138 10.1991 28.0064 10.1004 28.0064 10C28.0064 8.89544 28.902 8 30.0064 8ZM32.7148 12.7255C32.4145 12.6301 32.341 12.6726 32.2353 12.8515L32.1092 13.0757C31.4302 14.248 30.087 14.78 28.8394 14.5084C27.3332 14.1805 25.7044 14.0001 24 14.0001C22.2954 14.0001 20.6666 14.1805 19.1604 14.5084C17.9128 14.78 16.5695 14.248 15.8907 13.0757L15.7658 12.8531C15.661 12.6751 15.5882 12.6313 15.2906 12.7258C14.5787 12.9519 13.8142 13.1948 13.2009 13.5995C12.6269 14.0301 11.8586 15.1008 11.0574 16.8771C9.52612 20.2718 8.32574 25.2868 7.94164 28.8768C7.86046 29.6355 7.81999 30.2851 7.80918 30.8212L7.80973 31.4097C7.81864 31.7653 7.8437 32.0472 7.87924 32.253C8.38745 32.7495 9.01582 33.1406 9.6457 33.4983L11.0109 34.251L11.9026 34.7218L12.6308 33.2656C12.0016 32.6758 11.8054 31.7212 12.2115 30.9108C12.7062 29.9232 13.9079 29.5238 14.8955 30.0186C17.3275 31.237 20.4926 32 23.9996 32C27.5066 32 30.6718 31.237 33.1038 30.0186C34.0912 29.5238 35.293 29.9232 35.7878 30.9108C36.1569 31.6475 36.0283 32.5034 35.5291 33.0961L35.3684 33.2656L36.098 34.7248C36.6936 34.4178 37.292 34.0926 37.8912 33.7606C38.6702 33.3288 39.4916 32.8736 40.1268 32.253C40.1624 32.0472 40.1875 31.7653 40.1964 31.4097L40.197 30.8212C40.1862 30.2851 40.1458 29.6355 40.0646 28.8768C39.6804 25.2868 38.48 20.2718 36.9488 16.8771C36.1476 15.1008 35.3804 14.0307 34.8062 13.6002C34.1924 13.195 33.4272 12.9519 32.7148 12.7255ZM17.5 21C19.433 21 21 22.567 21 24.5C21 26.433 19.433 28 17.5 28C15.567 28 14 26.433 14 24.5C14 22.567 15.567 21 17.5 21ZM30.5 21C32.433 21 34 22.567 34 24.5C34 26.433 32.433 28 30.5 28C28.567 28 27 26.433 27 24.5C27 22.567 28.567 21 30.5 21Z" fill="url(#paint0_linear_72_1259)"/>
</g>
<defs>
<linearGradient id="paint0_linear_72_1259" x1="6.44056" y1="8.00001" x2="45.8975" y2="10.2508" gradientUnits="userSpaceOnUse">
<stop stop-color="#F164F1"/>
<stop offset="1" stop-color="#801080" stop-opacity="0.8"/>
</linearGradient>
<clipPath id="clip0_72_1259">
<rect width="48" height="48" fill="white"/>
</clipPath>
</defs>
</svg>
