<svg width="48" height="49" viewBox="0 0 48 49" fill="none" xmlns="http://www.w3.org/2000/svg">
<g clip-path="url(#clip0_333_2696)">
<path d="M30.0059 8.5C30.5233 8.5 31.1739 8.63666 31.6963 8.76344C33.5157 9.2049 35.6735 9.75068 37.2059 10.9C38.6319 11.9694 39.7397 13.8367 40.5947 15.7323C42.3761 19.6816 43.6131 24.9476 44.0415 28.9512C44.2451 30.8532 44.2963 32.7642 43.9291 34.0494C43.7481 34.6824 43.3589 35.1576 43.0845 35.4486C42.2488 36.3351 41.173 36.9974 40.1101 37.6001L39.5809 37.8972C39.2369 38.0895 38.8839 38.2802 38.5318 38.4661L37.487 39.0064L36.054 39.7209L34.9003 40.2888C33.9125 40.7828 32.7111 40.3824 32.2171 39.3944C31.8273 38.6148 31.9945 37.7022 32.5679 37.1092L31.6991 35.3718C29.3523 36.1002 26.7375 36.4998 23.9993 36.4998C21.2611 36.4998 18.6463 36.1002 16.2994 35.3718L15.4331 37.1046C16.0102 37.6974 16.1794 38.6126 15.7885 39.3944C15.2945 40.3824 14.0932 40.7828 13.1052 40.2888L12.0179 39.7494C10.8098 39.152 9.60201 38.555 8.42457 37.8972C7.19781 37.212 5.89599 36.4828 4.92109 35.4486C4.64673 35.1576 4.25739 34.6824 4.07653 34.0494C3.70937 32.7642 3.76053 30.8532 3.96405 28.9512C4.39241 24.9476 5.62943 19.6816 7.41085 15.7323C8.26589 13.8367 9.37367 11.9694 10.7997 10.9C12.3321 9.75068 14.4899 9.2049 16.3092 8.76344C16.8317 8.63666 17.4823 8.5 17.9996 8.5C19.1042 8.5 19.9995 9.39544 19.9995 10.5C19.9995 10.6001 19.9922 10.6984 19.9781 10.7945C21.2727 10.6015 22.6193 10.5 23.9997 10.5C25.3823 10.5 26.7309 10.6018 28.0277 10.7955C28.0133 10.6991 28.0059 10.6004 28.0059 10.5C28.0059 9.39544 28.9015 8.5 30.0059 8.5ZM32.7143 13.2255C32.414 13.1301 32.3405 13.1726 32.2348 13.3515L32.1087 13.5757C31.4297 14.748 30.0865 15.28 28.8389 15.0084C27.3327 14.6805 25.7039 14.5001 23.9995 14.5001C22.2949 14.5001 20.6661 14.6805 19.16 15.0084C17.9123 15.28 16.569 14.748 15.8902 13.5757L15.7653 13.3531C15.6605 13.1751 15.5877 13.1313 15.2901 13.2258C14.5782 13.4519 13.8138 13.6948 13.2004 14.0995C12.6264 14.5301 11.8581 15.6008 11.0569 17.3771C9.52563 20.7718 8.32525 25.7868 7.94115 29.3768C7.85997 30.1355 7.8195 30.7851 7.80869 31.3212L7.80924 31.9097C7.81815 32.2653 7.84321 32.5472 7.87875 32.753C8.38696 33.2495 9.01533 33.6406 9.64521 33.9983L11.0104 34.751L11.9022 35.2218L12.6303 33.7656C12.0011 33.1758 11.805 32.2212 12.211 31.4108C12.7058 30.4232 13.9074 30.0238 14.895 30.5186C17.327 31.737 20.4921 32.5 23.9991 32.5C27.5061 32.5 30.6713 31.737 33.1033 30.5186C34.0907 30.0238 35.2925 30.4232 35.7873 31.4108C36.1564 32.1475 36.0278 33.0034 35.5286 33.5961L35.3679 33.7656L36.0975 35.2248C36.6931 34.9178 37.2915 34.5926 37.8907 34.2606C38.6697 33.8288 39.4911 33.3736 40.1263 32.753C40.1619 32.5472 40.187 32.2653 40.1959 31.9097L40.1965 31.3212C40.1857 30.7851 40.1453 30.1355 40.0641 29.3768C39.6799 25.7868 38.4795 20.7718 36.9483 17.3771C36.1471 15.6008 35.3799 14.5307 34.8057 14.1002C34.1919 13.695 33.4267 13.4519 32.7143 13.2255ZM17.4995 21.5C19.4325 21.5 20.9995 23.067 20.9995 25C20.9995 26.933 19.4325 28.5 17.4995 28.5C15.5665 28.5 13.9995 26.933 13.9995 25C13.9995 23.067 15.5665 21.5 17.4995 21.5ZM30.4995 21.5C32.4325 21.5 33.9995 23.067 33.9995 25C33.9995 26.933 32.4325 28.5 30.4995 28.5C28.5665 28.5 26.9995 26.933 26.9995 25C26.9995 23.067 28.5665 21.5 30.4995 21.5Z" fill="url(#paint0_linear_333_2696)"/>
</g>
<defs>
<linearGradient id="paint0_linear_333_2696" x1="-0.360883" y1="8.50001" x2="43.7287" y2="11.4264" gradientUnits="userSpaceOnUse">
<stop stop-color="#16DEB5" stop-opacity="0.71"/>
<stop offset="0.723958" stop-color="#264D45"/>
<stop offset="0.9999" stop-color="#07332A" stop-opacity="0.980365"/>
</linearGradient>
<clipPath id="clip0_333_2696">
<rect width="48" height="48" fill="white" transform="translate(0 0.5)"/>
</clipPath>
</defs>
</svg>
