<svg width="56" height="56" viewBox="0 0 56 56" fill="none" xmlns="http://www.w3.org/2000/svg">
<path d="M21 53.0837C8.32996 53.0837 2.91663 47.6703 2.91663 35.0003V21.0003C2.91663 8.33033 8.32996 2.91699 21 2.91699H32.6666C33.6233 2.91699 34.4166 3.71033 34.4166 4.66699C34.4166 5.62366 33.6233 6.41699 32.6666 6.41699H21C10.2433 6.41699 6.41663 10.2437 6.41663 21.0003V35.0003C6.41663 45.757 10.2433 49.5837 21 49.5837C21.9566 49.5837 22.75 50.377 22.75 51.3337C22.75 52.2903 21.9566 53.0837 21 53.0837Z" fill="#9CB9B3"/>
<path d="M51.3333 32.083C50.3766 32.083 49.5833 31.2897 49.5833 30.333V23.333C49.5833 22.3763 50.3766 21.583 51.3333 21.583C52.29 21.583 53.0833 22.3763 53.0833 23.333V30.333C53.0833 31.2897 52.29 32.083 51.3333 32.083Z" fill="#9CB9B3"/>
<path d="M51.3334 25.0831H42C34.02 25.0831 30.9167 21.9798 30.9167 13.9998V4.66648C30.9167 3.96648 31.3367 3.31314 31.99 3.05648C32.6434 2.77648 33.39 2.93982 33.9034 3.42982L52.57 22.0965C53.06 22.5865 53.2234 23.3565 52.9434 24.0098C52.6634 24.6632 52.0334 25.0831 51.3334 25.0831ZM34.4167 8.88981V13.9998C34.4167 20.0198 35.98 21.5831 42 21.5831H47.11L34.4167 8.88981Z" fill="#9CB9B3"/>
<path d="M45.1267 53.083C45.1033 53.083 45.08 53.083 45.08 53.083H32.1067C28.21 52.803 26.25 49.8164 26.25 46.9697C26.25 44.683 27.5333 42.2797 30.0067 41.2997C29.4933 38.383 30.24 35.6764 32.1767 33.6464C34.5567 31.1497 38.3833 30.1463 41.6967 31.173C44.59 32.0596 46.6667 34.3463 47.53 37.5196C49.98 38.2663 51.9167 40.203 52.71 42.8396C53.6433 45.8963 52.78 49.023 50.47 51.0297C49.0467 52.3363 47.1333 53.083 45.1267 53.083ZM32.1767 44.3564C30.4033 44.5197 29.75 45.8497 29.75 46.9697C29.75 48.0897 30.4033 49.443 32.2233 49.583H45.08C46.27 49.513 47.32 49.163 48.16 48.4163C49.6767 47.0863 49.7933 45.1964 49.3733 43.843C48.9533 42.4897 47.81 40.973 45.85 40.7164C45.08 40.623 44.4733 40.0396 44.3333 39.2696C43.82 36.1196 42.0467 34.953 40.67 34.533C38.64 33.903 36.19 34.533 34.72 36.0963C33.7167 37.1463 32.7367 39.0363 33.8333 42.0463C34.16 42.9563 33.6933 43.9597 32.7833 44.2864C32.5733 44.333 32.3633 44.3564 32.1767 44.3564Z" fill="#9CB9B3"/>
</svg>
