<svg width="56" height="56" viewBox="0 0 56 56" fill="none" xmlns="http://www.w3.org/2000/svg">
<path d="M20.9998 53.0834C8.32984 53.0834 2.9165 47.6701 2.9165 35.0001V21.0001C2.9165 8.33008 8.32984 2.91675 20.9998 2.91675H32.6665C33.6232 2.91675 34.4165 3.71008 34.4165 4.66675C34.4165 5.62341 33.6232 6.41675 32.6665 6.41675H20.9998C10.2432 6.41675 6.4165 10.2434 6.4165 21.0001V35.0001C6.4165 45.7567 10.2432 49.5834 20.9998 49.5834C21.9565 49.5834 22.7498 50.3767 22.7498 51.3334C22.7498 52.2901 21.9565 53.0834 20.9998 53.0834Z" fill="#CCAECC"/>
<path d="M51.3335 32.0833C50.3768 32.0833 49.5835 31.2899 49.5835 30.3333V23.3333C49.5835 22.3766 50.3768 21.5833 51.3335 21.5833C52.2902 21.5833 53.0835 22.3766 53.0835 23.3333V30.3333C53.0835 31.2899 52.2902 32.0833 51.3335 32.0833Z" fill="#CCAECC"/>
<path d="M51.3332 25.0834H41.9998C34.0198 25.0834 30.9165 21.9801 30.9165 14.0001V4.66673C30.9165 3.96673 31.3365 3.31339 31.9898 3.05672C32.6432 2.77672 33.3898 2.94006 33.9032 3.43006L52.5698 22.0967C53.0598 22.5867 53.2232 23.3567 52.9432 24.0101C52.6632 24.6634 52.0332 25.0834 51.3332 25.0834ZM34.4165 8.89005V14.0001C34.4165 20.0201 35.9798 21.5834 41.9998 21.5834H47.1098L34.4165 8.89005Z" fill="#CCAECC"/>
<path d="M45.1267 53.0835C45.1033 53.0835 45.08 53.0835 45.08 53.0835H32.1067C28.21 52.8035 26.25 49.8168 26.25 46.9702C26.25 44.6835 27.5333 42.2802 30.0067 41.3002C29.4933 38.3835 30.24 35.6769 32.1767 33.6469C34.5567 31.1502 38.3833 30.1468 41.6967 31.1735C44.59 32.0601 46.6667 34.3468 47.53 37.5201C49.98 38.2668 51.9167 40.2035 52.71 42.8401C53.6433 45.8968 52.78 49.0235 50.47 51.0301C49.0467 52.3368 47.1333 53.0835 45.1267 53.0835ZM32.1767 44.3569C30.4033 44.5202 29.75 45.8502 29.75 46.9702C29.75 48.0902 30.4033 49.4435 32.2233 49.5835H45.08C46.27 49.5135 47.32 49.1635 48.16 48.4168C49.6767 47.0868 49.7933 45.1968 49.3733 43.8435C48.9533 42.4902 47.81 40.9735 45.85 40.7169C45.08 40.6235 44.4733 40.0401 44.3333 39.2701C43.82 36.1201 42.0467 34.9535 40.67 34.5335C38.64 33.9035 36.19 34.5335 34.72 36.0968C33.7167 37.1468 32.7367 39.0368 33.8333 42.0468C34.16 42.9568 33.6933 43.9602 32.7833 44.2869C32.5733 44.3335 32.3633 44.3569 32.1767 44.3569Z" fill="#CCAECC"/>
</svg>
