<svg width="522" height="633" viewBox="0 0 522 633" fill="none" xmlns="http://www.w3.org/2000/svg">
<path d="M-466.543 463C-466.543 463 -488.434 264.8 -422.043 170C-324.025 30.0417 -86.4352 209.924 2.45718 64C68.2832 -44.059 -50.8629 -145.253 2.45718 -260C65.8493 -396.422 317.957 -481 317.957 -481M-402.543 463C-402.543 463 -414.232 295.51 -358.043 214.5C-268.377 85.2258 -55.8833 248.999 33.4572 119.5C109.633 9.08221 -26.333 -103.917 33.4572 -224C98.8275 -355.291 343.457 -436 343.457 -436" stroke="url(#paint0_linear_66_916)"/>
<path d="M-367.543 552C-367.543 552 -389.434 353.8 -323.043 259C-225.025 119.042 12.5648 298.924 101.457 153C167.283 44.941 48.1371 -56.2534 101.457 -171C164.849 -307.422 416.957 -392 416.957 -392M-303.543 552C-303.543 552 -315.232 384.51 -259.043 303.5C-169.377 174.226 43.1167 337.999 132.457 208.5C208.633 98.0822 72.667 -14.9165 132.457 -135C197.827 -266.291 442.457 -347 442.457 -347" stroke="url(#paint1_linear_66_916)"/>
<path d="M-288.543 632C-288.543 632 -310.434 433.8 -244.043 339C-146.025 199.042 91.5648 378.924 180.457 233C246.283 124.941 127.137 23.7466 180.457 -91C243.849 -227.422 495.957 -312 495.957 -312M-224.543 632C-224.543 632 -236.232 464.51 -180.043 383.5C-90.3767 254.226 122.117 417.999 211.457 288.5C287.633 178.082 151.667 65.0835 211.457 -55C276.827 -186.291 521.457 -267 521.457 -267" stroke="url(#paint2_linear_66_916)"/>
<defs>
<linearGradient id="paint0_linear_66_916" x1="-416.948" y1="463" x2="379.011" y2="432.003" gradientUnits="userSpaceOnUse">
<stop stop-color="#AF4AAF"/>
<stop offset="1" stop-color="#310731" stop-opacity="0.8"/>
</linearGradient>
<linearGradient id="paint1_linear_66_916" x1="-317.948" y1="552" x2="478.011" y2="521.003" gradientUnits="userSpaceOnUse">
<stop stop-color="#AF4AAF"/>
<stop offset="1" stop-color="#310731" stop-opacity="0.8"/>
</linearGradient>
<linearGradient id="paint2_linear_66_916" x1="-238.948" y1="632" x2="557.011" y2="601.003" gradientUnits="userSpaceOnUse">
<stop stop-color="#AF4AAF"/>
<stop offset="1" stop-color="#310731" stop-opacity="0.8"/>
</linearGradient>
</defs>
</svg>
