<svg width="915" height="1117" viewBox="0 0 915 1117" fill="none" xmlns="http://www.w3.org/2000/svg">
<g filter="url(#filter0_f_118_1136)">
<circle cx="113" cy="851" r="402" fill="#331F33"/>
</g>
<path d="M-313.543 479C-313.543 479 -335.434 280.8 -269.043 186C-171.025 46.0417 66.5648 225.924 155.457 80C221.283 -28.059 102.137 -129.253 155.457 -244C218.849 -380.422 470.957 -465 470.957 -465M-249.543 479C-249.543 479 -261.232 311.51 -205.043 230.5C-115.377 101.226 97.1167 264.999 186.457 135.5C262.633 25.0822 126.667 -87.9165 186.457 -208C251.827 -339.291 496.457 -420 496.457 -420" stroke="url(#paint0_linear_118_1136)"/>
<path d="M-214.543 568C-214.543 568 -236.434 369.8 -170.043 275C-72.0251 135.042 165.565 314.924 254.457 169C320.283 60.941 201.137 -40.2534 254.457 -155C317.849 -291.422 569.957 -376 569.957 -376M-150.543 568C-150.543 568 -162.232 400.51 -106.043 319.5C-16.3767 190.226 196.117 353.999 285.457 224.5C361.633 114.082 225.667 1.08347 285.457 -119C350.827 -250.291 595.457 -331 595.457 -331" stroke="url(#paint1_linear_118_1136)"/>
<path d="M-135.543 648C-135.543 648 -157.434 449.8 -91.0428 355C6.9749 215.042 244.565 394.924 333.457 249C399.283 140.941 280.137 39.7466 333.457 -75C396.849 -211.422 648.957 -296 648.957 -296M-71.5428 648C-71.5428 648 -83.2321 480.51 -27.0428 399.5C62.6233 270.226 275.117 433.999 364.457 304.5C440.633 194.082 304.667 81.0835 364.457 -39C429.827 -170.291 674.457 -251 674.457 -251" stroke="url(#paint2_linear_118_1136)"/>
<defs>
<filter id="filter0_f_118_1136" x="-689" y="49" width="1604" height="1604" filterUnits="userSpaceOnUse" color-interpolation-filters="sRGB">
<feFlood flood-opacity="0" result="BackgroundImageFix"/>
<feBlend mode="normal" in="SourceGraphic" in2="BackgroundImageFix" result="shape"/>
<feGaussianBlur stdDeviation="200" result="effect1_foregroundBlur_118_1136"/>
</filter>
<linearGradient id="paint0_linear_118_1136" x1="-263.948" y1="479" x2="532.011" y2="448.003" gradientUnits="userSpaceOnUse">
<stop stop-color="#AF4AAF"/>
<stop offset="1" stop-color="#310731" stop-opacity="0.8"/>
</linearGradient>
<linearGradient id="paint1_linear_118_1136" x1="-164.948" y1="568" x2="631.011" y2="537.003" gradientUnits="userSpaceOnUse">
<stop stop-color="#AF4AAF"/>
<stop offset="1" stop-color="#310731" stop-opacity="0.8"/>
</linearGradient>
<linearGradient id="paint2_linear_118_1136" x1="-85.9485" y1="648" x2="710.011" y2="617.003" gradientUnits="userSpaceOnUse">
<stop stop-color="#AF4AAF"/>
<stop offset="1" stop-color="#310731" stop-opacity="0.8"/>
</linearGradient>
</defs>
</svg>
