<svg width="48" height="48" viewBox="0 0 48 48" fill="none" xmlns="http://www.w3.org/2000/svg">
<g clip-path="url(#clip0_72_1283)">
<path d="M36 6C39.3138 6 42 8.6863 42 12V36C42 39.3138 39.3138 42 36 42H12C8.6863 42 6 39.3138 6 36V12C6 8.6863 8.6863 6 12 6H36ZM36 10H12C10.8954 10 10 10.8954 10 12V36C10 37.1046 10.8954 38 12 38H36C37.1046 38 38 37.1046 38 36V12C38 10.8954 37.1046 10 36 10ZM16 20C17.0257 20 17.871 20.7721 17.9865 21.7668L18 22V32C18 33.1046 17.1046 34 16 34C14.9743 34 14.129 33.2279 14.0135 32.2332L14 32V22C14 20.8954 14.8954 20 16 20ZM22 18C22.9826 18 23.7996 18.7085 23.9682 19.6426C24.3726 19.4087 24.79 19.1978 25.2134 19.0167C26.5478 18.4459 28.5464 18.1319 30.3498 18.699C31.2952 18.9962 32.2464 19.5581 32.9516 20.5112C33.5809 21.362 33.9198 22.3968 33.9874 23.5585L34 24V32C34 33.1044 33.1046 34 32 34C30.9743 34 30.129 33.2278 30.0135 32.2332L30 32V24C30 23.3414 29.8402 23.0314 29.736 22.8902C29.6286 22.7452 29.4548 22.6106 29.1502 22.5148C28.4536 22.2958 27.4522 22.4096 26.7866 22.6944C25.7845 23.123 24.8695 23.7943 24.2478 24.4167L24 24.6796V32C24 33.1046 23.1046 34 22 34C20.9743 34 20.129 33.2279 20.0135 32.2332L20 32V20C20 18.8954 20.8954 18 22 18ZM16 14C17.1046 14 18 14.8954 18 16C18 17.1046 17.1046 18 16 18C14.8954 18 14 17.1046 14 16C14 14.8954 14.8954 14 16 14Z" fill="#FFFEFE"/>
</g>
<defs>
<clipPath id="clip0_72_1283">
<rect width="48" height="48" fill="white"/>
</clipPath>
</defs>
</svg>
