<svg width="48" height="49" viewBox="0 0 48 49" fill="none" xmlns="http://www.w3.org/2000/svg">
<path d="M36 6.5C39.3138 6.5 42 9.1863 42 12.5V36.5C42 39.8138 39.3138 42.5 36 42.5H12C8.6863 42.5 6 39.8138 6 36.5V12.5C6 9.1863 8.6863 6.5 12 6.5H36ZM36 10.5H12C10.8954 10.5 10 11.3954 10 12.5V36.5C10 37.6046 10.8954 38.5 12 38.5H36C37.1046 38.5 38 37.6046 38 36.5V12.5C38 11.3954 37.1046 10.5 36 10.5ZM16 20.5C17.0257 20.5 17.871 21.2721 17.9865 22.2668L18 22.5V32.5C18 33.6046 17.1046 34.5 16 34.5C14.9743 34.5 14.129 33.7279 14.0135 32.7332L14 32.5V22.5C14 21.3954 14.8954 20.5 16 20.5ZM22 18.5C22.9826 18.5 23.7996 19.2085 23.9682 20.1426C24.3726 19.9087 24.79 19.6978 25.2134 19.5167C26.5478 18.9459 28.5464 18.6319 30.3498 19.199C31.2952 19.4962 32.2464 20.0581 32.9516 21.0112C33.5809 21.862 33.9198 22.8968 33.9874 24.0585L34 24.5V32.5C34 33.6044 33.1046 34.5 32 34.5C30.9743 34.5 30.129 33.7278 30.0135 32.7332L30 32.5V24.5C30 23.8414 29.8402 23.5314 29.736 23.3902C29.6286 23.2452 29.4548 23.1106 29.1502 23.0148C28.4536 22.7958 27.4522 22.9096 26.7866 23.1944C25.7846 23.623 24.8695 24.2943 24.2478 24.9167L24 25.1796V32.5C24 33.6046 23.1046 34.5 22 34.5C20.9743 34.5 20.129 33.7279 20.0135 32.7332L20 32.5V20.5C20 19.3954 20.8954 18.5 22 18.5ZM16 14.5C17.1046 14.5 18 15.3954 18 16.5C18 17.6046 17.1046 18.5 16 18.5C14.8954 18.5 14 17.6046 14 16.5C14 15.3954 14.8954 14.5 16 14.5Z" fill="url(#paint0_linear_681_1923)"/>
<defs>
<linearGradient id="paint0_linear_681_1923" x1="2.28671" y1="6.50001" x2="41.6443" y2="8.56952" gradientUnits="userSpaceOnUse">
<stop stop-color="#16DEB5" stop-opacity="0.71"/>
<stop offset="0.723958" stop-color="#264D45"/>
<stop offset="0.9999" stop-color="#07332A" stop-opacity="0.980365"/>
</linearGradient>
</defs>
</svg>
