<svg width="685" height="861" viewBox="0 0 685 861" fill="none" xmlns="http://www.w3.org/2000/svg">
<path d="M135.457 1061C135.457 1061 113.566 862.8 179.957 768C277.975 628.042 515.565 807.924 604.457 662C670.283 553.941 551.137 452.747 604.457 338C667.849 201.578 919.957 117 919.957 117M199.457 1061C199.457 1061 187.768 893.51 243.957 812.5C333.623 683.226 546.117 846.999 635.457 717.5C711.633 607.082 575.667 494.083 635.457 374C700.827 242.709 945.457 162 945.457 162" stroke="url(#paint0_linear_155_1421)"/>
<path d="M234.457 1150C234.457 1150 212.566 951.8 278.957 857C376.975 717.042 614.565 896.924 703.457 751C769.283 642.941 650.137 541.747 703.457 427C766.849 290.578 1018.96 206 1018.96 206M298.457 1150C298.457 1150 286.768 982.51 342.957 901.5C432.623 772.226 645.117 935.999 734.457 806.5C810.633 696.082 674.667 583.083 734.457 463C799.827 331.709 1044.46 251 1044.46 251" stroke="url(#paint1_linear_155_1421)"/>
<path d="M313.457 1230C313.457 1230 291.566 1031.8 357.957 937C455.975 797.042 693.565 976.924 782.457 831C848.283 722.941 729.137 621.747 782.457 507C845.849 370.578 1097.96 286 1097.96 286M377.457 1230C377.457 1230 365.768 1062.51 421.957 981.5C511.623 852.226 724.117 1016 813.457 886.5C889.633 776.082 753.667 663.083 813.457 543C878.827 411.709 1123.46 331 1123.46 331" stroke="url(#paint2_linear_155_1421)"/>
<defs>
<linearGradient id="paint0_linear_155_1421" x1="185.052" y1="1061" x2="981.011" y2="1030" gradientUnits="userSpaceOnUse">
<stop stop-color="#AF4AAF"/>
<stop offset="1" stop-color="#310731" stop-opacity="0.8"/>
</linearGradient>
<linearGradient id="paint1_linear_155_1421" x1="284.052" y1="1150" x2="1080.01" y2="1119" gradientUnits="userSpaceOnUse">
<stop stop-color="#AF4AAF"/>
<stop offset="1" stop-color="#310731" stop-opacity="0.8"/>
</linearGradient>
<linearGradient id="paint2_linear_155_1421" x1="363.052" y1="1230" x2="1159.01" y2="1199" gradientUnits="userSpaceOnUse">
<stop stop-color="#AF4AAF"/>
<stop offset="1" stop-color="#310731" stop-opacity="0.8"/>
</linearGradient>
</defs>
</svg>
