<svg width="661" height="665" viewBox="0 0 661 665" fill="none" xmlns="http://www.w3.org/2000/svg">
<path d="M-327.543 495C-327.543 495 -349.434 296.8 -283.043 202C-185.025 62.0417 52.5648 241.924 141.457 96C207.283 -12.059 88.1371 -113.253 141.457 -228C204.849 -364.422 456.957 -449 456.957 -449M-263.543 495C-263.543 495 -275.232 327.51 -219.043 246.5C-129.377 117.226 83.1167 280.999 172.457 151.5C248.633 41.0822 112.667 -71.9165 172.457 -192C237.827 -323.291 482.457 -404 482.457 -404" stroke="url(#paint0_linear_155_1425)"/>
<path d="M-228.543 584C-228.543 584 -250.434 385.8 -184.043 291C-86.0251 151.042 151.565 330.924 240.457 185C306.283 76.941 187.137 -24.2534 240.457 -139C303.849 -275.422 555.957 -360 555.957 -360M-164.543 584C-164.543 584 -176.232 416.51 -120.043 335.5C-30.3767 206.226 182.117 369.999 271.457 240.5C347.633 130.082 211.667 17.0835 271.457 -103C336.827 -234.291 581.457 -315 581.457 -315" stroke="url(#paint1_linear_155_1425)"/>
<path d="M-149.543 664C-149.543 664 -171.434 465.8 -105.043 371C-7.0251 231.042 230.565 410.924 319.457 265C385.283 156.941 266.137 55.7466 319.457 -59C382.849 -195.422 634.957 -280 634.957 -280M-85.5428 664C-85.5428 664 -97.2321 496.51 -41.0428 415.5C48.6233 286.226 261.117 449.999 350.457 320.5C426.633 210.082 290.667 97.0835 350.457 -23C415.827 -154.291 660.457 -235 660.457 -235" stroke="url(#paint2_linear_155_1425)"/>
<defs>
<linearGradient id="paint0_linear_155_1425" x1="-277.948" y1="495" x2="518.011" y2="464.003" gradientUnits="userSpaceOnUse">
<stop stop-color="#AF4AAF"/>
<stop offset="1" stop-color="#310731" stop-opacity="0.8"/>
</linearGradient>
<linearGradient id="paint1_linear_155_1425" x1="-178.948" y1="584" x2="617.011" y2="553.003" gradientUnits="userSpaceOnUse">
<stop stop-color="#AF4AAF"/>
<stop offset="1" stop-color="#310731" stop-opacity="0.8"/>
</linearGradient>
<linearGradient id="paint2_linear_155_1425" x1="-99.9485" y1="664" x2="696.011" y2="633.003" gradientUnits="userSpaceOnUse">
<stop stop-color="#AF4AAF"/>
<stop offset="1" stop-color="#310731" stop-opacity="0.8"/>
</linearGradient>
</defs>
</svg>
