<svg width="748" height="848" viewBox="0 0 748 848" fill="none" xmlns="http://www.w3.org/2000/svg">
<path d="M135.457 -263C135.457 -263 113.566 -64.7995 179.957 30C277.975 169.958 515.565 -9.92441 604.457 136C670.283 244.059 551.137 345.253 604.457 460C667.849 596.422 919.957 681 919.957 681M199.457 -263C199.457 -263 187.768 -95.5096 243.957 -14.5C333.623 114.774 546.117 -48.9994 635.457 80.5C711.633 190.918 575.667 303.917 635.457 424C700.827 555.291 945.457 636 945.457 636" stroke="url(#paint0_linear_71_1122)"/>
<path d="M234.457 -352C234.457 -352 212.566 -153.8 278.957 -59C376.975 80.9583 614.565 -98.9244 703.457 47C769.283 155.059 650.137 256.253 703.457 371C766.849 507.422 1018.96 592 1018.96 592M298.457 -352C298.457 -352 286.768 -184.51 342.957 -103.5C432.623 25.7742 645.117 -137.999 734.457 -8.5C810.633 101.918 674.667 214.917 734.457 335C799.827 466.291 1044.46 547 1044.46 547" stroke="url(#paint1_linear_71_1122)"/>
<path d="M313.457 -432C313.457 -432 291.566 -233.8 357.957 -139C455.975 0.958282 693.565 -178.924 782.457 -33C848.283 75.059 729.137 176.253 782.457 291C845.849 427.422 1097.96 512 1097.96 512M377.457 -432C377.457 -432 365.768 -264.51 421.957 -183.5C511.623 -54.2258 724.117 -217.999 813.457 -88.5C889.633 21.9178 753.667 134.917 813.457 255C878.827 386.291 1123.46 467 1123.46 467" stroke="url(#paint2_linear_71_1122)"/>
<defs>
<linearGradient id="paint0_linear_71_1122" x1="185.052" y1="-263" x2="981.011" y2="-232.003" gradientUnits="userSpaceOnUse">
<stop stop-color="#AF4AAF"/>
<stop offset="1" stop-color="#310731" stop-opacity="0.8"/>
</linearGradient>
<linearGradient id="paint1_linear_71_1122" x1="284.052" y1="-352" x2="1080.01" y2="-321.003" gradientUnits="userSpaceOnUse">
<stop stop-color="#AF4AAF"/>
<stop offset="1" stop-color="#310731" stop-opacity="0.8"/>
</linearGradient>
<linearGradient id="paint2_linear_71_1122" x1="363.052" y1="-432" x2="1159.01" y2="-401.003" gradientUnits="userSpaceOnUse">
<stop stop-color="#AF4AAF"/>
<stop offset="1" stop-color="#310731" stop-opacity="0.8"/>
</linearGradient>
</defs>
</svg>
