<svg width="404" height="300" viewBox="0 0 404 300" fill="none" xmlns="http://www.w3.org/2000/svg">
<path d="M403.31 263.635H0.69043V263.836H403.31V263.635Z" fill="#EBDFEB"/>
<path d="M362.968 276.592H336.298V276.793H362.968V276.592Z" fill="#EBDFEB"/>
<path d="M267.401 278.782H260.403V278.984H267.401V278.782Z" fill="#EBDFEB"/>
<path d="M335.493 269.119H320.041V269.321H335.493V269.119Z" fill="#EBDFEB"/>
<path d="M77.7109 270.472H42.9326V270.673H77.7109V270.472Z" fill="#EBDFEB"/>
<path d="M89.9829 270.472H84.8857V270.673H89.9829V270.472Z" fill="#EBDFEB"/>
<path d="M181.991 273.87H106.556V274.071H181.991V273.87Z" fill="#EBDFEB"/>
<path d="M191.532 227.721H36.0488C34.8308 227.719 33.6634 227.234 32.8028 226.372C31.9423 225.51 31.459 224.342 31.459 223.124V4.55765C31.4696 3.34659 31.9576 2.18862 32.817 1.33526C33.6764 0.481902 34.8377 0.00207461 36.0488 0H191.532C192.752 0 193.921 0.484422 194.784 1.3467C195.646 2.20897 196.13 3.37847 196.13 4.59791V223.124C196.13 224.343 195.646 225.512 194.784 226.375C193.921 227.237 192.752 227.721 191.532 227.721ZM36.0488 0.161048C34.8842 0.163181 33.768 0.627333 32.9452 1.45163C32.1224 2.27592 31.6603 3.39299 31.6603 4.55765V223.124C31.6603 224.288 32.1224 225.405 32.9452 226.23C33.768 227.054 34.8842 227.518 36.0488 227.52H191.532C192.698 227.518 193.815 227.054 194.639 226.23C195.463 225.406 195.927 224.289 195.929 223.124V4.55765C195.927 3.39225 195.463 2.2752 194.639 1.45113C193.815 0.627072 192.698 0.163177 191.532 0.161048H36.0488Z" fill="#EBDFEB"/>
<path d="M365.714 227.721H210.222C209.003 227.719 207.835 227.234 206.973 226.372C206.111 225.511 205.626 224.342 205.624 223.124V4.55765C205.637 3.34586 206.127 2.1879 206.987 1.33476C207.848 0.48162 209.01 0.00205198 210.222 0H365.714C366.923 0.00419086 368.083 0.484954 368.94 1.33809C369.798 2.19122 370.285 3.34798 370.295 4.55765V223.124C370.295 224.34 369.813 225.507 368.954 226.369C368.096 227.231 366.93 227.717 365.714 227.721ZM210.222 0.161048C209.057 0.163177 207.939 0.627072 207.115 1.45113C206.291 2.2752 205.827 3.39225 205.825 4.55765V223.124C205.827 224.289 206.291 225.406 207.115 226.23C207.939 227.054 209.057 227.518 210.222 227.52H365.714C366.879 227.518 367.996 227.054 368.82 226.23C369.644 225.406 370.108 224.289 370.11 223.124V4.55765C370.108 3.39225 369.644 2.2752 368.82 1.45113C367.996 0.627072 366.879 0.163177 365.714 0.161048H210.222Z" fill="#EBDFEB"/>
<path d="M317.213 17.0388H82.2524V126.97H317.213V17.0388Z" fill="#995D99"/>
<path d="M320.749 17.0388H83.9038V126.97H320.749V17.0388Z" fill="#CCAECC"/>
<path d="M317.213 126.97H82.2524V132.575H317.213V126.97Z" fill="#995D99"/>
<path d="M326.643 126.97H89.7983V132.575H326.643V126.97Z" fill="#CCAECC"/>
<path d="M315.797 122.018V21.9993L88.8646 21.9993V122.018L315.797 122.018Z" fill="#BB93BB"/>
<path d="M113.207 122.018L127.001 21.9993H148.525L134.731 122.018H113.207Z" fill="#DDC9DD"/>
<path d="M91.1512 117.082C91.0572 117.082 90.9671 117.045 90.9006 116.978C90.8342 116.912 90.7969 116.821 90.7969 116.728V25.2202C90.7969 25.1262 90.8342 25.0361 90.9006 24.9696C90.9671 24.9032 91.0572 24.8658 91.1512 24.8658C91.1977 24.8658 91.2438 24.875 91.2868 24.8928C91.3297 24.9106 91.3688 24.9367 91.4017 24.9696C91.4346 25.0025 91.4607 25.0416 91.4785 25.0846C91.4963 25.1276 91.5055 25.1736 91.5055 25.2202V116.76C91.4993 116.849 91.459 116.932 91.393 116.992C91.327 117.052 91.2404 117.084 91.1512 117.082Z" fill="#CCAECC"/>
<path d="M139.352 122.018L153.146 21.9993H161.536L147.743 122.018H139.352Z" fill="#DDC9DD"/>
<path d="M315.797 122.018V21.9993H315.169V122.018H315.797Z" fill="#995D99"/>
<path opacity="0.6" d="M321.916 29.4717H86.9634L86.5044 23.9236H321.465L321.916 29.4717Z" fill="#EBDFEB"/>
<path opacity="0.6" d="M321.916 38.563H86.9634L86.5044 33.0149H321.465L321.916 38.563Z" fill="#EBDFEB"/>
<path opacity="0.6" d="M321.916 47.6619H86.9634L86.5044 42.1138H321.465L321.916 47.6619Z" fill="#EBDFEB"/>
<path opacity="0.6" d="M321.916 56.7533H86.9634L86.5044 51.2052H321.465L321.916 56.7533Z" fill="#EBDFEB"/>
<path opacity="0.6" d="M321.916 65.8523H86.9634L86.5044 60.3042H321.465L321.916 65.8523Z" fill="#EBDFEB"/>
<path opacity="0.6" d="M321.916 74.9435H86.9634L86.5044 69.3954H321.465L321.916 74.9435Z" fill="#EBDFEB"/>
<path d="M354.19 154.606H318.333V263.635H354.19V154.606Z" fill="#995D99"/>
<path d="M344.616 263.636H354.19V248.586H334.575L344.616 263.636Z" fill="#BB93BB"/>
<path d="M256.427 154.606H220.569V263.635H256.427V154.606Z" fill="#995D99"/>
<path d="M354.19 154.606H248.068V258.457H354.19V154.606Z" fill="#BB93BB"/>
<path d="M257.642 263.636H248.068V248.586H267.684L257.642 263.636Z" fill="#BB93BB"/>
<path d="M346.758 193.306H255.492V219.291H346.758V193.306Z" fill="#CCAECC"/>
<path d="M346.758 224.846H255.492V250.831H346.758V224.846Z" fill="#CCAECC"/>
<path d="M269.833 191.051H332.448V192.315C332.448 193.313 332.052 194.269 331.347 194.974C330.642 195.679 329.685 196.076 328.688 196.076H273.602C272.604 196.076 271.648 195.679 270.942 194.974C270.237 194.269 269.841 193.313 269.841 192.315V191.051H269.833Z" fill="#BB93BB"/>
<path d="M346.758 161.757H255.492V187.742H346.758V161.757Z" fill="#CCAECC"/>
<path d="M269.833 159.509H332.448V160.774C332.448 161.771 332.052 162.727 331.347 163.433C330.642 164.138 329.685 164.534 328.688 164.534H273.602C272.604 164.534 271.648 164.138 270.942 163.433C270.237 162.727 269.841 161.771 269.841 160.774V159.509H269.833Z" fill="#BB93BB"/>
<path d="M269.833 222.592H332.448V223.856C332.448 224.854 332.052 225.81 331.347 226.515C330.642 227.221 329.685 227.617 328.688 227.617H273.602C272.604 227.617 271.648 227.221 270.942 226.515C270.237 225.81 269.841 224.854 269.841 223.856V222.592H269.833Z" fill="#BB93BB"/>
<path d="M43.7058 177.853C45.7028 172.112 61.4211 179.915 67.863 189.417C72.1227 195.746 74.7236 202.502 75.9154 211.577C75.7704 201.221 75.6094 190.101 75.4483 179.601C74.1519 176.984 71.1967 170.944 69.0789 166.161C61.9928 150.201 45.1472 144.259 39.2851 134.185C31.6595 120.979 31.7078 101.17 38.198 94.0359C43.8347 87.8195 62.5162 129.813 64.6259 134.507C71.8731 150.612 73.9667 162.618 75.3195 174.222C75.1665 164.357 75.0215 155.307 74.9008 148.317C74.5062 125.529 74.0069 118.201 73.7815 115.946C72.9762 114.843 72.0824 113.531 71.5429 112.87C67.0255 107.049 56.9923 100.124 51.9837 91.6605C44.6641 79.3081 45.8478 64.5239 50.9771 59.0161C56.3883 53.2586 65.9143 66.8349 70.9148 80.3469C75.9154 93.8588 73.7976 106.726 75.2148 117.927C75.5127 120.118 75.8107 128.46 76.1006 140.031C77.6305 127.582 80.6743 119.24 86.311 111.469C93.2521 101.911 99.2431 90.2754 104.96 91.7812C110.678 93.287 107.601 108.691 103.076 119.498C99.0499 129.12 79.1766 138.727 76.2455 146.465C76.5918 162.151 76.8978 182.016 77.1232 200.513C78.6854 190.955 77.6064 190.157 84.0322 175.55C87.849 166.854 103.495 156.136 105.363 162.111C107.231 168.086 104.389 179.375 98.4862 187.283C93.7192 193.668 83.1867 193.66 80.6985 197.614C80.1268 198.54 78.2828 202.083 77.1635 204.112C77.4131 226.699 77.5339 246.629 77.405 253.425L76.3743 253.497C76.4307 251.742 76.3019 240.251 76.1006 225.048C73.5319 216.996 56.2514 212.245 50.9127 203.83C45.3244 195.005 41.3062 184.73 43.7058 177.853Z" fill="#995D99"/>
<path d="M59.9558 263.636H93.1316C94.0105 263.635 94.8623 263.331 95.543 262.775C96.2238 262.219 96.6917 261.445 96.8679 260.584L99.2192 248.972H53.8359L56.2517 260.584C56.4267 261.44 56.8899 262.209 57.564 262.765C58.2381 263.32 59.0823 263.628 59.9558 263.636Z" fill="#CCAECC"/>
<path d="M52.9184 253.473H100.17C100.718 253.473 101.246 253.27 101.655 252.905C102.063 252.54 102.323 252.037 102.384 251.492L103.351 242.908C103.384 242.597 103.352 242.282 103.257 241.984C103.161 241.686 103.003 241.412 102.795 241.179C102.586 240.945 102.33 240.759 102.044 240.631C101.759 240.503 101.449 240.437 101.136 240.436H51.9521C51.6391 240.437 51.3296 240.503 51.0439 240.631C50.7582 240.759 50.5026 240.945 50.2937 241.179C50.0848 241.412 49.9274 241.686 49.8316 241.984C49.7358 242.282 49.7038 242.597 49.7377 242.908L50.704 251.492C50.7653 252.037 51.025 252.54 51.4334 252.905C51.8418 253.27 52.3704 253.473 52.9184 253.473Z" fill="#CCAECC"/>
<path d="M143.894 211.472H115.542V263.636H143.894V211.472Z" fill="#DDC9DD"/>
<path d="M216.156 263.635H121.226L111.25 192.855H206.179L216.156 263.635Z" fill="#995D99"/>
<path d="M230.006 263.635H124.995L115.026 192.855H220.029L230.006 263.635Z" fill="#CCAECC"/>
<path d="M135.27 252.571L126.871 203.919H209.754L218.153 252.571H135.27Z" fill="#DDC9DD"/>
<path d="M170.885 252.571L142.718 203.919H151.551L179.727 252.571H170.885Z" fill="#BB93BB"/>
<path d="M183.472 252.571L155.297 203.919H170.371L198.538 252.571H183.472Z" fill="#BB93BB"/>
<path d="M202 300C288.227 300 358.128 295.919 358.128 290.885C358.128 285.85 288.227 281.769 202 281.769C115.773 281.769 45.8726 285.85 45.8726 290.885C45.8726 295.919 115.773 300 202 300Z" fill="#D4D4D4"/>
<path d="M62.9122 134.097C62.8257 134.097 62.7421 134.065 62.6781 134.007C62.614 133.949 62.574 133.869 62.5659 133.783L60.7783 112.283C60.7738 112.196 60.8031 112.11 60.8601 112.044C60.9171 111.978 60.9974 111.937 61.0843 111.928C61.1749 111.922 61.2645 111.951 61.3338 112.01C61.4031 112.068 61.4465 112.152 61.4547 112.242L63.2423 133.742C63.249 133.833 63.2199 133.923 63.1611 133.992C63.1024 134.061 63.0187 134.105 62.9283 134.113L62.9122 134.097Z" fill="black"/>
<path d="M63.9743 146.868C63.8878 146.868 63.8043 146.836 63.7402 146.778C63.6761 146.72 63.6361 146.64 63.628 146.554L63.0885 140.047C63.0841 140.002 63.0888 139.957 63.1023 139.913C63.1158 139.87 63.1379 139.83 63.1671 139.796C63.1964 139.761 63.2324 139.733 63.2728 139.712C63.3132 139.692 63.3574 139.68 63.4026 139.677C63.4476 139.672 63.4932 139.677 63.5364 139.691C63.5796 139.704 63.6197 139.726 63.6542 139.755C63.6888 139.785 63.7171 139.821 63.7375 139.861C63.7579 139.902 63.77 139.946 63.773 139.991L64.3125 146.497C64.3192 146.588 64.29 146.677 64.2313 146.747C64.1725 146.816 64.0889 146.859 63.9984 146.868H63.9743Z" fill="black"/>
<path d="M245.13 208.05H78.864C76.7693 208.009 74.7623 207.201 73.2233 205.779C71.6844 204.357 70.7203 202.42 70.5137 200.335L61.1488 87.7711C61.0487 86.7879 61.1578 85.7946 61.4689 84.8566C61.78 83.9186 62.286 83.0569 62.9537 82.3284C63.6215 81.5998 64.4358 81.0208 65.3432 80.6293C66.2506 80.2378 67.2306 80.0427 68.2188 80.0569H234.476C236.572 80.0977 238.58 80.9053 240.12 82.3269C241.661 83.7485 242.626 85.6854 242.835 87.7711L252.2 200.319C252.301 201.304 252.193 202.298 251.882 203.237C251.572 204.177 251.066 205.04 250.398 205.77C249.731 206.5 248.916 207.081 248.008 207.474C247.1 207.866 246.119 208.063 245.13 208.05Z" fill="#DDC9DD"/>
<path d="M245.13 208.372H78.864C76.6875 208.336 74.6002 207.501 73.0006 206.024C71.401 204.548 70.401 202.534 70.1915 200.368L60.8266 87.8112C60.7321 86.7843 60.853 85.7489 61.1816 84.7713C61.5102 83.7938 62.0393 82.8956 62.735 82.1343C63.4273 81.368 64.2736 80.7566 65.2187 80.3403C66.1637 79.924 67.1861 79.7121 68.2187 79.7186H234.476C236.662 79.7533 238.757 80.5948 240.36 82.0813C241.962 83.5678 242.958 85.5943 243.157 87.771L252.514 200.319C252.617 201.346 252.502 202.382 252.177 203.361C251.852 204.34 251.323 205.239 250.626 206C249.929 206.76 249.078 207.364 248.131 207.773C247.184 208.182 246.161 208.386 245.13 208.372ZM68.2187 80.395C67.2735 80.3796 66.3358 80.565 65.4675 80.9387C64.5992 81.3125 63.8201 81.8662 63.1816 82.5633C62.5431 83.2604 62.0598 84.0851 61.7635 84.9827C61.4672 85.8804 61.3647 86.8308 61.4628 87.771L70.8277 200.311C71.0269 202.32 71.9573 204.185 73.4419 205.552C74.9266 206.92 76.862 207.694 78.8801 207.727H245.13C246.073 207.741 247.008 207.556 247.874 207.182C248.74 206.809 249.517 206.257 250.155 205.561C250.792 204.866 251.275 204.044 251.572 203.149C251.869 202.254 251.973 201.306 251.878 200.368L242.513 87.8112C242.315 85.802 241.385 83.9357 239.9 82.568C238.415 81.2003 236.479 80.4268 234.46 80.395H68.2187Z" fill="black"/>
<path d="M234.477 80.0727H68.2191C67.2325 80.0587 66.254 80.2534 65.3478 80.644C64.4416 81.0345 63.6281 81.612 62.9606 82.3388C62.2931 83.0656 61.7867 83.9252 61.4746 84.8612C61.1624 85.7973 61.0515 86.7888 61.1491 87.7707H242.835C242.623 85.688 241.656 83.755 240.116 82.3367C238.576 80.9184 236.57 80.113 234.477 80.0727Z" fill="black"/>
<path d="M72.1068 83.93C72.1297 84.1423 72.1072 84.3569 72.0408 84.5597C71.9744 84.7626 71.8656 84.949 71.7217 85.1066C71.5778 85.2642 71.402 85.3894 71.206 85.474C71.0101 85.5585 70.7983 85.6004 70.5849 85.5969C70.1326 85.5873 69.6993 85.4125 69.367 85.1055C69.0347 84.7984 68.8263 84.3803 68.7812 83.93C68.7597 83.7181 68.7831 83.504 68.85 83.3017C68.9169 83.0994 69.0257 82.9136 69.1693 82.7562C69.313 82.5989 69.4882 82.4737 69.6836 82.3887C69.879 82.3037 70.0901 82.261 70.3031 82.2632C70.7565 82.2692 71.1917 82.4429 71.5247 82.7506C71.8577 83.0584 72.0651 83.4785 72.1068 83.93Z" fill="#DDC9DD"/>
<path d="M78.8715 83.93C78.8944 84.1423 78.8718 84.3569 78.8054 84.5597C78.739 84.7626 78.6303 84.949 78.4864 85.1066C78.3425 85.2642 78.1667 85.3894 77.9707 85.474C77.7747 85.5585 77.563 85.6004 77.3496 85.5969C76.9029 85.5797 76.4774 85.4014 76.1518 85.0951C75.8262 84.7887 75.6224 84.3749 75.5781 83.93C75.5565 83.7181 75.58 83.504 75.6468 83.3017C75.7137 83.0994 75.8226 82.9136 75.9662 82.7562C76.1099 82.5989 76.2851 82.4737 76.4805 82.3887C76.6758 82.3037 76.8869 82.261 77.1 82.2632C77.5478 82.277 77.9751 82.4541 78.3014 82.7612C78.6277 83.0682 78.8304 83.4839 78.8715 83.93Z" fill="#DDC9DD"/>
<path d="M85.6356 83.9301C85.6585 84.1423 85.636 84.357 85.5696 84.5598C85.5032 84.7626 85.3944 84.9491 85.2505 85.1067C85.1066 85.2643 84.9308 85.3895 84.7348 85.474C84.5389 85.5586 84.3271 85.6005 84.1137 85.597C83.6614 85.5874 83.2282 85.4126 82.8958 85.1055C82.5635 84.7984 82.3552 84.3803 82.31 83.9301C82.2885 83.7182 82.3119 83.504 82.3788 83.3018C82.4457 83.0995 82.5545 82.9136 82.6981 82.7563C82.8418 82.599 83.017 82.4737 83.2124 82.3888C83.4078 82.3038 83.6189 82.261 83.8319 82.2633C84.2853 82.2693 84.7205 82.4429 85.0535 82.7507C85.3866 83.0584 85.5939 83.4786 85.6356 83.9301Z" fill="#DDC9DD"/>
<path d="M230.699 193.298H90.8776C89.2121 193.266 87.616 192.625 86.3916 191.496C85.1672 190.367 84.3996 188.827 84.2343 187.17L77.6636 108.707C77.5851 107.925 77.6731 107.135 77.9218 106.388C78.1706 105.642 78.5745 104.957 79.1069 104.379C79.6393 103.8 80.2882 103.34 81.011 103.03C81.7337 102.72 82.5139 102.566 83.3003 102.579H223.146C224.811 102.611 226.408 103.252 227.632 104.381C228.856 105.511 229.624 107.05 229.789 108.707L236.32 187.21C236.392 187.988 236.3 188.773 236.049 189.513C235.799 190.253 235.396 190.932 234.865 191.506C234.335 192.08 233.691 192.536 232.973 192.845C232.255 193.154 231.48 193.308 230.699 193.298Z" fill="#CCAECC"/>
<path opacity="0.1" d="M187.441 116.284L144.12 168.448C142.758 170.086 141.842 172.047 141.459 174.142C141.076 176.238 141.239 178.396 141.934 180.41C142.628 182.424 143.83 184.224 145.423 185.638C147.016 187.052 148.947 188.032 151.029 188.482L221.326 203.677C223.525 204.154 225.812 204.023 227.942 203.299C230.072 202.575 231.964 201.285 233.417 199.567C234.869 197.849 235.827 195.767 236.186 193.547C236.546 191.326 236.294 189.049 235.458 186.96L208.507 119.594C207.71 117.595 206.407 115.838 204.726 114.495C203.045 113.153 201.043 112.271 198.917 111.937C196.791 111.603 194.615 111.829 192.603 112.591C190.591 113.353 188.812 114.626 187.441 116.284Z" fill="#263238"/>
<path opacity="0.1" d="M91.0065 123.596L75.9163 164.268C75.4644 165.51 75.3342 166.846 75.5379 168.152C75.7416 169.457 76.2726 170.69 77.0813 171.735C77.89 172.78 78.9502 173.604 80.1629 174.128C81.3757 174.653 82.7016 174.862 84.017 174.736L128.088 170.412C129.49 170.275 130.83 169.762 131.965 168.927C133.1 168.092 133.988 166.967 134.537 165.669C135.085 164.371 135.273 162.949 135.08 161.553C134.888 160.157 134.322 158.839 133.443 157.738L104.454 121.422C103.588 120.341 102.451 119.509 101.158 119.011C99.8653 118.513 98.4638 118.368 97.0965 118.589C95.7291 118.81 94.4449 119.39 93.375 120.269C92.3051 121.149 91.4878 122.297 91.0065 123.596Z" fill="#263238"/>
<path d="M202.387 103.151L161.884 161.934C160.618 163.77 159.846 165.9 159.639 168.12C159.433 170.34 159.8 172.576 160.705 174.614C161.61 176.651 163.023 178.423 164.808 179.758C166.593 181.094 168.692 181.949 170.902 182.242L245.355 192.154C247.696 192.466 250.078 192.136 252.247 191.198C254.415 190.26 256.287 188.751 257.663 186.831C259.04 184.911 259.868 182.653 260.06 180.299C260.252 177.944 259.801 175.582 258.754 173.465L224.805 104.746C223.797 102.71 222.275 100.973 220.389 99.7069C218.503 98.4411 216.318 97.6904 214.053 97.5292C211.787 97.3681 209.518 97.8021 207.472 98.7883C205.426 99.7745 203.673 101.278 202.387 103.151Z" fill="black"/>
<path d="M172.666 176.992C171.321 176.809 170.042 176.296 168.944 175.5C167.845 174.703 166.96 173.647 166.369 172.426C165.759 171.272 165.472 169.974 165.538 168.67C165.605 167.366 166.023 166.104 166.747 165.018L207.355 106.058C208.09 105.006 209.105 104.183 210.286 103.681C211.466 103.18 212.764 103.021 214.031 103.224C215.376 103.405 216.655 103.917 217.754 104.714C218.853 105.511 219.737 106.567 220.328 107.789L254.341 176.678C254.951 177.832 255.238 179.13 255.171 180.434C255.105 181.738 254.687 183 253.963 184.086C253.23 185.14 252.215 185.966 251.034 186.468C249.853 186.971 248.555 187.131 247.287 186.928L172.666 176.992Z" fill="#DDC9DD"/>
<path d="M210.577 124.063L215.32 124.691C216.803 124.9 218.157 125.648 219.123 126.791C220.09 127.935 220.602 129.394 220.562 130.891L220.24 137.076C220.232 137.3 220.208 137.523 220.167 137.744L216.793 156.385C216.552 157.67 215.818 158.81 214.749 159.562C213.68 160.314 212.359 160.619 211.068 160.411C209.698 160.217 208.434 159.564 207.482 158.559C206.531 157.555 205.947 156.258 205.826 154.879L204.465 135.618C204.449 135.396 204.449 135.172 204.465 134.95L204.779 128.757C204.813 128.054 204.995 127.366 205.314 126.737C205.632 126.109 206.08 125.555 206.627 125.112C207.174 124.669 207.809 124.346 208.49 124.166C209.171 123.985 209.882 123.95 210.577 124.063ZM210.198 165.581L211.487 165.75C212.814 165.937 214.026 166.606 214.891 167.629C215.757 168.653 216.216 169.958 216.181 171.298C216.153 171.93 215.992 172.549 215.707 173.114C215.423 173.678 215.023 174.177 214.532 174.576C214.042 174.975 213.472 175.266 212.861 175.43C212.251 175.594 211.612 175.626 210.988 175.526L209.699 175.349C208.373 175.163 207.161 174.496 206.295 173.474C205.429 172.452 204.97 171.147 205.005 169.809C205.032 169.176 205.192 168.557 205.476 167.991C205.76 167.426 206.161 166.927 206.651 166.527C207.142 166.128 207.712 165.837 208.323 165.674C208.935 165.511 209.574 165.479 210.198 165.581Z" fill="black"/>
<path d="M106.58 112.138L95.4601 154.308C95.1247 155.589 95.1201 156.935 95.4465 158.219C95.773 159.503 96.4199 160.682 97.3267 161.648C98.2335 162.613 99.3705 163.333 100.631 163.739C101.892 164.146 103.235 164.225 104.535 163.971L147.672 155.556C149.04 155.283 150.311 154.649 151.352 153.72C152.394 152.791 153.167 151.6 153.594 150.271C154.02 148.942 154.083 147.523 153.777 146.162C153.47 144.8 152.805 143.546 151.851 142.527L119.867 108.748C118.908 107.728 117.693 106.985 116.349 106.594C115.005 106.203 113.58 106.179 112.224 106.525C110.868 106.872 109.629 107.575 108.637 108.562C107.644 109.549 106.934 110.783 106.58 112.138Z" fill="black"/>
<path d="M104.446 160.573C103.654 160.716 102.838 160.657 102.075 160.401C101.312 160.144 100.626 159.7 100.081 159.107C99.5192 158.537 99.1128 157.831 98.9013 157.059C98.6899 156.286 98.6803 155.472 98.8736 154.694L110.018 112.411C110.211 111.673 110.611 111.004 111.17 110.483C111.729 109.963 112.424 109.612 113.175 109.472C113.967 109.331 114.783 109.391 115.546 109.649C116.309 109.907 116.994 110.353 117.539 110.946L149.636 144.766C150.199 145.336 150.606 146.041 150.819 146.814C151.032 147.586 151.043 148.4 150.852 149.179C150.657 149.916 150.257 150.583 149.698 151.102C149.14 151.621 148.445 151.97 147.695 152.11L104.446 160.573Z" fill="#DDC9DD"/>
<path d="M115.268 122.34L118.014 121.8C118.901 121.657 119.809 121.847 120.564 122.333C121.319 122.819 121.868 123.567 122.105 124.433L123.087 128.113C123.124 128.249 123.154 128.386 123.176 128.524L124.923 140.111C125.059 140.892 124.882 141.694 124.43 142.344C123.977 142.994 123.286 143.439 122.507 143.582C121.691 143.718 120.852 143.569 120.131 143.162C119.411 142.755 118.851 142.113 118.546 141.343L114.085 130.328C114.031 130.199 113.985 130.068 113.948 129.933L112.933 126.245C112.801 125.835 112.758 125.402 112.807 124.974C112.856 124.546 112.996 124.134 113.217 123.764C113.438 123.394 113.735 123.076 114.089 122.831C114.443 122.585 114.845 122.418 115.268 122.34ZM123.039 146.722L123.788 146.578C124.582 146.44 125.399 146.605 126.077 147.041C126.755 147.476 127.246 148.15 127.452 148.929C127.565 149.292 127.601 149.674 127.556 150.052C127.512 150.43 127.389 150.794 127.194 151.12C127 151.447 126.738 151.729 126.428 151.948C126.117 152.167 125.763 152.318 125.39 152.391L124.641 152.536C123.848 152.674 123.032 152.51 122.354 152.076C121.676 151.643 121.185 150.971 120.978 150.193C120.864 149.83 120.828 149.446 120.873 149.068C120.917 148.69 121.04 148.326 121.235 147.998C121.429 147.671 121.69 147.388 122.001 147.168C122.312 146.949 122.666 146.797 123.039 146.722Z" fill="black"/>
<path d="M313.413 121.591L307.165 123.62L312.189 129.563C313.616 128.327 314.851 126.886 315.853 125.287C316.112 124.835 316.183 124.298 316.051 123.793C315.918 123.289 315.593 122.857 315.144 122.59L313.413 121.591Z" fill="#7F3E3B"/>
<path d="M304.289 128.532L308.033 133.082L312.197 129.595L307.164 123.653L304.289 128.532Z" fill="#7F3E3B"/>
<path d="M315.434 73.0189C316.956 77.2062 318.357 81.3934 319.686 85.637C321.015 89.8806 322.239 94.1404 323.31 98.6014L323.688 100.317L323.865 101.21L323.954 101.661V101.774V101.943L324.002 102.281C324.178 103.813 324.102 105.364 323.777 106.871C323.263 109.29 322.486 111.644 321.458 113.893C319.581 118.094 317.271 122.089 314.565 125.81L310.386 123.499C311.867 119.473 313.333 115.358 314.412 111.372C314.945 109.505 315.316 107.595 315.523 105.663C315.59 104.997 315.557 104.324 315.426 103.666L315.08 102.41L314.629 100.92C313.365 96.8943 311.924 92.7473 310.498 88.6245C309.073 84.5016 307.648 80.3386 306.279 76.2077L315.434 73.0189Z" fill="#7F3E3B"/>
<path d="M280.655 48.1048C280.759 48.6121 280.582 49.0791 280.26 49.1677C279.938 49.2563 279.584 48.902 279.455 48.3624C279.326 47.8229 279.519 47.3881 279.849 47.3076C280.18 47.2271 280.55 47.6055 280.655 48.1048Z" fill="#263238"/>
<path d="M280.632 49.071C280.359 50.7575 279.867 52.4008 279.166 53.9588C279.562 54.1186 279.988 54.1885 280.414 54.1634C280.84 54.1384 281.256 54.019 281.63 53.8139L280.632 49.071Z" fill="#630F0F"/>
<path d="M279.303 45.0935C279.254 45.0936 279.206 45.0819 279.162 45.0595C279.119 45.037 279.081 45.0046 279.053 44.9647C279.03 44.9326 279.013 44.8962 279.005 44.8576C278.996 44.8191 278.995 44.7791 279.001 44.7402C279.008 44.7012 279.023 44.6639 279.044 44.6306C279.065 44.5973 279.093 44.5685 279.125 44.546C279.531 44.2954 279.99 44.1456 280.465 44.1092C280.94 44.0728 281.417 44.1508 281.855 44.3366C281.892 44.3516 281.925 44.3737 281.953 44.4018C281.982 44.4299 282.004 44.4632 282.019 44.5C282.034 44.5368 282.041 44.5762 282.041 44.6159C282.04 44.6556 282.032 44.6948 282.016 44.7312C281.986 44.8055 281.927 44.8649 281.854 44.8965C281.78 44.9282 281.696 44.9295 281.622 44.9003C281.279 44.7488 280.904 44.6822 280.53 44.706C280.156 44.7298 279.793 44.8434 279.472 45.0372C279.423 45.0749 279.364 45.0948 279.303 45.0935Z" fill="#263238"/>
<path d="M297.912 49.6994C298.476 55.5454 297.647 61.2063 298.951 66.2873C298.951 66.2873 297.502 71.006 288.862 71.006C279.36 71.006 284.505 66.2873 284.505 66.2873C289.739 65.0553 289.747 61.2063 288.99 57.5907L297.912 49.6994Z" fill="#7F3E3B"/>
<path d="M300.795 67.9058C301.536 66.4162 302.027 64.2984 300.497 63.7669C298.814 63.1791 289.82 62.9617 286.559 64.089C285.689 64.3188 284.944 64.8795 284.482 65.6513C284.02 66.4231 283.878 67.3449 284.087 68.2199L300.795 67.9058Z" fill="#263238"/>
<path d="M320.209 279.973C320.802 279.82 321.375 279.598 321.916 279.313C321.945 279.299 321.969 279.277 321.986 279.25C322.004 279.223 322.013 279.192 322.013 279.16C322.012 279.127 322.001 279.095 321.98 279.068C321.96 279.042 321.932 279.023 321.9 279.015C321.618 278.918 319.122 278.089 318.462 278.652C318.39 278.715 318.336 278.796 318.306 278.887C318.277 278.978 318.272 279.075 318.292 279.168C318.305 279.336 318.36 279.499 318.453 279.639C318.546 279.78 318.674 279.895 318.824 279.973C319.272 280.128 319.76 280.128 320.209 279.973ZM321.401 279.168C320.306 279.667 319.42 279.836 318.985 279.611C318.884 279.561 318.798 279.486 318.736 279.393C318.674 279.299 318.638 279.191 318.631 279.079C318.618 279.043 318.617 279.003 318.627 278.966C318.637 278.929 318.658 278.895 318.687 278.87C319.017 278.612 320.37 278.894 321.401 279.2V279.168Z" fill="black"/>
<path d="M321.884 279.33C321.906 279.324 321.926 279.314 321.944 279.3C321.962 279.287 321.977 279.27 321.989 279.25C322 279.231 322.007 279.209 322.01 279.187C322.013 279.164 322.011 279.142 322.005 279.12C322.005 279.04 321.353 277.123 320.394 276.704C320.282 276.645 320.159 276.611 320.033 276.602C319.907 276.594 319.78 276.612 319.662 276.656C319.541 276.684 319.434 276.753 319.359 276.852C319.284 276.95 319.246 277.072 319.251 277.196C319.251 278.001 320.99 279.144 321.779 279.362L321.884 279.33ZM319.871 276.914C320.007 276.882 320.149 276.899 320.274 276.962C320.889 277.462 321.341 278.135 321.57 278.895C320.765 278.532 319.621 277.614 319.605 277.147C319.605 277.107 319.605 277.01 319.799 276.93L319.871 276.914Z" fill="black"/>
<path d="M276.227 284.893C276.838 284.876 277.446 284.792 278.039 284.643C278.07 284.634 278.099 284.616 278.122 284.592C278.144 284.568 278.16 284.539 278.167 284.506C278.17 284.474 278.164 284.441 278.15 284.411C278.136 284.381 278.114 284.356 278.087 284.337C277.837 284.184 275.599 282.807 274.826 283.202C274.74 283.246 274.668 283.312 274.618 283.395C274.568 283.478 274.542 283.572 274.544 283.669C274.527 283.83 274.548 283.994 274.607 284.145C274.666 284.296 274.76 284.431 274.882 284.539C275.279 284.801 275.752 284.925 276.227 284.893ZM277.564 284.41C276.388 284.643 275.478 284.603 275.099 284.281C275.015 284.209 274.95 284.116 274.91 284.012C274.871 283.908 274.858 283.795 274.874 283.685C274.874 283.556 274.93 283.516 274.979 283.492C275.373 283.29 276.654 283.878 277.564 284.41Z" fill="black"/>
<path d="M277.999 284.644C278.031 284.651 278.064 284.651 278.096 284.644C278.119 284.626 278.139 284.603 278.151 284.576C278.164 284.55 278.17 284.52 278.168 284.491C278.168 284.41 277.991 282.405 277.186 281.745C277.091 281.661 276.979 281.599 276.858 281.563C276.737 281.527 276.61 281.517 276.485 281.535C276.362 281.535 276.242 281.577 276.147 281.655C276.051 281.733 275.986 281.841 275.962 281.962C275.817 282.767 277.202 284.257 277.926 284.652L277.999 284.644ZM276.598 281.833C276.737 281.831 276.871 281.88 276.976 281.97C277.458 282.6 277.739 283.361 277.782 284.152C277.065 283.605 276.171 282.461 276.268 282.002C276.268 282.002 276.268 281.858 276.509 281.833H276.582H276.598Z" fill="black"/>
<path d="M285.479 284.394H279.118L279.053 269.674H285.415L285.479 284.394Z" fill="#7F3E3B"/>
<path d="M329.759 278.951L323.639 280.07L319.25 265.584L325.37 264.464L329.759 278.951Z" fill="#7F3E3B"/>
<path d="M322.479 278.443L329.428 276.833C329.549 276.803 329.676 276.816 329.788 276.871C329.9 276.925 329.989 277.017 330.04 277.131L332.343 282.389C332.398 282.52 332.424 282.662 332.419 282.805C332.413 282.947 332.376 283.086 332.311 283.213C332.246 283.34 332.154 283.451 332.041 283.538C331.928 283.625 331.798 283.686 331.659 283.718C329.243 284.249 328.019 284.378 324.959 285.103C323.083 285.545 319.25 286.665 316.649 287.277C314.048 287.889 313.211 285.376 314.233 284.861C318.791 282.679 320.305 280.835 321.553 279.063C321.778 278.753 322.106 278.533 322.479 278.443Z" fill="#263238"/>
<path d="M279.19 283.653H286.131C286.255 283.653 286.376 283.697 286.471 283.776C286.567 283.855 286.632 283.966 286.654 284.088L287.693 289.725C287.718 289.864 287.712 290.007 287.675 290.144C287.638 290.28 287.572 290.407 287.48 290.515C287.388 290.622 287.274 290.709 287.145 290.767C287.016 290.825 286.876 290.854 286.735 290.852C284.231 290.812 280.623 290.667 277.475 290.667C273.795 290.667 272.482 290.868 268.166 290.868C265.557 290.868 264.945 288.227 266.04 287.994C271.049 286.898 273.239 286.786 277.644 284.136C278.105 283.837 278.64 283.67 279.19 283.653Z" fill="#263238"/>
<path d="M313.122 67.93C319.057 72.1091 320.845 82.8671 320.845 82.8671L307.397 89.6794C305.27 85.4276 303.623 80.9525 302.485 76.3366C301.044 69.9753 308.903 64.9667 313.122 67.93Z" fill="black"/>
<path opacity="0.2" d="M306.4 74.7905L311.698 87.4811L307.398 89.6794C306.065 86.9851 304.903 84.2096 303.919 81.3693L306.4 74.7905Z" fill="black"/>
<path d="M273.577 95.8235C273.625 102.918 274.052 111.743 275.107 122.694H309.096C309.507 117.702 307.421 94.1647 312.486 70.5953C312.576 70.1803 312.579 69.7513 312.497 69.3348C312.415 68.9183 312.248 68.5229 312.008 68.173C311.767 67.8232 311.458 67.5261 311.098 67.3002C310.739 67.0742 310.337 66.9241 309.917 66.859C307.25 66.4322 304.562 66.1446 301.865 65.9974C297.051 65.7194 292.225 65.7194 287.411 65.9974C285.468 66.1658 283.536 66.4346 281.621 66.8027C280.197 67.092 278.884 67.7776 277.833 68.7805C276.782 69.7834 276.035 71.0629 275.679 72.4715C274.621 76.8143 273.998 81.2516 273.819 85.7177C273.666 88.6166 273.553 91.9744 273.577 95.8235Z" fill="black"/>
<path opacity="0.2" d="M284.303 82.5047C282.056 84.1152 277.756 84.9204 273.835 85.2506C273.899 84.2118 273.98 83.2294 274.068 82.3034C275.123 81.7478 276.138 81.2405 277.096 80.7734L284.303 82.5047Z" fill="black"/>
<g opacity="0.2">
<path d="M279.053 269.674L279.093 277.855H285.447L285.415 269.674H279.053Z" fill="black"/>
<path d="M325.37 264.464L319.25 265.592L321.521 273.056L327.641 271.929L325.37 264.464Z" fill="black"/>
</g>
<path d="M297.018 42.855C297.944 49.1117 298.806 52.7192 296.39 56.6649C295.623 57.948 294.52 58.9969 293.199 59.6981C291.879 60.3993 290.392 60.7261 288.9 60.6432C287.407 60.5603 285.966 60.0708 284.731 59.2276C283.497 58.3845 282.516 57.2198 281.896 55.8596C279.408 50.6578 278.305 41.2928 283.756 37.3391C284.912 36.455 286.281 35.8907 287.724 35.7029C289.168 35.5152 290.635 35.7106 291.979 36.2696C293.323 36.8286 294.496 37.7314 295.381 38.8873C296.265 40.0433 296.83 41.4117 297.018 42.855Z" fill="#7F3E3B"/>
<path d="M284.005 47.4285C281.646 46.3897 281.872 42.6776 282.588 41.1154C279.858 42.0495 275.913 42.589 275.204 39.8109C274.496 37.0328 276.903 36.1471 275.43 33.7716C273.956 31.3962 278.651 28.8113 280.841 32.1611C283.031 35.5109 288.442 34.0132 291.937 30.8164C294.482 28.4892 298.202 31.4928 296.728 34.5285C296.728 34.5285 304.378 34.0373 302.856 39.2311C301.334 44.4249 299.184 44.6021 299.675 48.2981C300.014 50.7944 300.303 55.8674 297.308 56.584C293.684 57.4134 284.65 54.2005 284.005 47.4285Z" fill="#263238"/>
<path opacity="0.2" d="M283.958 54.2003C283.265 54.6996 282.549 55.231 281.816 55.8108L281.856 55.8994C282.572 57.4083 283.718 58.6719 285.15 59.531C285.609 59.0881 285.866 57.5984 286.72 57.6226C289.272 57.6951 294.209 56.6241 295.03 53.7413L283.958 54.2003Z" fill="black"/>
<path d="M285.947 47.34C286.123 48.7313 285.911 50.1441 285.335 51.4226C284.61 52.8962 283.467 51.954 283.024 50.1423C282.621 48.5318 282.516 45.7859 283.563 44.9807C284.61 44.1754 285.745 45.5041 285.947 47.34Z" fill="#7F3E3B"/>
<path d="M287.17 122.718C287.17 122.718 292.509 171.29 295.762 189.489C299.329 209.418 317.801 271.969 317.801 271.969L329.187 269.554C329.187 269.554 316.473 211.029 314.733 191.301C312.873 169.881 309.097 122.718 309.097 122.718H287.17Z" fill="black"/>
<path opacity="0.3" d="M287.17 122.718C287.17 122.718 292.509 171.29 295.762 189.489C299.329 209.418 317.801 271.969 317.801 271.969L329.187 269.554C329.187 269.554 316.473 211.029 314.733 191.301C312.962 170.944 312.962 170.984 309.097 122.718H287.17Z" fill="black"/>
<path d="M315.257 268.145C315.208 268.145 317.189 272.3 317.189 272.3L330.033 269.554L329.123 265.673L315.257 268.145Z" fill="#263238"/>
<path opacity="0.2" d="M291.059 140.031C299.337 141.641 297.251 172.764 295.633 188.764C293.668 177.491 290.987 155.693 289.191 140.256C289.769 139.969 290.429 139.889 291.059 140.031Z" fill="black"/>
<path d="M275.108 122.718C275.108 122.718 272.402 170.227 272.346 189.626C272.281 209.757 276.775 275.786 276.775 275.786H287.549C287.549 275.786 290.448 210.956 291.688 191.156C293.041 169.567 297.461 122.71 297.461 122.71L275.108 122.718Z" fill="black"/>
<path opacity="0.3" d="M275.108 122.718C275.108 122.718 272.402 170.227 272.346 189.626C272.281 209.757 276.775 275.786 276.775 275.786H287.549C287.549 275.786 290.448 210.956 291.688 191.156C293.041 169.567 297.461 122.71 297.461 122.71L275.108 122.718Z" fill="black"/>
<path d="M274.874 271.511C274.826 271.511 275.309 275.98 275.309 275.98H288.402L288.909 271.954L274.874 271.511Z" fill="#263238"/>
<path d="M288.58 77.8988C287.291 78.0195 286.204 78.092 285.021 78.1242C283.837 78.1564 282.709 78.1806 281.558 78.1725C279.239 78.1725 276.92 78.0276 274.585 77.7699C272.214 77.5255 269.863 77.122 267.547 76.5621C265.094 75.9856 262.712 75.1404 260.445 74.0417L260.179 73.9048C259.682 73.662 259.237 73.3232 258.871 72.908C258.506 72.4927 258.226 72.0092 258.048 71.4853C257.869 70.9614 257.797 70.4074 257.834 69.8552C257.87 69.3031 258.016 68.7637 258.262 68.2681C258.375 68.0396 258.507 67.8214 258.657 67.6159C259.618 66.3421 260.711 65.1734 261.918 64.1292C263.005 63.1629 264.092 62.3013 265.187 61.4799C267.378 59.8292 269.616 58.3717 271.863 56.9545C274.11 55.5373 276.404 54.2247 278.715 52.9283C281.027 51.6319 283.354 50.4643 285.769 49.345C286.3 49.1327 286.89 49.1157 287.432 49.297C287.974 49.4782 288.435 49.8461 288.731 50.335C289.028 50.8239 289.142 51.4023 289.052 51.9671C288.962 52.5319 288.675 53.0465 288.241 53.4195C286.22 54.9736 284.135 56.5116 282.114 58.0899C280.092 59.6681 278.087 61.2222 276.082 62.8166C274.077 64.411 272.169 66.0376 270.341 67.6481C269.431 68.4533 268.553 69.2585 267.772 70.1363C267.07 70.85 266.434 71.6262 265.872 72.4553L264.092 66.0134C265.846 66.6643 267.658 67.1469 269.504 67.4548C271.479 67.7903 273.471 68.0215 275.47 68.1473C277.508 68.2761 279.569 68.3486 281.638 68.3486C282.677 68.3486 283.716 68.3486 284.747 68.3486C285.777 68.3486 286.865 68.2681 287.766 68.2198H287.871C289.089 68.2185 290.262 68.6773 291.157 69.5043C292.051 70.3312 292.6 71.4654 292.693 72.6797C292.787 73.8941 292.418 75.0989 291.662 76.0532C290.905 77.0075 289.816 77.6408 288.612 77.8263L288.58 77.8988Z" fill="#7F3E3B"/>
<path d="M293.089 48.0888L289.063 48.9826C289.063 48.9826 283.676 48.3143 282.444 52.3727L285.665 55.0944L290.593 55.8996C291.373 56.021 292.171 55.8912 292.872 55.5292L294.128 54.877C294.413 54.73 294.657 54.5136 294.838 54.2477C295.018 53.9817 295.128 53.6748 295.159 53.3551L295.457 50.1341C295.486 49.8291 295.442 49.5215 295.328 49.237C295.214 48.9525 295.034 48.6994 294.802 48.4991C294.57 48.2988 294.293 48.1569 293.995 48.0856C293.697 48.0142 293.387 48.0153 293.089 48.0888Z" fill="#7F3E3B"/>
<path d="M285.229 82.6012C278.457 84.4854 270.734 82.1341 270.734 82.1341L273.577 66.9715C273.577 66.9715 280.301 66.3756 284.504 66.287C295.318 66.0294 297.436 79.2192 285.229 82.6012Z" fill="black"/>
</svg>
