<svg width="641" height="835" viewBox="0 0 641 835" fill="none" xmlns="http://www.w3.org/2000/svg">
<path d="M135.457 1111C135.457 1111 113.566 912.8 179.957 818C277.975 678.042 515.565 857.924 604.457 712C670.283 603.941 551.137 502.747 604.457 388C667.849 251.578 919.957 167 919.957 167M199.457 1111C199.457 1111 187.768 943.51 243.957 862.5C333.623 733.226 546.117 896.999 635.457 767.5C711.633 657.082 575.667 544.083 635.457 424C700.827 292.709 945.457 212 945.457 212" stroke="url(#paint0_linear_66_920)"/>
<path d="M234.457 1200C234.457 1200 212.566 1001.8 278.957 907C376.975 767.042 614.565 946.924 703.457 801C769.283 692.941 650.137 591.747 703.457 477C766.849 340.578 1018.96 256 1018.96 256M298.457 1200C298.457 1200 286.768 1032.51 342.957 951.5C432.623 822.226 645.117 985.999 734.457 856.5C810.633 746.082 674.667 633.083 734.457 513C799.827 381.709 1044.46 301 1044.46 301" stroke="url(#paint1_linear_66_920)"/>
<path d="M313.457 1280C313.457 1280 291.566 1081.8 357.957 987C455.975 847.042 693.565 1026.92 782.457 881C848.283 772.941 729.137 671.747 782.457 557C845.849 420.578 1097.96 336 1097.96 336M377.457 1280C377.457 1280 365.768 1112.51 421.957 1031.5C511.623 902.226 724.117 1066 813.457 936.5C889.633 826.082 753.667 713.083 813.457 593C878.827 461.709 1123.46 381 1123.46 381" stroke="url(#paint2_linear_66_920)"/>
<defs>
<linearGradient id="paint0_linear_66_920" x1="48.0944" y1="1111" x2="938.051" y2="1070.68" gradientUnits="userSpaceOnUse">
<stop stop-color="#16DEB5" stop-opacity="0.71"/>
<stop offset="0.723958" stop-color="#264D45"/>
<stop offset="0.9999" stop-color="#07332A" stop-opacity="0.980365"/>
</linearGradient>
<linearGradient id="paint1_linear_66_920" x1="147.094" y1="1200" x2="1037.05" y2="1159.68" gradientUnits="userSpaceOnUse">
<stop stop-color="#16DEB5" stop-opacity="0.71"/>
<stop offset="0.723958" stop-color="#264D45"/>
<stop offset="0.9999" stop-color="#07332A" stop-opacity="0.980365"/>
</linearGradient>
<linearGradient id="paint2_linear_66_920" x1="226.094" y1="1280" x2="1116.05" y2="1239.68" gradientUnits="userSpaceOnUse">
<stop stop-color="#16DEB5" stop-opacity="0.71"/>
<stop offset="0.723958" stop-color="#264D45"/>
<stop offset="0.9999" stop-color="#07332A" stop-opacity="0.980365"/>
</linearGradient>
</defs>
</svg>
