<svg width="863" height="1117" viewBox="0 0 863 1117" fill="none" xmlns="http://www.w3.org/2000/svg">
<g filter="url(#filter0_f_118_1137)">
<circle cx="802" cy="265" r="402" fill="#331F33"/>
</g>
<path d="M216.457 1322C216.457 1322 194.566 1123.8 260.957 1029C358.975 889.042 596.565 1068.92 685.457 923C751.283 814.941 632.137 713.747 685.457 599C748.849 462.578 1000.96 378 1000.96 378M280.457 1322C280.457 1322 268.768 1154.51 324.957 1073.5C414.623 944.226 627.117 1108 716.457 978.5C792.633 868.082 656.667 755.083 716.457 635C781.827 503.709 1026.46 423 1026.46 423" stroke="url(#paint0_linear_118_1137)"/>
<path d="M315.457 1411C315.457 1411 293.566 1212.8 359.957 1118C457.975 978.042 695.565 1157.92 784.457 1012C850.283 903.941 731.137 802.747 784.457 688C847.849 551.578 1099.96 467 1099.96 467M379.457 1411C379.457 1411 367.768 1243.51 423.957 1162.5C513.623 1033.23 726.117 1197 815.457 1067.5C891.633 957.082 755.667 844.083 815.457 724C880.827 592.709 1125.46 512 1125.46 512" stroke="url(#paint1_linear_118_1137)"/>
<path d="M394.457 1491C394.457 1491 372.566 1292.8 438.957 1198C536.975 1058.04 774.565 1237.92 863.457 1092C929.283 983.941 810.137 882.747 863.457 768C926.849 631.578 1178.96 547 1178.96 547M458.457 1491C458.457 1491 446.768 1323.51 502.957 1242.5C592.623 1113.23 805.117 1277 894.457 1147.5C970.633 1037.08 834.667 924.083 894.457 804C959.827 672.709 1204.46 592 1204.46 592" stroke="url(#paint2_linear_118_1137)"/>
<defs>
<filter id="filter0_f_118_1137" x="0" y="-537" width="1604" height="1604" filterUnits="userSpaceOnUse" color-interpolation-filters="sRGB">
<feFlood flood-opacity="0" result="BackgroundImageFix"/>
<feBlend mode="normal" in="SourceGraphic" in2="BackgroundImageFix" result="shape"/>
<feGaussianBlur stdDeviation="200" result="effect1_foregroundBlur_118_1137"/>
</filter>
<linearGradient id="paint0_linear_118_1137" x1="266.052" y1="1322" x2="1062.01" y2="1291" gradientUnits="userSpaceOnUse">
<stop stop-color="#AF4AAF"/>
<stop offset="1" stop-color="#310731" stop-opacity="0.8"/>
</linearGradient>
<linearGradient id="paint1_linear_118_1137" x1="365.052" y1="1411" x2="1161.01" y2="1380" gradientUnits="userSpaceOnUse">
<stop stop-color="#AF4AAF"/>
<stop offset="1" stop-color="#310731" stop-opacity="0.8"/>
</linearGradient>
<linearGradient id="paint2_linear_118_1137" x1="444.052" y1="1491" x2="1240.01" y2="1460" gradientUnits="userSpaceOnUse">
<stop stop-color="#AF4AAF"/>
<stop offset="1" stop-color="#310731" stop-opacity="0.8"/>
</linearGradient>
</defs>
</svg>
