<svg width="167" height="26" viewBox="0 0 167 26" fill="none" xmlns="http://www.w3.org/2000/svg">
<path d="M20.3579 4.86316V1.87368C20.3579 1.24211 19.8526 0.736843 19.2632 0.736843H6.25263C5.62105 0.736843 5.11579 1.24211 5.11579 1.87368V4.65263C5.11579 5.24211 4.65263 5.74737 4.02105 5.74737H1.24211C0.610526 5.74737 0.105263 6.25263 0.105263 6.88421V9.87368C0.105263 10.4632 0.610526 10.9684 1.24211 10.9684H4.02105C4.65263 10.9684 5.11579 11.4737 5.11579 12.1053V14.8842C5.11579 15.4737 5.62105 15.9789 6.25263 15.9789H14.0421C14.6316 15.9789 15.1368 16.4842 15.1368 17.1158V19.6842C15.1368 20.2737 14.6316 20.7789 14.0421 20.7789H1.24211C0.610526 20.7789 0.105263 21.2842 0.105263 21.9158V24.9053C0.105263 25.4947 0.610526 26 1.24211 26H14.2526C14.8421 26 15.3474 25.4947 15.3474 24.9053V22.0842C15.3474 21.4947 15.8526 20.9895 16.4842 20.9895H19.2632C19.8526 20.9895 20.3579 20.4842 20.3579 19.8947V16.9053C20.3579 16.2737 19.8526 15.7684 19.2632 15.7684H16.4842C15.8526 15.7684 15.3474 15.2632 15.3474 14.6737V11.8947C15.3474 11.2632 14.8421 10.7579 14.2526 10.7579H6.46316C5.83158 10.7579 5.32632 10.2526 5.32632 9.66316V7.09474C5.32632 6.46316 5.83158 5.9579 6.46316 5.9579H19.2632C19.8526 5.9579 20.3579 5.45263 20.3579 4.86316ZM39.8005 24.9053V22.0842C39.8005 21.4947 40.3058 20.9895 40.9373 20.9895H43.7163C44.3058 20.9895 44.811 20.4842 44.811 19.8947V1.87368C44.811 1.24211 44.3058 0.736843 43.7163 0.736843H40.7268C40.0952 0.736843 39.59 1.24211 39.59 1.87368V19.6842C39.59 20.2737 39.0847 20.7789 38.4952 20.7789H30.9163C30.2847 20.7789 29.7794 20.2737 29.7794 19.6842V1.87368C29.7794 1.24211 29.2742 0.736843 28.6847 0.736843H25.6952C25.0637 0.736843 24.5584 1.24211 24.5584 1.87368V19.8947C24.5584 20.4842 25.0637 20.9895 25.6952 20.9895H28.4742C29.1058 20.9895 29.5689 21.4947 29.5689 22.0842V24.9053C29.5689 25.4947 30.0742 26 30.7058 26H38.7058C39.2952 26 39.8005 25.4947 39.8005 24.9053ZM55.1168 26H63.1168C63.7484 26 64.2115 25.4947 64.2115 24.9053V22.1263C64.2115 21.4947 64.7168 20.9895 65.3484 20.9895H68.1273C68.7589 20.9895 69.222 20.4842 69.222 19.8947V16.9053C69.222 16.2737 68.7589 15.7684 68.1273 15.7684H65.1378C64.5062 15.7684 64.001 16.2737 64.001 16.9053V19.6842C64.001 20.2737 63.5378 20.7789 62.9062 20.7789H55.3273C54.6957 20.7789 54.2326 20.2737 54.2326 19.6842V7.05263C54.2326 6.42105 54.6957 5.91579 55.3273 5.91579H62.9062C63.5378 5.91579 64.001 6.42105 64.001 7.05263V9.83158C64.001 10.4632 64.5062 10.9263 65.1378 10.9263H68.1273C68.7589 10.9263 69.222 10.4632 69.222 9.83158V6.84211C69.222 6.21053 68.7589 5.74737 68.1273 5.74737H65.3484C64.7168 5.74737 64.2115 5.24211 64.2115 4.61053V1.83158C64.2115 1.2 63.7484 0.736843 63.1168 0.736843H55.1168C54.4852 0.736843 54.022 1.2 54.022 1.83158V4.61053C54.022 5.24211 53.5168 5.74737 52.8852 5.74737H50.1062C49.4747 5.74737 49.0115 6.21053 49.0115 6.84211V19.8947C49.0115 20.4842 49.4747 20.9895 50.1062 20.9895H52.8852C53.5168 20.9895 54.022 21.4947 54.022 22.1263V24.9053C54.022 25.4947 54.4852 26 55.1168 26ZM79.5308 26H87.5308C88.1624 26 88.6256 25.4947 88.6256 24.9053V22.1263C88.6256 21.4947 89.1308 20.9895 89.7624 20.9895H92.5414C93.1729 20.9895 93.6361 20.4842 93.6361 19.8947V16.9053C93.6361 16.2737 93.1729 15.7684 92.5414 15.7684H89.5519C88.9203 15.7684 88.415 16.2737 88.415 16.9053V19.6842C88.415 20.2737 87.9519 20.7789 87.3203 20.7789H79.7414C79.1098 20.7789 78.6466 20.2737 78.6466 19.6842V7.05263C78.6466 6.42105 79.1098 5.91579 79.7414 5.91579H87.3203C87.9519 5.91579 88.415 6.42105 88.415 7.05263V9.83158C88.415 10.4632 88.9203 10.9263 89.5519 10.9263H92.5414C93.1729 10.9263 93.6361 10.4632 93.6361 9.83158V6.84211C93.6361 6.21053 93.1729 5.74737 92.5414 5.74737H89.7624C89.1308 5.74737 88.6256 5.24211 88.6256 4.61053V1.83158C88.6256 1.2 88.1624 0.736843 87.5308 0.736843H79.5308C78.8993 0.736843 78.4361 1.2 78.4361 1.83158V4.61053C78.4361 5.24211 77.9308 5.74737 77.2993 5.74737H74.5203C73.8887 5.74737 73.4256 6.21053 73.4256 6.84211V19.8947C73.4256 20.4842 73.8887 20.9895 74.5203 20.9895H77.2993C77.9308 20.9895 78.4361 21.4947 78.4361 22.1263V24.9053C78.4361 25.4947 78.8993 26 79.5308 26ZM102.85 1.87368V4.65263C102.85 5.24211 102.387 5.74737 101.755 5.74737H98.9765C98.3449 5.74737 97.8396 6.25263 97.8396 6.88421V19.8947C97.8396 20.4842 98.3449 20.9895 98.9765 20.9895H101.755C102.387 20.9895 102.85 21.4947 102.85 22.0842V24.9053C102.85 25.4947 103.355 26 103.987 26H111.987C112.576 26 113.082 25.4947 113.082 24.9053V22.0842C113.082 21.4947 113.587 20.9895 114.219 20.9895H116.998C117.587 20.9895 118.092 20.4842 118.092 19.8947V6.88421C118.092 6.25263 117.587 5.74737 116.998 5.74737H114.219C113.587 5.74737 113.082 5.24211 113.082 4.65263V1.87368C113.082 1.24211 112.576 0.736843 111.987 0.736843H103.987C103.355 0.736843 102.85 1.24211 102.85 1.87368ZM112.871 7.09474V19.6842C112.871 20.2737 112.366 20.7789 111.776 20.7789H104.198C103.566 20.7789 103.061 20.2737 103.061 19.6842V7.09474C103.061 6.46316 103.566 5.9579 104.198 5.9579H111.776C112.366 5.9579 112.871 6.46316 112.871 7.09474ZM137.535 24.9053V22.0842C137.535 21.4947 138.04 20.9895 138.672 20.9895H141.451C142.04 20.9895 142.545 20.4842 142.545 19.8947V1.87368C142.545 1.24211 142.04 0.736843 141.451 0.736843H138.461C137.83 0.736843 137.324 1.24211 137.324 1.87368V19.6842C137.324 20.2737 136.819 20.7789 136.23 20.7789H128.651C128.019 20.7789 127.514 20.2737 127.514 19.6842V1.87368C127.514 1.24211 127.009 0.736843 126.419 0.736843H123.43C122.798 0.736843 122.293 1.24211 122.293 1.87368V19.8947C122.293 20.4842 122.798 20.9895 123.43 20.9895H126.209C126.84 20.9895 127.303 21.4947 127.303 22.0842V24.9053C127.303 25.4947 127.809 26 128.44 26H136.44C137.03 26 137.535 25.4947 137.535 24.9053ZM162.914 26H165.904C166.493 26 166.999 25.4947 166.999 24.9053V21.9158C166.999 21.2842 166.493 20.7789 165.904 20.7789H163.125C162.493 20.7789 161.988 20.2737 161.988 19.6842V17.1158C161.988 16.4842 162.493 15.9789 163.125 15.9789H165.904C166.493 15.9789 166.999 15.4737 166.999 14.8842V6.88421C166.999 6.25263 166.493 5.74737 165.904 5.74737H163.125C162.493 5.74737 161.988 5.24211 161.988 4.65263V1.87368C161.988 1.24211 161.483 0.736843 160.893 0.736843H147.883C147.251 0.736843 146.746 1.24211 146.746 1.87368V24.9053C146.746 25.4947 147.251 26 147.883 26H150.872C151.462 26 151.967 25.4947 151.967 24.9053V22.0842C151.967 21.4947 152.472 20.9895 153.104 20.9895H160.683C161.272 20.9895 161.777 21.4947 161.777 22.0842V24.9053C161.777 25.4947 162.283 26 162.914 26ZM161.777 7.09474V14.6737C161.777 15.2632 161.272 15.7684 160.683 15.7684H153.104C152.472 15.7684 151.967 15.2632 151.967 14.6737V7.09474C151.967 6.46316 152.472 5.9579 153.104 5.9579H160.683C161.272 5.9579 161.777 6.46316 161.777 7.09474Z" fill="#FFFEFE"/>
</svg>
