<svg width="854" height="997" viewBox="0 0 854 997" fill="none" xmlns="http://www.w3.org/2000/svg">
<path d="M88.0002 3.5C88.0002 3.5 66.1087 201.7 132.5 296.5C230.518 436.458 468.108 256.576 557 402.5C622.826 510.559 503.68 611.753 557 726.5C620.392 862.922 872.5 947.5 872.5 947.5M152 3.5C152 3.5 140.311 170.99 196.5 252C286.166 381.274 498.66 217.501 588 347C664.176 457.418 528.21 570.417 588 690.5C653.37 821.791 898 902.5 898 902.5" stroke="url(#paint0_linear_93_1061)"/>
<path d="M161.457 -80C161.457 -80 139.566 118.2 205.957 213C303.975 352.958 541.565 173.076 630.457 319C696.283 427.059 577.137 528.253 630.457 643C693.849 779.422 945.957 864 945.957 864M225.457 -80C225.457 -80 213.768 87.4904 269.957 168.5C359.623 297.774 572.117 134.001 661.457 263.5C737.633 373.918 601.667 486.917 661.457 607C726.827 738.291 971.457 819 971.457 819" stroke="url(#paint1_linear_93_1061)"/>
<path d="M234.457 -160C234.457 -160 212.566 38.2005 278.957 133C376.975 272.958 614.565 93.0756 703.457 239C769.283 347.059 650.137 448.253 703.457 563C766.849 699.422 1018.96 784 1018.96 784M298.457 -160C298.457 -160 286.768 7.49036 342.957 88.5C432.623 217.774 645.117 54.0006 734.457 183.5C810.633 293.918 674.667 406.917 734.457 527C799.827 658.291 1044.46 739 1044.46 739" stroke="url(#paint2_linear_93_1061)"/>
<path d="M313.457 -240C313.457 -240 291.566 -41.7995 357.957 53C455.975 192.958 693.565 13.0756 782.457 159C848.283 267.059 729.137 368.253 782.457 483C845.849 619.422 1097.96 704 1097.96 704M377.457 -240C377.457 -240 365.768 -72.5096 421.957 8.5C511.623 137.774 724.117 -25.9994 813.457 103.5C889.633 213.918 753.667 326.917 813.457 447C878.827 578.291 1123.46 659 1123.46 659" stroke="url(#paint3_linear_93_1061)"/>
<defs>
<linearGradient id="paint0_linear_93_1061" x1="137.595" y1="3.50034" x2="933.554" y2="34.4966" gradientUnits="userSpaceOnUse">
<stop stop-color="#AF4AAF"/>
<stop offset="1" stop-color="#310731" stop-opacity="0.8"/>
</linearGradient>
<linearGradient id="paint1_linear_93_1061" x1="211.052" y1="-79.9997" x2="1007.01" y2="-49.0034" gradientUnits="userSpaceOnUse">
<stop stop-color="#AF4AAF"/>
<stop offset="1" stop-color="#310731" stop-opacity="0.8"/>
</linearGradient>
<linearGradient id="paint2_linear_93_1061" x1="284.052" y1="-160" x2="1080.01" y2="-129.003" gradientUnits="userSpaceOnUse">
<stop stop-color="#AF4AAF"/>
<stop offset="1" stop-color="#310731" stop-opacity="0.8"/>
</linearGradient>
<linearGradient id="paint3_linear_93_1061" x1="363.052" y1="-240" x2="1159.01" y2="-209.003" gradientUnits="userSpaceOnUse">
<stop stop-color="#AF4AAF"/>
<stop offset="1" stop-color="#310731" stop-opacity="0.8"/>
</linearGradient>
</defs>
</svg>
