<svg width="25" height="24" viewBox="0 0 25 24" fill="none" xmlns="http://www.w3.org/2000/svg">
<path d="M12.4402 11.0102C14.9202 11.0102 16.9502 8.99024 16.9502 6.50024C16.9502 4.01024 14.9302 1.99023 12.4402 1.99023C9.95019 1.99023 7.93018 4.01024 7.93018 6.50024C7.93018 8.99024 9.95019 11.0102 12.4402 11.0102ZM12.4402 4.00024C13.8202 4.00024 14.9502 5.12022 14.9502 6.51022C14.9502 7.90022 13.8302 9.02023 12.4402 9.02023C11.0502 9.02023 9.93018 7.90022 9.93018 6.51022C9.93018 5.12022 11.0502 4.00024 12.4402 4.00024Z" fill="#FFFEFE"/>
<path d="M12.4902 12C9.73023 12 7.49023 14.32 7.49023 17.16V21C7.49023 21.55 7.94023 22 8.49023 22C9.04023 22 9.49023 21.55 9.49023 21V17.16C9.49023 15.42 10.8402 14 12.4902 14C14.1402 14 15.4902 15.42 15.4902 17.16V21C15.4902 21.55 15.9402 22 16.4902 22C17.0402 22 17.4902 21.55 17.4902 21V17.16C17.4902 14.31 15.2502 12 12.4902 12Z" fill="#FFFEFE"/>
</svg>
