<svg width="38" height="38" viewBox="0 0 38 38" fill="none" xmlns="http://www.w3.org/2000/svg">
<path d="M20.5835 14.25H11.0835" stroke="#030303" stroke-width="1.5" stroke-linecap="round" stroke-linejoin="round"/>
<path d="M34.8335 17.3688V20.6306C34.8335 21.5014 34.1368 22.2139 33.2502 22.2455H30.1468C28.4368 22.2455 26.8693 20.9947 26.7268 19.2847C26.6318 18.2872 27.0118 17.353 27.6768 16.7039C28.2626 16.1022 29.0701 15.7539 29.9568 15.7539H33.2502C34.1368 15.7856 34.8335 16.498 34.8335 17.3688Z" stroke="#030303" stroke-width="1.5" stroke-linecap="round" stroke-linejoin="round"/>
<path d="M27.6765 16.7045C27.0115 17.3536 26.6315 18.2878 26.7265 19.2853C26.869 20.9953 28.4365 22.2461 30.1465 22.2461H33.2498V24.542C33.2498 29.292 30.0832 32.4587 25.3332 32.4587H11.0832C6.33317 32.4587 3.1665 29.292 3.1665 24.542V13.4587C3.1665 9.15199 5.76317 6.14365 9.80067 5.63699C10.2123 5.57365 10.6398 5.54199 11.0832 5.54199H25.3332C25.7448 5.54199 26.1407 5.55781 26.5207 5.62114C30.6057 6.09614 33.2498 9.12033 33.2498 13.4587V15.7545H29.9565C29.0698 15.7545 28.2623 16.1028 27.6765 16.7045Z" stroke="#030303" stroke-width="1.5" stroke-linecap="round" stroke-linejoin="round"/>
</svg>
