<svg width="38" height="38" viewBox="0 0 38 38" fill="none" xmlns="http://www.w3.org/2000/svg">
<path d="M20.583 14.25H11.083" stroke="#FFFEFE" stroke-width="1.5" stroke-linecap="round" stroke-linejoin="round"/>
<path d="M34.833 17.3691V20.6308C34.833 21.5017 34.1364 22.2141 33.2497 22.2458H30.1463C28.4363 22.2458 26.8689 20.995 26.7264 19.285C26.6314 18.2875 27.0113 17.3533 27.6763 16.7041C28.2622 16.1024 29.0697 15.7542 29.9563 15.7542H33.2497C34.1364 15.7858 34.833 16.4983 34.833 17.3691Z" stroke="#FFFEFE" stroke-width="1.5" stroke-linecap="round" stroke-linejoin="round"/>
<path d="M27.677 16.7042C27.012 17.3534 26.632 18.2876 26.727 19.2851C26.8695 20.9951 28.437 22.2459 30.147 22.2459H33.2503V24.5417C33.2503 29.2917 30.0837 32.4584 25.3337 32.4584H11.0837C6.33366 32.4584 3.16699 29.2917 3.16699 24.5417V13.4584C3.16699 9.15175 5.76366 6.14341 9.80116 5.63674C10.2128 5.57341 10.6403 5.54175 11.0837 5.54175H25.3337C25.7453 5.54175 26.1412 5.55756 26.5212 5.6209C30.6062 6.0959 33.2503 9.12008 33.2503 13.4584V15.7543H29.957C29.0703 15.7543 28.2628 16.1026 27.677 16.7042Z" stroke="#FFFEFE" stroke-width="1.5" stroke-linecap="round" stroke-linejoin="round"/>
</svg>
