<?xml version="1.0" encoding="utf-8"?>
<svg width="952px" height="67px" viewBox="0 0 952 67" version="1.1" xmlns:xlink="http://www.w3.org/1999/xlink" xmlns="http://www.w3.org/2000/svg">
  <g id="ZSALE-LAUNCHPAD-DOCUMENTATION" fill="#681066">
    <path d="M153.117 21.5234Q153.633 21.6641 154.102 21.6641Q155.555 21.6641 156.492 20.5859Q157.336 19.6484 157.336 18.4297Q157.336 16.2734 155.18 15.4531Q151.641 14.0938 145.734 14.0938Q143.555 14.0938 141.105 14.4336Q138.656 14.7734 135.938 15.4531Q135.07 14.8672 134.039 14.8672Q130.758 14.8672 130.758 18.4297Q130.758 19.25 130.992 20.8555Q131.227 22.4609 131.227 23.2813Q131.227 26.3984 130.77 32.6914Q130.313 38.9844 130.313 42.125Q130.313 49.6953 132.867 51.9688Q135.188 54.0313 142.828 54.0313Q150.211 54.0313 152.555 53.5859Q155.297 53.0703 155.297 50.4453Q155.297 48.875 154.195 48.0078Q153.234 47.2344 151.875 47.2344Q151.43 47.2344 150.516 47.375Q149.602 47.5156 149.133 47.5156Q147.68 47.5156 144.75 47.5859Q141.82 47.6563 140.367 47.6563Q137.672 47.6563 137.414 47.3516Q136.875 46.7188 136.875 42.125Q136.875 40.2969 137.039 37.3203Q143.742 36.7813 147.07 36.4063Q150.797 36.0781 152.672 35.9375Q155.648 35.5625 155.648 32.7734Q155.648 31.3203 154.664 30.4414Q153.68 29.5625 152.297 29.5625Q151.102 29.5625 146.625 30.0078Q138.773 30.7813 137.461 30.875Q137.672 24.7344 137.672 21.6172Q139.945 21.0547 141.961 20.7734Q143.977 20.4922 145.734 20.4922Q149.32 20.4922 153.117 21.5234ZM703.922 21.6641Q703.453 21.6641 702.938 21.5234Q699.141 20.4922 695.555 20.4922Q693.797 20.4922 691.781 20.7734Q689.766 21.0547 687.492 21.6172Q687.492 24.7344 687.281 30.875Q688.594 30.7813 696.445 30.0078Q700.922 29.5625 702.117 29.5625Q703.5 29.5625 704.484 30.4414Q705.469 31.3203 705.469 32.7734Q705.469 35.5625 702.492 35.9375Q700.617 36.0781 696.891 36.4063Q693.563 36.7813 686.859 37.3203Q686.695 40.2969 686.695 42.125Q686.695 46.7188 687.234 47.3516Q687.492 47.6563 690.188 47.6563Q691.641 47.6563 694.57 47.5859Q697.5 47.5156 698.953 47.5156Q699.422 47.5156 700.336 47.375Q701.25 47.2344 701.695 47.2344Q703.055 47.2344 704.016 48.0078Q705.117 48.875 705.117 50.4453Q705.117 53.0703 702.375 53.5859Q700.031 54.0313 692.648 54.0313Q685.008 54.0313 682.688 51.9688Q680.133 49.6953 680.133 42.125Q680.133 38.9844 680.59 32.6914Q681.047 26.3984 681.047 23.2813Q681.047 22.4609 680.813 20.8555Q680.578 19.25 680.578 18.4297Q680.578 14.8672 683.859 14.8672Q684.891 14.8672 685.758 15.4531Q688.477 14.7734 690.926 14.4336Q693.375 14.0938 695.555 14.0938Q701.461 14.0938 705 15.4531Q707.156 16.2734 707.156 18.4297Q707.156 19.6484 706.313 20.5859Q705.375 21.6641 703.922 21.6641ZM391.078 38.6328Q390.68 38.6328 389.109 38.4688Q388.969 41.75 388.969 49.25Q388.969 50.4922 388.102 51.3828Q387.234 52.2734 385.898 52.2734Q384.563 52.2734 383.684 51.3828Q382.805 50.4922 382.805 49.25L382.805 42.7109Q382.805 39.0781 383.273 31.9531Q383.719 24.7109 383.742 21.1484Q383.76 16.5986 385.659 15.5896Q386.303 15.2472 387.164 15.3125Q387.961 15.1016 389.367 14.9961Q390.773 14.8906 392.789 14.8906Q397.383 14.8906 401.414 17.8672Q405.891 21.1953 405.891 25.9766Q405.891 31.9766 401.133 35.5156Q396.914 38.6328 391.078 38.6328ZM448.688 51.9453Q447.305 51.9219 446.367 50.9961Q445.43 50.0703 445.43 48.7578Q445.43 46.4141 445.652 41.7266Q445.875 37.0391 445.875 34.6953Q445.875 32.0938 445.77 26.8906Q445.664 21.6875 445.664 19.0859Q445.664 17.7969 446.906 16.5195Q448.148 15.2422 449.555 15.2422Q450.328 15.2422 453.445 16.6953Q457.078 18.4297 457.758 18.6406Q464.625 20.8672 469.477 25.5313Q475.266 31.0859 475.266 37.8125Q475.266 41.8672 473.273 45.5234Q471.281 49.25 467.813 51.5Q463.922 54.0313 456.867 54.0313Q455.156 54.0313 452.93 53.5391Q450.234 52.9297 448.688 51.9453ZM501.82 50.9961Q502.758 51.9219 504.141 51.9453Q505.688 52.9297 508.383 53.5391Q510.609 54.0313 512.32 54.0313Q519.375 54.0313 523.266 51.5Q526.734 49.25 528.727 45.5234Q530.719 41.8672 530.719 37.8125Q530.719 31.0859 524.93 25.5313Q520.078 20.8672 513.211 18.6406Q512.531 18.4297 508.898 16.6953Q505.781 15.2422 505.008 15.2422Q503.602 15.2422 502.359 16.5195Q501.117 17.7969 501.117 19.0859Q501.117 21.6875 501.223 26.8906Q501.328 32.0938 501.328 34.6953Q501.328 37.0391 501.105 41.7266Q500.883 46.4141 500.883 48.7578Q500.883 50.0703 501.82 50.9961ZM379.242 22.0453Q379.242 20.7742 379.711 19.0555Q379.805 18.7025 379.805 18.3495Q379.805 17.0077 378.773 16.113Q377.813 15.2891 376.57 15.2891Q374.906 15.2891 373.594 18.2023Q372.539 20.5709 372.492 22.395Q372.281 29.3351 372.188 30.9219Q368.367 31.0625 363.094 32L354.094 33.6875Q354.07 32.8672 354.211 31.3203Q354.375 29.6563 354.375 29.0703Q354.375 27.2891 354.504 23.7148Q354.633 20.1406 354.633 18.3594Q354.633 17.0703 353.719 16.1797Q352.805 15.2891 351.445 15.2891Q350.086 15.2891 349.172 16.1584Q348.258 17.0278 348.258 18.2861Q348.258 21.2147 348.117 27.1061Q347.977 32.9976 347.977 35.9261Q347.977 38.2369 347.566 42.8356Q347.156 47.4343 347.156 49.7451Q347.156 51.0034 348.07 51.8728Q348.984 52.7422 350.344 52.7422Q351.703 52.7422 352.617 51.9107Q353.531 51.0792 353.531 49.8759Q353.531 47.9283 353.766 44.8654Q354.047 41.3864 354.094 39.8984Q358.594 39.0547 363.094 38.2344Q368.508 37.25 372.188 37.0859Q372.141 38.1172 372.141 39.4531Q372.141 41.1641 372.293 44.5859Q372.445 48.0078 372.445 49.7188Q372.445 50.9844 373.453 51.8633Q374.461 52.7422 375.844 52.7422Q377.203 52.7422 378.117 51.8477Q379.031 50.9532 379.031 49.6583Q379.031 47.9401 378.773 44.5266Q378.516 41.1132 378.516 39.3945Q378.516 37.1584 378.75 32.7562Q378.984 28.354 378.984 26.1179Q378.984 25.4587 379.113 24.0816Q379.242 22.7045 379.242 22.0453ZM312.469 49.6484Q312.867 47.1172 312.867 45.9453Q312.867 43.0391 313.008 31.1328Q313.055 27.6875 313.055 27.4297Q313.055 15.6406 309.234 15.6406Q305.813 15.6406 305.813 18.875Q305.813 19.8125 306.047 21.4531Q306.305 23.3047 306.352 23.9844Q306.586 28.0156 306.586 39.5703Q306.586 42.3828 306.563 43.1328Q296.203 33.5469 285.563 18.3594Q283.453 15.3594 281.719 15.3594Q280.172 15.3594 278.965 16.4609Q277.758 17.5625 277.758 18.9688Q277.758 20.375 278.039 23.1641Q278.32 25.9531 278.32 27.3594Q278.32 28.8359 278.391 31.8125Q278.461 34.7891 278.461 36.2656Q278.461 37.6484 278.367 40.4141Q278.273 43.1797 278.273 44.5625Q278.273 45.5 278.121 47.3984Q277.969 49.2969 277.969 50.2344Q277.969 51.5703 278.883 52.5078Q279.914 53.5625 281.625 53.5625Q285 53.5625 285 46.6484Q285 44.7969 284.918 41.0703Q284.836 37.3438 284.836 35.4922Q284.836 34.1094 284.977 28.0156Q296.32 42.6875 305.344 50.8203Q307.406 52.6719 309.047 52.6719Q312 52.6719 312.469 49.6484ZM744.563 49.6484Q744.961 47.1172 744.961 45.9453Q744.961 43.0391 745.102 31.1328Q745.148 27.6875 745.148 27.4297Q745.148 15.6406 741.328 15.6406Q737.906 15.6406 737.906 18.875Q737.906 19.8125 738.141 21.4531Q738.398 23.3047 738.445 23.9844Q738.68 28.0156 738.68 39.5703Q738.68 42.3828 738.656 43.1328Q728.297 33.5469 717.656 18.3594Q715.547 15.3594 713.813 15.3594Q712.266 15.3594 711.059 16.4609Q709.852 17.5625 709.852 18.9688Q709.852 20.375 710.133 23.1641Q710.414 25.9531 710.414 27.3594Q710.414 28.8359 710.484 31.8125Q710.555 34.7891 710.555 36.2656Q710.555 37.6484 710.461 40.4141Q710.367 43.1797 710.367 44.5625Q710.367 45.5 710.215 47.3984Q710.063 49.2969 710.063 50.2344Q710.063 51.5703 710.977 52.5078Q712.008 53.5625 713.719 53.5625Q717.094 53.5625 717.094 46.6484Q717.094 44.7969 717.012 41.0703Q716.93 37.3438 716.93 35.4922Q716.93 34.1094 717.07 28.0156Q728.414 42.6875 737.438 50.8203Q739.5 52.6719 741.141 52.6719Q744.094 52.6719 744.563 49.6484ZM950.039 49.6484Q950.438 47.1172 950.438 45.9453Q950.438 43.0391 950.578 31.1328Q950.625 27.6875 950.625 27.4297Q950.625 15.6406 946.805 15.6406Q943.383 15.6406 943.383 18.875Q943.383 19.8125 943.617 21.4531Q943.875 23.3047 943.922 23.9844Q944.156 28.0156 944.156 39.5703Q944.156 42.3828 944.133 43.1328Q933.773 33.5469 923.133 18.3594Q921.023 15.3594 919.289 15.3594Q917.742 15.3594 916.535 16.4609Q915.328 17.5625 915.328 18.9688Q915.328 20.375 915.609 23.1641Q915.891 25.9531 915.891 27.3594Q915.891 28.8359 915.961 31.8125Q916.031 34.7891 916.031 36.2656Q916.031 37.6484 915.938 40.4141Q915.844 43.1797 915.844 44.5625Q915.844 45.5 915.691 47.3984Q915.539 49.2969 915.539 50.2344Q915.539 51.5703 916.453 52.5078Q917.484 53.5625 919.195 53.5625Q922.57 53.5625 922.57 46.6484Q922.57 44.7969 922.488 41.0703Q922.406 37.3438 922.406 35.4922Q922.406 34.1094 922.547 28.0156Q933.891 42.6875 942.914 50.8203Q944.977 52.6719 946.617 52.6719Q949.57 52.6719 950.039 49.6484ZM126.094 50.8203Q123.328 52.0391 117.539 53Q112.242 53.8906 108.844 53.8906Q103.102 53.8906 103.102 48.8516Q103.102 48.8708 103.103 48.8709Q103.124 48.8721 103.57 41.4219Q104.18 31.25 104.18 18.7813Q104.18 17.4453 105.105 16.5078Q106.031 15.5703 107.438 15.5703Q108.844 15.5703 109.781 16.5078Q110.719 17.4453 110.719 18.7813Q110.719 31.2734 110.086 41.7969Q109.875 43.6719 109.641 47.5391Q115.195 47.4453 123.891 44.8203Q124.43 44.6563 124.922 44.6563Q126.398 44.6563 127.313 45.7344Q128.133 46.6953 128.133 47.8906Q128.133 49.9063 126.094 50.8203ZM203.32 50.8203Q200.555 52.0391 194.766 53Q189.469 53.8906 186.07 53.8906Q180.328 53.8906 180.328 48.8516L180.329 48.8709Q180.351 48.8721 180.797 41.4219Q181.406 31.25 181.406 18.7813Q181.406 17.4453 182.332 16.5078Q183.258 15.5703 184.664 15.5703Q186.07 15.5703 187.008 16.5078Q187.945 17.4453 187.945 18.7813Q187.945 31.2734 187.313 41.7969Q187.102 43.6719 186.867 47.5391Q192.422 47.4453 201.117 44.8203Q201.656 44.6563 202.148 44.6563Q203.625 44.6563 204.539 45.7344Q205.359 46.6953 205.359 47.8906Q205.359 49.9063 203.32 50.8203ZM645 44.6563Q646.898 36.9922 647.953 33.1953Q649.406 39.8047 651.234 45.8047L652.547 50.1641Q653.719 52.7656 655.922 52.7656Q658.148 52.7656 659.391 50.5859Q660.328 48.9453 661.195 46.3906L662.602 42.0781Q665.039 35.3516 666.094 32.2109Q667.406 40.1094 668.531 44.3281L669.844 50Q671.086 53.6563 673.641 53.6563Q674.93 53.6563 675.961 52.8125Q677.063 51.875 677.063 50.4922Q677.063 49.8594 674.977 42.6172Q672.914 35.4922 671.555 25.5078Q670.969 21.2188 670.453 19.6484Q669.211 15.7578 666.656 15.7578Q664.008 15.7578 662.742 19.1094L661.43 24.5Q659.133 32.8203 656.461 39.7813Q654.422 32.7266 653.391 26.6094Q652.313 20.3047 651.375 18.2656Q650.367 16.1094 648.234 16.1094Q646.359 16.1094 645.129 17.7617Q643.898 19.4141 642.844 24.3828Q642.141 27.9922 641.461 31.6016Q641.273 32.4922 638.859 40.6719Q637.242 46.1328 637.242 49.9297Q637.242 51.2188 638.039 52.1563Q638.977 53.2578 640.594 53.2578Q643.172 53.2578 644.133 49.9297Q644.555 47.3047 645 44.6563ZM340.711 26.75Q338.602 26.75 337.594 24.5234Q337.125 23.4688 336.656 23.2578Q336.305 23.0938 334.805 23.0938Q331.852 23.0938 327.984 27.6875Q322.57 34.1094 322.57 39.7109Q322.57 42.2656 324.281 44.0938Q325.992 45.9219 328.383 45.9219Q330.703 45.9219 333.094 44.7031Q333.938 44.2578 336.656 42.4063Q338.484 41.1875 339.422 41.1875Q340.828 41.1875 341.813 42.2188Q342.727 43.1797 342.727 44.4219Q342.727 45.8047 341.508 46.8359Q335.063 52.2734 328.383 52.2734Q323.109 52.2734 319.477 48.4297Q316.008 44.7266 316.008 39.7109Q316.008 31.8594 322.875 23.6797Q328.711 16.7422 334.805 16.7422Q335.836 16.7422 336.668 16.8125Q337.5 16.8828 338.133 17.0234Q339.164 16.0156 340.617 16.0156Q343.008 16.0156 343.57 18.7578Q343.969 20.7266 343.969 23.3516Q343.969 24.5234 343.289 25.4844Q342.398 26.75 340.711 26.75ZM593.25 24.5234Q594.258 26.75 596.367 26.75Q598.055 26.75 598.945 25.4844Q599.625 24.5234 599.625 23.3516Q599.625 20.7266 599.227 18.7578Q598.664 16.0156 596.273 16.0156Q594.82 16.0156 593.789 17.0234Q593.156 16.8828 592.324 16.8125Q591.492 16.7422 590.461 16.7422Q584.367 16.7422 578.531 23.6797Q571.664 31.8594 571.664 39.7109Q571.664 44.7266 575.133 48.4297Q578.766 52.2734 584.039 52.2734Q590.719 52.2734 597.164 46.8359Q598.383 45.8047 598.383 44.4219Q598.383 43.1797 597.469 42.2188Q596.484 41.1875 595.078 41.1875Q594.141 41.1875 592.313 42.4063Q589.594 44.2578 588.75 44.7031Q586.359 45.9219 584.039 45.9219Q581.648 45.9219 579.938 44.0938Q578.227 42.2656 578.227 39.7109Q578.227 34.1094 583.641 27.6875Q587.508 23.0938 590.461 23.0938Q591.961 23.0938 592.313 23.2578Q592.781 23.4688 593.25 24.5234ZM777.305 23.6094Q775.477 23.6094 771.609 23.3516Q767.883 23.0938 765.914 23.1172Q766.008 25.7891 766.547 32.6328Q767.039 38.6797 767.039 42.1953Q767.039 42.9922 767.203 44.5625Q767.367 46.1328 767.367 46.9297Q767.367 48.6875 766.617 50.0938Q765.656 51.8984 763.875 51.8984Q762.586 51.8984 761.602 51.0781Q760.5 50.1641 760.5 48.7813Q760.5 48.4531 760.617 47.7852Q760.734 47.1172 760.734 46.7656Q760.734 45.6875 760.582 43.5078Q760.43 41.3281 760.43 40.2266Q760.43 37.0859 759.938 31.7188Q759.375 25.5547 759.281 23.2109L758.063 23.2109Q752.836 23.2109 749.766 22.4609Q747.164 21.8281 747.164 19.3906Q747.164 18.1953 748.008 17.2344Q748.992 16.0859 750.586 16.2031Q751.406 16.25 754.313 16.6016Q756.633 16.8594 758.063 16.8594Q759.492 16.8594 762.34 16.8125Q765.188 16.7656 766.617 16.7656Q768.398 16.7656 771.961 17.0117Q775.523 17.2578 777.305 17.2578Q778.711 17.2578 779.66 18.1719Q780.609 19.0859 780.609 20.4219Q780.609 21.7578 779.66 22.6836Q778.711 23.6094 777.305 23.6094ZM845.813 23.6094Q843.984 23.6094 840.117 23.3516Q836.391 23.0938 834.422 23.1172Q834.516 25.7891 835.055 32.6328Q835.547 38.6797 835.547 42.1953Q835.547 42.9922 835.711 44.5625Q835.875 46.1328 835.875 46.9297Q835.875 48.6875 835.125 50.0938Q834.164 51.8984 832.383 51.8984Q831.094 51.8984 830.109 51.0781Q829.008 50.1641 829.008 48.7813Q829.008 48.4531 829.125 47.7852Q829.242 47.1172 829.242 46.7656Q829.242 45.6875 829.09 43.5078Q828.938 41.3281 828.938 40.2266Q828.938 37.0859 828.445 31.7188Q827.883 25.5547 827.789 23.2109L826.57 23.2109Q821.344 23.2109 818.273 22.4609Q815.672 21.8281 815.672 19.3906Q815.672 18.1953 816.516 17.2344Q817.5 16.0859 819.094 16.2031Q819.914 16.25 822.82 16.6016Q825.141 16.8594 826.57 16.8594Q828 16.8594 830.848 16.8125Q833.695 16.7656 835.125 16.7656Q836.906 16.7656 840.469 17.0117Q844.031 17.2578 845.813 17.2578Q847.219 17.2578 848.168 18.1719Q849.117 19.0859 849.117 20.4219Q849.117 21.7578 848.168 22.6836Q847.219 23.6094 845.813 23.6094ZM550.594 53.1406Q543.656 53.1406 538.781 49.1563Q533.578 44.8906 533.578 38.1172Q533.578 30.1484 538.57 23.5859Q544.172 16.2031 552.68 16.2031Q560.859 16.2031 564.938 19.9531Q569.016 23.7031 569.016 31.2266Q569.016 39.1953 564.422 45.6641Q559.125 53.1406 550.594 53.1406ZM893.484 53.1406Q886.547 53.1406 881.672 49.1563Q876.469 44.8906 876.469 38.1172Q876.469 30.1484 881.461 23.5859Q887.063 16.2031 895.57 16.2031Q903.75 16.2031 907.828 19.9531Q911.906 23.7031 911.906 31.2266Q911.906 39.1953 907.313 45.6641Q902.016 53.1406 893.484 53.1406ZM29.8594 23.7031Q28.5703 24.5 26.6953 25.7422Q22.7344 28.6719 17.3203 35.8203Q13.1719 41.3984 9.02344 47L8.92969 47.1172Q10.6406 47.0703 17.1797 46.7891Q22.3125 46.5547 25.3594 46.5547Q28.7109 46.5547 29.9063 46.8125Q32.7188 47.4219 32.8125 49.5078Q32.8828 51.0547 31.7344 51.9453Q30.75 52.7188 29.3672 52.7188Q28.6875 52.7188 27.3281 52.6367Q25.9687 52.5547 25.2891 52.5547Q21.7266 52.5547 14.5898 52.7305Q7.45313 52.9063 3.89063 52.9063Q2.36719 52.9063 1.38281 52.1328Q0.28125 51.2891 0.28125 49.7656Q0.28125 48.0781 1.75781 45.7578Q2.22656 45.0313 4.40625 42.2188Q8.25 37.0859 12.1172 31.9766Q16.7109 26.0703 20.7188 22.4141Q17.0625 22.6719 15.1406 22.6719L5.67188 22.6719Q5.41406 22.6719 4.92188 22.707Q4.42969 22.7422 4.17188 22.7422Q2.78906 22.7422 1.82813 21.9453Q0.75 21.0547 0.75 19.5547Q0.75 16.3438 5.50781 16.3438Q7.125 16.3438 10.3359 16.543Q13.5469 16.7422 15.1641 16.7422Q16.9688 16.7422 20.5664 16.6484Q24.1641 16.5547 25.9688 16.5547Q32.9531 16.5547 32.9531 19.6016Q32.9531 21.5469 29.8594 23.7031ZM864.586 23.3516Q869.626 24.0078 870.751 24.0078Q871.875 24.0078 872.762 23.2813Q873.844 22.4141 873.844 20.9141Q873.844 18.0781 871.05 17.6797Q864.033 16.6953 859.581 16.6953Q854.63 16.6953 852.631 16.8828Q851.405 17 850.565 17.7969Q849.656 18.6641 849.656 20.0469Q849.656 21.4063 850.605 22.3203Q851.555 23.2344 852.961 23.2344L858.047 23.0938Q857.578 28.8828 857.578 35.2578Q857.578 43.0859 857.625 45.8516Q854.844 46.2031 853.139 46.2031Q851.636 46.2031 850.646 47.1406Q849.656 48.0781 849.656 49.3906Q849.656 50.7031 850.602 51.6289Q851.548 52.5547 852.985 52.5547Q854.566 52.5547 857.727 52.1445Q860.888 51.7344 862.469 51.7344Q863.81 51.7344 866.492 51.6758Q869.174 51.6172 870.515 51.6172Q871.952 51.6172 872.898 50.6914Q873.844 49.7656 873.844 48.4531Q873.844 47.1406 872.918 46.2031Q871.992 45.2656 870.586 45.2656Q867.352 45.2656 864.234 45.3359L864.258 34.8125Q864.258 27.6641 864.586 23.3516ZM267.492 47.6563Q265.781 49.9766 263.367 51.5234Q260.414 53.3984 257.297 53.3984Q251.32 53.3984 248.414 51.1422Q242.273 46.376 242.273 34.588Q242.273 33.4597 242.391 31.2264Q242.508 28.993 242.508 27.8647Q242.508 26.9668 242.555 25.1824Q242.602 23.3981 242.602 22.5001Q242.602 20.6584 243.281 19.0237Q244.195 16.8594 245.836 16.8594Q247.125 16.8594 248.109 17.6852Q249.188 18.5568 249.188 19.933Q249.188 21.2407 249.152 23.8901Q249.117 26.5394 249.117 27.8699Q249.117 28.9707 249 31.1958Q248.883 33.4209 248.883 34.5221Q248.883 38.0773 249.727 41.1282Q250.711 44.7756 252.609 46.2207Q253.594 46.9777 257.297 47.0234Q263.484 47.1172 265.641 36.4766Q266.766 30.9688 266.766 21.0078Q266.766 19.6953 267.539 18.4766Q268.594 16.8594 270.539 16.8594Q272.133 16.8594 272.93 18.0313Q273.539 18.8984 273.539 19.9531Q273.539 29.2109 272.672 34.3906Q271.359 42.3828 267.492 47.6563ZM627.234 47.6563Q625.523 49.9766 623.109 51.5234Q620.156 53.3984 617.039 53.3984Q611.063 53.3984 608.156 51.1422Q602.016 46.376 602.016 34.588Q602.016 33.4597 602.133 31.2264Q602.25 28.993 602.25 27.8647Q602.25 26.9668 602.297 25.1824Q602.344 23.3981 602.344 22.5001Q602.344 20.6584 603.023 19.0237Q603.938 16.8594 605.578 16.8594Q606.867 16.8594 607.852 17.6852Q608.93 18.5568 608.93 19.933Q608.93 21.2407 608.895 23.8901Q608.859 26.5394 608.859 27.8699Q608.859 28.9707 608.742 31.1958Q608.625 33.4209 608.625 34.5221Q608.625 38.0773 609.469 41.1282Q610.453 44.7756 612.352 46.2207Q613.336 46.9777 617.039 47.0234Q623.227 47.1172 625.383 36.4766Q626.508 30.9688 626.508 21.0078Q626.508 19.6953 627.281 18.4766Q628.336 16.8594 630.281 16.8594Q631.875 16.8594 632.672 18.0313Q633.281 18.8984 633.281 19.9531Q633.281 29.2109 632.414 34.3906Q631.102 42.3828 627.234 47.6563ZM92.1328 48.0547Q94.0078 52.3438 95.8594 52.4141Q97.1484 52.4609 98.168 51.5469Q99.1875 50.6328 99.1875 49.2734Q99.1875 48.2656 98.3438 46.25Q97.3125 43.8125 97.1484 43.1563Q95.0859 34.4609 93.6563 27.7109Q92.6484 22.6953 92.1797 20.1875Q91.3125 17.0703 88.7344 17.0703Q87.375 17.0703 81.5156 25.9531Q77.4375 32.1406 74.1094 37.9063Q71.9297 38.5391 71.8359 39.6641Q71.7891 40.2969 72.1172 41.0234Q68.6953 47.9375 68.6953 49.1328Q68.6953 50.4922 69.7266 51.3711Q70.7578 52.25 72.0469 52.25Q73.875 52.25 74.9063 50.5625Q77.5781 45.3828 78.6563 42.8047Q80.625 42.4531 84.3281 42.1953Q88.2656 41.9375 90 41.6797Q90.8906 45.2891 92.1328 48.0547ZM230.906 48.0547Q232.781 52.3438 234.633 52.4141Q235.922 52.4609 236.941 51.5469Q237.961 50.6328 237.961 49.2734Q237.961 48.2656 237.117 46.25Q236.086 43.8125 235.922 43.1563Q233.859 34.4609 232.43 27.7109Q231.422 22.6953 230.953 20.1875Q230.086 17.0703 227.508 17.0703Q226.148 17.0703 220.289 25.9531Q216.211 32.1406 212.883 37.9063Q210.703 38.5391 210.609 39.6641Q210.563 40.2969 210.891 41.0234Q207.469 47.9375 207.469 49.1328Q207.469 50.4922 208.5 51.3711Q209.531 52.25 210.82 52.25Q212.648 52.25 213.68 50.5625Q216.352 45.3828 217.43 42.8047Q219.398 42.4531 223.102 42.1953Q227.039 41.9375 228.773 41.6797Q229.664 45.2891 230.906 48.0547ZM432.539 48.0547Q434.414 52.3438 436.266 52.4141Q437.555 52.4609 438.574 51.5469Q439.594 50.6328 439.594 49.2734Q439.594 48.2656 438.75 46.25Q437.719 43.8125 437.555 43.1563Q435.492 34.4609 434.063 27.7109Q433.055 22.6953 432.586 20.1875Q431.719 17.0703 429.141 17.0703Q427.781 17.0703 421.922 25.9531Q417.844 32.1406 414.516 37.9063Q412.336 38.5391 412.242 39.6641Q412.195 40.2969 412.523 41.0234Q409.102 47.9375 409.102 49.1328Q409.102 50.4922 410.133 51.3711Q411.164 52.25 412.453 52.25Q414.281 52.25 415.313 50.5625Q417.984 45.3828 419.063 42.8047Q421.031 42.4531 424.734 42.1953Q428.672 41.9375 430.406 41.6797Q431.297 45.2891 432.539 48.0547ZM805.898 48.0547Q807.773 52.3438 809.625 52.4141Q810.914 52.4609 811.934 51.5469Q812.953 50.6328 812.953 49.2734Q812.953 48.2656 812.109 46.25Q811.078 43.8125 810.914 43.1563Q808.852 34.4609 807.422 27.7109Q806.414 22.6953 805.945 20.1875Q805.078 17.0703 802.5 17.0703Q801.141 17.0703 795.281 25.9531Q791.203 32.1406 787.875 37.9063Q785.695 38.5391 785.602 39.6641Q785.555 40.2969 785.883 41.0234Q782.461 47.9375 782.461 49.1328Q782.461 50.4922 783.492 51.3711Q784.523 52.25 785.813 52.25Q787.641 52.25 788.672 50.5625Q791.344 45.3828 792.422 42.8047Q794.391 42.4531 798.094 42.1953Q802.031 41.9375 803.766 41.6797Q804.656 45.2891 805.898 48.0547ZM46.6641 53.1406Q40.7109 53.1406 37.2891 50.4922Q34.4063 48.2891 34.4063 45.4063Q34.4063 43.9297 35.2969 42.957Q36.1875 41.9844 37.7578 41.9844Q39.8672 41.9844 40.8516 44.1406Q42.1875 47.0234 46.8984 47.0234Q50.9297 47.0234 54.7031 45.2656Q58.6172 43.4609 58.6172 41.3047Q58.6172 38.3516 56.1797 37.4141Q54.4453 36.7344 49.2188 36.6172Q45.1641 36.5234 41.9531 35.0938Q37.6172 33.1484 37.6875 29.5156Q37.7578 24.9453 42.5625 21.1367Q47.3672 17.3281 53.1563 17.3281Q55.4531 17.3281 58.8281 18.3828Q63.0234 19.6953 63.0234 21.4063Q63.0234 22.625 62.1797 23.5625Q61.2422 24.6172 59.7656 24.6172Q58.6641 24.6172 56.4727 24.1484Q54.2813 23.6797 53.1563 23.6797Q50.1328 23.7031 47.4141 25.1328Q44.6016 26.5859 44.6016 28.2969Q44.6016 29.1875 45.457 29.7617Q46.3125 30.3359 48.0234 30.5703Q51.0234 30.7344 54 30.8984Q59.2031 31.2969 62.2266 33.8281Q65.5547 36.6406 65.5547 41.6094Q65.5547 47.6563 58.6641 50.7734Q53.4141 53.1406 46.6641 53.1406ZM392.25 20.9375Q391.5 20.9375 390.926 20.9492Q390.352 20.9609 389.953 21.0078Q389.953 22.1094 389.93 24.3125Q389.883 26.9141 389.484 32.4219Q390.68 32.6094 391.078 32.6094Q394.734 32.6094 397.148 30.875Q399.727 29.0234 399.727 25.9766Q399.727 23.9844 397.313 22.4375Q394.992 20.9375 392.25 20.9375ZM552.68 22.5547Q547.453 22.5547 543.727 27.6172Q540.234 32.3516 540.234 38.1172Q540.234 42.0078 543.258 44.4453Q546.164 46.7891 550.594 46.7891Q555.75 46.7891 559.195 41.7266Q562.359 37.1094 562.359 31.2266Q562.359 26.3047 560.156 24.3828Q558.047 22.5547 552.68 22.5547ZM895.57 22.5547Q890.344 22.5547 886.617 27.6172Q883.125 32.3516 883.125 38.1172Q883.125 42.0078 886.148 44.4453Q889.055 46.7891 893.484 46.7891Q898.641 46.7891 902.086 41.7266Q905.25 37.1094 905.25 31.2266Q905.25 26.3047 903.047 24.3828Q900.938 22.5547 895.57 22.5547ZM461.859 27.8516Q459.586 26.4219 452.109 23.3516L452.109 46.5547Q453.023 47.1406 454.207 47.4336Q455.391 47.7266 456.844 47.7266Q461.906 47.7266 464.109 46.3203Q466.195 44.9844 467.426 42.6875Q468.656 40.3906 468.656 37.9063Q468.656 32.0938 461.859 27.8516ZM507.563 23.3516Q515.039 26.4219 517.313 27.8516Q524.109 32.0938 524.109 37.9063Q524.109 40.3906 522.879 42.6875Q521.648 44.9844 519.563 46.3203Q517.359 47.7266 512.297 47.7266Q510.844 47.7266 509.66 47.4336Q508.477 47.1406 507.563 46.5547L507.563 23.3516ZM82.0781 36.9219Q85.2891 31.5078 87.1172 28.3672Q88.1016 33.2422 88.6641 36.2891Q87.9844 36.3828 85.3594 36.5469Q83.1328 36.6875 82.0781 36.9219ZM220.852 36.9219Q224.063 31.5078 225.891 28.3672Q226.875 33.2422 227.438 36.2891Q226.758 36.3828 224.133 36.5469Q221.906 36.6875 220.852 36.9219ZM422.484 36.9219Q425.695 31.5078 427.523 28.3672Q428.508 33.2422 429.07 36.2891Q428.391 36.3828 425.766 36.5469Q423.539 36.6875 422.484 36.9219ZM795.844 36.9219Q799.055 31.5078 800.883 28.3672Q801.867 33.2422 802.43 36.2891Q801.75 36.3828 799.125 36.5469Q796.898 36.6875 795.844 36.9219Z" />
  </g>
</svg>