<?xml version="1.0" encoding="utf-8"?>
<svg width="1332px" height="134px" viewBox="0 0 1332 134" version="1.1" xmlns:xlink="http://www.w3.org/1999/xlink" xmlns="http://www.w3.org/2000/svg">
  <g id="The-LaunchPad-for-Everyone" fill="#8C53A2">
    <path d="M970.219 43.3281Q969.281 43.3281 968.25 43.0469Q960.656 40.9844 953.484 40.9844Q949.969 40.9844 945.938 41.5469Q941.906 42.1094 937.359 43.2344Q937.359 49.4688 936.938 61.75Q939.563 61.5625 955.266 60.0156Q964.219 59.125 966.609 59.125Q969.375 59.125 971.344 60.8828Q973.313 62.6406 973.313 65.5469Q973.313 71.125 967.359 71.875Q963.609 72.1563 956.156 72.8125Q949.5 73.5625 936.094 74.6406Q935.766 80.5938 935.766 84.25Q935.766 93.4375 936.844 94.7031Q937.359 95.3125 942.75 95.3125Q945.656 95.3125 951.516 95.1719Q957.375 95.0313 960.281 95.0313Q961.219 95.0313 963.047 94.75Q964.875 94.4688 965.766 94.4688Q968.484 94.4688 970.406 96.0156Q972.609 97.75 972.609 100.891Q972.609 106.141 967.125 107.172Q962.438 108.063 947.672 108.063Q932.391 108.063 927.75 103.938Q922.641 99.3906 922.641 84.25Q922.641 77.9688 923.555 65.3828Q924.469 52.7969 924.469 46.5625Q924.469 44.9219 924 41.7109Q923.531 38.5 923.531 36.8594Q923.531 29.7344 930.094 29.7344Q932.156 29.7344 933.891 30.9063Q939.328 29.5469 944.227 28.8672Q949.125 28.1875 953.484 28.1875Q965.297 28.1875 972.375 30.9063Q976.688 32.5469 976.688 36.8594Q976.688 39.2969 975 41.1719Q973.125 43.3281 970.219 43.3281ZM85.5 60.5313Q88.9219 57.1563 92.8359 55.4922Q96.75 53.8281 101.203 53.8281Q109.219 53.8281 112.734 58.3281Q115.359 61.7031 115.922 68.6875Q116.156 74.4531 116.438 80.2656Q117.188 87.8125 117.375 89.4531Q118.031 94.6563 118.969 98.5469Q119.203 99.5313 119.203 100.281Q119.203 102.906 117.211 104.617Q115.219 106.328 112.547 106.328Q107.813 106.328 106.406 101.641Q105.281 97.8438 104.344 90.9531Q103.5 84.3438 103.5 80.0781Q103.5 78.9063 103.617 76.5391Q103.734 74.1719 103.734 73Q103.734 69.5313 103.641 68.9688Q103.219 66.3906 101.203 66.3906Q96 66.3906 91.7813 71.1719Q89.625 73.5625 85.875 80.2656Q85.875 97.2344 84.2344 100.703Q82.4063 104.547 78.4219 104.547Q75.7969 104.547 73.7578 102.789Q71.7188 101.031 71.7188 98.4531Q71.7188 97.5625 72.2344 95.9688Q72.5625 94.9375 72.7969 83.3125Q72.5625 73.8906 72.8906 51.9531L72.9844 50.4063Q73.2656 44.875 73.2656 43Q73.2656 41.5469 72.8203 38.7109Q72.375 35.875 72.375 34.4219Q72.375 31.75 74.2969 30.0391Q76.2188 28.3281 78.9375 28.3281Q83.5781 28.3281 85.1719 33.2969Q86.0625 36.1094 86.0625 41.9219Q86.0625 46.6094 85.7813 51.4375Q85.5 56.0313 85.5 60.5313ZM499.289 55.4922Q495.375 57.1563 491.953 60.5313Q491.953 56.0313 492.234 51.4375Q492.516 46.6094 492.516 41.9219Q492.516 36.1094 491.625 33.2969Q490.031 28.3281 485.391 28.3281Q482.672 28.3281 480.75 30.0391Q478.828 31.75 478.828 34.4219Q478.828 35.875 479.273 38.7109Q479.719 41.5469 479.719 43Q479.719 44.875 479.438 50.4063L479.344 51.9531Q479.016 73.8906 479.25 83.3125Q479.016 94.9375 478.688 95.9688Q478.172 97.5625 478.172 98.4531Q478.172 101.031 480.211 102.789Q482.25 104.547 484.875 104.547Q488.859 104.547 490.688 100.703Q492.328 97.2344 492.328 80.2656Q496.078 73.5625 498.234 71.1719Q502.453 66.3906 507.656 66.3906Q509.672 66.3906 510.094 68.9688Q510.188 69.5313 510.188 73Q510.188 74.1719 510.07 76.5391Q509.953 78.9063 509.953 80.0781Q509.953 84.3438 510.797 90.9531Q511.734 97.8438 512.859 101.641Q514.266 106.328 519 106.328Q521.672 106.328 523.664 104.617Q525.656 102.906 525.656 100.281Q525.656 99.5313 525.422 98.5469Q524.484 94.6563 523.828 89.4531Q523.641 87.8125 522.891 80.2656Q522.609 74.4531 522.375 68.6875Q521.813 61.7031 519.188 58.3281Q515.672 53.8281 507.656 53.8281Q503.203 53.8281 499.289 55.4922ZM767.25 54.7188Q764.531 54.7188 758.25 55.2813L758.391 53.9219Q759.047 47.6406 760.969 44.6875Q763.547 40.7031 769.219 40.7031Q774.247 40.7031 776.102 38.2768Q777.188 36.8579 777.188 34.6094Q777.188 28.4688 768.609 28.4688Q757.359 28.4688 751.922 34.8438Q747.563 39.9531 746.25 50.4063Q745.688 54.8594 745.641 55.7031Q739.5 55.8906 737.438 56.5Q732.844 57.8594 732.844 62.2188Q732.844 65.0313 734.719 66.6953Q736.594 68.3594 739.453 68.3594Q740.391 68.3594 742.172 68.125Q744.422 67.7969 745.266 67.75L745.266 91.1875Q745.266 97.0938 744.141 103.797Q744.047 104.359 744.047 104.969Q744.047 107.547 745.992 109.234Q747.938 110.922 750.563 110.922Q755.672 110.922 756.75 105.906Q757.828 100.891 757.828 92.3125Q757.828 90.7656 757.641 79.7031Q757.547 72.0156 757.734 67.0469Q763.734 66.5313 766.688 66.625Q773.118 66.8189 775.116 63.9385Q776.016 62.6407 776.016 60.7188Q776.016 54.7188 767.25 54.7188ZM672.281 56.3125Q672.891 40.3281 673.734 34.2344Q674.531 28.7031 679.828 28.7031Q682.594 28.7031 684.281 30.502Q685.969 32.3008 685.969 34.9045Q685.969 41.7681 684.914 55.3538Q683.859 68.9395 683.859 75.803Q683.859 92.5608 684.938 98.2407Q685.078 98.998 685.078 99.614Q685.078 102.217 683.203 103.898Q681.328 105.578 678.844 105.578Q675.375 105.578 673.688 102.484Q670.5 104.406 667.078 104.992Q663.656 105.578 660 105.578Q649.5 105.578 642.563 98.875Q635.484 92.0313 635.484 81.4375Q635.484 68.8281 642.609 61.0703Q649.734 53.3125 661.219 53.3125Q664.734 53.3125 667.5 54.0625Q670.266 54.8125 672.281 56.3125ZM548.063 77.2656Q547.266 77.2656 544.125 76.9375Q543.844 83.5 543.844 98.5Q543.844 100.984 542.109 102.766Q540.375 104.547 537.703 104.547Q535.031 104.547 533.273 102.766Q531.516 100.984 531.516 98.5L531.516 85.4219Q531.516 78.1563 532.453 63.9063Q533.344 49.4219 533.391 42.2969Q533.426 33.1972 537.224 31.1792Q538.512 30.4944 540.234 30.625Q541.828 30.2031 544.641 29.9922Q547.453 29.7813 551.484 29.7813Q560.672 29.7813 568.734 35.7344Q577.688 42.3906 577.688 51.9531Q577.688 63.9531 568.172 71.0313Q559.734 77.2656 548.063 77.2656ZM266.391 101.641Q260.859 104.078 249.281 106Q238.688 107.781 231.891 107.781Q220.406 107.781 220.406 97.7031Q220.406 97.7416 220.408 97.7417Q220.452 97.7442 221.344 82.8438Q222.563 62.5 222.563 37.5625Q222.563 34.8906 224.414 33.0156Q226.266 31.1406 229.078 31.1406Q231.891 31.1406 233.766 33.0156Q235.641 34.8906 235.641 37.5625Q235.641 62.5469 234.375 83.5938Q233.953 87.3438 233.484 95.0781Q244.594 94.8906 261.984 89.6406Q263.063 89.3125 264.047 89.3125Q267 89.3125 268.828 91.4688Q270.469 93.3906 270.469 95.7813Q270.469 99.8125 266.391 101.641ZM60.75 47.2188Q57.0938 47.2188 49.3594 46.7031Q41.9062 46.1875 37.9688 46.2344Q38.1562 51.5781 39.2344 65.2656Q40.2187 77.3594 40.2188 84.3906Q40.2187 85.9844 40.5469 89.125Q40.875 92.2656 40.875 93.8594Q40.875 97.375 39.375 100.188Q37.4531 103.797 33.8906 103.797Q31.3125 103.797 29.3438 102.156Q27.1406 100.328 27.1406 97.5625Q27.1406 96.9063 27.375 95.5703Q27.6094 94.2344 27.6094 93.5313Q27.6094 91.375 27.3047 87.0156Q27 82.6563 27 80.4531Q27 74.1719 26.0156 63.4375Q24.8906 51.1094 24.7031 46.4219L22.2656 46.4219Q11.8125 46.4219 5.67188 44.9219Q0.46875 43.6563 0.46875 38.7813Q0.46875 36.3906 2.15625 34.4688Q4.125 32.1719 7.3125 32.4063Q8.95313 32.5 14.7656 33.2031Q19.4062 33.7188 22.2656 33.7188Q25.125 33.7188 30.8203 33.625Q36.5156 33.5313 39.375 33.5313Q42.9375 33.5313 50.0625 34.0234Q57.1875 34.5156 60.75 34.5156Q63.5625 34.5156 65.4609 36.3438Q67.3594 38.1719 67.3594 40.8438Q67.3594 43.5156 65.4609 45.3672Q63.5625 47.2188 60.75 47.2188ZM550.406 41.875Q548.906 41.875 547.758 41.8984Q546.609 41.9219 545.813 42.0156Q545.813 44.2188 545.766 48.625Q545.672 53.8281 544.875 64.8438Q547.266 65.2188 548.063 65.2188Q555.375 65.2188 560.203 61.75Q565.359 58.0469 565.359 51.9531Q565.359 47.9688 560.531 44.875Q555.891 41.875 550.406 41.875ZM408.984 101.078Q409.641 106.75 415.406 106.75Q418.172 106.75 420.047 105.016Q421.922 103.281 421.922 100.656Q421.922 97.0469 420.914 91.2813Q419.906 85.5156 419.906 81.8594Q419.906 80.9688 419.953 78.8125L419.953 75.4844Q419.953 65.5938 417.703 60.625Q414.328 53.2188 405.469 53.2188Q397.875 53.2188 391.031 60.1094L390.984 59.5938Q390.563 52.2344 384.422 52.2344Q381.656 52.2344 379.758 53.9768Q377.859 55.7192 377.859 58.3926Q377.859 59.7769 378.023 62.6172Q378.188 65.4575 378.188 66.8894Q378.188 71.4722 377.531 79.6354Q376.875 87.7986 376.875 92.3813Q376.875 93.718 377.156 96.4152Q377.438 99.1123 377.438 100.449Q377.438 103.17 379.266 104.96Q381.094 106.75 383.906 106.75Q386.719 106.75 388.57 104.949Q390.422 103.148 390.422 100.411Q390.422 99.0662 390.727 96.3529Q391.031 93.6396 391.031 92.2949Q391.031 90.2302 391.293 88.0688Q391.599 85.4277 391.686 83.8428Q393.868 75.9187 397.73 70.7562Q401.593 65.5938 405.608 65.5938Q407.484 65.5938 407.484 69.4844Q407.484 70.3281 407.391 71.6641Q407.297 73 407.297 73.3281Q407.297 74.5469 407.133 77.5Q406.969 80.4531 406.969 81.6719Q406.969 86.2188 407.672 91.375Q408.328 96.25 408.984 101.078ZM1269.94 106.75Q1264.17 106.75 1263.52 101.078Q1262.86 96.25 1262.2 91.375Q1261.5 86.2188 1261.5 81.6719Q1261.5 80.4531 1261.66 77.5Q1261.83 74.5469 1261.83 73.3281Q1261.83 73 1261.92 71.6641Q1262.02 70.3281 1262.02 69.4844Q1262.02 65.5938 1260.14 65.5938Q1256.12 65.5938 1252.26 70.7562Q1248.4 75.9187 1246.22 83.8428Q1246.13 85.4277 1245.82 88.0688Q1245.56 90.2302 1245.56 92.2949Q1245.56 93.6396 1245.26 96.3529Q1244.95 99.0662 1244.95 100.411Q1244.95 103.148 1243.1 104.949Q1241.25 106.75 1238.44 106.75Q1235.63 106.75 1233.8 104.96Q1231.97 103.17 1231.97 100.449Q1231.97 99.1123 1231.69 96.4152Q1231.41 93.718 1231.41 92.3813Q1231.41 87.7986 1232.06 79.6354Q1232.72 71.4722 1232.72 66.8894Q1232.72 65.4575 1232.55 62.6172Q1232.39 59.7769 1232.39 58.3926Q1232.39 55.7192 1234.29 53.9768Q1236.19 52.2344 1238.95 52.2344Q1245.09 52.2344 1245.52 59.5938L1245.56 60.1094Q1252.41 53.2188 1260 53.2188Q1268.86 53.2188 1272.23 60.625Q1274.48 65.5938 1274.48 75.4844L1274.48 78.8125Q1274.44 80.9688 1274.44 81.8594Q1274.44 85.5156 1275.45 91.2813Q1276.45 97.0469 1276.45 100.656Q1276.45 103.281 1274.58 105.016Q1272.7 106.75 1269.94 106.75ZM450.281 106.375Q439.969 106.375 432.984 100.516Q425.625 94.3281 425.625 84.2031Q425.625 74.875 432.234 64.9375Q439.734 53.5938 449.672 53.5938Q454.547 53.5938 461.063 56.2188Q468.984 59.4531 468.984 63.6719Q468.984 65.9688 467.391 67.75Q465.703 69.6719 463.031 69.6719Q461.016 69.6719 458.18 67.4922Q455.344 65.3125 449.672 65.3125Q446.063 65.3125 441.844 72.3906Q437.813 79.2344 437.813 84.2031Q437.813 89.125 441.375 91.9375Q444.75 94.6094 450.281 94.6094Q453.422 94.6094 457.969 92.2188Q462.516 89.8281 463.734 89.8281Q466.266 89.8281 468.07 91.6563Q469.875 93.4844 469.875 95.8281Q469.875 99.4844 461.906 103.141Q454.781 106.375 450.281 106.375ZM369.656 85.7969Q369.703 92.125 369.703 95.2656Q369.703 96.25 369.867 98.1953Q370.031 100.141 370.031 101.125Q370.031 103.75 368.133 105.461Q366.234 107.172 363.469 107.172Q359.578 107.172 357.797 103.656Q351.797 105.859 345.375 105.859Q338.719 105.859 334.172 103.062Q329.063 99.8447 328.078 93.6909Q326.25 82.0352 326.25 72.8499Q326.25 66.7891 327.656 59.0027Q328.594 53.7344 333.984 53.7344Q336.703 53.7344 338.625 55.4332Q340.547 57.1321 340.547 59.7388Q340.547 61.7866 339.867 66.1621Q339.188 70.5376 339.188 72.8184Q339.188 79.3809 339.633 84.2914Q340.078 89.2019 340.969 92.4136Q342.141 92.9255 343.242 93.205Q344.344 93.4844 345.375 93.4844Q350.578 93.4844 356.813 91.9844Q356.813 88.375 356.766 83.7813Q356.672 78.2969 356.672 75.9063Q356.672 66.2969 357.563 59.3125Q358.266 53.7344 363.938 53.7344Q366.703 53.7344 368.672 55.4688Q370.641 57.2031 370.5 59.8281Q369.672 76.427 369.614 76.4243Q369.609 76.4241 369.609 76.3281Q369.609 79.4688 369.656 85.7969ZM1006.22 103.797Q1007.91 102.297 1008.14 99.9531Q1011.75 92.5938 1017.94 78.8125Q1025.53 61.9375 1025.53 60.25Q1025.53 57.6719 1023.49 55.9375Q1021.45 54.2031 1018.83 54.2031Q1014.94 54.2031 1013.02 57.9531Q1010.25 64.4219 1008.94 68.0313Q1004.58 78.8594 1002.09 84.1563Q994.359 63.2969 991.688 57.625Q989.953 53.9219 985.922 53.9219Q983.297 53.9219 981.258 55.6797Q979.219 57.4375 979.219 59.9688Q979.219 61.2344 979.828 62.6406Q990.281 87.7656 995.344 100.422Q997.313 105.297 1002.05 105.297Q1004.53 105.297 1006.22 103.797ZM868.031 76.7969Q874.125 76.7969 874.547 69.625Q874.594 68.875 874.594 66.4844Q874.594 54.0156 865.219 54.0156Q855.094 54.0156 846.797 60.2031Q845.813 54.8594 840.609 54.8594Q837.703 54.8594 836.133 56.6172Q834.563 58.375 834.563 61Q834.563 62.4531 834.469 65.3359Q834.375 68.2188 834.375 69.6719L834.375 100.375Q834.375 103 835.875 104.688Q837.469 106.563 840.375 106.563Q843.188 106.563 845.016 104.805Q846.844 103.047 846.844 100.375L846.797 76.7969Q851.344 67.6563 861.891 65.9688L862.125 70.7031Q862.125 76.7969 868.031 76.7969ZM1116.09 76.7969Q1122.19 76.7969 1122.61 69.625Q1122.66 68.875 1122.66 66.4844Q1122.66 54.0156 1113.28 54.0156Q1103.16 54.0156 1094.86 60.2031Q1093.88 54.8594 1088.67 54.8594Q1085.77 54.8594 1084.2 56.6172Q1082.63 58.375 1082.63 61Q1082.63 62.4531 1082.53 65.3359Q1082.44 68.2188 1082.44 69.6719L1082.44 100.375Q1082.44 103 1083.94 104.688Q1085.53 106.563 1088.44 106.563Q1091.25 106.563 1093.08 104.805Q1094.91 103.047 1094.91 100.375L1094.86 76.7969Q1099.41 67.6563 1109.95 65.9688L1110.19 70.7031Q1110.19 76.7969 1116.09 76.7969ZM132.328 100.234Q139.453 105.578 150.656 105.578Q158.016 105.578 164.578 102.766Q172.406 99.3906 172.406 94.0469Q172.406 89.3125 167.531 89.3125Q165.188 89.3125 161.297 91.6094Q156.938 94.1875 150.656 94.1875Q146.531 94.1875 143.344 92.9688Q140.156 91.75 137.906 89.3125L153.703 82.3281Q161.625 78.8125 164.25 76.9844Q170.016 73 170.016 67.8438Q170.016 60.5313 162.938 57.0625Q157.547 54.4375 149.391 54.4375Q137.625 54.4375 130.688 63.5313Q124.453 71.7344 124.453 83.5938Q124.453 94.3281 132.328 100.234ZM1053.28 105.578Q1042.08 105.578 1034.95 100.234Q1027.08 94.3281 1027.08 83.5938Q1027.08 71.7344 1033.31 63.5313Q1040.25 54.4375 1052.02 54.4375Q1060.17 54.4375 1065.56 57.0625Q1072.64 60.5313 1072.64 67.8438Q1072.64 73 1066.88 76.9844Q1064.25 78.8125 1056.33 82.3281L1040.53 89.3125Q1042.78 91.75 1045.97 92.9688Q1049.16 94.1875 1053.28 94.1875Q1059.56 94.1875 1063.92 91.6094Q1067.81 89.3125 1070.16 89.3125Q1075.03 89.3125 1075.03 94.0469Q1075.03 99.3906 1067.2 102.766Q1060.64 105.578 1053.28 105.578ZM1288.55 100.234Q1295.67 105.578 1306.88 105.578Q1314.23 105.578 1320.8 102.766Q1328.63 99.3906 1328.63 94.0469Q1328.63 89.3125 1323.75 89.3125Q1321.41 89.3125 1317.52 91.6094Q1313.16 94.1875 1306.88 94.1875Q1302.75 94.1875 1299.56 92.9688Q1296.38 91.75 1294.13 89.3125L1309.92 82.3281Q1317.84 78.8125 1320.47 76.9844Q1326.23 73 1326.23 67.8438Q1326.23 60.5313 1319.16 57.0625Q1313.77 54.4375 1305.61 54.4375Q1293.84 54.4375 1286.91 63.5313Q1280.67 71.7344 1280.67 83.5938Q1280.67 94.3281 1288.55 100.234ZM308.813 101.828Q313.5 106 315.656 106Q318.141 106 320.039 104.375Q321.938 102.751 321.938 100.292Q321.938 99.7349 320.109 95.7432Q318.094 91.334 317.953 90.9165Q316.688 87.0178 316.688 78.1541Q316.688 74.3945 316.945 71.5868Q317.203 68.7791 317.672 66.9224Q318.75 65.6692 318.75 63.9985Q318.75 60.0076 311.672 56.9907Q305.813 54.4844 301.359 54.4844Q289.734 54.4844 281.391 62.5234Q273.047 70.5625 273.047 81.8594Q273.047 93.9063 278.695 99.9531Q284.344 106 295.641 106Q297.938 106 301.219 104.945Q304.5 103.891 308.813 101.828ZM618.234 101.828Q622.922 106 625.078 106Q627.563 106 629.461 104.375Q631.359 102.751 631.359 100.292Q631.359 99.7349 629.531 95.7432Q627.516 91.334 627.375 90.9165Q626.109 87.0178 626.109 78.1541Q626.109 74.3945 626.367 71.5868Q626.625 68.7791 627.094 66.9224Q628.172 65.6692 628.172 63.9985Q628.172 60.0076 621.094 56.9907Q615.234 54.4844 610.781 54.4844Q599.156 54.4844 590.813 62.5234Q582.469 70.5625 582.469 81.8594Q582.469 93.9063 588.117 99.9531Q593.766 106 605.063 106Q607.359 106 610.641 104.945Q613.922 103.891 618.234 101.828ZM1176.05 63.8125Q1170.94 74.4531 1159.88 97.2344Q1153.88 109.469 1150.73 117.531Q1149.75 120.438 1147.64 126.156Q1145.95 130.563 1141.64 130.563Q1138.97 130.563 1136.95 128.828Q1134.94 127.094 1134.94 124.469Q1134.94 120.109 1144.88 98.6406Q1139.72 88.4688 1128.52 68.6875Q1127.39 66.9063 1126.22 65.0781Q1124.95 62.9219 1124.95 61.1406Q1124.95 58.6094 1126.97 56.6875Q1128.98 54.7656 1131.61 54.7656Q1134.7 54.7656 1136.44 57.0625Q1143.09 65.9219 1151.95 83.7344Q1156.97 72.625 1158.05 70.3281Q1161.38 63.3438 1164.56 58.0469Q1166.58 54.6719 1170.09 54.6719Q1172.72 54.6719 1174.78 56.4531Q1176.84 58.2344 1176.84 60.8125Q1176.84 62.1719 1176.05 63.8125ZM804.094 106.188Q795.422 106.188 789.188 100.234Q782.344 93.7188 782.016 82.8438Q781.688 72.4844 787.688 64.375Q794.813 54.8125 807.516 54.8125Q816.891 54.8125 822.422 62.3125Q827.391 69.0625 827.391 79.0469Q827.391 89.9219 821.578 97.6094Q815.063 106.188 804.094 106.188ZM1186.92 100.234Q1193.16 106.188 1201.83 106.188Q1212.8 106.188 1219.31 97.6094Q1225.13 89.9219 1225.13 79.0469Q1225.13 69.0625 1220.16 62.3125Q1214.63 54.8125 1205.25 54.8125Q1192.55 54.8125 1185.42 64.375Q1179.42 72.4844 1179.75 82.8438Q1180.08 93.7188 1186.92 100.234ZM671.344 71.0781Q669.797 68.125 667.313 66.6719Q664.828 65.2188 661.406 65.2188Q654.469 65.2188 651 69.2266Q647.531 73.2344 647.531 81.25Q647.531 86.3125 651.281 89.9219Q655.031 93.5313 660 93.5313Q663.609 93.5313 665.484 92.6875Q666.75 92.125 669.797 89.6875Q670.594 89.0313 671.344 88.2344Q671.25 85.9844 671.344 71.0781ZM304.242 70.9141Q304.031 72.8594 304.031 74.3594Q304.031 79.8906 305.438 91.0469Q303.141 92.9219 300.539 93.8828Q297.938 94.8438 295.031 94.8438Q290.531 94.8438 288.281 91.6797Q286.031 88.5156 286.031 82.2344Q286.031 75.6719 290.813 70.6797Q295.594 65.6875 301.969 65.6875Q302.484 65.6875 303.211 65.8984Q303.938 66.1094 304.875 66.5781Q304.453 68.9688 304.242 70.9141ZM613.664 70.9141Q613.453 72.8594 613.453 74.3594Q613.453 79.8906 614.859 91.0469Q612.563 92.9219 609.961 93.8828Q607.359 94.8438 604.453 94.8438Q599.953 94.8438 597.703 91.6797Q595.453 88.5156 595.453 82.2344Q595.453 75.6719 600.234 70.6797Q605.016 65.6875 611.391 65.6875Q611.906 65.6875 612.633 65.8984Q613.359 66.1094 614.297 66.5781Q613.875 68.9688 613.664 70.9141ZM141.938 68.6875Q145.031 65.7813 149.391 65.7813Q154.453 65.7813 157.594 67.5625Q153.844 70 147.516 72.8594Q142.266 75.1094 136.969 77.4063Q138.844 71.5938 141.938 68.6875ZM1052.02 65.7813Q1047.66 65.7813 1044.56 68.6875Q1041.47 71.5938 1039.59 77.4063Q1044.89 75.1094 1050.14 72.8594Q1056.47 70 1060.22 67.5625Q1057.08 65.7813 1052.02 65.7813ZM1298.16 68.6875Q1301.25 65.7813 1305.61 65.7813Q1310.67 65.7813 1313.81 67.5625Q1310.06 70 1303.73 72.8594Q1298.48 75.1094 1293.19 77.4063Q1295.06 71.5938 1298.16 68.6875ZM806.906 67.1875Q801.141 67.1406 797.813 72.4375Q795 76.8906 795 82.8438Q795 88.4688 798.188 91.4688Q800.719 93.8594 804.094 93.8594Q808.172 93.8594 811.172 91.0938Q814.594 87.8594 814.828 82.3281Q815.286 70.9974 810.592 68.1461Q809.033 67.1992 806.906 67.1875ZM1195.55 72.4375Q1198.88 67.1406 1204.64 67.1875Q1206.77 67.1992 1208.33 68.1461Q1213.02 70.9974 1212.56 82.3281Q1212.33 87.8594 1208.91 91.0938Q1205.91 93.8594 1201.83 93.8594Q1198.45 93.8594 1195.92 91.4688Q1192.73 88.4688 1192.73 82.8438Q1192.73 76.8906 1195.55 72.4375Z" />
  </g>
</svg>