<?xml version="1.0" encoding="utf-8"?>
<svg width="375px" height="72px" viewBox="0 0 375 72" version="1.1" xmlns:xlink="http://www.w3.org/1999/xlink" xmlns="http://www.w3.org/2000/svg">
  <g id="LAUNCHPAD" fill="#A235B2">
    <path d="M196.699 58.4648Q197.332 58.5703 197.754 58.5703L198.773 58.5703Q199.16 58.6055 199.793 58.4648Q203.203 58.3242 206.156 57.5508Q209.145 56.8125 209.18 53.7188Q209.215 50.6602 206.262 49.7461L206.156 49.7461Q204.75 49.3242 202.781 50.168Q200.812 51.0117 198.246 51.0117Q192.727 51.0117 188.877 46.6523Q185.027 42.293 185.027 36.1406Q185.062 29.9883 188.895 25.4883Q192.727 21.1289 198.246 21.1289Q200.812 21.0938 202.746 22.0078Q204.961 23.0273 206.227 22.3945Q208.898 21.4805 208.969 18.668Q208.969 15.7148 206.262 14.9414Q203.203 13.9219 200.988 13.7461Q198.773 13.5352 198.246 13.6055Q197.719 13.5352 196.699 13.6758Q186.855 14.5547 180.562 20.6016Q174.27 26.6133 174.27 36.2461Q174.27 45.8789 180.105 51.9258Q185.906 57.9375 196.699 58.4648ZM111.551 19.0547L111.762 40.6758Q111.797 44.0508 109.266 46.582Q106.734 49.0781 103.781 49.0781L103.535 49.0781Q100.547 49.0781 97.9453 46.5469Q95.3438 44.0508 95.3789 40.5L95.5898 19.0547Q95.625 16.9453 94.1133 15.3984Q92.6016 13.8516 90.457 13.8516L90.3164 13.8516Q87.5039 13.8867 85.9922 15.3984Q84.4805 16.875 84.4805 19.0547L84.4805 39.0234Q84.4805 47.0391 90.0703 52.6289Q95.6953 58.2539 103.676 58.2539L104.062 58.2539Q111.832 58.2891 117.246 52.7695Q122.66 47.25 122.66 39.5156L122.66 19.0547Q122.695 16.875 121.184 15.3633Q119.672 13.8516 116.895 13.8516L116.754 13.8516Q114.574 13.8867 113.027 15.3984Q111.516 16.9453 111.551 19.0547ZM225 30.0938L239.766 30.0938L239.766 19.125Q239.766 16.9453 241.277 15.3984Q242.754 13.8516 244.969 13.8516L245.039 13.8516Q247.219 13.8516 248.73 15.3984Q250.277 16.9453 250.277 19.125L250.277 53.1914Q250.277 55.3711 248.73 56.918Q247.184 58.4297 245.039 58.4297L244.969 58.4297Q242.754 58.4297 241.242 56.918Q239.766 55.3711 239.766 53.1914L239.766 38.7422L225 38.7422L225 53.1914Q225 55.3711 223.471 56.9004Q221.941 58.4297 219.727 58.4297L219.621 58.4297Q217.441 58.4297 215.93 56.918Q214.418 55.3711 214.418 53.1914L214.418 19.125Q214.418 16.9453 215.93 15.3984Q217.441 13.8516 219.621 13.8516L219.727 13.8516Q221.906 13.8516 223.453 15.3984Q225 16.9453 225 19.125L225 30.0938ZM347.836 13.8867Q345.445 13.8867 337.887 14.4141Q336.551 14.5547 335.672 15.4336Q334.758 16.418 334.758 17.7539L334.758 54.3164Q334.758 55.7227 335.654 56.6895Q336.551 57.6562 337.957 57.7266Q346.676 58.1484 348.996 58.1484Q361.582 58.1484 368.648 51.9961Q375.188 46.1602 375.188 36.5977Q375.188 25.9805 367.418 19.9336Q359.648 13.8867 347.836 13.8867ZM9.94922 13.9922Q12.6562 13.9922 14.2734 15.5039Q15.8906 17.0156 15.8555 19.2305L15.2578 49.7461L30.375 49.0781Q32.0273 48.9727 33.2578 50.2734Q34.4883 51.5391 34.4531 53.1914L34.4531 53.2617Q34.4531 55.582 33.293 56.8125Q32.0977 58.0078 30.375 58.0078L10.1602 58.0078Q8.12109 58.0078 6.67969 56.6016Q5.27344 55.1953 5.27344 53.1211L5.27344 19.2305Q5.27344 17.1211 6.78516 15.5742Q8.29688 13.9922 9.84375 13.9922L9.94922 13.9922ZM138.305 28.8633L138.938 53.1562Q139.008 55.1602 137.461 56.8125Q135.984 58.3594 133.805 58.3594L133.664 58.3594Q130.957 58.3594 129.445 56.8125Q127.898 55.3359 127.898 53.1562L127.898 19.3359Q127.898 17.2266 129.445 15.6797Q130.852 14.2031 133.031 14.2031L136.125 14.2031Q138.902 14.2031 140.344 16.3828L158.836 43.7695L158.168 19.3359Q158.098 17.2617 159.68 15.75Q161.227 14.2031 163.301 14.2031L163.441 14.2031Q166.219 14.2031 167.73 15.6797Q169.207 17.1562 169.207 19.3359L169.207 50.1328Q169.207 52.1367 166.852 55.8984Q164.848 58.3594 161.086 58.3594L160.875 58.3594Q156.375 58.3594 153.949 54.3867L138.305 28.8633ZM265.957 42.8555L274.078 42.75Q280.863 42.6797 284.484 37.0898Q287.191 32.8711 287.191 28.125Q287.191 23.3438 283.746 19.3359Q280.301 15.3281 275.168 14.5547Q274.219 14.3789 272.953 14.3789L260.824 14.3789Q258.645 14.3789 257.098 15.9258Q255.551 17.4727 255.551 19.5117L255.551 53.1914Q255.551 55.4414 257.098 56.8477Q258.504 58.3945 260.684 58.3242L260.824 58.3242Q262.863 58.3945 264.41 56.8828Q265.957 55.3711 265.957 53.1914L265.957 42.8555ZM66.4453 20.1445L77.6602 51.2227Q78.5742 53.7539 76.9922 55.9336Q75.4102 58.1484 72.7734 58.1484L72 58.1484Q70.3125 58.1484 68.8711 57.0938Q67.4297 56.0742 67.1484 54.5273L65.3203 45.8086L51.9961 45.8086L50.3086 54.4219Q49.9922 56.1094 48.5156 57.1289Q47.0039 58.1484 45 58.1484L44.2266 58.1484Q41.5898 58.1484 40.043 55.9336Q38.4961 53.7539 39.3398 51.2227L49.9922 20.2852Q50.9062 17.6133 53.1562 16.0312Q55.4062 14.4492 57.7266 14.4492L58.7109 14.4492Q60.9961 14.4492 63.2461 16.0312Q65.5312 17.6133 66.4453 20.1445ZM316.723 20.1445L327.938 51.2227Q328.852 53.7539 327.27 55.9336Q325.688 58.1484 323.051 58.1484L322.277 58.1484Q320.59 58.1484 319.148 57.0938Q317.707 56.0742 317.426 54.5273L315.598 45.8086L302.273 45.8086L300.586 54.4219Q300.27 56.1094 298.793 57.1289Q297.281 58.1484 295.277 58.1484L294.504 58.1484Q291.867 58.1484 290.32 55.9336Q288.773 53.7539 289.617 51.2227L300.27 20.2852Q301.184 17.6133 303.434 16.0312Q305.684 14.4492 308.004 14.4492L308.988 14.4492Q311.273 14.4492 313.523 16.0312Q315.809 17.6133 316.723 20.1445ZM265.957 37.8633L265.957 18.3516L271.02 18.3516Q273.621 18.3516 275.625 20.4961Q277.629 22.6406 277.629 28.125Q277.629 33.6445 275.625 35.7539Q273.656 37.8633 271.02 37.8633L265.957 37.8633ZM347.766 53.3672L347.73 53.3672Q346.324 53.3672 345.305 52.3477Q344.32 51.3281 344.32 49.8867L344.32 22.4297Q344.32 20.918 345.305 19.9336Q346.324 18.9492 347.73 18.9492L347.766 18.9492Q354.516 18.9492 359.262 23.3086Q363.586 27.2812 363.586 33.8203Q363.586 45.0703 359.262 49.0078Q354.516 53.3672 347.766 53.3672ZM52.6289 39.3398L64.0547 39.3398L58.3594 23.5547L52.6289 39.3398ZM302.906 39.3398L314.332 39.3398L308.637 23.5547L302.906 39.3398Z" />
  </g>
</svg>