<?xml version="1.0" encoding="utf-8"?>
<svg width="288px" height="96px" viewBox="0 0 288 96" version="1.1" xmlns:xlink="http://www.w3.org/1999/xlink" xmlns="http://www.w3.org/2000/svg">
  <g id="ZSALES" fill="#FFFFFF">
    <path d="M102.53 35.2266Q105.412 35.2266 106.327 36.8672Q107.241 38.4844 107.241 41.5547L107.241 49.9922Q107.241 56.4375 102.53 56.4375Q101.756 56.4375 101.123 56.2969Q100.514 56.1562 100.069 55.9219Q99.6469 55.6641 99.2484 55.2422Q98.8734 54.7969 98.6859 54.5156Q98.4984 54.2344 98.3109 53.6719Q98.1234 53.0859 98.0531 52.8516Q98.0062 52.5938 97.8656 51.9844Q97.725 51.3516 97.725 51.2578Q97.0453 48.375 93.9281 46.5938Q90.8109 44.8125 86.2875 44.8125Q81.7875 44.8125 78.6234 46.9453Q75.4594 49.0547 75.4594 52.125Q75.4594 55.3828 78.6234 57.1641Q81.7875 58.9219 86.0062 59.4609Q90.2484 59.9766 95.4281 61.3828Q100.608 62.7656 103.584 65.1797Q109.256 69.6797 109.256 77.1797Q109.256 84.6562 103.209 89.2734Q97.1625 93.8672 87.2719 93.8672Q79.3031 93.8672 72.2953 90.1406Q70.3734 92.4375 68.4515 92.4375Q63.5531 92.4375 63.5531 86.1094L63.5531 79.7578Q63.5531 76.5938 64.6078 75.0234Q65.6625 73.4297 68.3578 73.4297Q69.225 73.4297 69.9281 73.6172Q70.6547 73.8047 71.1234 74.2031Q71.6156 74.5781 71.9437 74.9297Q72.2953 75.2578 72.5297 75.8438Q72.764 76.4062 72.8578 76.6875Q72.9515 76.9688 73.0922 77.4609Q73.2562 77.9297 73.2562 78.0469Q73.9125 80.625 77.85 82.4531Q81.7875 84.2812 86.5922 84.2812Q91.9594 84.2812 95.6156 82.1719Q99.2719 80.0625 99.2719 76.9688Q99.2719 74.1094 96.4359 72.375Q93.6 70.6406 89.8969 70.0781Q86.2172 69.4922 81.2719 68.3438Q76.3265 67.1953 73.35 65.5547Q69.6937 63.4453 67.5844 59.9062Q65.475 56.3438 65.475 52.2188Q65.475 44.9062 71.4281 40.0781Q77.3812 35.2266 86.3109 35.2266Q93.6937 35.2266 98.7797 38.3906Q99.5531 36.5625 100.303 35.9062Q101.077 35.2266 102.53 35.2266ZM18.8203 52.875Q18.8203 59.2266 14.0156 59.2266Q9.21094 59.2266 9.21094 52.875L9.21094 36.5625L48.375 36.5625L48.375 45.8672L19.2891 82.9219L40.9922 82.9219L40.9922 76.0078Q40.9922 72.9375 42 71.3203Q43.0078 69.6797 45.7969 69.6797Q48.5859 69.6797 49.5938 71.3203Q50.6016 72.9375 50.6016 76.0078L50.6016 92.5312L7.00781 92.5312L7.00781 82.9219L36 46.1719L18.8203 46.1719L18.8203 52.875ZM150.427 83.9297Q148.809 84.9375 148.809 87.7266Q148.809 92.5312 155.137 92.5312L168.473 92.5312Q174.825 92.5312 174.825 87.7266Q174.825 82.9219 168.286 82.9219L149.184 36.5625L128.442 36.5625Q125.372 36.5625 123.684 37.5234Q122.02 38.4844 122.02 41.3672Q122.02 46.1719 128.442 46.1719L134.489 46.1719L119.606 82.9219Q116.536 82.9219 114.872 83.8828Q113.184 84.8438 113.184 87.7266Q113.184 92.5312 119.512 92.5312L132.286 92.5312Q138.614 92.5312 138.614 87.7266Q138.614 82.9219 132.286 82.9219L130.083 82.9219L132.286 77.3672L155.137 77.3672L157.341 82.9219L155.137 82.9219Q152.067 82.9219 150.427 83.9297ZM222.816 67.6641Q225.605 67.6641 226.612 69.3047Q227.62 70.9219 227.62 74.1094L227.62 92.5312L182.316 92.5312Q175.964 92.5312 175.964 87.7266Q175.964 84.9375 177.581 83.9297Q179.222 82.9219 182.316 82.9219L187.776 82.9219L187.776 46.1719L182.316 46.1719Q175.964 46.1719 175.964 41.3672Q175.964 38.5781 177.581 37.5703Q179.222 36.5625 182.316 36.5625L202.847 36.5625Q209.175 36.5625 209.175 41.3672Q209.175 46.1719 202.847 46.1719L197.386 46.1719L197.386 82.9219L218.011 82.9219L218.011 74.1094Q218.011 67.6641 222.816 67.6641ZM278.4 71.5078Q273.595 71.5078 273.595 77.9297L273.595 82.9219L249.033 82.9219L249.033 69.2109L257.189 69.2109L257.189 69.8672Q257.189 76.2188 261.994 76.2188Q266.681 76.2188 266.681 69.8672L266.681 59.0156Q266.681 52.5938 261.876 52.5938Q257.189 52.5938 257.189 59.0156L257.189 59.6953L249.033 59.6953L249.033 46.1719L271.486 46.1719L271.486 50.9531Q271.486 57.3984 276.291 57.3984Q281.095 57.3984 281.095 50.9531L281.095 36.5625L237.994 36.5625Q234.923 36.5625 233.283 37.5703Q231.642 38.5781 231.642 41.3672Q231.642 46.1719 237.994 46.1719L239.423 46.1719L239.423 82.9219L237.994 82.9219Q231.642 82.9219 231.642 87.7266Q231.642 92.5312 237.994 92.5312L283.205 92.5312L283.205 77.9297Q283.205 71.5078 278.4 71.5078ZM143.723 49.3359L151.2 67.7578L136.13 67.7578L143.723 49.3359Z" />
  </g>
</svg>