<svg width="128" height="128" viewBox="0 0 128 128" fill="none" xmlns="http://www.w3.org/2000/svg">
<path d="M128 0H0V128H128V0Z" fill="#091111"/>
<g filter="url(#filter0_d_668_1922)">
<path d="M84.0723 88.082H68.0166V96.1047H84.0723V88.082Z" fill="#00FFFF"/>
<path d="M59.9834 88.082H43.9277V96.1047H59.9834V88.082Z" fill="#00FFFF"/>
<path d="M100.128 64.0038V55.9708H92.1053V47.9481H84.0826V39.915H76.0496V47.9481H51.9712V39.915H43.9485V47.9481H35.9155V55.9708H27.8928V64.0038H19.8701V88.0822H27.8928V72.0265H35.9155V88.0822H43.9485V80.0491H84.0826V88.0822H92.1053V72.0265H100.128V88.0822H108.161V64.0038H100.128ZM51.9608 64.0038H43.9381V55.9708H51.9608V64.0038ZM84.0722 64.0038H76.0392V55.9708H84.0722V64.0038Z" fill="#00FFFF"/>
<path d="M92.0949 31.8926H84.0723V39.9152H92.0949V31.8926Z" fill="#00FFFF"/>
<path d="M43.9383 31.8926H35.9053V39.9152H43.9383V31.8926Z" fill="#00FFFF"/>
</g>
<defs>
<filter id="filter0_d_668_1922" x="11.8701" y="23.8926" width="104.291" height="80.2119" filterUnits="userSpaceOnUse" color-interpolation-filters="sRGB">
<feFlood flood-opacity="0" result="BackgroundImageFix"/>
<feColorMatrix in="SourceAlpha" type="matrix" values="0 0 0 0 0 0 0 0 0 0 0 0 0 0 0 0 0 0 127 0" result="hardAlpha"/>
<feOffset/>
<feGaussianBlur stdDeviation="4"/>
<feComposite in2="hardAlpha" operator="out"/>
<feColorMatrix type="matrix" values="0 0 0 0 0 0 0 0 0 1 0 0 0 0 1 0 0 0 0.5 0"/>
<feBlend mode="normal" in2="BackgroundImageFix" result="effect1_dropShadow_668_1922"/>
<feBlend mode="normal" in="SourceGraphic" in2="effect1_dropShadow_668_1922" result="shape"/>
</filter>
</defs>
</svg>
