<svg width="129" height="128" viewBox="0 0 129 128" fill="none" xmlns="http://www.w3.org/2000/svg">
<path d="M128.53 0H0.529785V128H128.53V0Z" fill="#110911"/>
<g filter="url(#filter0_d_668_1930)">
<path d="M36.4346 84.0723H20.3789V92.0949H36.4346V84.0723Z" fill="#FF00FF"/>
<path d="M108.681 84.0723H92.625V92.0949H108.681V84.0723Z" fill="#FF00FF"/>
<path d="M68.5457 76.0391H60.5127V84.0721H68.5457V76.0391Z" fill="#FF00FF"/>
<path d="M108.68 68.0167V51.961H100.647V43.9383H76.5687V35.9053H52.4903V43.9383H28.4119V51.961H20.3789V68.0167H44.4573V76.0394H36.4346V84.0724H52.4903V76.0394H60.513V68.0167H68.546V76.0394H76.5687V84.0724H92.6244V76.0394H84.5914V68.0167H108.68V68.0167ZM60.513 59.994H44.4573V51.961H60.513V59.994ZM68.546 59.994V51.961H84.6018V59.994H68.546Z" fill="#FF00FF"/>
</g>
<defs>
<filter id="filter0_d_668_1930" x="12.3789" y="27.9053" width="104.302" height="72.1895" filterUnits="userSpaceOnUse" color-interpolation-filters="sRGB">
<feFlood flood-opacity="0" result="BackgroundImageFix"/>
<feColorMatrix in="SourceAlpha" type="matrix" values="0 0 0 0 0 0 0 0 0 0 0 0 0 0 0 0 0 0 127 0" result="hardAlpha"/>
<feOffset/>
<feGaussianBlur stdDeviation="4"/>
<feComposite in2="hardAlpha" operator="out"/>
<feColorMatrix type="matrix" values="0 0 0 0 1 0 0 0 0 0 0 0 0 0 1 0 0 0 0.5 0"/>
<feBlend mode="normal" in2="BackgroundImageFix" result="effect1_dropShadow_668_1930"/>
<feBlend mode="normal" in="SourceGraphic" in2="effect1_dropShadow_668_1930" result="shape"/>
</filter>
</defs>
</svg>
