<svg xmlns="http://www.w3.org/2000/svg" xmlns:xlink="http://www.w3.org/1999/xlink" viewBox="0 0 1400 1374"><defs><style>.a{isolation:isolate;}.b,.t{fill:#414042;}.c{fill:#84152a;}.d{fill:#fff;}.e{fill:url(#a);}.f{fill:#e6e7e8;}.f,.g,.j,.r{mix-blend-mode:multiply;}.g{fill:url(#b);}.h{fill:#dc6762;}.i{fill:url(#c);}.j{fill:#d1d3d4;}.k{fill:url(#d);}.l{fill:url(#e);}.m,.n{stroke:#000;stroke-miterlimit:10;}.m{fill:url(#f);}.n{fill:url(#g);}.o{fill:url(#h);}.p{fill:url(#i);}.q{fill:url(#j);}.r{fill:#f1f2f2;}.s{fill:url(#k);}.t{mix-blend-mode:screen;}</style><linearGradient id="a" x1="919.77" y1="222.7" x2="634.74" y2="507.73" gradientUnits="userSpaceOnUse"><stop offset="0" stop-color="#9e7e63"/><stop offset="1" stop-color="#662d91"/></linearGradient><linearGradient id="b" x1="708.96" y1="526.78" x2="723.08" y2="526.78" gradientUnits="userSpaceOnUse"><stop offset="0" stop-color="#fff"/><stop offset="1" stop-color="#231f20"/></linearGradient><linearGradient id="c" x1="0.5" y1="1148.15" x2="609.47" y2="1148.15" gradientUnits="userSpaceOnUse"><stop offset="0" stop-color="#744285"/><stop offset="1" stop-color="#84152a"/></linearGradient><linearGradient id="d" x1="407.84" y1="578.63" x2="780.3" y2="578.63" gradientUnits="userSpaceOnUse"><stop offset="0" stop-color="#f38c87"/><stop offset="1" stop-color="#f4cdc8"/></linearGradient><linearGradient id="e" x1="481.48" y1="534.92" x2="722.29" y2="534.92" gradientUnits="userSpaceOnUse"><stop offset="0" stop-color="#be1e2d"/><stop offset="1" stop-color="#f15a29"/></linearGradient><linearGradient id="f" x1="70.94" y1="712.59" x2="507.96" y2="712.59" gradientUnits="userSpaceOnUse"><stop offset="0" stop-color="#35d07f"/><stop offset="1" stop-color="#662d91"/></linearGradient><linearGradient id="g" x1="82.91" y1="448.01" x2="265.8" y2="448.01" xlink:href="#f"/><linearGradient id="h" x1="477" y1="361.55" x2="516.25" y2="361.55" xlink:href="#d"/><linearGradient id="i" x1="363.73" y1="364.38" x2="507.96" y2="364.38" xlink:href="#d"/><linearGradient id="j" x1="232.21" y1="262.34" x2="583.48" y2="262.34" gradientUnits="userSpaceOnUse"><stop offset="0" stop-color="#744285"/><stop offset="1"/></linearGradient><linearGradient id="k" x1="104.85" y1="433.65" x2="546.05" y2="433.65" xlink:href="#d"/></defs><title>pic1</title><g class="a"><ellipse class="b" cx="1084.58" cy="603.77" rx="315.42" ry="329.61"/><ellipse class="c" cx="1072.28" cy="580.51" rx="315.42" ry="329.61"/><ellipse class="d" cx="1067.5" cy="577.24" rx="253.22" ry="272.56"/><ellipse class="c" cx="1069.38" cy="575.79" rx="196.32" ry="207.14"/><ellipse class="d" cx="1068.86" cy="578.3" rx="122" ry="126.13"/><ellipse class="c" cx="1068.86" cy="575.79" rx="61.51" ry="68.68"/><path class="e" d="M740.17,574.74c-61.7,335.5-206.76,482.74-206.76,482.74l-9.34-15.24c16.44-10,35.15-44.45,56-102.75h0c27.94-78.14,59.73-199,95.07-360.86,49.28-225.7,14.34-442.43-1.72-520.54-4-19.68-6.9-30.56-6.9-30.56L678.85,23S801.87,239.25,740.17,574.74Z" transform="translate(-0.5 -23)"/><path class="f" d="M712.72,561.51c-32.3,175.61-87.43,299.64-132.64,378,27.94-78.14,59.73-199,95.07-360.86,49.28-225.7,14.34-442.43-1.72-520.54C705.64,139.61,757.22,319.55,712.72,561.51Z" transform="translate(-0.5 -23)"/><ellipse class="g" cx="716.02" cy="526.78" rx="7.06" ry="9.79"/><polygon class="h" points="311.74 416.98 413.91 460.12 387.37 341.38 362.82 328.08 311.74 416.98"/><path class="i" d="M609.47,1397H398.84l-86.6-179.91-80,179.91H1.74c-13.27-186,84.59-497.71,84.59-497.71l410.29,28.93,16.74,69.52Z" transform="translate(-0.5 -23)"/><path class="j" d="M504.88,962.52c-15.78,10.44-40.31,26.15-71.1,43.61-116,65.74-173.72,73-219.39,102.48C164.3,1140.94,107.29,1213.87,89.32,1397H1.74c-13.27-186,84.59-497.71,84.59-497.71l410.29,28.93Z" transform="translate(-0.5 -23)"/><path class="k" d="M432.32,612.74c3.32.81,153.26,38.91,191.74,32.56s39.81-16.23,59.05-28.93S713,588.51,728.23,591.5c28.47,5.59,46.48-2.12,51.08-13.23,1.71-4.13,1.23-10.14-1.6-13.35s-6.08-1.6-15-2.82c-6.18-.84-12.06-2.7-23.83-6.41-4.62-1.46-6.74-2.26-10-1.86-4.51.56-6.18,2.79-11.41,4.36a31.1,31.1,0,0,1-11.06,1c-8.53-.28-17.39-3.49-33.19-10.57-16.54-7.42-23.12-10.85-30.12-7.75a11.72,11.72,0,0,0-4.38,3.51c-8,9.88-20.57,17.64-20.57,17.64l-210.25-50.8Z" transform="translate(-0.5 -23)"/><path class="l" d="M523.76,516.89c4.77,0,193.85,24,193.85,24a9.33,9.33,0,0,1,4,4.41c2.2,5.19-1.47,10.26-1.66,10.51a10.74,10.74,0,0,1-7,4.13L481.48,533.2l6-23.28Z" transform="translate(-0.5 -23)"/><path class="m" d="M508,937.4s-4.46,18.08-30.29,36.05c-20.93,14.57-55.91,29.06-113.94,33.79C234.1,1017.83,75.38,924.69,71.4,918.34s19.28-371.8,19.28-371.8l9.13-8.36L232.2,417.1l28.65,12.45,59.66,25.92L435.85,505.6Z" transform="translate(-0.5 -23)"/><path class="f" d="M421.77,973.06a150.29,150.29,0,0,1-25.44-4.15c.88-12.13-1.78-30.66-3.22-41.11C373.75,786.93,391.93,767.08,363.83,602c0,0-24.09-107.07-37.68-135.32-1.87-3.89-3.91-7.49-5.64-11.24a46.18,46.18,0,0,1-3-8.27c-.77-3.05,1.4-7.62-.19-10.45-3.33-6-4.9-4.84-11.12-8.52-14.51-8.58-31.81-13.81-46.89-22.13.54,7.16,1.2,15.14,1.56,23.45,1.12,25.64-.58,54.35-17.31,71.09-8.81,8.82-20.73,7.15-32.19,9.71-16.16,3.6-28.67,11.82-43.81,18.18-18.75,7.89-46,16.15-67.73,9.65l-9.13,8.36S67.42,912,71.4,918.34s162.7,99.49,292.33,88.9c58-4.73,93-19.22,113.94-33.79A439,439,0,0,1,421.77,973.06Zm-73.63-15c-27.3-3-54.33-7.77-80-18.62-29.85-12.6-54.32-28.5-69.75-58.86-11.95-23.52-21.06-47.47-30.79-71.91-10.74-27-14.8-53.62-23.85-80.83-5.69-17.14-10.87-34.35-17.74-51-8.9-21.54-28.95-54.9-28.79-78.64,32.16,13.39,74.34,35.65,108.87,24.84,18.07-5.66,35.62-15,50.1-28.73,8.61-8.15,18.09-17.65,26.17-26.51,6.1-6.69,9.93-17.18,17.9-20.61,18.84,42.95,41.92,112.3,39.08,198.21a440.41,440.41,0,0,1-8.51,72.65l1.32,76.27,22.56,40.93c4.89,8.63,10.89,18.75,16.79,27.24A178,178,0,0,0,348.14,958.07Z" transform="translate(-0.5 -23)"/><path class="n" d="M265.8,503.48S239.26,589,191.49,591.37s-99.52-30-99.52-30c0-4.49-4.63-43-7.27-88.89v0C83,442.67,82.12,409.8,83.87,381c2.34-38.47,9.36-69.68,25.35-76.48,0,0,144.86,68.17,146.06,71.93.88,2.78,6.19,70.72,8.91,106.07C265.16,495,265.8,503.48,265.8,503.48Z" transform="translate(-0.5 -23)"/><path class="o" d="M497.79,326.15s25.87,53.62,16.36,61.85S477,396.94,477,396.94Z" transform="translate(-0.5 -23)"/><path class="p" d="M508,265.71s-17.25,155.93-46.44,187-39.81,38.81-58.39,21.17-17.25-99.43-17.25-99.43S366,373.66,364,339.09s7.92-69.15,21.87-65.62,21.25,26.81,21.25,26.81S439,253,453.55,246.66,508,265.71,508,265.71Z" transform="translate(-0.5 -23)"/><path class="q" d="M580,241.14c-10.08,18.4-38,37.94-72.05,38-24,0-34.24-9.37-50.42-.53-9.09,5-14.52,12.64-19.41,19.57A105.28,105.28,0,0,0,420.71,341l-6.3-1.24h0c-12.37-54.39-21.89-66.47-28.55-66.32-6.06.14-11.78,10.44-14.41,15.17a50.74,50.74,0,0,0-6,28.05q.75,19.05,1.49,38.1L321.53,430.1l-49.1-8.47c-11.94-21.16-55.73-153.8-34.5-201.78,13.22-29.88,25.93-80.54,61.19-107.37,21.36-16.25,51-23.75,94.06-12.57C507.3,129.54,523.22,218.44,567,218.44,584.39,218.44,586.72,228.89,580,241.14Z" transform="translate(-0.5 -23)"/><path class="r" d="M264.19,482.51,126.47,430.1,84.7,472.44v0L83.87,381c2.34-38.47,9.36-69.68,25.35-76.48,0,0,144.86,68.17,146.06,71.93C256.16,379.22,261.47,447.16,264.19,482.51Z" transform="translate(-0.5 -23)"/><path class="d" d="M531.34,1040.46,474.45,516.4l.25-.6L674.78,34.91a2.82,2.82,0,0,1,2.19-.68,3.17,3.17,0,0,1,2.41,2.85L479.55,517.37l58.8,521.71a4.1,4.1,0,0,1-3.47,3.15A4.18,4.18,0,0,1,531.34,1040.46Z" transform="translate(-0.5 -23)"/><path class="s" d="M109.22,304.51s-19.9,59.27,25.21,98.78,208.33,90.31,236.19,114.3c38.66,33.28,45.53,71,79.62,73.38,36.87,2.53,75.71-39,71.64-53.28-1-3.41-5.38-8.7-3.55-14.44a12,12,0,0,1,5.43-6.36l22.29,2.53c-23.25-27.32-45.1-42-58.6-49.72-14-7.93-21.4-11.74-31.62-11-14.72,1-21.41,9.69-35.42,7.49-3.73-.58-7.55-2.48-12.57-6.42-16.11-12.67-165.93-183.45-207.06-183.45S123.81,273.47,109.22,304.51Z" transform="translate(-0.5 -23)"/><path class="t" d="M580,241.14c-19.28-.21-44.92-19.13-63.76-30.82-23.88-14.81-91.56-86.78-135.35-95.24-20.13-3.9-52.68-3.71-81.78-2.6,21.36-16.25,51-23.75,94.06-12.57C507.3,129.54,523.22,218.44,567,218.44,584.39,218.44,586.72,228.89,580,241.14Z" transform="translate(-0.5 -23)"/></g></svg>