<svg xmlns="http://www.w3.org/2000/svg" height="800" width="1200" viewBox="-162 -67.65 1404 405.9"><path d="M306.2 155.7c0 1.9-1.6 3.5-3.6 3.5h-66.3c1.7 16.4 14 31.4 31.4 31.4 11.9 0 20.7-4.5 27.3-14 .7-1 1.7-1.7 2.9-1.7 1.9 0 3.3 1.4 3.3 3.3 0 .7-.2 1.2-.5 1.7-6.7 11.6-20 17.3-33 17.3-22.3 0-38.3-20-38.3-41.3 0-21.4 15.9-41.3 38.3-41.3 22.3 0 38.4 19.8 38.5 41.1zm-7.1-3.1c-1.4-16.4-14-31.4-31.4-31.4s-29.7 15-31.4 31.4zm87.6-36.4c1.9 0 3.3 1.7 3.3 3.3 0 1.9-1.4 3.3-3.3 3.3h-17.8v69.9c0 1.7-1.4 3.3-3.3 3.3s-3.3-1.7-3.3-3.3v-69.9h-17.1c-1.9 0-3.3-1.4-3.3-3.3 0-1.7 1.4-3.3 3.3-3.3h17.1V90.7c0-1.7 1.3-3.3 3-3.5 2.1-.2 3.7 1.3 3.7 3.3v25.7zM495.3 150v42.3c0 1.9-1.7 3.3-3.3 3.3-1.9 0-3.3-1.4-3.3-3.3V150c0-14.3-8.1-28.5-24-28.5-20.4 0-29.2 17.8-28 36.1 0 .5.2 2.6.2 2.9v31.7c0 1.7-1.3 3.3-3 3.5-2.1.2-3.7-1.3-3.7-3.3V53.3c0-1.7 1.4-3.3 3.3-3.3s3.3 1.7 3.3 3.3v78.6c5.7-10.2 15.9-17.1 27.8-17.1 19.6 0 30.7 17.1 30.7 35.2zm119.1 5.7c0 1.9-1.6 3.5-3.6 3.5h-66.3c1.7 16.4 14 31.4 31.4 31.4 11.9 0 20.7-4.5 27.3-14 .7-1 1.7-1.7 2.9-1.7 1.9 0 3.3 1.4 3.3 3.3 0 .7-.2 1.2-.5 1.7-6.7 11.6-20 17.3-33 17.3-22.3 0-38.3-20-38.3-41.3 0-21.4 15.9-41.3 38.3-41.3 22.2 0 38.3 19.8 38.5 41.1zm-7.2-3.1c-1.4-16.4-14-31.4-31.4-31.4-17.3 0-29.7 15-31.4 31.4zm88.6-33.3c0 2.1-1.2 3.3-3.1 3.6-19.5 2.9-28.3 18.8-28.3 37.3v31.7c0 1.7-1.3 3.3-3 3.5-2.1.2-3.7-1.3-3.7-3.3v-72.3c0-1.7 1.3-3.3 3-3.5 2.1-.2 3.7 1.3 3.7 3.3v14.7c5.5-9.3 16.4-18.1 27.8-18.1 1.7 0 3.6 1.2 3.6 3.1zm109.1 36.4c0 1.9-1.6 3.5-3.6 3.5H735c1.7 16.4 14 31.4 31.4 31.4 11.9 0 20.7-4.5 27.3-14 .7-1 1.7-1.7 2.9-1.7 1.9 0 3.3 1.4 3.3 3.3 0 .7-.2 1.2-.5 1.7-6.7 11.6-20 17.3-33 17.3-22.3 0-38.3-20-38.3-41.3 0-21.4 15.9-41.3 38.3-41.3 22.3 0 38.4 19.8 38.5 41.1zm-7.1-3.1c-1.4-16.4-14-31.4-31.4-31.4s-29.7 15-31.4 31.4zm114.3-32.5v72.6c0 1.9-1.7 3.3-3.3 3.3-1.9 0-3.3-1.4-3.3-3.3v-13.8c-5.5 10.9-15.2 18.8-27.6 18.8-19.7 0-30.6-17.1-30.6-35.2V120c0-1.7 1.4-3.3 3.3-3.3s3.3 1.7 3.3 3.3v42.5c0 14.3 8.1 28.5 24 28.5 22.3 0 27.6-20.9 27.6-44v-27.1c0-2 2.1-4 4.5-3.1 1.2.6 2.1 1.9 2.1 3.3zm167.9 29.6v42.5c0 1.9-1.7 3.3-3.3 3.3-1.9 0-3.3-1.4-3.3-3.3v-42.5c0-14.3-8.1-28.3-24-28.3-20 0-27.6 21.4-27.6 38v32.8c0 1.9-1.7 3.3-3.3 3.3-1.9 0-3.3-1.4-3.3-3.3v-42.5c0-14.3-8.1-28.3-24-28.3-20.2 0-28.5 15.9-27.8 37.1 0 .5.2 1.4 0 1.7v31.9c0 1.7-1.3 3.3-3 3.5-2.1.2-3.7-1.3-3.7-3.3v-72.5c0-1.7 1.3-3.3 3-3.5 2.1-.2 3.7 1.3 3.7 3.3v12.1c5.7-10.2 15.9-16.9 27.8-16.9 13.5 0 24 8.6 28.3 21.1 5.5-12.4 16.2-21.1 29.9-21.1 19.5 0 30.6 16.9 30.6 34.9z" fill="#3B3B3B"/><path opacity=".6" d="M83 186.9l83.1-49.1L83 100.1 0 137.8z"/><path opacity=".45" d="M83 100.1V0L0 137.8l83 49.1z"/><path opacity=".8" d="M83 186.9l83.1-49.1L83 0v100.1z"/><path opacity=".45" d="M83 202.6l-83-49 83 117z"/><path opacity=".8" d="M166.1 153.6l-83.1 49v68z"/></svg>