<svg width="87" height="25" viewBox="0 0 87 25" fill="none" xmlns="http://www.w3.org/2000/svg">
<g clip-path="url(#clip0_284_2017)">
<path d="M53.2799 22.9395L44.9111 2.63789C44.8452 2.45288 44.8103 2.25826 44.8079 2.06189C44.7915 1.64534 44.9393 1.23901 45.2194 0.930289C45.3629 0.783269 45.5362 0.668655 45.7277 0.594143C45.9191 0.519632 46.1243 0.486949 46.3295 0.498289C46.6403 0.502426 46.9423 0.603066 47.1935 0.786289C47.4581 0.981418 47.6654 1.24422 47.7935 1.54709L55.7519 21.4131L63.7055 1.54829C63.8335 1.24539 64.0407 0.982575 64.3055 0.787489C64.5567 0.604266 64.8586 0.503626 65.1694 0.499489C65.3746 0.488149 65.5798 0.520832 65.7712 0.595343C65.9627 0.669855 66.136 0.784469 66.2795 0.931489C66.5596 1.24021 66.7074 1.64654 66.6911 2.06309C66.6886 2.25946 66.6537 2.45408 66.5879 2.63909L58.2155 22.9395C58.0717 23.3855 57.7923 23.7755 57.4163 24.0551C57.0403 24.3348 56.5864 24.4901 56.1178 24.4995H55.3775C54.909 24.4901 54.455 24.3348 54.079 24.0551C53.703 23.7755 53.4236 23.3855 53.2799 22.9395Z" fill="url(#paint0_linear_284_2017)"/>
<path d="M70.245 23.8817C70.103 23.7388 69.9915 23.5686 69.9172 23.3813C69.843 23.194 69.8075 22.9935 69.8131 22.7921V2.22293C69.8056 1.81054 69.9608 1.4118 70.245 1.11293C70.3842 0.964679 70.5533 0.847847 70.7413 0.770242C70.9292 0.692637 71.1314 0.65605 71.3346 0.662927H84.933C85.1253 0.657502 85.3166 0.69324 85.494 0.767745C85.6713 0.84225 85.8307 0.953802 85.9615 1.09493C86.101 1.22693 86.2114 1.38656 86.2858 1.56362C86.3602 1.74068 86.3968 1.9313 86.3934 2.12333C86.3988 2.31261 86.3629 2.50079 86.2883 2.67484C86.2137 2.84888 86.1022 3.00464 85.9615 3.13133C85.8257 3.26443 85.6649 3.36932 85.4884 3.43997C85.3119 3.51061 85.1231 3.54561 84.933 3.54293H72.8982V11.0285H83.715C83.9073 11.0232 84.0985 11.059 84.2759 11.1335C84.4533 11.208 84.6127 11.3195 84.7434 11.4605C84.8813 11.5938 84.9907 11.7536 85.065 11.9304C85.1392 12.1072 85.1768 12.2972 85.1755 12.4889C85.1808 12.6782 85.1449 12.8664 85.0703 13.0404C84.9957 13.2145 84.8842 13.3702 84.7434 13.4969C84.6077 13.63 84.4469 13.7349 84.2704 13.8056C84.0939 13.8762 83.9051 13.9112 83.715 13.9085H72.8982V21.4361H84.933C85.1253 21.4307 85.3166 21.4664 85.494 21.5409C85.6713 21.6155 85.8307 21.727 85.9615 21.8681C86.101 22.0001 86.2114 22.1598 86.2858 22.3368C86.3602 22.5139 86.3968 22.7045 86.3934 22.8965C86.3988 23.0858 86.3629 23.274 86.2883 23.448C86.2137 23.6221 86.1022 23.7778 85.9615 23.9045C85.8257 24.0376 85.6649 24.1425 85.4884 24.2132C85.3119 24.2838 85.1231 24.3188 84.933 24.3161H71.3346C71.132 24.3308 70.9287 24.2993 70.7399 24.2241C70.5512 24.1488 70.382 24.0318 70.245 23.8817Z" fill="url(#paint1_linear_284_2017)"/>
<path d="M46.8022 22.3616L38.4334 2.06C38.2896 1.614 38.0102 1.22399 37.6342 0.944348C37.2582 0.664705 36.8043 0.509369 36.3358 0.5L35.5954 0.5C35.1269 0.509369 34.673 0.664705 34.2969 0.944348C33.9209 1.22399 33.6415 1.614 33.4978 2.06L29.8582 10.9028H27.0982C26.7015 10.9072 26.3226 11.0675 26.0432 11.3491C25.7639 11.6307 25.6066 12.011 25.6054 12.4076V12.428C25.6076 12.8255 25.7664 13.206 26.0475 13.4871C26.3285 13.7681 26.7091 13.927 27.1066 13.9292H28.5874L25.1074 22.3616C25.0415 22.5466 25.0066 22.7412 25.0042 22.9376C24.9877 23.3542 25.1355 23.7605 25.4158 24.0692C25.5593 24.2162 25.7326 24.3308 25.924 24.4053C26.1155 24.4799 26.3206 24.5125 26.5258 24.5012C26.8367 24.4971 27.1386 24.3964 27.3898 24.2132C27.6545 24.0181 27.8618 23.7553 27.9898 23.4524L31.8142 13.9304H34.4458C34.8432 13.9282 35.2238 13.7693 35.5048 13.4883C35.7859 13.2072 35.9448 12.8267 35.947 12.4292V12.3872C35.9448 11.9897 35.7859 11.6092 35.5048 11.3281C35.2238 11.0471 34.8432 10.8882 34.4458 10.886H33.0274L35.9674 3.5852L43.9258 23.4512C44.0538 23.7541 44.2611 24.0169 44.5258 24.212C44.777 24.3952 45.0789 24.4959 45.3898 24.5C45.5949 24.5113 45.8001 24.4787 45.9915 24.4041C46.183 24.3296 46.3563 24.215 46.4998 24.068C46.78 23.7593 46.9278 23.353 46.9114 22.9364C46.917 22.7392 46.8797 22.543 46.8022 22.3616Z" fill="url(#paint2_linear_284_2017)"/>
<path d="M21.797 22.3616L13.4282 2.06C13.2844 1.614 13.005 1.22399 12.629 0.944348C12.253 0.664705 11.7991 0.509369 11.3306 0.5L10.5902 0.5C10.1217 0.509369 9.66777 0.664705 9.29176 0.944348C8.91574 1.22399 8.63637 1.614 8.49258 2.06L4.85298 10.9064H2.09298C1.69698 10.9108 1.31857 11.0706 1.03932 11.3515C0.760073 11.6323 0.602361 12.0116 0.600181 12.4076V12.428C0.602387 12.8255 0.761257 13.206 1.04231 13.4871C1.32336 13.7681 1.70392 13.927 2.10138 13.9292H3.57858L0.0985814 22.3616C0.0327193 22.5466 -0.00214943 22.7412 -0.00461854 22.9376C-0.0210774 23.3542 0.126734 23.7605 0.406981 24.0692C0.550477 24.2162 0.723769 24.3308 0.915222 24.4053C1.10667 24.4799 1.31185 24.5125 1.51698 24.5012C1.82787 24.4971 2.12979 24.3964 2.38098 24.2132C2.6457 24.0181 2.85297 23.7553 2.98098 23.4524L6.80538 13.9304H9.45858C9.85646 13.9285 10.2375 13.7696 10.5188 13.4883C10.8002 13.2069 10.9591 12.8259 10.961 12.428V12.3872C10.9588 11.9897 10.7999 11.6092 10.5189 11.3281C10.2378 11.0471 9.85725 10.8882 9.45978 10.886H8.04018L10.9598 3.5852L18.9182 23.4512C19.0462 23.7541 19.2535 24.0169 19.5182 24.212C19.7694 24.3952 20.0713 24.4959 20.3822 24.5C20.5873 24.5113 20.7925 24.4787 20.9839 24.4041C21.1754 24.3296 21.3487 24.215 21.4922 24.068C21.7724 23.7593 21.9202 23.353 21.9038 22.9364C21.9101 22.7393 21.8737 22.5432 21.797 22.3616Z" fill="url(#paint3_linear_284_2017)"/>
</g>
<defs>
<linearGradient id="paint0_linear_284_2017" x1="1.05726" y1="25.3156" x2="88.5043" y2="6.75646" gradientUnits="userSpaceOnUse">
<stop stop-color="#30BAC6"/>
<stop offset="1" stop-color="#B6509E"/>
</linearGradient>
<linearGradient id="paint1_linear_284_2017" x1="2.69077" y1="31.7718" x2="90.7867" y2="20.7191" gradientUnits="userSpaceOnUse">
<stop stop-color="#30BAC6"/>
<stop offset="1" stop-color="#B6509E"/>
</linearGradient>
<linearGradient id="paint2_linear_284_2017" x1="0.398372" y1="22.7271" x2="87.8463" y2="4.12867" gradientUnits="userSpaceOnUse">
<stop stop-color="#30BAC6"/>
<stop offset="1" stop-color="#B6509E"/>
</linearGradient>
<linearGradient id="paint3_linear_284_2017" x1="-1.12331" y1="16.7503" x2="86.3306" y2="-1.87065" gradientUnits="userSpaceOnUse">
<stop stop-color="#30BAC6"/>
<stop offset="1" stop-color="#B6509E"/>
</linearGradient>
<clipPath id="clip0_284_2017">
<rect width="86.3868" height="24" fill="white" transform="translate(0 0.5)"/>
</clipPath>
</defs>
</svg>
