<svg width="124" height="47" viewBox="0 0 124 47" fill="none" xmlns="http://www.w3.org/2000/svg">
<path d="M12.5924 25.6422L13.7691 16.793L3.54688 9.70624L12.8866 12.864L15.0928 9.48594L23.1456 4.49219L40.9058 14.2594L41.8251 29.1672L33.9192 40.146L27.6684 41.1007L30.9042 35.189V29.4977L28.5509 25.0547L26.1608 23.4758L22.4837 27.2578V31.2601L19.6156 33.9407L15.9753 34.3813L14.3574 35.2993L11.7099 34.4546L10.6068 30.489L12.5924 27.6984V25.6422Z" fill="white"/>
<path d="M28.9179 9.63365C26.9691 9.22973 24.8364 9.3399 24.8364 9.3399C24.8364 9.3399 24.1377 12.5711 19.7988 13.4157C19.8356 13.4157 25.535 15.3618 28.9179 9.63365Z" fill="#94A6C3"/>
<path d="M30.6831 38.9347C33.0365 37.0989 34.8015 34.5653 35.6104 31.7011C35.6471 31.5911 35.9782 31.4075 36.1987 31.2605C36.5665 31.0402 36.9342 30.8566 37.0077 30.5629C37.1548 29.7184 37.2282 28.8371 37.2282 27.9559C37.2282 27.6254 36.8972 27.2949 36.5665 26.9645C36.3089 26.7441 36.0516 26.4871 36.0516 26.3035C35.6838 22.9621 34.1394 19.841 31.6759 17.5645L31.4185 17.8215C33.8087 20.0613 35.3531 23.109 35.6838 26.3402C35.7206 26.634 36.0149 26.9277 36.3089 27.2215C36.5665 27.4418 36.8605 27.7723 36.8605 27.9191C36.8605 28.7637 36.7871 29.6082 36.6399 30.4527C36.6032 30.5996 36.2722 30.7465 36.0149 30.8934C35.6471 31.077 35.3161 31.2605 35.2427 31.5544C34.36 34.6752 32.3377 37.3925 29.6535 39.155C30.1315 38.1269 31.6391 34.7855 32.4482 33.0964L32.301 27.6621L27.6311 23.1457L24.9837 23.5129L22.0788 28.2129C22.0788 28.2129 23.4393 29.9387 21.5272 31.9583C19.6519 33.9411 18.1811 34.3816 18.1811 34.3816L16.8206 33.6472C17.2251 33.1333 18.034 32.3622 18.6591 31.848C19.7255 30.9668 20.7918 30.8934 20.7918 29.9387C20.8286 27.9559 18.6959 28.5066 18.6959 28.5066L17.9237 29.241L17.5928 31.9583L15.9749 33.9778L15.791 33.9411L13.1436 33.3536C13.1436 33.3536 14.7614 32.5089 15.0188 31.5544C15.2762 30.6363 14.5041 27.5887 14.4673 27.4051C14.5041 27.4418 15.2394 28.066 15.5704 29.0941C16.1587 27.4785 16.9309 25.9363 17.1515 25.7895C17.3721 25.6426 20.3506 24.0637 20.3506 24.0637L19.3578 26.6707L20.0932 26.2668L21.8582 21.934C21.8582 21.934 23.5864 21.0895 24.8734 21.0895C27.1899 21.0527 30.6096 18.2254 29.0652 13.1582C29.5064 13.3418 37.1548 17.1605 38.4783 24.6512C39.4711 30.416 36.1987 35.8136 30.6831 38.9347Z" fill="#94A6C3"/>
<path d="M21.9313 10.4406C22.7771 9.44922 22.4461 7.98047 22.4461 7.98047L19.9825 11.6156C19.9457 11.6156 20.865 11.6523 21.9313 10.4406Z" fill="#1B314F"/>
<path d="M13.6583 30.3066L13.9524 28.8379C13.9524 28.8379 12.739 30.9676 12.6287 31.2613C12.5184 31.5918 12.7022 32.1793 13.1802 32.1427C13.6583 32.106 14.2466 31.4082 14.2466 30.8941C14.2466 30.2332 13.6583 30.3066 13.6583 30.3066Z" fill="#1B314F"/>
<path d="M35.4999 6.95289C35.4999 6.95289 37.3386 7.02633 39.2507 7.24664C34.9486 3.8685 30.8669 2.8771 27.5575 2.8771C22.998 2.8771 19.9093 4.74974 19.7254 4.85991L21.1595 2.58335C21.1595 2.58335 15.4233 2.03257 13.4009 8.09116C12.8861 6.80599 12.4081 4.93336 12.4081 4.93336C12.4081 4.93336 9.42967 7.54039 10.8269 11.8732C7.40729 10.6247 2.51679 8.89897 2.33294 8.86224C2.07554 8.82552 2.002 8.93569 2.002 8.93569C2.002 8.93569 1.92846 9.04586 2.14908 9.22944C2.55356 9.55991 10.2754 15.2513 11.9668 16.3529C11.5991 17.6747 11.5991 18.299 11.9668 18.9232C12.4816 19.7677 12.5184 20.2084 12.4448 20.8326C12.3713 21.4568 11.7094 26.8544 11.5623 27.5154C11.4153 28.1763 9.8709 30.5263 9.94445 31.224C10.018 31.9215 10.974 34.896 11.8197 35.2262C12.4448 35.4465 13.9892 35.924 15.0188 35.924C15.3865 35.924 15.7174 35.8507 15.8645 35.7037C16.4896 35.1529 16.6735 35.0426 17.1147 35.0426C17.1515 35.0426 17.1882 35.0426 17.225 35.0426C17.4089 35.0426 17.6295 35.0796 17.8869 35.0796C18.4752 35.0796 19.2474 34.9693 19.7989 34.4551C20.6079 33.6473 22.0052 32.546 22.4464 32.0318C22.998 31.334 23.2922 30.3794 23.1451 29.4247C23.0348 28.5435 23.5128 27.7724 24.0643 27.0013C24.763 26.0834 26.0499 24.431 26.0499 24.431C28.5871 26.3404 30.1683 29.2412 30.1683 32.4723C30.1683 38.2007 25.1675 42.827 18.99 42.827C18.034 42.827 17.1147 42.7171 16.1955 42.4965C19.0268 43.4882 21.4169 43.8184 23.3657 43.8184C27.5208 43.8184 29.727 42.3132 29.727 42.3132C29.727 42.3132 28.9548 43.3046 27.7046 44.4426C27.7414 44.4426 27.7414 44.4426 27.7414 44.4426C34.6175 43.4882 37.9636 37.8335 37.9636 37.8335C37.9636 37.8335 37.7063 39.6693 37.3753 40.9176C46.5313 34.0512 44.9869 25.4591 44.9502 25.1654C45.0236 25.2755 45.9429 26.3771 46.4208 26.9646C47.8918 11.8365 35.4999 6.95289 35.4999 6.95289ZM21.4169 31.1138C21.2698 31.2974 20.6447 31.8482 20.2034 32.252C19.7622 32.6559 19.2842 33.0598 18.9165 33.427C18.7694 33.574 18.4752 33.6473 18.034 33.6473C17.8869 33.6473 17.7398 33.6473 17.6295 33.6473C17.556 33.6473 17.4824 33.6473 17.4089 33.6473C17.3353 33.6473 17.2986 33.6473 17.2618 33.6473C17.1515 33.6473 17.0412 33.6473 16.9308 33.6473C17.4824 32.9132 19.1003 31.224 19.6519 30.8568C20.3138 30.4162 20.6447 29.9755 20.2402 29.2044C19.8357 28.4334 18.7694 28.6169 18.7694 28.6169C18.7694 28.6169 19.3945 28.3599 19.946 28.3599C19.2474 28.1763 18.3649 28.3599 17.9604 28.7638C17.5192 29.1677 17.5927 30.5997 17.4089 31.5176C17.225 32.4723 16.5999 32.9498 15.6439 33.8309C15.1291 34.3085 14.7614 34.4551 14.4672 34.4551C13.8421 34.3451 13.1067 34.1615 12.5919 33.9779C12.2242 33.5007 11.6727 31.9215 11.5256 31.2607C11.6359 30.8935 12.0771 30.1224 12.2978 29.6818C12.739 28.8372 12.9964 28.3599 13.0699 27.9193C13.217 27.2951 13.695 23.4396 13.8789 21.824C14.3569 22.4482 15.0188 23.4763 14.8717 24.1372C15.9381 22.6318 15.1659 21.163 14.7981 20.5755C14.4672 19.988 14.026 18.813 14.3937 17.5646C14.7614 16.3162 16.0851 12.8646 16.0851 12.8646C16.0851 12.8646 16.5264 13.6357 17.1515 13.4888C17.7766 13.3419 22.8141 5.77789 22.8141 5.77789C22.8141 5.77789 24.1747 8.75211 22.7406 10.9185C21.2698 13.0849 19.8357 13.4888 19.8357 13.4888C19.8357 13.4888 21.8581 13.856 23.7334 12.4974C24.5056 14.2966 25.241 16.1693 25.2778 16.4263C25.1675 16.6834 23.6966 20.2084 23.5496 20.4287C23.476 20.5021 22.9612 20.649 22.5935 20.7224C21.9684 20.906 21.6007 21.0162 21.4536 21.1263C21.1962 21.3466 20.0196 24.5779 19.468 26.1568C18.8062 26.3404 18.1443 26.7075 17.6663 27.4419C17.9237 27.2584 18.7326 27.1482 19.3209 27.0747C19.8357 27.038 21.4169 27.8825 21.8214 29.4615C21.8214 29.4982 21.8214 29.4982 21.8214 29.5349C21.8949 30.1224 21.711 30.6732 21.4169 31.1138ZM17.9604 31.5546C18.2914 31.0771 18.2546 30.2693 18.2913 30.0122C18.3281 29.7552 18.4017 29.2779 18.6958 29.2044C18.99 29.131 19.6887 29.2412 19.6887 29.7552C19.6887 30.2326 19.1739 30.3427 18.8062 30.6732C18.5488 30.9302 18.034 31.4809 17.9604 31.5546ZM32.632 24.5412C32.9997 22.6685 33.0364 21.0529 32.926 19.731C34.3602 21.6404 35.2426 23.9537 35.4999 26.3404C35.5369 26.6341 35.8309 26.9279 36.1252 27.2216C36.3825 27.4419 36.6765 27.7357 36.6765 27.9193C36.6765 28.7638 36.6031 29.6084 36.4559 30.4529C36.4192 30.563 36.0882 30.7466 35.8309 30.8935C35.4632 31.0771 35.1324 31.2607 35.0587 31.5546C34.2498 34.3818 32.5215 36.8787 30.205 38.6412C33.6247 35.0796 35.2793 29.2044 32.632 24.5412ZM30.3154 38.9715C32.7054 37.1357 34.5441 34.5654 35.353 31.6645C35.3897 31.5546 35.7208 31.371 35.9413 31.224C36.3091 31.0404 36.6765 30.8201 36.7503 30.5263C36.8974 29.6818 36.9708 28.8005 36.9708 27.9193C36.9708 27.5888 36.6398 27.2584 36.3091 26.9279C36.1252 26.7076 35.8309 26.4505 35.8309 26.2669C35.5369 23.5865 34.4704 21.0529 32.8158 18.9599C32.0803 14.5537 29.1387 13.1951 29.0651 13.1584C29.1387 13.2685 31.0507 16.0224 29.727 19.2537C28.3665 22.5216 24.8733 22.0076 24.5791 22.0443C24.285 22.0443 23.1451 23.513 21.711 26.2302C21.5272 26.1568 20.755 25.9732 19.8725 26.1201C20.5344 24.2841 21.5272 21.6771 21.711 21.4568C21.7846 21.3834 22.3361 21.2365 22.7038 21.1263C23.4025 20.9427 23.7334 20.8326 23.8437 20.6857C23.9172 20.5755 24.285 19.731 24.6527 18.8497C24.9836 18.8497 25.8293 18.7763 25.9029 18.7396C25.9764 18.6662 26.6751 16.8669 26.6751 16.6466C26.6751 16.463 25.241 12.9013 24.6894 11.5427C24.9468 11.249 25.2042 10.8818 25.4616 10.4779C32.9997 11.2857 38.883 17.6747 38.883 25.4224C38.883 31.371 35.3897 36.5482 30.3154 38.9715Z" fill="#1B314F"/>
<path d="M20.5348 19.1433C21.2335 18.3355 20.8658 16.8301 19.5788 16.573C19.9097 15.8019 20.3877 14.2598 20.3877 14.2598C20.3877 14.2598 16.6371 20.1347 16.3062 20.2449C15.9753 20.3551 15.6444 19.0699 15.6444 19.0699C14.9457 21.7504 16.821 22.1176 17.0416 21.273C18.0712 21.016 19.8362 19.9144 20.5348 19.1433Z" fill="#1B314F"/>
<path d="M17.335 20.5766L19.247 17.3086C19.247 17.3086 20.3501 17.8594 19.7986 18.7406C19.0999 19.7688 17.335 20.5766 17.335 20.5766Z" fill="#FFD923"/>
<path d="M40.9786 35.7039C40.4269 36.4384 39.8019 37.2095 39.0664 37.9436C43.8101 28.8375 39.2873 20.5023 39.1034 20.1719C39.4341 20.5023 39.7652 20.8695 40.0595 21.2C43.6996 25.2391 44.1408 31.2977 40.9786 35.7039Z" fill="#D82122"/>
<path d="M45.3916 23.9895C43.7368 19.5465 41.3835 15.7645 36.199 12.3496C31.1981 9.04493 25.8296 9.30199 25.5355 9.33868C25.4987 9.33868 25.4619 9.33868 25.4619 9.33868C25.6458 9.26527 25.8296 9.22855 26.0135 9.19183C27.1534 8.82463 28.6242 8.53088 30.095 8.3473C33.9928 7.79652 37.9272 9.11838 40.6113 11.9457C40.6483 11.9824 40.6483 11.9824 40.685 12.0192C43.7368 15.2504 45.3179 19.2895 45.3916 23.9895Z" fill="#D82122"/>
<path d="M35.0219 5.81404C29.543 4.78593 26.013 5.29999 23.4759 6.25468C23.4023 5.96093 23.1449 5.37343 22.9243 4.8961C22.1521 5.81404 21.3432 6.91563 20.8284 7.61327C19.4311 8.56796 18.8428 9.48593 18.8428 9.48593C19.6517 6.73202 22.005 4.67577 24.8731 4.16171C25.6821 4.01485 26.5646 3.94141 27.5206 3.94141C30.0578 3.97813 32.5948 4.60235 35.0219 5.81404Z" fill="#D82122"/>
<path d="M14.7617 12.864C10.4596 12.7172 11.8936 7.72344 11.9671 7.42969C11.9671 7.46641 12.2613 11.3586 14.7617 12.864Z" fill="#D82122"/>
<path d="M18.9905 3.86914C15.6811 5.85198 16.343 10.5887 16.343 10.5887C13.1807 5.77853 18.7331 3.97931 18.9905 3.86914Z" fill="#D82122"/>
<path d="M13.5483 14.1867C13.7689 14.3703 13.9895 14.7008 13.7321 15.1781C13.5851 15.4352 13.3644 15.3984 13.0335 15.2516C12.5923 15.0313 9.94478 13.4891 7.55469 11.9102C10.2757 12.8649 13.0335 13.893 13.4748 14.1133C13.4748 14.1133 13.5115 14.15 13.5483 14.1867Z" fill="white"/>
<path d="M52.0322 11.2801H56.7389V30.0801H61.4455V6.58008H56.7389C54.1502 6.58008 52.0322 8.69508 52.0322 11.2801Z" fill="white"/>
<path d="M66.1523 30.0805H70.859V20.6805C70.859 18.0955 68.741 15.9805 66.1523 15.9805V30.0805Z" fill="white"/>
<path d="M75.5654 15.9805V30.0805H80.2721V20.6805H84.9787V25.3805C84.9787 27.9655 87.0967 30.0805 89.6853 30.0805V20.6805C89.6853 18.0955 87.5673 15.9805 84.9787 15.9805H75.5654Z" fill="white"/>
<path d="M117.926 15.9801H113.219V11.2801C113.219 8.69508 111.101 6.58008 108.512 6.58008V25.3801H99.0992V20.6801H103.806V15.9801H99.0992C96.5106 15.9801 94.3926 18.0951 94.3926 20.6801V25.3801C94.3926 27.9651 96.5106 30.0801 99.0992 30.0801H113.219V20.6801H117.926V25.3801C117.926 27.9651 120.044 30.0801 122.632 30.0801V20.6801C122.632 18.0951 120.514 15.9801 117.926 15.9801Z" fill="white"/>
<path d="M66.1523 11.2801H70.859C70.859 8.69508 68.741 6.58008 66.1523 6.58008V11.2801Z" fill="white"/>
</svg>
