<svg width="153" height="32" viewBox="0 0 153 32" fill="none" xmlns="http://www.w3.org/2000/svg">
<path d="M26.9585 9.7759C26.2994 9.36998 25.4425 9.36998 24.7175 9.7759L19.5762 12.8879L16.0828 14.9175L10.9416 18.0296C10.2825 18.4355 9.4256 18.4355 8.70055 18.0296L4.61393 15.5941C3.9548 15.1882 3.4934 14.444 3.4934 13.6321V8.82875C3.4934 8.01691 3.88888 7.27273 4.61393 6.86681L8.63464 4.49894C9.29377 4.09302 10.1506 4.09302 10.8757 4.49894L14.8964 6.86681C15.5555 7.27273 16.0169 8.01691 16.0169 8.82875V11.9408L19.5103 9.84355V6.7315C19.5103 5.91966 19.1149 5.17548 18.3898 4.76956L10.9416 0.30444C10.2825 -0.10148 9.4256 -0.10148 8.70055 0.30444L1.12053 4.76956C0.39548 5.17548 0 5.91966 0 6.7315V15.7294C0 16.5412 0.39548 17.2854 1.12053 17.6913L8.70055 22.1564C9.35969 22.5624 10.2166 22.5624 10.9416 22.1564L16.0828 19.112L19.5762 17.0148L24.7175 13.9704C25.3766 13.5645 26.2335 13.5645 26.9585 13.9704L30.9792 16.3383C31.6384 16.7442 32.0998 17.4884 32.0998 18.3002V23.1036C32.0998 23.9154 31.7043 24.6596 30.9792 25.0655L26.9585 27.5011C26.2994 27.907 25.4425 27.907 24.7175 27.5011L20.6968 25.1332C20.0376 24.7273 19.5762 23.9831 19.5762 23.1712V20.0592L16.0828 22.1564V25.2685C16.0828 26.0803 16.4783 26.8245 17.2034 27.2304L24.7834 31.6956C25.4425 32.1015 26.2994 32.1015 27.0244 31.6956L34.6045 27.2304C35.2636 26.8245 35.725 26.0803 35.725 25.2685V16.2706C35.725 15.4588 35.3295 14.7146 34.6045 14.3087L26.9585 9.7759Z" fill="#7950DD"/>
<path d="M49.6421 29.1226V21.6526C50.4459 22.6726 51.9046 23.2426 53.6016 23.2426C57.9183 23.2426 60.8359 20.1526 60.8359 15.4426C60.8359 10.7326 58.1565 7.64258 53.9588 7.64258C52.0237 7.64258 50.5352 8.36258 49.6421 9.53258V7.88258H45.5039V29.1226H49.6421ZM53.0955 19.6426C50.8627 19.6426 49.4039 17.9626 49.4039 15.4426C49.4039 12.8926 50.8627 11.2126 53.0955 11.2126C55.2687 11.2126 56.7573 12.8926 56.7573 15.4426C56.7573 17.9626 55.2687 19.6426 53.0955 19.6426Z" fill="white"/>
<path d="M70.2325 23.2426C74.847 23.2426 78.1516 19.9426 78.1516 15.4426C78.1516 10.9426 74.847 7.64258 70.2325 7.64258C65.6181 7.64258 62.3135 10.9426 62.3135 15.4426C62.3135 19.9426 65.6181 23.2426 70.2325 23.2426ZM70.2325 19.6426C67.9997 19.6426 66.4814 17.9326 66.4814 15.4426C66.4814 12.9226 67.9997 11.2126 70.2325 11.2126C72.4654 11.2126 73.9837 12.9226 73.9837 15.4426C73.9837 17.9326 72.4654 19.6426 70.2325 19.6426Z" fill="white"/>
<path d="M84.7914 23.0025V1.3125H80.6533V23.0025H84.7914Z" fill="white"/>
<path d="M97.2307 7.88281L94.1048 17.6328L90.9491 7.88281H86.7216L92.1697 22.8828L89.9667 29.1228H93.9262L96.0399 22.9428L101.488 7.88281H97.2307Z" fill="white"/>
<path d="M113.11 9.38258C112.276 8.33258 110.788 7.64258 108.972 7.64258C104.595 7.64258 101.946 10.7326 101.946 15.4426C101.946 20.1526 104.595 23.2426 109.031 23.2426C110.788 23.2426 112.365 22.5826 113.14 21.4726V23.4526C113.14 24.8626 112.217 25.8526 110.966 25.8526H104.059V29.1226H111.621C115.015 29.1226 117.278 27.0526 117.278 23.9026V7.88258H113.11V9.38258ZM109.686 19.6426C107.483 19.6426 106.024 17.9926 106.024 15.4426C106.024 12.8926 107.483 11.2126 109.686 11.2126C111.919 11.2126 113.378 12.8926 113.378 15.4426C113.378 17.9926 111.919 19.6426 109.686 19.6426Z" fill="white"/>
<path d="M127.71 23.2426C132.325 23.2426 135.629 19.9426 135.629 15.4426C135.629 10.9426 132.325 7.64258 127.71 7.64258C123.096 7.64258 119.791 10.9426 119.791 15.4426C119.791 19.9426 123.096 23.2426 127.71 23.2426ZM127.71 19.6426C125.477 19.6426 123.959 17.9326 123.959 15.4426C123.959 12.9226 125.477 11.2126 127.71 11.2126C129.943 11.2126 131.461 12.9226 131.461 15.4426C131.461 17.9326 129.943 19.6426 127.71 19.6426Z" fill="white"/>
<path d="M142.061 23.0026V14.7226C142.061 12.7726 143.341 11.3626 145.157 11.3626C146.883 11.3626 148.044 12.6826 148.044 14.5126V23.0026H152.212V13.5826C152.212 10.1026 150.009 7.64258 146.615 7.64258C144.561 7.64258 142.894 8.51258 142.061 9.98258V7.88258H137.893V23.0026H142.061Z" fill="white"/>
</svg>
