<svg width="162" height="25" viewBox="0 0 162 25" fill="none" xmlns="http://www.w3.org/2000/svg">
<g clip-path="url(#clip0_284_2025)">
<path d="M27.5189 19.4226L23.0889 24.1726C22.9931 24.2758 22.8771 24.3581 22.748 24.4144C22.619 24.4708 22.4797 24.5 22.3389 24.5001H1.33893C1.23877 24.5 1.1408 24.4708 1.05702 24.4159C0.973233 24.361 0.907273 24.2829 0.867211 24.1911C0.827148 24.0993 0.814723 23.9978 0.831458 23.8991C0.848193 23.8003 0.893358 23.7086 0.961428 23.6351L5.38643 18.8851C5.48225 18.7819 5.59828 18.6996 5.72733 18.6432C5.85635 18.5869 5.99563 18.5577 6.13643 18.5576H27.1364C27.2374 18.5555 27.3369 18.5834 27.4222 18.6377C27.5074 18.692 27.5749 18.7703 27.6157 18.8627C27.6567 18.9552 27.6692 19.0577 27.6519 19.1573C27.6347 19.2569 27.5884 19.3492 27.5189 19.4226ZM23.0889 9.8551C22.9928 9.7524 22.8766 9.6704 22.7477 9.61407C22.6187 9.55777 22.4796 9.52835 22.3389 9.52762H1.33893C1.23877 9.52767 1.1408 9.55692 1.05702 9.61182C0.973233 9.6667 0.907273 9.74482 0.867211 9.83662C0.827148 9.92842 0.814723 10.0299 0.831458 10.1286C0.848193 10.2274 0.893358 10.3191 0.961428 10.3926L5.38643 15.1451C5.4826 15.2478 5.59873 15.3298 5.72768 15.3861C5.85663 15.4424 5.99573 15.4719 6.13643 15.4726H27.1364C27.2364 15.4721 27.3339 15.4424 27.4174 15.3874C27.5009 15.3323 27.5664 15.2542 27.6062 15.1625C27.6459 15.0708 27.6582 14.9695 27.6412 14.8709C27.6244 14.7724 27.5794 14.6809 27.5114 14.6076L23.0889 9.8551ZM1.33893 6.4426H22.3389C22.4797 6.44247 22.619 6.4133 22.748 6.35695C22.8771 6.30062 22.9931 6.21827 23.0889 6.1151L27.5189 1.36511C27.5884 1.29174 27.6347 1.19944 27.6519 1.09981C27.6692 1.00019 27.6567 0.8977 27.6157 0.805235C27.5749 0.71277 27.5074 0.634464 27.4222 0.580171C27.3369 0.525877 27.2374 0.498022 27.1364 0.500109H6.13643C5.99563 0.500258 5.85635 0.529414 5.72733 0.58576C5.59828 0.642107 5.48225 0.724434 5.38643 0.82761L0.961428 5.5776C0.893358 5.65107 0.848193 5.74282 0.831458 5.84157C0.814723 5.94032 0.827148 6.0418 0.867211 6.1336C0.907273 6.2254 0.973233 6.30352 1.05702 6.3584C1.1408 6.4133 1.23877 6.44255 1.33893 6.4426Z" fill="url(#paint0_linear_284_2025)"/>
<path d="M53.1217 10.6501H41.8867V6.95005H56.0417V3.25005H41.8492C41.3642 3.24743 40.8837 3.34033 40.4347 3.52345C39.9857 3.7066 39.577 3.97638 39.2325 4.3174C38.8877 4.65843 38.6135 5.06403 38.4255 5.511C38.2375 5.958 38.1392 6.43765 38.1367 6.92255V10.6726C38.1387 11.1579 38.2362 11.6381 38.424 12.0856C38.6117 12.5332 38.8857 12.9394 39.2305 13.2809C39.5755 13.6225 39.9842 13.8927 40.4335 14.0762C40.8827 14.2596 41.364 14.3527 41.8492 14.3501H53.0992V18.0501H38.4042V21.7501H53.1217C53.6067 21.7527 54.0872 21.6598 54.5362 21.4767C54.9852 21.2935 55.394 21.0237 55.7385 20.6827C56.0832 20.3417 56.3575 19.9361 56.5455 19.4891C56.7335 19.0421 56.8317 18.5625 56.8342 18.0776V14.3276C56.8322 13.8422 56.7347 13.3621 56.547 12.9145C56.3592 12.4669 56.0852 12.0607 55.7405 11.7192C55.3955 11.3776 54.9867 11.1074 54.5375 10.924C54.0882 10.7405 53.607 10.6474 53.1217 10.6501Z" fill="white"/>
<path d="M74.8867 3.25012H63.6092C63.1235 3.24617 62.6417 3.3381 62.1915 3.52065C61.7415 3.7032 61.3317 3.97275 60.986 4.31392C60.64 4.65507 60.365 5.0611 60.1765 5.50875C59.9877 5.9564 59.8892 6.43687 59.8867 6.92262V18.0776C59.8892 18.5634 59.9877 19.0438 60.1765 19.4915C60.365 19.9391 60.64 20.3452 60.986 20.6863C61.3317 21.0275 61.7415 21.297 62.1915 21.4796C62.6417 21.6621 63.1235 21.7541 63.6092 21.7501H74.8867C75.3717 21.7527 75.8522 21.6598 76.3012 21.4767C76.7502 21.2936 77.159 21.0238 77.5035 20.6828C77.8482 20.3417 78.1225 19.9361 78.3105 19.4892C78.4985 19.0422 78.5967 18.5625 78.5992 18.0776V6.92262C78.5967 6.43772 78.4985 5.95807 78.3105 5.51107C78.1225 5.0641 77.8482 4.6585 77.5035 4.31747C77.159 3.97645 76.7502 3.70667 76.3012 3.52352C75.8522 3.3404 75.3717 3.2475 74.8867 3.25012ZM74.8592 18.0501H63.6367V6.95012H74.8542L74.8592 18.0501Z" fill="white"/>
<path d="M114.386 3.25027H103.386C102.901 3.24765 102.421 3.34055 101.972 3.52367C101.523 3.70682 101.114 3.9766 100.77 4.31762C100.425 4.65865 100.151 5.06425 99.9626 5.51122C99.7746 5.95822 99.6763 6.43787 99.6738 6.92277V21.7503H103.424V15.6728H114.374V21.7503H118.124V6.92277C118.121 6.43575 118.022 5.95405 117.833 5.5054C117.643 5.05677 117.367 4.65007 117.019 4.3087C116.672 3.96735 116.261 3.6981 115.809 3.51645C115.357 3.3348 114.873 3.24435 114.386 3.25027ZM114.359 11.9728H103.409V6.95027H114.359V11.9728Z" fill="white"/>
<path d="M158.173 3.25005H147.173C146.688 3.24743 146.208 3.34033 145.759 3.52345C145.31 3.7066 144.901 3.97638 144.557 4.3174C144.212 4.65843 143.938 5.06403 143.75 5.511C143.562 5.958 143.463 6.43765 143.461 6.92255V21.7501H147.211V15.6726H158.136V21.7501H161.886V6.92255C161.883 6.43765 161.785 5.958 161.597 5.511C161.409 5.06403 161.135 4.65843 160.79 4.3174C160.445 3.97638 160.037 3.7066 159.588 3.52345C159.139 3.34033 158.658 3.24743 158.173 3.25005ZM158.136 11.9726H147.186V6.95005H158.136V11.9726Z" fill="white"/>
<path d="M136.387 18.05H134.887L129.524 4.80003C129.34 4.34291 129.024 3.95113 128.616 3.67498C128.208 3.39881 127.727 3.25083 127.234 3.25003H123.907C123.583 3.24838 123.263 3.31046 122.963 3.43268C122.664 3.55493 122.392 3.73493 122.162 3.96243C121.932 4.18996 121.749 4.46048 121.624 4.75863C121.499 5.05676 121.433 5.37666 121.432 5.70003V21.75H125.182V6.95003H126.682L132.042 20.2C132.228 20.6563 132.547 21.0465 132.957 21.3208C133.366 21.5951 133.849 21.741 134.342 21.74H137.669C137.993 21.7417 138.313 21.6796 138.612 21.5574C138.912 21.4352 139.184 21.2551 139.414 21.0276C139.644 20.8001 139.827 20.5296 139.952 20.2315C140.077 19.9333 140.142 19.6134 140.144 19.29V3.25003H136.387V18.05Z" fill="white"/>
<path d="M85.6611 3.25H81.9111V18.0775C81.9136 18.5635 82.0124 19.0442 82.2011 19.492C82.3899 19.9398 82.6651 20.3459 83.0111 20.6871C83.3571 21.0283 83.7674 21.2978 84.2176 21.4802C84.6681 21.6626 85.1501 21.7543 85.6361 21.75H96.8861V18.05H85.6611V3.25Z" fill="white"/>
</g>
<defs>
<linearGradient id="paint0_linear_284_2025" x1="3.08893" y1="25.0726" x2="25.1089" y2="0.247612" gradientUnits="userSpaceOnUse">
<stop offset="0.08" stop-color="#9945FF"/>
<stop offset="0.3" stop-color="#8752F3"/>
<stop offset="0.5" stop-color="#5497D5"/>
<stop offset="0.6" stop-color="#43B4CA"/>
<stop offset="0.72" stop-color="#28E0B9"/>
<stop offset="0.97" stop-color="#19FB9B"/>
</linearGradient>
<clipPath id="clip0_284_2025">
<rect width="161.5" height="24" fill="white" transform="translate(0.386719 0.5)"/>
</clipPath>
</defs>
</svg>
