<svg width="78" height="79" viewBox="0 0 78 79" fill="none" xmlns="http://www.w3.org/2000/svg">
<path d="M18 43.0417H4C3.07174 43.0417 2.1815 43.4148 1.52513 44.079C0.868749 44.7432 0.5 45.644 0.5 46.5833V74.9167C0.5 75.856 0.868749 76.7568 1.52513 77.421C2.1815 78.0852 3.07174 78.4583 4 78.4583H18C18.9283 78.4583 19.8185 78.0852 20.4749 77.421C21.1313 76.7568 21.5 75.856 21.5 74.9167V46.5833C21.5 45.644 21.1313 44.7432 20.4749 44.079C19.8185 43.4148 18.9283 43.0417 18 43.0417ZM14.5 71.375H7.5V50.125H14.5V71.375ZM74 28.875H60C59.0717 28.875 58.1815 29.2481 57.5251 29.9123C56.8687 30.5765 56.5 31.4774 56.5 32.4167V74.9167C56.5 75.856 56.8687 76.7568 57.5251 77.421C58.1815 78.0852 59.0717 78.4583 60 78.4583H74C74.9283 78.4583 75.8185 78.0852 76.4749 77.421C77.1313 76.7568 77.5 75.856 77.5 74.9167V32.4167C77.5 31.4774 77.1313 30.5765 76.4749 29.9123C75.8185 29.2481 74.9283 28.875 74 28.875ZM70.5 71.375H63.5V35.9583H70.5V71.375ZM46 0.541664H32C31.0717 0.541664 30.1815 0.914803 29.5251 1.57899C28.8687 2.24319 28.5 3.14402 28.5 4.08333V74.9167C28.5 75.856 28.8687 76.7568 29.5251 77.421C30.1815 78.0852 31.0717 78.4583 32 78.4583H46C46.9283 78.4583 47.8185 78.0852 48.4749 77.421C49.1312 76.7568 49.5 75.856 49.5 74.9167V4.08333C49.5 3.14402 49.1312 2.24319 48.4749 1.57899C47.8185 0.914803 46.9283 0.541664 46 0.541664ZM42.5 71.375H35.5V7.625H42.5V71.375Z" fill="#231F20"/>
</svg>
