<svg width="87" height="77" viewBox="0 0 87 77" fill="none" xmlns="http://www.w3.org/2000/svg">
<path d="M39.7922 38.9423L37.2353 48.1002C40.3915 48.8005 50.1263 51.5933 51.5649 46.4272C53.0689 41.0394 42.9483 39.646 39.7922 38.9423ZM43.2797 26.4441L40.9617 34.75C43.5901 35.3355 51.6922 37.7229 53.0051 33.0238C54.3726 28.122 45.9082 27.0294 43.2799 26.4441H43.2797ZM43.5002 0.583336C35.0121 0.583336 26.7146 2.80711 19.657 6.97345C12.5993 11.1398 7.09861 17.0616 3.85035 23.9899C0.602091 30.9183 -0.247802 38.5421 1.40815 45.8972C3.0641 53.2523 7.15151 60.0084 13.1535 65.3111C19.1555 70.6139 26.8025 74.2251 35.1276 75.6881C43.4526 77.1511 52.0817 76.4003 59.9237 73.5304C67.7657 70.6606 74.4683 65.8007 79.1841 59.5654C83.8998 53.33 86.4168 45.9992 86.4168 38.5C86.4168 33.5207 85.3068 28.5902 83.15 23.9899C80.9932 19.3897 77.832 15.2098 73.8468 11.6889C69.8617 8.16798 65.1306 5.37506 59.9237 3.46957C54.7168 1.56408 49.1361 0.583336 43.5002 0.583336ZM62.2033 33.0983C62.1131 34.5531 61.4813 35.9407 60.4061 37.0454C59.3309 38.1501 57.8727 38.9099 56.2582 39.2067C57.3193 39.5884 58.2795 40.1601 59.0781 40.8858C59.8767 41.6116 60.4965 42.4756 60.8984 43.4235C61.3003 44.3713 61.4756 45.3825 61.4133 46.3932C61.351 47.4039 61.0524 48.3922 60.5363 49.2959C58.0234 55.7119 52.0533 56.2536 44.1141 54.9109L42.1871 61.8107L37.5313 60.7739L39.4331 53.9667C38.2263 53.699 36.993 53.4146 35.7226 53.1065L33.8143 59.9454L29.1638 58.9087L31.0907 51.996C30.0031 51.7472 28.8986 51.4829 27.7714 51.2307L21.7127 49.881L24.024 45.119C24.024 45.119 27.4545 45.9342 27.4081 45.8739C27.6216 45.9341 27.8465 45.9562 28.0698 45.939C28.293 45.9218 28.5102 45.8656 28.7087 45.7737C28.9072 45.6818 29.0831 45.556 29.2261 45.4035C29.3691 45.2511 29.4764 45.0751 29.5419 44.8857L34.7666 26.1632C34.8337 25.5896 34.6444 25.0155 34.2391 24.5635C33.8338 24.1115 33.2446 23.8173 32.5972 23.7437C32.6702 23.6999 29.2154 22.9925 29.2154 22.9925L30.4541 18.5491L36.8748 19.9816L36.8696 20.0031C37.8348 20.2174 38.8294 20.4213 39.8426 20.6275L41.7509 13.7954L46.404 14.8322L44.5345 21.5303C45.7836 21.7851 47.0408 22.0422 48.2648 22.3148L50.1212 15.6604L54.7772 16.6972L52.8703 23.5317C58.7485 25.3409 63.0476 28.0532 62.2033 33.0983Z" fill="#231F20"/>
</svg>
