<svg width="97" height="93" viewBox="0 0 97 93" fill="none" xmlns="http://www.w3.org/2000/svg">
<path d="M44.8745 40.447C43.6382 41.1314 42.6412 42.1519 42.0098 43.3795C41.3784 44.6071 41.1408 45.9866 41.3272 47.3437C41.5135 48.7007 42.1154 49.9743 43.0568 51.0034C43.9981 52.0325 45.2365 52.7708 46.6155 53.125C47.9945 53.4792 49.4521 53.4335 50.804 52.9935C52.1558 52.5534 53.3412 51.739 54.2103 50.653C55.0793 49.5671 55.5929 48.2585 55.6863 46.8926C55.7796 45.5268 55.4483 44.1651 54.7345 42.9798C53.7772 41.3904 52.2006 40.2307 50.3516 39.7557C48.5025 39.2807 46.5324 39.5294 44.8745 40.447ZM77.2269 47.9555C76.753 47.4362 76.2529 46.9156 75.7267 46.3936C76.0943 46.0232 76.45 45.6531 76.7937 45.2834C83.284 38.2919 86.0232 31.2803 83.4851 27.0649C81.0513 23.0233 73.8116 21.8189 64.7482 23.5085C63.8554 23.676 62.9676 23.8648 62.0847 24.0752C61.9157 23.5166 61.736 22.9611 61.5454 22.4089C58.4707 13.5254 53.5039 7.74694 48.4274 7.75C43.5596 7.75213 38.8548 13.1637 35.8535 21.5353C35.5582 22.3612 35.2851 23.1939 35.034 24.0336C34.4437 23.8947 33.851 23.7664 33.2557 23.6488C23.6931 21.7664 15.991 23.0061 13.4578 27.2239C11.0288 31.2684 13.5691 37.8794 19.6356 44.5533C20.2372 45.2136 20.8559 45.8592 21.4916 46.4898C20.7422 47.23 20.0325 47.9697 19.3711 48.7052C13.4517 55.285 11.0566 61.7878 13.4818 65.8149C15.9863 69.9747 23.58 71.3344 32.8228 69.5906C33.5718 69.4482 34.3167 69.288 35.0575 69.1101C35.3288 70.0183 35.6265 70.9186 35.9505 71.811C38.9386 80.0146 43.6169 85.2519 48.4675 85.2502C53.4769 85.2474 58.4987 79.6203 61.5413 71.0726C61.7815 70.3971 62.009 69.6956 62.2246 68.9733C63.1815 69.2015 64.1446 69.4041 65.1138 69.5809C74.019 71.1963 81.0885 69.9258 83.5092 65.8958C86.0089 61.733 83.4315 54.7512 77.2267 47.9555H77.2269ZM16.4502 28.8759C18.0098 26.2796 24.3042 25.2667 32.5607 26.8919C33.0883 26.9959 33.625 27.1122 34.1708 27.2406C33.3647 30.6594 32.7959 34.1257 32.4682 37.6166C29.4891 39.626 26.6487 41.8181 23.965 44.1793C23.3737 43.593 22.7982 42.9925 22.2384 42.3778L22.2387 42.378C17.0408 36.6597 14.9864 31.3131 16.4502 28.8759ZM32.1588 51.0722C30.0953 49.5742 28.1776 48.0395 26.437 46.4959C28.1764 44.9619 30.0953 43.4323 32.1546 41.9383C32.0806 43.4602 32.044 44.9834 32.0446 46.5077C32.0457 48.0297 32.0838 49.5513 32.1588 51.0722ZM32.1564 66.3421C28.6533 67.0889 25.0368 67.2112 21.4875 66.703C20.5146 66.6304 19.5675 66.3672 18.7048 65.9298C17.8421 65.4924 17.0821 64.89 16.4718 64.1598C15.0004 61.716 16.9235 56.4951 21.986 50.8677C22.6224 50.1624 23.2797 49.4756 23.9579 48.8072C26.6421 51.1807 29.4871 53.3814 32.4742 55.3949C32.8064 58.9305 33.3819 62.4411 34.1968 65.9039C33.5206 66.0661 32.8404 66.2121 32.1564 66.3421ZM60.8568 35.1896C59.5012 34.3707 58.1289 33.578 56.7399 32.8117C55.373 32.0573 53.9897 31.3313 52.5899 30.6337C54.9866 29.6675 57.3425 28.8423 59.617 28.1699C60.1531 30.4883 60.5669 32.8312 60.8568 35.1896ZM39.1192 22.6114C41.6906 15.4383 45.4954 11.0619 48.4293 11.0607C51.5538 11.0593 55.6134 15.7814 58.268 23.4515C58.4404 23.9515 58.6035 24.4543 58.757 24.96C55.2695 25.997 51.8574 27.2543 48.5431 28.7234C45.2426 27.237 41.8412 25.9657 38.3621 24.9183C38.5947 24.1436 38.8471 23.3746 39.1192 22.6114ZM37.501 28.1286C39.8734 28.8447 42.2066 29.675 44.4918 30.6164C41.6603 32.0173 38.9021 33.5433 36.217 35.1943C36.5414 32.7221 36.9731 30.3534 37.501 28.1286ZM36.2229 57.8138C37.5619 58.6356 38.9205 59.427 40.2987 60.1881C41.7045 60.9641 43.129 61.7075 44.5722 62.4184C42.2696 63.3923 39.9163 64.2523 37.5217 64.9949C36.9877 62.7393 36.5513 60.3291 36.2229 57.8138ZM58.273 70.0026C57.1978 73.2852 55.5015 76.3501 53.2691 79.044L53.2688 79.0442C52.7171 79.8159 52.0063 80.4709 51.1801 80.9687C50.354 81.4666 49.4301 81.7968 48.4657 81.9388C45.5225 81.9404 41.766 77.7344 39.2106 70.7189C38.9096 69.8895 38.6328 69.0525 38.38 68.2079C41.8756 67.1267 45.2908 65.8195 48.6021 64.2954C51.9437 65.774 55.3829 67.0406 58.8977 68.0871C58.7057 68.7303 58.4975 69.3688 58.273 70.0026ZM59.7371 64.8713C57.4365 64.1893 55.0464 63.3502 52.6151 62.3699C53.9857 61.6784 55.3662 60.948 56.7567 60.1789C58.1835 59.3889 59.574 58.5792 60.9281 57.7497C60.6584 60.1415 60.2608 62.5186 59.7371 64.8714V64.8713ZM61.5408 46.4934C61.5438 48.8467 61.4672 51.1981 61.3109 53.5476C59.3197 54.8396 57.2174 56.1012 55.0302 57.3119C52.852 58.5176 50.6938 59.6257 48.5767 60.6285C46.3489 59.6049 44.164 58.5018 42.0221 57.3192C39.8922 56.1438 37.8112 54.8922 35.779 53.5644C35.5932 51.2156 35.4997 48.8625 35.4983 46.5052L35.4987 46.5059C35.4971 44.1503 35.5886 41.7971 35.7733 39.4463C37.7641 38.1429 39.851 36.8823 42.0087 35.6879C44.1764 34.4879 46.3616 33.3845 48.5348 32.3845C50.7352 33.4098 52.8959 34.5086 55.0169 35.6808C57.1453 36.8536 59.2321 38.0919 61.2774 39.3957C61.4531 41.758 61.541 44.1239 61.5411 46.4934H61.5408ZM65.4076 26.7587C73.173 25.3105 79.028 26.2847 80.4948 28.7203C82.0573 31.315 79.8179 37.0457 74.2147 43.0824L74.2145 43.0826C73.9049 43.4157 73.5837 43.7501 73.2509 44.0859C70.5207 41.7197 67.6256 39.5345 64.5857 37.5455C64.279 34.0927 63.7315 30.6635 62.947 27.2809C63.7831 27.0836 64.6033 26.9096 65.4076 26.7587ZM64.8827 41.8119C66.9331 43.2472 68.9046 44.7836 70.789 46.4147C68.9129 48.0728 66.9477 49.6356 64.9014 51.097C64.9641 49.5627 64.9949 48.0276 64.9939 46.4918C64.9932 44.9315 64.9561 43.3715 64.8827 41.8119ZM80.5162 64.2433C79.0473 66.6891 73.3711 67.7089 65.7552 66.3274C64.8824 66.1695 63.9869 65.9814 63.0685 65.7634C63.8341 62.3372 64.3573 58.8653 64.6345 55.3715C67.6693 53.3478 70.5552 51.1262 73.2719 48.7225C73.7473 49.196 74.1994 49.6673 74.6284 50.1364V50.1361C77.0577 52.6686 78.98 55.6082 80.2992 58.808C80.721 59.6516 80.9579 60.5692 80.9953 61.5041C81.0326 62.439 80.8696 63.3713 80.5162 64.2433Z" fill="#231F20"/>
</svg>
