<svg width="128" height="128" viewBox="0 0 128 128" fill="none" xmlns="http://www.w3.org/2000/svg">
<g clip-path="url(#clip0_760_1836)">
<path d="M128 0H0V128H128V0Z" fill="white"/>
<path d="M71.5791 77.263C83.0898 77.263 92.421 67.9319 92.421 56.4209C92.421 44.9101 83.0898 35.5789 71.5791 35.5789C60.0684 35.5789 50.7371 44.9101 50.7371 56.4209C50.7371 67.9319 60.0684 77.263 71.5791 77.263ZM71.5791 84.8417C55.8832 84.8417 43.1582 72.1168 43.1582 56.4209C43.1582 40.725 55.8832 28 71.5791 28C87.275 28 100 40.725 100 56.4209C100 72.1168 87.275 84.8417 71.5791 84.8417Z" fill="#35D07F"/>
<path d="M56.4209 92.42C67.9319 92.42 77.263 83.0889 77.263 71.5781C77.263 60.0674 67.9319 50.7361 56.4209 50.7361C44.9101 50.7361 35.5789 60.0674 35.5789 71.5781C35.5789 83.0889 44.9101 92.42 56.4209 92.42ZM56.4209 99.999C40.725 99.999 28 87.2741 28 71.5781C28 55.8822 40.725 43.1572 56.4209 43.1572C72.1168 43.1572 84.8417 55.8822 84.8417 71.5781C84.8417 87.2741 72.1168 99.999 56.4209 99.999Z" fill="#FBCC5C"/>
<path d="M72.5107 84.8276C74.4803 82.4415 75.8915 79.6451 76.6426 76.6438C79.6438 75.8936 82.4397 74.4816 84.8263 72.5125C84.7172 75.9884 83.969 79.4147 82.6177 82.6189C79.4134 83.9702 75.9871 84.7185 72.5107 84.8276ZM51.357 51.3575C48.3558 52.1079 45.5599 53.5198 43.1733 55.4888C43.2825 52.0131 44.0305 48.5867 45.3818 45.3823C48.5862 44.031 52.0126 43.283 55.4883 43.1738C53.5193 45.5604 52.1073 48.3563 51.357 51.3575Z" fill="#5EA33B"/>
</g>
<defs>
<clipPath id="clip0_760_1836">
<rect width="128" height="128" fill="white"/>
</clipPath>
</defs>
</svg>
