<svg width="130" height="66" viewBox="0 0 130 66" fill="none" xmlns="http://www.w3.org/2000/svg">
<path d="M129 1C108.204 2.73299 106.916 44.2218 86.3333 49C69.3602 52.9402 60.7655 30.5738 43.6667 33C25.1204 35.6316 19.1855 58.9382 1 65H129V1Z" fill="#ECFDF3"/>
<path d="M129 1C108.204 2.73299 106.916 44.2218 86.3333 49C69.3602 52.9402 60.7655 30.5738 43.6667 33C25.1204 35.6316 19.1855 58.9382 1 65H129V1Z" fill="url(#paint0_linear_184_18810)"/>
<path d="M1 65C19.1855 58.9382 25.1204 35.6316 43.6667 33C60.7655 30.5738 69.3602 52.9402 86.3333 49C106.916 44.2218 108.204 2.73299 129 1" stroke="#12B76A" strokeWidth="2" strokeLinecap="round" strokeLinejoin="round"/>
<defs>
<linearGradient id="paint0_linear_184_18810" x1="65" y1="1" x2="65" y2="65" gradientUnits="userSpaceOnUse">
<stop offset="0.641167" stop-color="white" stop-opacity="0"/>
<stop offset="1" stop-color="white"/>
</linearGradient>
</defs>
</svg>
