<svg width="112" height="112" viewBox="0 0 112 112" fill="none" xmlns="http://www.w3.org/2000/svg">
<path d="M48.125 87.4999H32.375C32.1429 87.4999 31.9204 87.5921 31.7563 87.7562C31.5922 87.9203 31.5 88.1428 31.5 88.3749V109.375C31.5 109.607 31.5922 109.83 31.7563 109.994C31.9204 110.158 32.1429 110.25 32.375 110.25H48.125C48.3571 110.25 48.5796 110.158 48.7437 109.994C48.9078 109.83 49 109.607 49 109.375V88.3749C49 88.1428 48.9078 87.9203 48.7437 87.7562C48.5796 87.5921 48.3571 87.4999 48.125 87.4999ZM33.25 89.2499H39.4117V108.5H33.25V89.2499ZM47.25 108.5H41.1617V89.2499H47.25V108.5ZM49.4375 6.05839L41.5625 1.51014C41.4297 1.43282 41.2787 1.39209 41.125 1.39209C40.9713 1.39209 40.8203 1.43282 40.6875 1.51014L32.8125 6.05839C32.6795 6.13518 32.569 6.24564 32.4922 6.37865C32.4154 6.51166 32.375 6.66255 32.375 6.81614V15.9091C32.375 16.0627 32.4154 16.2136 32.4922 16.3466C32.569 16.4796 32.6795 16.5901 32.8125 16.6669L35.0367 17.9496V25.3749C35.0367 25.607 35.1289 25.8295 35.293 25.9936C35.4571 26.1577 35.6797 26.2499 35.9117 26.2499H46.4117C46.6438 26.2499 46.8664 26.1577 47.0305 25.9936C47.1946 25.8295 47.2867 25.607 47.2867 25.3749V17.9076L49.4375 16.6651C49.5705 16.5883 49.681 16.4779 49.7578 16.3449C49.8346 16.2119 49.875 16.061 49.875 15.9074V6.81614C49.875 6.66255 49.8346 6.51166 49.7578 6.37865C49.681 6.24564 49.5705 6.13518 49.4375 6.05839ZM45.5367 24.4999H36.7867V18.9594L40.6875 21.2116C40.712 21.2256 40.7435 21.2221 40.7698 21.2344C40.803 21.2484 40.8398 21.2519 40.8748 21.2624C40.9588 21.2886 41.0392 21.3306 41.1267 21.3306C41.2142 21.3306 41.2948 21.2886 41.3788 21.2624C41.4138 21.2519 41.4505 21.2484 41.4837 21.2344C41.51 21.2221 41.5398 21.2274 41.566 21.2116L45.5403 18.9174V24.4999H45.5367ZM48.125 15.4034L42 18.9401V18.0179C42 17.7858 41.9078 17.5633 41.7437 17.3992C41.5796 17.2351 41.3571 17.1429 41.125 17.1429C40.8929 17.1429 40.6704 17.2351 40.5063 17.3992C40.3422 17.5633 40.25 17.7858 40.25 18.0179V18.9401L34.125 15.4034V8.37189L35.4462 9.13489C35.6471 9.24909 35.885 9.27921 36.108 9.21867C36.331 9.15813 36.521 9.01185 36.6365 8.81174C36.752 8.61164 36.7837 8.37397 36.7247 8.15058C36.6656 7.9272 36.5206 7.73624 36.3212 7.61939L34.9633 6.83539L41.125 3.27764L47.2622 6.82314L45.8797 7.62114C45.7794 7.67817 45.6914 7.75449 45.6207 7.84568C45.55 7.93688 45.498 8.04117 45.4678 8.15253C45.4376 8.26389 45.4296 8.38014 45.4445 8.49457C45.4594 8.609 45.4968 8.71936 45.5545 8.8193C45.6122 8.91923 45.6891 9.00677 45.7807 9.07686C45.8724 9.14696 45.977 9.19823 46.0886 9.22772C46.2001 9.25722 46.3164 9.26435 46.4308 9.24872C46.5451 9.23309 46.6552 9.195 46.7547 9.13664L48.125 8.34389V15.4034Z" fill="#F15743"/>
<path d="M40.5789 9.43063H42.9904C43.2225 9.43063 43.4451 9.33844 43.6092 9.17435C43.7733 9.01025 43.8654 8.78769 43.8654 8.55563C43.8654 8.32356 43.7733 8.101 43.6092 7.93691C43.4451 7.77282 43.2225 7.68063 42.9904 7.68063H41.9999V6.99463C41.9999 6.76256 41.9078 6.54 41.7437 6.37591C41.5796 6.21182 41.357 6.11963 41.1249 6.11963C40.8929 6.11963 40.6703 6.21182 40.5062 6.37591C40.3421 6.54 40.2499 6.76256 40.2499 6.99463V7.74538C39.1982 7.90988 38.3774 8.77613 38.3774 9.86638C38.3774 11.0721 39.3644 12.0556 40.5789 12.0556H41.6814C41.7965 12.0556 41.9069 12.1014 41.9883 12.1827C42.0697 12.2641 42.1154 12.3745 42.1154 12.4896C42.1154 12.6047 42.0697 12.7151 41.9883 12.7965C41.9069 12.8779 41.7965 12.9236 41.6814 12.9236H39.2524C39.0204 12.9236 38.7978 13.0158 38.6337 13.1799C38.4696 13.344 38.3774 13.5666 38.3774 13.7986C38.3774 14.0307 38.4696 14.2533 38.6337 14.4173C38.7978 14.5814 39.0204 14.6736 39.2524 14.6736H40.2447V15.4034C40.2447 15.6354 40.3369 15.858 40.501 16.0221C40.6651 16.1862 40.8876 16.2784 41.1197 16.2784C41.3518 16.2784 41.5743 16.1862 41.7384 16.0221C41.9025 15.858 41.9947 15.6354 41.9947 15.4034V14.6106C43.0447 14.4514 43.8637 13.5834 43.8637 12.4896C43.8637 11.4239 43.0814 10.5751 42.0699 10.3844C41.9585 10.333 41.8374 10.3062 41.7147 10.3056H40.5789C40.5204 10.3066 40.4623 10.2959 40.4079 10.2743C40.3535 10.2527 40.3039 10.2206 40.262 10.1798C40.22 10.139 40.1865 10.0903 40.1634 10.0365C40.1404 9.98271 40.1281 9.9249 40.1274 9.86638C40.1274 9.62663 40.3287 9.43063 40.5789 9.43063Z" fill="#F15743"/>
<path d="M63.875 110.25H16.625C16.3929 110.25 16.1704 110.158 16.0063 109.994C15.8422 109.83 15.75 109.607 15.75 109.375V30.625C15.75 30.3929 15.8422 30.1704 16.0063 30.0063C16.1704 29.8422 16.3929 29.75 16.625 29.75H63.875C64.1071 29.75 64.3296 29.8422 64.4937 30.0063C64.6578 30.1704 64.75 30.3929 64.75 30.625V109.375C64.75 109.607 64.6578 109.83 64.4937 109.994C64.3296 110.158 64.1071 110.25 63.875 110.25ZM17.5 108.5H63V31.5H17.5V108.5Z" fill="#2C4355"/>
<path d="M95.375 110.25H63.875C63.6429 110.25 63.4204 110.158 63.2563 109.994C63.0922 109.83 63 109.607 63 109.375V51.625C63 51.3929 63.0922 51.1704 63.2563 51.0063C63.4204 50.8422 63.6429 50.75 63.875 50.75H95.375C95.6071 50.75 95.8296 50.8422 95.9937 51.0063C96.1578 51.1704 96.25 51.3929 96.25 51.625V109.375C96.25 109.607 96.1578 109.83 95.9937 109.994C95.8296 110.158 95.6071 110.25 95.375 110.25ZM64.75 108.5H94.5V52.5H64.75V108.5ZM58.625 31.5H21.875C21.6429 31.5 21.4204 31.4078 21.2563 31.2437C21.0922 31.0796 21 30.8571 21 30.625V25.375C21 25.1429 21.0922 24.9204 21.2563 24.7563C21.4204 24.5922 21.6429 24.5 21.875 24.5H58.625C58.8571 24.5 59.0796 24.5922 59.2437 24.7563C59.4078 24.9204 59.5 25.1429 59.5 25.375V30.625C59.5 30.8571 59.4078 31.0796 59.2437 31.2437C59.0796 31.4078 58.8571 31.5 58.625 31.5ZM22.75 29.75H57.75V26.25H22.75V29.75Z" fill="#2C4355"/>
<path d="M90.1251 52.5H69.1251C68.8931 52.5 68.6705 52.4078 68.5064 52.2437C68.3423 52.0796 68.2501 51.8571 68.2501 51.625V46.375C68.2501 46.1429 68.3423 45.9204 68.5064 45.7563C68.6705 45.5922 68.8931 45.5 69.1251 45.5H90.1251C90.3572 45.5 90.5797 45.5922 90.7438 45.7563C90.9079 45.9204 91.0001 46.1429 91.0001 46.375V51.625C91.0001 51.8571 90.9079 52.0796 90.7438 52.2437C90.5797 52.4078 90.3572 52.5 90.1251 52.5ZM70.0001 50.75H89.2501V47.25H70.0001V50.75ZM27.1619 42H21.9119C21.6798 42 21.4572 41.9078 21.2931 41.7437C21.1291 41.5796 21.0369 41.3571 21.0369 41.125C21.0369 40.8929 21.1291 40.6704 21.2931 40.5063C21.4572 40.3422 21.6798 40.25 21.9119 40.25H26.2869V35.875C26.2869 35.6429 26.3791 35.4204 26.5431 35.2563C26.7072 35.0922 26.9298 35 27.1619 35C27.3939 35 27.6165 35.0922 27.7806 35.2563C27.9447 35.4204 28.0369 35.6429 28.0369 35.875V41.125C28.0369 41.3571 27.9447 41.5796 27.7806 41.7437C27.6165 41.9078 27.3939 42 27.1619 42ZM37.6619 42H32.4119C32.1798 42 31.9572 41.9078 31.7931 41.7437C31.6291 41.5796 31.5369 41.3571 31.5369 41.125C31.5369 40.8929 31.6291 40.6704 31.7931 40.5063C31.9572 40.3422 32.1798 40.25 32.4119 40.25H36.7869V35.875C36.7869 35.6429 36.8791 35.4204 37.0431 35.2563C37.2072 35.0922 37.4298 35 37.6619 35C37.8939 35 38.1165 35.0922 38.2806 35.2563C38.4447 35.4204 38.5369 35.6429 38.5369 35.875V41.125C38.5369 41.3571 38.4447 41.5796 38.2806 41.7437C38.1165 41.9078 37.8939 42 37.6619 42ZM48.1619 42H42.9119C42.6798 42 42.4572 41.9078 42.2931 41.7437C42.1291 41.5796 42.0369 41.3571 42.0369 41.125C42.0369 40.8929 42.1291 40.6704 42.2931 40.5063C42.4572 40.3422 42.6798 40.25 42.9119 40.25H47.2869V35.875C47.2869 35.6429 47.3791 35.4204 47.5431 35.2563C47.7072 35.0922 47.9298 35 48.1619 35C48.3939 35 48.6165 35.0922 48.7806 35.2563C48.9447 35.4204 49.0369 35.6429 49.0369 35.875V41.125C49.0369 41.3571 48.9447 41.5796 48.7806 41.7437C48.6165 41.9078 48.3939 42 48.1619 42ZM72.6619 61.25H69.1619C68.9298 61.25 68.7072 61.1578 68.5431 60.9937C68.3791 60.8296 68.2869 60.6071 68.2869 60.375C68.2869 60.1429 68.3791 59.9204 68.5431 59.7563C68.7072 59.5922 68.9298 59.5 69.1619 59.5H71.7869V56.875C71.7869 56.6429 71.8791 56.4204 72.0431 56.2563C72.2072 56.0922 72.4298 56 72.6619 56C72.8939 56 73.1165 56.0922 73.2806 56.2563C73.4447 56.4204 73.5369 56.6429 73.5369 56.875V60.375C73.5369 60.6071 73.4447 60.8296 73.2806 60.9937C73.1165 61.1578 72.8939 61.25 72.6619 61.25ZM81.4119 61.25H77.9119C77.6798 61.25 77.4572 61.1578 77.2931 60.9937C77.1291 60.8296 77.0369 60.6071 77.0369 60.375C77.0369 60.1429 77.1291 59.9204 77.2931 59.7563C77.4572 59.5922 77.6798 59.5 77.9119 59.5H80.5369V56.875C80.5369 56.6429 80.6291 56.4204 80.7931 56.2563C80.9572 56.0922 81.1798 56 81.4119 56C81.6439 56 81.8665 56.0922 82.0306 56.2563C82.1947 56.4204 82.2869 56.6429 82.2869 56.875V60.375C82.2869 60.6071 82.1947 60.8296 82.0306 60.9937C81.8665 61.1578 81.6439 61.25 81.4119 61.25ZM90.1619 61.25H86.6619C86.4298 61.25 86.2072 61.1578 86.0431 60.9937C85.8791 60.8296 85.7869 60.6071 85.7869 60.375C85.7869 60.1429 85.8791 59.9204 86.0431 59.7563C86.2072 59.5922 86.4298 59.5 86.6619 59.5H89.2869V56.875C89.2869 56.6429 89.3791 56.4204 89.5431 56.2563C89.7072 56.0922 89.9298 56 90.1619 56C90.3939 56 90.6165 56.0922 90.7806 56.2563C90.9447 56.4204 91.0369 56.6429 91.0369 56.875V60.375C91.0369 60.6071 90.9447 60.8296 90.7806 60.9937C90.6165 61.1578 90.3939 61.25 90.1619 61.25ZM72.6619 70H69.1619C68.9298 70 68.7072 69.9078 68.5431 69.7437C68.3791 69.5796 68.2869 69.3571 68.2869 69.125C68.2869 68.8929 68.3791 68.6704 68.5431 68.5063C68.7072 68.3422 68.9298 68.25 69.1619 68.25H71.7869V65.625C71.7869 65.3929 71.8791 65.1704 72.0431 65.0063C72.2072 64.8422 72.4298 64.75 72.6619 64.75C72.8939 64.75 73.1165 64.8422 73.2806 65.0063C73.4447 65.1704 73.5369 65.3929 73.5369 65.625V69.125C73.5369 69.3571 73.4447 69.5796 73.2806 69.7437C73.1165 69.9078 72.8939 70 72.6619 70ZM81.4119 70H77.9119C77.6798 70 77.4572 69.9078 77.2931 69.7437C77.1291 69.5796 77.0369 69.3571 77.0369 69.125C77.0369 68.8929 77.1291 68.6704 77.2931 68.5063C77.4572 68.3422 77.6798 68.25 77.9119 68.25H80.5369V65.625C80.5369 65.3929 80.6291 65.1704 80.7931 65.0063C80.9572 64.8422 81.1798 64.75 81.4119 64.75C81.6439 64.75 81.8665 64.8422 82.0306 65.0063C82.1947 65.1704 82.2869 65.3929 82.2869 65.625V69.125C82.2869 69.3571 82.1947 69.5796 82.0306 69.7437C81.8665 69.9078 81.6439 70 81.4119 70ZM90.1619 70H86.6619C86.4298 70 86.2072 69.9078 86.0431 69.7437C85.8791 69.5796 85.7869 69.3571 85.7869 69.125C85.7869 68.8929 85.8791 68.6704 86.0431 68.5063C86.2072 68.3422 86.4298 68.25 86.6619 68.25H89.2869V65.625C89.2869 65.3929 89.3791 65.1704 89.5431 65.0063C89.7072 64.8422 89.9298 64.75 90.1619 64.75C90.3939 64.75 90.6165 64.8422 90.7806 65.0063C90.9447 65.1704 91.0369 65.3929 91.0369 65.625V69.125C91.0369 69.3571 90.9447 69.5796 90.7806 69.7437C90.6165 69.9078 90.3939 70 90.1619 70ZM72.6619 78.75H69.1619C68.9298 78.75 68.7072 78.6578 68.5431 78.4937C68.3791 78.3296 68.2869 78.1071 68.2869 77.875C68.2869 77.6429 68.3791 77.4204 68.5431 77.2563C68.7072 77.0922 68.9298 77 69.1619 77H71.7869V74.375C71.7869 74.1429 71.8791 73.9204 72.0431 73.7563C72.2072 73.5922 72.4298 73.5 72.6619 73.5C72.8939 73.5 73.1165 73.5922 73.2806 73.7563C73.4447 73.9204 73.5369 74.1429 73.5369 74.375V77.875C73.5369 78.1071 73.4447 78.3296 73.2806 78.4937C73.1165 78.6578 72.8939 78.75 72.6619 78.75ZM81.4119 78.75H77.9119C77.6798 78.75 77.4572 78.6578 77.2931 78.4937C77.1291 78.3296 77.0369 78.1071 77.0369 77.875C77.0369 77.6429 77.1291 77.4204 77.2931 77.2563C77.4572 77.0922 77.6798 77 77.9119 77H80.5369V74.375C80.5369 74.1429 80.6291 73.9204 80.7931 73.7563C80.9572 73.5922 81.1798 73.5 81.4119 73.5C81.6439 73.5 81.8665 73.5922 82.0306 73.7563C82.1947 73.9204 82.2869 74.1429 82.2869 74.375V77.875C82.2869 78.1071 82.1947 78.3296 82.0306 78.4937C81.8665 78.6578 81.6439 78.75 81.4119 78.75ZM90.1619 78.75H86.6619C86.4298 78.75 86.2072 78.6578 86.0431 78.4937C85.8791 78.3296 85.7869 78.1071 85.7869 77.875C85.7869 77.6429 85.8791 77.4204 86.0431 77.2563C86.2072 77.0922 86.4298 77 86.6619 77H89.2869V74.375C89.2869 74.1429 89.3791 73.9204 89.5431 73.7563C89.7072 73.5922 89.9298 73.5 90.1619 73.5C90.3939 73.5 90.6165 73.5922 90.7806 73.7563C90.9447 73.9204 91.0369 74.1429 91.0369 74.375V77.875C91.0369 78.1071 90.9447 78.3296 90.7806 78.4937C90.6165 78.6578 90.3939 78.75 90.1619 78.75ZM72.6619 87.5H69.1619C68.9298 87.5 68.7072 87.4078 68.5431 87.2437C68.3791 87.0796 68.2869 86.8571 68.2869 86.625C68.2869 86.3929 68.3791 86.1704 68.5431 86.0063C68.7072 85.8422 68.9298 85.75 69.1619 85.75H71.7869V83.125C71.7869 82.8929 71.8791 82.6704 72.0431 82.5063C72.2072 82.3422 72.4298 82.25 72.6619 82.25C72.8939 82.25 73.1165 82.3422 73.2806 82.5063C73.4447 82.6704 73.5369 82.8929 73.5369 83.125V86.625C73.5369 86.8571 73.4447 87.0796 73.2806 87.2437C73.1165 87.4078 72.8939 87.5 72.6619 87.5ZM81.4119 87.5H77.9119C77.6798 87.5 77.4572 87.4078 77.2931 87.2437C77.1291 87.0796 77.0369 86.8571 77.0369 86.625C77.0369 86.3929 77.1291 86.1704 77.2931 86.0063C77.4572 85.8422 77.6798 85.75 77.9119 85.75H80.5369V83.125C80.5369 82.8929 80.6291 82.6704 80.7931 82.5063C80.9572 82.3422 81.1798 82.25 81.4119 82.25C81.6439 82.25 81.8665 82.3422 82.0306 82.5063C82.1947 82.6704 82.2869 82.8929 82.2869 83.125V86.625C82.2869 86.8571 82.1947 87.0796 82.0306 87.2437C81.8665 87.4078 81.6439 87.5 81.4119 87.5ZM90.1619 87.5H86.6619C86.4298 87.5 86.2072 87.4078 86.0431 87.2437C85.8791 87.0796 85.7869 86.8571 85.7869 86.625C85.7869 86.3929 85.8791 86.1704 86.0431 86.0063C86.2072 85.8422 86.4298 85.75 86.6619 85.75H89.2869V83.125C89.2869 82.8929 89.3791 82.6704 89.5431 82.5063C89.7072 82.3422 89.9298 82.25 90.1619 82.25C90.3939 82.25 90.6165 82.3422 90.7806 82.5063C90.9447 82.6704 91.0369 82.8929 91.0369 83.125V86.625C91.0369 86.8571 90.9447 87.0796 90.7806 87.2437C90.6165 87.4078 90.3939 87.5 90.1619 87.5ZM72.6619 96.25H69.1619C68.9298 96.25 68.7072 96.1578 68.5431 95.9937C68.3791 95.8296 68.2869 95.6071 68.2869 95.375C68.2869 95.1429 68.3791 94.9204 68.5431 94.7563C68.7072 94.5922 68.9298 94.5 69.1619 94.5H71.7869V91.875C71.7869 91.6429 71.8791 91.4204 72.0431 91.2563C72.2072 91.0922 72.4298 91 72.6619 91C72.8939 91 73.1165 91.0922 73.2806 91.2563C73.4447 91.4204 73.5369 91.6429 73.5369 91.875V95.375C73.5369 95.6071 73.4447 95.8296 73.2806 95.9937C73.1165 96.1578 72.8939 96.25 72.6619 96.25ZM81.4119 96.25H77.9119C77.6798 96.25 77.4572 96.1578 77.2931 95.9937C77.1291 95.8296 77.0369 95.6071 77.0369 95.375C77.0369 95.1429 77.1291 94.9204 77.2931 94.7563C77.4572 94.5922 77.6798 94.5 77.9119 94.5H80.5369V91.875C80.5369 91.6429 80.6291 91.4204 80.7931 91.2563C80.9572 91.0922 81.1798 91 81.4119 91C81.6439 91 81.8665 91.0922 82.0306 91.2563C82.1947 91.4204 82.2869 91.6429 82.2869 91.875V95.375C82.2869 95.6071 82.1947 95.8296 82.0306 95.9937C81.8665 96.1578 81.6439 96.25 81.4119 96.25ZM90.1619 96.25H86.6619C86.4298 96.25 86.2072 96.1578 86.0431 95.9937C85.8791 95.8296 85.7869 95.6071 85.7869 95.375C85.7869 95.1429 85.8791 94.9204 86.0431 94.7563C86.2072 94.5922 86.4298 94.5 86.6619 94.5H89.2869V91.875C89.2869 91.6429 89.3791 91.4204 89.5431 91.2563C89.7072 91.0922 89.9298 91 90.1619 91C90.3939 91 90.6165 91.0922 90.7806 91.2563C90.9447 91.4204 91.0369 91.6429 91.0369 91.875V95.375C91.0369 95.6071 90.9447 95.8296 90.7806 95.9937C90.6165 96.1578 90.3939 96.25 90.1619 96.25ZM72.6619 105H69.1619C68.9298 105 68.7072 104.908 68.5431 104.744C68.3791 104.58 68.2869 104.357 68.2869 104.125C68.2869 103.893 68.3791 103.67 68.5431 103.506C68.7072 103.342 68.9298 103.25 69.1619 103.25H71.7869V100.625C71.7869 100.393 71.8791 100.17 72.0431 100.006C72.2072 99.8422 72.4298 99.75 72.6619 99.75C72.8939 99.75 73.1165 99.8422 73.2806 100.006C73.4447 100.17 73.5369 100.393 73.5369 100.625V104.125C73.5369 104.357 73.4447 104.58 73.2806 104.744C73.1165 104.908 72.8939 105 72.6619 105ZM81.4119 105H77.9119C77.6798 105 77.4572 104.908 77.2931 104.744C77.1291 104.58 77.0369 104.357 77.0369 104.125C77.0369 103.893 77.1291 103.67 77.2931 103.506C77.4572 103.342 77.6798 103.25 77.9119 103.25H80.5369V100.625C80.5369 100.393 80.6291 100.17 80.7931 100.006C80.9572 99.8422 81.1798 99.75 81.4119 99.75C81.6439 99.75 81.8665 99.8422 82.0306 100.006C82.1947 100.17 82.2869 100.393 82.2869 100.625V104.125C82.2869 104.357 82.1947 104.58 82.0306 104.744C81.8665 104.908 81.6439 105 81.4119 105ZM90.1619 105H86.6619C86.4298 105 86.2072 104.908 86.0431 104.744C85.8791 104.58 85.7869 104.357 85.7869 104.125C85.7869 103.893 85.8791 103.67 86.0431 103.506C86.2072 103.342 86.4298 103.25 86.6619 103.25H89.2869V100.625C89.2869 100.393 89.3791 100.17 89.5431 100.006C89.7072 99.8422 89.9298 99.75 90.1619 99.75C90.3939 99.75 90.6165 99.8422 90.7806 100.006C90.9447 100.17 91.0369 100.393 91.0369 100.625V104.125C91.0369 104.357 90.9447 104.58 90.7806 104.744C90.6165 104.908 90.3939 105 90.1619 105ZM58.6619 42H53.4119C53.1798 42 52.9572 41.9078 52.7931 41.7437C52.6291 41.5796 52.5369 41.3571 52.5369 41.125C52.5369 40.8929 52.6291 40.6704 52.7931 40.5063C52.9572 40.3422 53.1798 40.25 53.4119 40.25H57.7869V35.875C57.7869 35.6429 57.8791 35.4204 58.0431 35.2563C58.2072 35.0922 58.4298 35 58.6619 35C58.8939 35 59.1165 35.0922 59.2806 35.2563C59.4447 35.4204 59.5369 35.6429 59.5369 35.875V41.125C59.5369 41.3571 59.4447 41.5796 59.2806 41.7437C59.1165 41.9078 58.8939 42 58.6619 42ZM27.1619 52.5H21.9119C21.6798 52.5 21.4572 52.4078 21.2931 52.2437C21.1291 52.0796 21.0369 51.8571 21.0369 51.625C21.0369 51.3929 21.1291 51.1704 21.2931 51.0063C21.4572 50.8422 21.6798 50.75 21.9119 50.75H26.2869V46.375C26.2869 46.1429 26.3791 45.9204 26.5431 45.7563C26.7072 45.5922 26.9298 45.5 27.1619 45.5C27.3939 45.5 27.6165 45.5922 27.7806 45.7563C27.9447 45.9204 28.0369 46.1429 28.0369 46.375V51.625C28.0369 51.8571 27.9447 52.0796 27.7806 52.2437C27.6165 52.4078 27.3939 52.5 27.1619 52.5ZM37.6619 52.5H32.4119C32.1798 52.5 31.9572 52.4078 31.7931 52.2437C31.6291 52.0796 31.5369 51.8571 31.5369 51.625C31.5369 51.3929 31.6291 51.1704 31.7931 51.0063C31.9572 50.8422 32.1798 50.75 32.4119 50.75H36.7869V46.375C36.7869 46.1429 36.8791 45.9204 37.0431 45.7563C37.2072 45.5922 37.4298 45.5 37.6619 45.5C37.8939 45.5 38.1165 45.5922 38.2806 45.7563C38.4447 45.9204 38.5369 46.1429 38.5369 46.375V51.625C38.5369 51.8571 38.4447 52.0796 38.2806 52.2437C38.1165 52.4078 37.8939 52.5 37.6619 52.5ZM48.1619 52.5H42.9119C42.6798 52.5 42.4572 52.4078 42.2931 52.2437C42.1291 52.0796 42.0369 51.8571 42.0369 51.625C42.0369 51.3929 42.1291 51.1704 42.2931 51.0063C42.4572 50.8422 42.6798 50.75 42.9119 50.75H47.2869V46.375C47.2869 46.1429 47.3791 45.9204 47.5431 45.7563C47.7072 45.5922 47.9298 45.5 48.1619 45.5C48.3939 45.5 48.6165 45.5922 48.7806 45.7563C48.9447 45.9204 49.0369 46.1429 49.0369 46.375V51.625C49.0369 51.8571 48.9447 52.0796 48.7806 52.2437C48.6165 52.4078 48.3939 52.5 48.1619 52.5ZM58.6619 52.5H53.4119C53.1798 52.5 52.9572 52.4078 52.7931 52.2437C52.6291 52.0796 52.5369 51.8571 52.5369 51.625C52.5369 51.3929 52.6291 51.1704 52.7931 51.0063C52.9572 50.8422 53.1798 50.75 53.4119 50.75H57.7869V46.375C57.7869 46.1429 57.8791 45.9204 58.0431 45.7563C58.2072 45.5922 58.4298 45.5 58.6619 45.5C58.8939 45.5 59.1165 45.5922 59.2806 45.7563C59.4447 45.9204 59.5369 46.1429 59.5369 46.375V51.625C59.5369 51.8571 59.4447 52.0796 59.2806 52.2437C59.1165 52.4078 58.8939 52.5 58.6619 52.5ZM27.1619 63H21.9119C21.6798 63 21.4572 62.9078 21.2931 62.7437C21.1291 62.5796 21.0369 62.3571 21.0369 62.125C21.0369 61.8929 21.1291 61.6704 21.2931 61.5063C21.4572 61.3422 21.6798 61.25 21.9119 61.25H26.2869V56.875C26.2869 56.6429 26.3791 56.4204 26.5431 56.2563C26.7072 56.0922 26.9298 56 27.1619 56C27.3939 56 27.6165 56.0922 27.7806 56.2563C27.9447 56.4204 28.0369 56.6429 28.0369 56.875V62.125C28.0369 62.3571 27.9447 62.5796 27.7806 62.7437C27.6165 62.9078 27.3939 63 27.1619 63ZM37.6619 63H32.4119C32.1798 63 31.9572 62.9078 31.7931 62.7437C31.6291 62.5796 31.5369 62.3571 31.5369 62.125C31.5369 61.8929 31.6291 61.6704 31.7931 61.5063C31.9572 61.3422 32.1798 61.25 32.4119 61.25H36.7869V56.875C36.7869 56.6429 36.8791 56.4204 37.0431 56.2563C37.2072 56.0922 37.4298 56 37.6619 56C37.8939 56 38.1165 56.0922 38.2806 56.2563C38.4447 56.4204 38.5369 56.6429 38.5369 56.875V62.125C38.5369 62.3571 38.4447 62.5796 38.2806 62.7437C38.1165 62.9078 37.8939 63 37.6619 63ZM48.1619 63H42.9119C42.6798 63 42.4572 62.9078 42.2931 62.7437C42.1291 62.5796 42.0369 62.3571 42.0369 62.125C42.0369 61.8929 42.1291 61.6704 42.2931 61.5063C42.4572 61.3422 42.6798 61.25 42.9119 61.25H47.2869V56.875C47.2869 56.6429 47.3791 56.4204 47.5431 56.2563C47.7072 56.0922 47.9298 56 48.1619 56C48.3939 56 48.6165 56.0922 48.7806 56.2563C48.9447 56.4204 49.0369 56.6429 49.0369 56.875V62.125C49.0369 62.3571 48.9447 62.5796 48.7806 62.7437C48.6165 62.9078 48.3939 63 48.1619 63ZM58.6619 63H53.4119C53.1798 63 52.9572 62.9078 52.7931 62.7437C52.6291 62.5796 52.5369 62.3571 52.5369 62.125C52.5369 61.8929 52.6291 61.6704 52.7931 61.5063C52.9572 61.3422 53.1798 61.25 53.4119 61.25H57.7869V56.875C57.7869 56.6429 57.8791 56.4204 58.0431 56.2563C58.2072 56.0922 58.4298 56 58.6619 56C58.8939 56 59.1165 56.0922 59.2806 56.2563C59.4447 56.4204 59.5369 56.6429 59.5369 56.875V62.125C59.5369 62.3571 59.4447 62.5796 59.2806 62.7437C59.1165 62.9078 58.8939 63 58.6619 63ZM27.1619 73.5H21.9119C21.6798 73.5 21.4572 73.4078 21.2931 73.2437C21.1291 73.0796 21.0369 72.8571 21.0369 72.625C21.0369 72.3929 21.1291 72.1704 21.2931 72.0063C21.4572 71.8422 21.6798 71.75 21.9119 71.75H26.2869V67.375C26.2869 67.1429 26.3791 66.9204 26.5431 66.7563C26.7072 66.5922 26.9298 66.5 27.1619 66.5C27.3939 66.5 27.6165 66.5922 27.7806 66.7563C27.9447 66.9204 28.0369 67.1429 28.0369 67.375V72.625C28.0369 72.8571 27.9447 73.0796 27.7806 73.2437C27.6165 73.4078 27.3939 73.5 27.1619 73.5ZM37.6619 73.5H32.4119C32.1798 73.5 31.9572 73.4078 31.7931 73.2437C31.6291 73.0796 31.5369 72.8571 31.5369 72.625C31.5369 72.3929 31.6291 72.1704 31.7931 72.0063C31.9572 71.8422 32.1798 71.75 32.4119 71.75H36.7869V67.375C36.7869 67.1429 36.8791 66.9204 37.0431 66.7563C37.2072 66.5922 37.4298 66.5 37.6619 66.5C37.8939 66.5 38.1165 66.5922 38.2806 66.7563C38.4447 66.9204 38.5369 67.1429 38.5369 67.375V72.625C38.5369 72.8571 38.4447 73.0796 38.2806 73.2437C38.1165 73.4078 37.8939 73.5 37.6619 73.5ZM48.1619 73.5H42.9119C42.6798 73.5 42.4572 73.4078 42.2931 73.2437C42.1291 73.0796 42.0369 72.8571 42.0369 72.625C42.0369 72.3929 42.1291 72.1704 42.2931 72.0063C42.4572 71.8422 42.6798 71.75 42.9119 71.75H47.2869V67.375C47.2869 67.1429 47.3791 66.9204 47.5431 66.7563C47.7072 66.5922 47.9298 66.5 48.1619 66.5C48.3939 66.5 48.6165 66.5922 48.7806 66.7563C48.9447 66.9204 49.0369 67.1429 49.0369 67.375V72.625C49.0369 72.8571 48.9447 73.0796 48.7806 73.2437C48.6165 73.4078 48.3939 73.5 48.1619 73.5ZM58.6619 73.5H53.4119C53.1798 73.5 52.9572 73.4078 52.7931 73.2437C52.6291 73.0796 52.5369 72.8571 52.5369 72.625C52.5369 72.3929 52.6291 72.1704 52.7931 72.0063C52.9572 71.8422 53.1798 71.75 53.4119 71.75H57.7869V67.375C57.7869 67.1429 57.8791 66.9204 58.0431 66.7563C58.2072 66.5922 58.4298 66.5 58.6619 66.5C58.8939 66.5 59.1165 66.5922 59.2806 66.7563C59.4447 66.9204 59.5369 67.1429 59.5369 67.375V72.625C59.5369 72.8571 59.4447 73.0796 59.2806 73.2437C59.1165 73.4078 58.8939 73.5 58.6619 73.5ZM27.1619 84H21.9119C21.6798 84 21.4572 83.9078 21.2931 83.7437C21.1291 83.5796 21.0369 83.3571 21.0369 83.125C21.0369 82.8929 21.1291 82.6704 21.2931 82.5063C21.4572 82.3422 21.6798 82.25 21.9119 82.25H26.2869V77.875C26.2869 77.6429 26.3791 77.4204 26.5431 77.2563C26.7072 77.0922 26.9298 77 27.1619 77C27.3939 77 27.6165 77.0922 27.7806 77.2563C27.9447 77.4204 28.0369 77.6429 28.0369 77.875V83.125C28.0369 83.3571 27.9447 83.5796 27.7806 83.7437C27.6165 83.9078 27.3939 84 27.1619 84ZM37.6619 84H32.4119C32.1798 84 31.9572 83.9078 31.7931 83.7437C31.6291 83.5796 31.5369 83.3571 31.5369 83.125C31.5369 82.8929 31.6291 82.6704 31.7931 82.5063C31.9572 82.3422 32.1798 82.25 32.4119 82.25H36.7869V77.875C36.7869 77.6429 36.8791 77.4204 37.0431 77.2563C37.2072 77.0922 37.4298 77 37.6619 77C37.8939 77 38.1165 77.0922 38.2806 77.2563C38.4447 77.4204 38.5369 77.6429 38.5369 77.875V83.125C38.5369 83.3571 38.4447 83.5796 38.2806 83.7437C38.1165 83.9078 37.8939 84 37.6619 84ZM48.1619 84H42.9119C42.6798 84 42.4572 83.9078 42.2931 83.7437C42.1291 83.5796 42.0369 83.3571 42.0369 83.125C42.0369 82.8929 42.1291 82.6704 42.2931 82.5063C42.4572 82.3422 42.6798 82.25 42.9119 82.25H47.2869V77.875C47.2869 77.6429 47.3791 77.4204 47.5431 77.2563C47.7072 77.0922 47.9298 77 48.1619 77C48.3939 77 48.6165 77.0922 48.7806 77.2563C48.9447 77.4204 49.0369 77.6429 49.0369 77.875V83.125C49.0369 83.3571 48.9447 83.5796 48.7806 83.7437C48.6165 83.9078 48.3939 84 48.1619 84ZM58.6619 84H53.4119C53.1798 84 52.9572 83.9078 52.7931 83.7437C52.6291 83.5796 52.5369 83.3571 52.5369 83.125C52.5369 82.8929 52.6291 82.6704 52.7931 82.5063C52.9572 82.3422 53.1798 82.25 53.4119 82.25H57.7869V77.875C57.7869 77.6429 57.8791 77.4204 58.0431 77.2563C58.2072 77.0922 58.4298 77 58.6619 77C58.8939 77 59.1165 77.0922 59.2806 77.2563C59.4447 77.4204 59.5369 77.6429 59.5369 77.875V83.125C59.5369 83.3571 59.4447 83.5796 59.2806 83.7437C59.1165 83.9078 58.8939 84 58.6619 84ZM27.1619 94.5H21.9119C21.6798 94.5 21.4572 94.4078 21.2931 94.2437C21.1291 94.0796 21.0369 93.8571 21.0369 93.625C21.0369 93.3929 21.1291 93.1704 21.2931 93.0063C21.4572 92.8422 21.6798 92.75 21.9119 92.75H26.2869V88.375C26.2869 88.1429 26.3791 87.9204 26.5431 87.7563C26.7072 87.5922 26.9298 87.5 27.1619 87.5C27.3939 87.5 27.6165 87.5922 27.7806 87.7563C27.9447 87.9204 28.0369 88.1429 28.0369 88.375V93.625C28.0369 93.8571 27.9447 94.0796 27.7806 94.2437C27.6165 94.4078 27.3939 94.5 27.1619 94.5ZM58.6619 94.857H53.4119C53.1798 94.857 52.9572 94.7648 52.7931 94.6007C52.6291 94.4366 52.5369 94.2141 52.5369 93.982C52.5369 93.7499 52.6291 93.5274 52.7931 93.3633C52.9572 93.1992 53.1798 93.107 53.4119 93.107H57.7869V88.732C57.7869 88.4999 57.8791 88.2774 58.0431 88.1133C58.2072 87.9492 58.4298 87.857 58.6619 87.857C58.8939 87.857 59.1165 87.9492 59.2806 88.1133C59.4447 88.2774 59.5369 88.4999 59.5369 88.732V93.982C59.5369 94.2141 59.4447 94.4366 59.2806 94.6007C59.1165 94.7648 58.8939 94.857 58.6619 94.857ZM27.1619 105H21.9119C21.6798 105 21.4572 104.908 21.2931 104.744C21.1291 104.58 21.0369 104.357 21.0369 104.125C21.0369 103.893 21.1291 103.67 21.2931 103.506C21.4572 103.342 21.6798 103.25 21.9119 103.25H26.2869V98.875C26.2869 98.6429 26.3791 98.4204 26.5431 98.2563C26.7072 98.0922 26.9298 98 27.1619 98C27.3939 98 27.6165 98.0922 27.7806 98.2563C27.9447 98.4204 28.0369 98.6429 28.0369 98.875V104.125C28.0369 104.357 27.9447 104.58 27.7806 104.744C27.6165 104.908 27.3939 105 27.1619 105ZM58.6619 105.357H53.4119C53.1798 105.357 52.9572 105.265 52.7931 105.101C52.6291 104.937 52.5369 104.714 52.5369 104.482C52.5369 104.25 52.6291 104.027 52.7931 103.863C52.9572 103.699 53.1798 103.607 53.4119 103.607H57.7869V99.232C57.7869 98.9999 57.8791 98.7774 58.0431 98.6133C58.2072 98.4492 58.4298 98.357 58.6619 98.357C58.8939 98.357 59.1165 98.4492 59.2806 98.6133C59.4447 98.7774 59.5369 98.9999 59.5369 99.232V104.482C59.5369 104.714 59.4447 104.937 59.2806 105.101C59.1165 105.265 58.8939 105.357 58.6619 105.357Z" fill="#2C4355"/>
</svg>
