<svg width="421" height="286" viewBox="0 0 421 286" fill="none" xmlns="http://www.w3.org/2000/svg">
<path d="M367.47 170.595C367.19 172.514 366.952 173.707 366.893 173.98C365.415 180.89 363.043 187.579 359.838 193.876V193.88C358.926 195.685 357.95 197.465 356.91 199.218C353.877 204.312 350.407 209.133 346.537 213.625C344.187 216.373 341.681 219.038 339.022 221.617C327.507 232.823 313.321 242.407 297.756 250.158C294.832 251.616 291.862 253.007 288.845 254.33C279.296 258.516 269.467 262.03 259.429 264.845C257.352 265.43 255.27 265.984 253.184 266.506C249.563 267.419 245.926 268.238 242.297 268.959C237.393 269.937 232.507 270.743 227.64 271.376C221.415 272.187 215.244 272.702 209.194 272.924C201.97 273.175 194.739 273.053 187.528 272.558C183.829 272.316 180.075 271.973 176.29 271.532C176.285 271.534 176.281 271.535 176.276 271.535C176.271 271.535 176.267 271.534 176.262 271.532C172.906 271.146 169.528 270.683 166.127 270.144C165.199 269.996 164.272 269.84 163.34 269.684C157.044 268.604 150.729 267.255 144.481 265.629C144.368 265.602 144.255 265.574 144.142 265.539C144.078 265.527 144.016 265.512 143.954 265.493C143.779 265.45 143.604 265.403 143.428 265.352C137.862 263.878 132.361 262.182 126.982 260.256C123.197 258.903 119.47 257.433 115.833 255.847C114.102 255.094 112.394 254.314 110.707 253.507C109.163 252.77 107.638 252.01 106.131 251.226C97.239 246.61 89.0607 241.21 81.9933 234.987C78.7921 232.178 75.7934 229.146 73.0198 225.914C68.807 221.022 65.2469 215.604 62.4285 209.796C61.0426 206.922 59.8624 203.954 58.8968 200.914C58.4953 199.655 58.1276 198.373 57.7936 197.07C56.2965 191.121 55.4702 185.024 55.33 178.892C55.291 177.423 55.291 175.946 55.33 174.463C55.4537 169.302 56.0473 164.163 57.1037 159.109C59.9064 145.794 66.0304 133.477 75.8421 125.262C92.7366 111.109 118.819 110.594 134.977 111.943C141.272 112.47 146.063 113.277 148.215 113.674C151.415 114.263 154.55 114.992 157.719 115.756C169.464 118.583 181.704 121.85 199.526 119.846C201.382 119.636 207.849 118.856 219.688 115.561C228.533 113.162 237.175 110.071 245.536 106.317C245.91 106.145 246.281 105.978 246.647 105.81C247.594 105.37 248.507 104.937 249.399 104.504C249.625 104.395 249.855 104.282 250.078 104.173C251.875 103.291 253.57 102.422 255.192 101.572H255.2C255.258 101.541 255.313 101.51 255.371 101.478C255.593 101.361 255.812 101.248 256.03 101.131C256.052 101.122 256.073 101.11 256.092 101.096C258.455 99.8525 260.673 98.6477 262.84 97.5053C263.288 97.2674 263.737 97.0335 264.181 96.8035C264.493 96.6436 264.805 96.4798 265.117 96.3239C265.331 96.2147 265.545 96.1055 265.756 95.9964H265.76C267.062 95.3413 268.356 94.7097 269.677 94.1093C271.732 93.1696 273.841 92.304 276.086 91.5242C277.856 90.9043 279.707 90.3428 281.688 89.8399C301.319 84.8453 330.676 86.44 349.352 103.728C364.562 117.815 368.234 138.191 368.523 153.389C368.631 159.144 368.279 164.897 367.47 170.595Z" fill="#F1F4F8"/>
<path d="M242.295 159.85V268.959C231.385 271.164 220.315 272.49 209.192 272.924C180.728 273.965 145.415 268.74 115.832 255.85C110.918 253.719 106.121 251.33 101.459 248.692C101.455 248.692 101.455 248.688 101.452 248.688C98.6331 247.086 95.9031 245.399 93.2615 243.627C90.8485 242.009 88.5213 240.318 86.2799 238.555C84.8103 237.393 83.381 236.201 81.9919 234.979C71.2954 225.563 63.1366 214.26 58.8954 200.914C58.4978 199.655 58.1275 198.376 57.7961 197.073C56.2963 191.126 55.4686 185.029 55.3286 178.896V174.463C55.4522 169.303 56.0459 164.165 57.1023 159.113H85.6757V198.52H90.5679V119.948H120.915V238.172H139.515V140.511L211.954 176.736V159.85C211.954 157.985 212.321 156.139 213.034 154.416C213.748 152.693 214.794 151.127 216.112 149.809C217.43 148.49 218.995 147.444 220.718 146.731C222.44 146.017 224.287 145.65 226.151 145.65H228.1C231.865 145.65 235.476 147.146 238.138 149.809C240.8 152.472 242.296 156.084 242.295 159.85ZM367.469 158.99V170.598C367.191 172.513 366.953 173.706 366.894 173.98C357.096 220.208 306.238 253.188 253.185 266.508V131.698H283.529V233.522H288.424V172.438L318.768 159.111V158.99C318.755 155.784 319.375 152.606 320.593 149.64C321.811 146.674 323.603 143.978 325.865 141.706C328.127 139.434 330.816 137.631 333.777 136.401C336.737 135.171 339.912 134.538 343.117 134.538C346.323 134.538 349.498 135.171 352.458 136.401C355.419 137.631 358.107 139.434 360.37 141.706C362.632 143.978 364.424 146.674 365.642 149.64C366.859 152.606 367.48 155.784 367.467 158.99H367.469Z" fill="#EAEBEE"/>
<path d="M356.912 199.217C353.878 204.312 350.407 209.132 346.537 213.623V205.012C346.537 201.81 350.92 199.215 356.329 199.215L356.912 199.217Z" fill="#BDCFD3"/>
<path d="M166.128 270.143C165.2 269.997 164.272 269.843 163.342 269.683C150.974 267.595 138.809 264.442 126.983 260.26L144.714 212.681L166.128 270.143ZM110.707 253.509C95.8656 246.422 82.7335 237.285 73.0205 225.914L86.7225 189.146L110.707 253.509ZM359.838 193.879C358.928 195.686 357.953 197.465 356.912 199.216C353.879 204.311 350.407 209.131 346.537 213.623C344.185 216.372 341.681 219.036 339.023 221.616C318.525 241.558 289.583 256.364 259.428 264.847C257.353 265.429 255.272 265.983 253.186 266.507C249.563 267.417 245.932 268.234 242.295 268.959C237.394 269.937 232.508 270.743 227.638 271.377C228.345 270.796 229.09 270.266 229.871 269.789C234.363 267.055 239.611 265.605 243.761 262.376C241.61 260.734 243.31 257.307 245.25 255.422C249.876 250.939 255.404 247.493 261.466 245.314C260.491 237.703 268.846 230.529 276.22 232.643C276.268 230.777 276.978 228.99 278.223 227.6C279.468 226.21 281.166 225.309 283.015 225.057C284.863 224.806 286.741 225.221 288.312 226.227C289.883 227.234 291.044 228.767 291.589 230.552C291.902 227.881 292.651 225.28 293.807 222.852C294.815 220.73 297.971 220.893 298.714 223.125C298.718 223.14 298.723 223.155 298.729 223.169C301.174 218.248 308.864 217.103 312.635 221.103C311.32 216.203 317.222 211.089 321.883 213.09C319.646 209.806 319.042 205.22 321.152 201.852C323.261 198.485 328.386 197.146 331.456 199.669C329.276 195.951 332.022 190.403 336.301 189.883C338.484 189.617 340.651 190.459 342.852 190.515C343.99 190.54 345.11 190.24 346.083 189.651C348.518 188.111 351.703 188.341 353.645 190.467C354.962 191.95 355.987 193.668 356.667 195.531C357.762 195.012 358.809 194.439 359.838 193.879Z" fill="#DCDEE0"/>
<g filter="url(#filter0_d_333_6186)">
<path d="M129.485 98.2968H52.7381C51.4327 96.0321 50.8969 93.4049 51.2112 90.8097C51.5256 88.2145 52.6731 85.7913 54.4814 83.9039C56.2898 82.0165 58.6615 80.7668 61.2405 80.3423C63.8194 79.9179 66.4664 80.3416 68.7841 81.5499C68.9981 78.8549 69.7976 76.2391 71.1266 73.885C72.4556 71.5308 74.2821 69.4951 76.4788 67.9199C78.6755 66.3447 81.1894 65.2678 83.8451 64.7645C86.5007 64.2612 89.2342 64.3436 91.8548 65.0059C94.4753 65.6682 96.9198 66.8945 99.0177 68.5992C101.116 70.3038 102.816 72.4459 104.001 74.8757C105.186 77.3056 105.827 79.9648 105.878 82.6678C105.929 85.3708 105.391 88.0525 104.299 90.5257C112.685 93.1891 120.909 96.4428 129.485 98.2968Z" fill="white"/>
</g>
<g filter="url(#filter1_d_333_6186)">
<path d="M256.324 70.1071H361.037C362.817 67.0172 363.547 63.4331 363.118 59.8927C362.689 56.3523 361.123 53.0466 358.656 50.4718C356.189 47.8971 352.954 46.1921 349.435 45.6128C345.917 45.0336 342.306 45.6112 339.144 47.2591C338.853 43.5815 337.762 40.0119 335.949 36.7992C334.136 33.5866 331.644 30.8084 328.647 28.6585C325.65 26.5087 322.219 25.039 318.596 24.3521C314.972 23.6652 311.242 23.7775 307.666 24.6813C304.09 25.5851 300.754 27.2586 297.892 29.585C295.029 31.9113 292.709 34.8345 291.092 38.1504C289.476 41.4664 288.602 45.0952 288.533 48.7837C288.463 52.4721 289.2 56.1313 290.69 59.5058C279.247 63.1346 268.026 67.5763 256.324 70.1071Z" fill="white"/>
</g>
<path d="M244.492 268.51C243.759 268.662 243.03 268.815 242.297 268.959H242.293C241.681 269.084 241.069 269.201 240.457 269.318C240.02 269.399 239.584 269.485 239.147 269.563C238.621 269.661 238.091 269.758 237.565 269.848C237.179 269.922 236.797 269.988 236.415 270.051C235.927 270.136 235.44 270.218 234.953 270.296C234.36 270.394 233.772 270.491 233.179 270.585L233.008 270.608C232.435 270.698 231.862 270.784 231.293 270.869C230.071 271.049 228.854 271.218 227.64 271.376C226.86 271.478 226.083 271.574 225.309 271.665C224.619 271.747 223.929 271.825 223.243 271.899C222.853 271.945 222.463 271.984 222.077 272.019C221.773 272.055 221.469 272.086 221.165 272.113C220.791 272.152 220.417 272.187 220.046 272.218C219.547 272.269 219.045 272.312 218.546 272.351C218.444 272.363 218.343 272.37 218.245 272.378C217.532 272.441 216.819 272.495 216.109 272.546C216.07 272.55 216.027 272.554 215.988 272.554C215.326 272.6 214.663 272.647 214 272.686C213.887 272.694 213.774 272.702 213.661 272.706C213.096 272.741 212.535 272.772 211.973 272.799C211.042 272.85 210.114 272.889 209.19 272.924C206.843 273.01 204.454 273.053 202.021 273.053C201.335 273.053 200.645 273.049 199.955 273.041C199.339 273.037 198.716 273.029 198.096 273.014C197.831 273.01 197.566 273.006 197.301 272.998C196.751 272.986 196.197 272.971 195.64 272.955C195.613 272.956 195.585 272.955 195.558 272.951C194.829 272.932 194.1 272.905 193.367 272.873C192.03 272.819 190.686 272.753 189.333 272.675C189.255 272.671 189.177 272.663 189.103 272.659C188.873 272.647 188.647 272.632 188.417 272.616C187.848 272.581 187.275 272.546 186.702 272.503C186.175 272.468 185.649 272.429 185.119 272.386C184.226 272.32 183.334 272.246 182.441 272.164C182.149 272.14 181.852 272.113 181.56 272.086C181.217 272.055 180.87 272.02 180.523 271.988C180.266 271.961 180.005 271.938 179.747 271.91C178.204 271.754 176.655 271.583 175.101 271.396C174.419 271.314 173.736 271.232 173.054 271.142C172.567 271.08 172.08 271.014 171.596 270.947C171.21 270.897 170.828 270.842 170.442 270.787C169.004 270.589 167.566 270.37 166.127 270.144C166.125 270.144 166.123 270.144 166.121 270.143C166.119 270.143 166.117 270.142 166.115 270.14C165.656 270.07 165.196 269.992 164.736 269.918C164.276 269.844 163.808 269.762 163.34 269.684C162.892 269.606 162.443 269.528 161.995 269.446C161.079 269.286 160.162 269.117 159.243 268.939C158.795 268.857 158.35 268.772 157.906 268.682C157.547 268.616 157.189 268.546 156.834 268.471V268.468L157.614 257.047V257.044L158.042 250.829H158.931L166.642 250.825H166.794L166.973 250.829H166.977L201.62 250.821H201.624L202.559 250.817H203.109L209.428 250.813H209.436L210.071 250.817H210.129L229.932 250.813L233.421 250.809H236.508L237.202 250.813L242.293 250.809H242.66V250.821L243.4 257.944L244.137 265.06L244.141 265.091V265.107L244.207 265.773V265.777L244.492 268.51Z" fill="#687ED4"/>
<path d="M242.659 250.807L157.616 257.043L158.041 250.827L242.659 250.807Z" fill="#4863C9"/>
<path d="M201.31 265.718L202.795 265.725L202.719 250.792L201.231 250.783L201.31 265.718Z" fill="#4863C9"/>
<path d="M204.487 261.248C205.154 261.28 205.82 261.179 206.448 260.951C207.075 260.724 207.651 260.374 208.143 259.922C211.071 257.122 209.764 250.935 209.707 250.673L208.256 250.979C208.269 251.035 209.444 256.612 207.113 258.839C206.083 259.822 204.434 260.014 202.211 259.409L201.835 260.849C202.698 261.096 203.59 261.23 204.487 261.248ZM157.333 267.287C158.342 267.325 159.349 267.149 160.286 266.771C161.223 266.393 162.07 265.822 162.772 265.095C166.997 260.689 165.851 251.192 165.802 250.79L164.314 250.956C164.326 251.048 165.422 260.158 161.682 264.053C160.406 265.382 158.741 265.939 156.596 265.758L156.49 267.249C156.777 267.274 157.058 267.286 157.333 267.287ZM242.582 265.898C243.021 265.898 243.459 265.852 243.889 265.761L243.588 264.308C243.009 264.459 242.403 264.468 241.82 264.335C241.237 264.202 240.695 263.931 240.238 263.544C236.634 260.503 236.81 250.891 236.812 250.794L235.336 250.75C235.326 251.175 235.149 261.183 239.297 264.68C240.209 265.469 241.376 265.902 242.582 265.898Z" fill="#4863C9"/>
<path d="M281.012 192.048L254.361 213.558L242.849 190.535V250.821H158.045V189.626L145.021 210.529L118.67 186.597L145.107 143.88C147.056 140.73 149.777 138.131 153.012 136.329C156.247 134.526 159.889 133.581 163.592 133.583H236.618C239.872 133.582 243.086 134.313 246.02 135.721C248.954 137.13 251.535 139.18 253.571 141.72C254.403 142.754 255.138 143.864 255.765 145.034L281.012 192.048Z" fill="#F2DBCA"/>
<path d="M222.74 95.0128C222.74 95.0128 224.592 103.591 222.974 105.282C221.357 106.972 214.975 90.4459 222.74 95.0128Z" fill="#32477B"/>
<path d="M198.666 84.9349L220.568 91.4735C229.422 127.364 213.756 127.141 213.756 127.141L214.277 132.706C214.434 134.373 214.231 136.054 213.682 137.637C213.133 139.219 212.252 140.665 211.097 141.878C209.942 143.09 208.541 144.041 206.988 144.666C205.434 145.291 203.765 145.576 202.093 145.501C200.556 145.432 199.048 145.061 197.655 144.41C196.262 143.758 195.011 142.838 193.973 141.703C192.935 140.568 192.131 139.239 191.606 137.793C191.082 136.347 190.847 134.812 190.916 133.275L191.993 109.197L187.792 109.009C186.955 108.972 186.134 108.77 185.375 108.415C184.617 108.06 183.935 107.56 183.37 106.941C182.805 106.323 182.367 105.6 182.082 104.812C181.796 104.025 181.669 103.189 181.706 102.352C181.716 102.121 181.737 101.89 181.768 101.66C181.904 100.669 182.233 99.714 182.737 98.8498C183.242 97.9857 183.911 97.2294 184.708 96.624C185.504 96.0187 186.412 95.5763 187.38 95.3219C188.347 95.0676 189.355 95.0063 190.346 95.1417L192.549 95.4423L198.666 84.9349Z" fill="#BEA18B"/>
<path d="M221.53 95.2556C221.491 95.2583 221.461 95.2583 221.441 95.2595C214.024 95.6821 205.186 94.1915 201.198 93.4121C200.629 93.3057 200.04 93.398 199.531 93.6736C199.021 93.9492 198.622 94.3913 198.399 94.9261C197.351 97.3563 195.588 99.5382 194.196 101.023C194.04 101.189 193.837 101.302 193.614 101.348C193.391 101.394 193.16 101.371 192.951 101.28C192.742 101.19 192.566 101.038 192.446 100.844C192.327 100.651 192.27 100.425 192.283 100.198L192.494 96.4666C192.51 96.1878 192.42 95.9134 192.242 95.6979C192.065 95.4825 191.812 95.3419 191.536 95.3043L190.349 95.1425C188.348 94.8687 186.32 95.4014 184.711 96.6232C183.102 97.845 182.045 99.656 181.771 101.658C181.74 101.888 181.721 102.118 181.709 102.352C181.705 102.449 181.701 102.543 181.701 102.64C181.703 104.282 182.337 105.859 183.472 107.045C184.607 108.231 186.155 108.934 187.794 109.007L191.996 109.194L191.54 119.351C167.068 91.3098 186.445 77.4879 186.445 77.4879C186.4 75.1096 188.406 74.4097 190.23 74.2619C191.499 74.1843 192.763 74.4862 193.86 75.1291C197.731 77.2906 204.153 72.8427 210.906 71.1365C213.49 70.4838 222.99 68.0832 227 72.3214C232.447 78.0821 226.63 94.9249 221.53 95.2556Z" fill="#32477B"/>
<path d="M185.246 103.196C185.24 103.174 184.636 101.028 185.706 99.7706C186.418 98.9362 187.747 98.6329 189.66 98.8676L189.804 97.6897C187.468 97.4043 185.784 97.8457 184.8 99.0068C183.317 100.757 184.075 103.417 184.109 103.53L185.246 103.196Z" fill="#937344"/>
<path d="M218.609 110.601L214.801 102.385L213.725 102.884L217.053 110.064L212.581 112.349L213.12 113.406L218.609 110.601Z" fill="#937344"/>
<path d="M219.75 102.231C219.831 103.068 220.296 103.709 220.782 103.663C221.269 103.617 221.601 102.895 221.519 102.058C221.504 101.892 221.471 101.729 221.421 101.571C221.36 101.34 221.251 101.125 221.102 100.939C220.739 100.92 220.374 100.924 220.011 100.951C219.887 101.138 219.806 101.35 219.773 101.572C219.736 101.79 219.728 102.011 219.75 102.231ZM202.25 97.8383C202.241 97.7953 202.242 97.7509 202.25 97.7078C202.259 97.6647 202.276 97.6238 202.3 97.5873C202.325 97.5508 202.356 97.5194 202.393 97.4951C202.429 97.4707 202.47 97.4538 202.513 97.4453L209.028 96.0978C209.362 96.0286 209.709 96.0764 210.012 96.2331C210.315 96.3899 210.555 96.6461 210.691 96.9587L210.824 97.2664C210.89 97.416 210.916 97.5801 210.9 97.7427C210.883 97.9053 210.825 98.0609 210.731 98.1945C210.637 98.3281 210.51 98.4352 210.363 98.5054C210.215 98.5755 210.052 98.6065 209.889 98.5951L202.557 98.1074C202.484 98.1028 202.413 98.0738 202.358 98.0252C202.302 97.9765 202.264 97.9108 202.25 97.8383ZM223.551 97.0016C223.558 96.9243 223.534 96.8473 223.485 96.7874C223.436 96.7275 223.364 96.6897 223.287 96.6823L217.488 96.1154C217.19 96.0862 216.892 96.1602 216.643 96.325C216.393 96.4898 216.209 96.7353 216.119 97.0203L216.03 97.3007C215.987 97.4371 215.98 97.5824 216.009 97.7225C216.038 97.8626 216.103 97.9928 216.197 98.1005C216.292 98.2081 216.412 98.2895 216.547 98.3368C216.682 98.3842 216.827 98.3958 216.968 98.3706L223.309 97.2625C223.372 97.2516 223.43 97.2202 223.474 97.173C223.518 97.1259 223.545 97.0656 223.551 97.0016Z" fill="#32477B"/>
<path d="M214.285 132.776C209.686 132.183 205.437 130.008 202.266 126.625C205.79 127.978 213.757 127.139 213.757 127.139L214.285 132.776Z" fill="#937344"/>
<path d="M251.746 65.3049C249.888 64.6534 247.862 64.6605 246.008 65.3252C245.786 65.402 245.582 65.5262 245.412 65.6894C245.242 65.8525 245.109 66.0507 245.023 66.2702C244.936 66.4897 244.899 66.7253 244.912 66.9607C244.926 67.1961 244.991 67.4257 245.102 67.6338L245.117 67.6646C245.304 68.0047 245.604 68.2685 245.965 68.41C246.327 68.5515 246.726 68.5617 247.094 68.4389C248.062 68.1077 249.112 68.1077 250.08 68.4389C251.894 69.0861 252.546 70.5997 251.955 72.2661C251.002 74.9564 246.508 75.4411 244.485 78.7895C244.304 79.0876 244.209 79.4297 244.21 79.7783C244.209 80.1772 244.332 80.5666 244.562 80.8925C244.792 81.2185 245.118 81.4648 245.494 81.5975C245.909 81.7507 246.365 81.7536 246.782 81.6056C247.199 81.4575 247.551 81.168 247.777 80.7873C249.652 77.5153 254.563 77.3422 255.975 73.3723C257.33 69.5552 255.424 66.6095 251.746 65.3049ZM244.582 84.098C244.043 83.8777 243.45 83.8237 242.881 83.943C242.311 84.0623 241.79 84.3494 241.384 84.7673C240.979 85.1853 240.708 85.7151 240.606 86.2884C240.504 86.8617 240.576 87.4524 240.813 87.9844C241.05 88.5164 241.44 88.9655 241.934 89.2738C242.428 89.5821 243.002 89.7355 243.584 89.7144C244.166 89.6932 244.728 89.4984 245.198 89.155C245.668 88.8116 246.025 88.3354 246.223 87.7876C246.366 87.4386 246.437 87.0641 246.431 86.6869C246.426 86.3097 246.344 85.9376 246.19 85.5929C246.037 85.2483 245.815 84.9383 245.539 84.6817C245.262 84.4251 244.937 84.2272 244.582 84.0999V84.098ZM161.537 81.2026C160.229 81.6475 159.114 82.5285 158.379 83.6979C158.29 83.8368 158.231 83.9934 158.208 84.1571C158.184 84.3208 158.197 84.4876 158.244 84.646C158.292 84.8044 158.373 84.9506 158.482 85.0746C158.592 85.1985 158.727 85.2973 158.878 85.364L158.9 85.3745C159.15 85.4811 159.43 85.4966 159.69 85.4182C159.951 85.3399 160.175 85.1726 160.325 84.9456C160.716 84.344 161.295 83.8894 161.973 83.6535C163.253 83.2246 164.268 83.7782 164.662 84.9534C165.301 86.8502 163.031 89.0625 163.364 91.7852C163.393 92.0273 163.489 92.2567 163.64 92.448C163.812 92.6686 164.048 92.8302 164.316 92.9104C164.584 92.9907 164.87 92.9857 165.135 92.896C165.431 92.8011 165.683 92.6055 165.849 92.3433C166.015 92.0811 166.084 91.7689 166.044 91.4612C165.663 88.8446 168.298 86.6229 167.359 83.8219C166.457 81.1304 164.131 80.3304 161.537 81.2026ZM165.716 94.6708C165.323 94.7825 164.973 95.0091 164.71 95.3216C164.448 95.634 164.284 96.018 164.241 96.424C164.199 96.83 164.278 97.2396 164.47 97.6C164.662 97.9604 164.957 98.2552 165.318 98.4463C165.679 98.6375 166.088 98.7163 166.494 98.6727C166.9 98.629 167.283 98.4649 167.595 98.2014C167.907 97.938 168.133 97.5872 168.244 97.1942C168.355 96.8013 168.346 96.3841 168.217 95.9965C168.145 95.7418 168.023 95.5044 167.856 95.2986C167.69 95.0927 167.484 94.9227 167.25 94.7988C167.016 94.6749 166.76 94.5997 166.496 94.5777C166.232 94.5557 165.967 94.5874 165.716 94.6708Z" fill="#32477B"/>
<path d="M214.697 118.837L214.957 117.8C213.619 117.465 212.264 117.206 210.897 117.023C209.553 116.843 208.199 116.738 206.843 116.708L206.82 117.776C209.477 117.835 212.119 118.19 214.697 118.837Z" fill="#937344"/>
<path d="M216.341 101.601C216.355 101.601 216.368 101.601 216.38 101.601L222.57 101.325C222.627 101.324 222.682 101.311 222.734 101.288C222.785 101.265 222.832 101.232 222.87 101.191C222.909 101.15 222.939 101.101 222.958 101.049C222.978 100.996 222.986 100.939 222.984 100.883C222.981 100.827 222.967 100.771 222.943 100.721C222.919 100.67 222.884 100.624 222.842 100.587C222.8 100.549 222.751 100.52 222.697 100.502C222.644 100.484 222.588 100.477 222.531 100.481L216.341 100.757C216.233 100.761 216.13 100.807 216.054 100.885C215.979 100.964 215.936 101.068 215.936 101.177C215.936 101.286 215.977 101.391 216.052 101.47C216.127 101.548 216.23 101.595 216.339 101.6L216.341 101.601ZM207.033 102.326C207.115 103.163 207.579 103.805 208.066 103.758C208.552 103.712 208.884 102.99 208.802 102.153C208.787 101.988 208.755 101.825 208.705 101.666C208.643 101.436 208.535 101.221 208.386 101.035C208.022 101.015 207.657 101.019 207.294 101.046C207.171 101.233 207.089 101.445 207.057 101.667C207.02 101.885 207.012 102.106 207.033 102.326Z" fill="#32477B"/>
<path d="M203.746 101.774C203.759 101.774 203.772 101.774 203.785 101.774L209.975 101.498C210.085 101.49 210.187 101.44 210.26 101.357C210.334 101.275 210.372 101.167 210.367 101.057C210.362 100.947 210.314 100.843 210.233 100.768C210.153 100.693 210.046 100.652 209.936 100.654L203.746 100.93C203.638 100.934 203.535 100.98 203.459 101.059C203.384 101.137 203.341 101.242 203.341 101.35C203.34 101.459 203.382 101.564 203.457 101.643C203.532 101.722 203.635 101.769 203.744 101.774L203.746 101.774Z" fill="#32477B"/>
<path d="M242.851 175.388L254.36 213.558L242.851 190.535V175.388Z" fill="#E9C1A4"/>
<path d="M158.044 175.388L145.021 210.529L158.044 189.626V175.388Z" fill="#E9C1A4"/>
<path d="M243.321 171.449H242.379V190.535H243.321V171.449Z" fill="#E9C1A4"/>
<path d="M158.516 171.449H157.573V190.535H158.516V171.449Z" fill="#E9C1A4"/>
<path d="M142.246 208.009L134.387 218.497C133.533 219.637 132.434 220.571 131.173 221.232C129.911 221.893 128.517 222.263 127.094 222.316C125.671 222.368 124.254 222.102 122.947 221.536C121.64 220.971 120.476 220.12 119.539 219.047L69.5449 161.707L85.5055 147.517L142.246 208.009ZM254.948 213.017L262.499 223.246C263.367 224.422 264.488 225.387 265.78 226.069C267.073 226.751 268.502 227.133 269.962 227.187C271.422 227.241 272.876 226.964 274.214 226.379C275.553 225.793 276.743 224.913 277.694 223.804L326.999 166.357L312.125 152.938L254.948 213.017Z" fill="#BEA18B"/>
<path d="M393.773 105.375L353.379 75.4325C351.363 73.9382 348.517 74.3614 347.023 76.3778L305.185 132.844C303.691 134.86 304.115 137.706 306.13 139.201L346.525 169.143C348.54 170.637 351.386 170.214 352.88 168.197L394.718 111.731C396.212 109.715 395.789 106.869 393.773 105.375Z" fill="#B4B7BB"/>
<path d="M345.858 162.976L310.545 137.782C309.185 136.812 309.103 135.099 310.335 133.958C326.627 118.905 339.949 100.925 349.607 80.9544C350.329 79.4611 351.962 79.0307 353.282 80.0097L386.465 104.606C387.108 105.117 387.567 105.824 387.773 106.619C387.979 107.414 387.921 108.255 387.606 109.014C378.649 129.025 366.061 147.202 350.482 162.625C349.862 163.194 349.069 163.537 348.231 163.601C347.392 163.665 346.556 163.444 345.858 162.976Z" fill="#D0D5DD"/>
<path d="M344.986 160.441L311.873 135.896C310.552 134.918 310.489 133.23 311.706 132.104C327.42 117.569 340.274 100.22 349.605 80.9546C350.329 79.4617 351.959 79.0308 353.281 80.0098L386.394 104.555C387.049 105.075 387.513 105.798 387.713 106.61C387.913 107.422 387.837 108.278 387.498 109.043C378.167 128.309 365.313 145.657 349.6 160.192C348.967 160.739 348.171 161.061 347.335 161.106C346.5 161.151 345.674 160.917 344.986 160.441Z" fill="white"/>
<path d="M380.979 92.6866L369.238 83.9838C368.616 83.523 367.739 83.6535 367.278 84.2752L363.435 89.4627C362.974 90.0845 363.104 90.9621 363.726 91.4229L375.467 100.126C376.088 100.586 376.966 100.456 377.426 99.8342L381.27 94.6467C381.731 94.025 381.6 93.1474 380.979 92.6866Z" fill="#6B7280"/>
<path d="M377.556 112.96L351.6 93.7197C351.468 93.6191 351.359 93.4925 351.279 93.3477C351.199 93.203 351.15 93.0432 351.134 92.8785C351.119 92.7138 351.138 92.5476 351.189 92.3905C351.241 92.2333 351.325 92.0885 351.435 91.9652C351.521 91.8236 351.635 91.7012 351.77 91.6058C351.906 91.5104 352.059 91.444 352.222 91.4108C352.384 91.3776 352.551 91.3784 352.713 91.413C352.875 91.4476 353.028 91.5154 353.163 91.612L379.119 110.851C379.413 111.063 379.617 111.379 379.688 111.734C379.758 112.09 379.691 112.46 379.5 112.768C379.261 113.041 378.927 113.212 378.566 113.248C378.205 113.283 377.844 113.18 377.556 112.96ZM371.077 123.994L345.121 104.754C344.989 104.653 344.88 104.527 344.8 104.382C344.72 104.237 344.671 104.077 344.655 103.913C344.64 103.748 344.658 103.582 344.71 103.425C344.762 103.267 344.845 103.123 344.956 102.999C345.042 102.858 345.156 102.735 345.291 102.64C345.426 102.544 345.58 102.478 345.742 102.445C345.905 102.411 346.072 102.412 346.234 102.447C346.396 102.482 346.549 102.549 346.683 102.646L372.64 121.886C372.934 122.097 373.138 122.413 373.208 122.768C373.279 123.124 373.212 123.494 373.021 123.802C372.782 124.075 372.448 124.246 372.087 124.282C371.726 124.318 371.365 124.215 371.077 123.994ZM363.502 134.216L337.546 114.976C337.414 114.876 337.305 114.749 337.225 114.604C337.145 114.459 337.095 114.3 337.08 114.135C337.064 113.97 337.083 113.804 337.135 113.647C337.187 113.49 337.271 113.345 337.381 113.222C337.467 113.08 337.581 112.957 337.716 112.862C337.852 112.766 338.005 112.7 338.167 112.667C338.33 112.634 338.497 112.634 338.659 112.669C338.821 112.704 338.974 112.772 339.109 112.868L365.065 132.108C365.36 132.32 365.563 132.635 365.634 132.991C365.705 133.347 365.637 133.717 365.446 134.025C365.207 134.298 364.873 134.469 364.512 134.505C364.151 134.54 363.79 134.437 363.502 134.216Z" fill="#D0D5DD"/>
<path d="M336.978 162.065C333.592 165.014 329.02 168.353 325.185 168.867C318.106 169.814 311.336 155.307 311.336 155.307C311.336 155.307 311.293 151.612 313.644 144.768C314.287 142.896 315.109 140.788 316.16 138.455C316.4 137.924 316.816 137.492 317.337 137.231C317.858 136.971 318.454 136.898 319.022 137.025L324.417 138.231L325.955 138.573C326.04 138.591 326.123 138.617 326.203 138.651C326.415 138.738 326.604 138.873 326.755 139.046C326.906 139.218 327.014 139.423 327.073 139.645C327.131 139.867 327.137 140.099 327.09 140.324C327.043 140.548 326.945 140.759 326.803 140.939C326.134 141.77 324.98 142.607 323.003 142.852C322.556 142.908 322.105 142.934 321.654 142.927C321.654 142.927 321.788 143.495 321.894 144.313C322.106 146.002 322.188 148.757 320.638 149.673C320.64 149.678 320.643 149.683 320.648 149.683C320.657 149.692 320.667 149.701 320.678 149.708L333.123 159.18L334.455 160.194L336.978 162.065Z" fill="#BEA18B"/>
<path d="M277.657 189.155L258.484 217.807L254.948 213.017L277.657 189.155Z" fill="#937344"/>
<path d="M121.355 185.736L139.583 211.562L142.246 208.009L121.355 185.736Z" fill="#937344"/>
<path d="M95.0243 119.506L94.3754 118.693C93.6347 117.765 92.282 117.613 91.3541 118.354L54.5598 147.734C53.6319 148.475 53.4802 149.828 54.2209 150.756L54.8698 151.569C55.6106 152.497 56.9633 152.649 57.8912 151.908L94.6855 122.528C95.6134 121.787 95.7651 120.434 95.0243 119.506Z" fill="#9BCFDC"/>
<path d="M83.7115 130.814L80.8452 127.222C80.0321 126.204 78.5475 126.037 77.529 126.85L53.4847 146.05C52.4663 146.863 52.2998 148.348 53.1128 149.366L55.9792 152.958C56.7922 153.976 58.2769 154.143 59.2953 153.33L83.3396 134.131C84.3581 133.317 84.5246 131.832 83.7115 130.814Z" fill="#32477B"/>
<path d="M102.551 130.443C112.276 130.443 120.16 122.558 120.16 112.831C120.16 103.103 112.276 95.2178 102.551 95.2178C92.8258 95.2178 84.9419 103.103 84.9419 112.831C84.9419 122.558 92.8258 130.443 102.551 130.443Z" fill="#9BCFDC"/>
<path d="M102.551 127.289C110.534 127.289 117.006 120.816 117.006 112.83C117.006 104.845 110.534 98.3723 102.551 98.3723C94.5675 98.3723 88.0957 104.845 88.0957 112.83C88.0957 120.816 94.5675 127.289 102.551 127.289Z" fill="#E4E7EC"/>
<path d="M91.7372 109.201C91.6253 109.061 91.5539 108.892 91.5308 108.715C91.5078 108.537 91.534 108.356 91.6066 108.192C92.8284 105.416 95.0542 103.205 97.8377 102.002C100.621 100.799 103.756 100.694 106.615 101.706C106.736 101.749 106.848 101.815 106.943 101.901C107.039 101.987 107.117 102.091 107.172 102.208C107.228 102.324 107.26 102.45 107.267 102.578C107.274 102.707 107.255 102.835 107.212 102.957C107.17 103.078 107.103 103.19 107.017 103.286C106.931 103.382 106.827 103.459 106.711 103.515C106.595 103.57 106.469 103.603 106.34 103.609C106.212 103.616 106.083 103.598 105.962 103.555C103.57 102.707 100.945 102.795 98.6149 103.802C96.2848 104.809 94.4218 106.66 93.3998 108.984C93.3316 109.138 93.2249 109.272 93.09 109.373C92.9551 109.474 92.7965 109.538 92.6295 109.56C92.4625 109.582 92.2927 109.56 92.1365 109.497C91.9803 109.434 91.8429 109.332 91.7376 109.201H91.7372ZM91.5981 117.564C91.5825 117.545 91.5673 117.525 91.5532 117.504C91.0059 116.679 90.6398 115.746 90.4793 114.768C90.3188 113.791 90.3674 112.79 90.622 111.832C90.7024 111.589 90.8752 111.386 91.1032 111.268C91.3313 111.151 91.5964 111.127 91.8417 111.203C92.087 111.278 92.2928 111.447 92.4151 111.673C92.5373 111.898 92.5661 112.163 92.4954 112.41C92.3241 113.085 92.2958 113.789 92.4124 114.476C92.529 115.163 92.7879 115.818 93.1725 116.399C93.315 116.609 93.3709 116.865 93.3285 117.115C93.2862 117.365 93.1488 117.588 92.9452 117.739C92.7416 117.89 92.4876 117.955 92.2365 117.923C91.9854 117.89 91.7566 117.762 91.5981 117.564Z" fill="white"/>
<path d="M88.9167 151.05L86.3778 148.571C85.807 148.015 85.4274 147.291 85.2933 146.505C84.6267 142.61 82.1978 130.478 77.7079 129.76L75.8906 127.94C75.095 126.598 72.7662 126.292 71.4607 127.182C70.3342 127.951 69.217 129.482 69.8146 130.711L69.8676 130.558C69.8676 130.558 64.5548 130.617 64.0036 133.577C64.0036 133.577 59.3356 132.992 58.6631 136.926C58.0223 136.878 55.9301 136.8 54.5213 138.227C54.0959 138.683 53.7673 139.221 53.5554 139.808C53.3176 140.516 52.7886 142.916 60.9011 152.772C62.9437 155.253 63.9966 156.523 65.5539 157.97C67.4051 159.689 68.2307 160.102 69.7479 161.845C70.4172 162.614 74.1115 165.996 74.1115 165.996L78.3363 171.091L88.9167 151.05Z" fill="#BEA18B"/>
<path d="M74.9505 137.999L74.1196 138.506L75.4326 140.658L76.2635 140.151L74.9505 137.999Z" fill="#E29474"/>
<path d="M75.9301 145.537C75.6344 145.844 75.281 146.089 74.8901 146.259C73.7741 146.739 72.4093 146.543 70.8325 145.674L71.3003 144.822C72.6003 145.537 73.6782 145.718 74.5038 145.365C75.575 144.903 76.058 143.594 76.2513 142.854L77.1927 143.1C76.985 144.006 76.5505 144.845 75.9301 145.537Z" fill="#937344"/>
<path d="M78.65 145.875C77.7371 145.532 76.9403 144.624 76.2807 143.179C75.9007 142.323 75.5986 141.434 75.3779 140.523C75.1795 139.75 75.045 139.056 74.962 138.569L71.9604 140.278C70.9118 141.015 69.6532 141.394 68.3718 141.359C65.4139 141.21 63.5381 138.601 63.4578 138.49L63.1572 138.064L77.4564 129.345L77.9632 130.176L64.5898 138.333C65.1979 139.007 66.5899 140.294 68.4213 140.387C69.5063 140.409 70.5696 140.081 71.4533 139.451L75.7299 137.011L75.82 137.736C75.9385 138.594 76.106 139.445 76.3217 140.284C76.5283 141.138 76.8111 141.972 77.1668 142.776C77.7156 143.979 78.33 144.716 78.9935 144.966L78.65 145.875Z" fill="#937344"/>
<path d="M70.5995 148.179C70.5065 148.274 70.4065 148.362 70.3001 148.442C69.3829 149.134 68.0606 149.192 66.363 148.62C66.3777 149.517 66.0431 150.384 65.4301 151.038C64.6115 151.825 63.3403 152.043 61.6509 151.688L61.8458 150.767C63.2101 151.053 64.1948 150.917 64.776 150.362C65.6336 149.539 65.3935 148.023 65.3912 148.006L65.2551 147.174L66.0347 147.493C67.7367 148.192 68.9813 148.259 69.7349 147.691C70.6509 147.003 70.6373 145.48 70.6166 145.084L68.0922 140.948L68.8956 140.458L71.5342 144.78L71.5459 144.884C71.5545 144.975 71.7607 146.988 70.5995 148.179Z" fill="#937344"/>
<path d="M59.1568 136.916L58.3398 137.448L65.3524 148.216L66.1693 147.684L59.1568 136.916Z" fill="#937344"/>
<path d="M70.2526 130.418L69.4492 130.909L71.2089 133.79L72.0122 133.299L70.2526 130.418Z" fill="#937344"/>
<path d="M202.652 149.869C195.284 149.869 188.939 144.176 187.226 136.024L186.73 133.661L187.492 133.5L187.989 135.862C189.626 143.649 195.655 149.088 202.651 149.088C208.876 149.088 214.543 144.611 216.751 137.947L218.239 133.458L218.98 133.703L217.491 138.192C215.178 145.177 209.214 149.869 202.652 149.869ZM164.403 134.573C164.402 136.607 163.788 138.593 162.641 140.273C161.494 141.952 159.868 143.247 157.974 143.988C156.08 144.729 154.007 144.882 152.026 144.426C150.044 143.971 148.245 142.928 146.865 141.435C148.906 138.978 151.462 137.001 154.353 135.644C157.244 134.287 160.399 133.583 163.592 133.583H164.356C164.387 133.906 164.403 134.238 164.403 134.573ZM253.569 141.72C252.155 143.134 250.354 144.098 248.392 144.488C246.431 144.879 244.398 144.679 242.55 143.914C240.702 143.149 239.123 141.853 238.011 140.191C236.899 138.528 236.305 136.573 236.304 134.573C236.304 134.238 236.32 133.906 236.351 133.583H236.618C239.872 133.582 243.085 134.313 246.019 135.722C248.953 137.13 251.533 139.18 253.569 141.72Z" fill="white"/>
<path d="M122.156 181.122L121.613 181.682L147.325 206.674L147.869 206.114L122.156 181.122Z" fill="white"/>
<path d="M276.502 183.869L251.377 207.846L251.915 208.411L277.04 184.433L276.502 183.869Z" fill="white"/>
<path d="M158.044 199.609L163.24 227.214C164.075 231.65 166.315 235.699 169.63 238.763C172.944 241.827 177.156 243.742 181.643 244.226L242.849 250.821H158.045L158.044 199.609Z" fill="#E9C1A4"/>
<path d="M223.959 181.436C229.013 181.436 233.109 178.63 233.109 175.169C233.109 171.707 229.013 168.901 223.959 168.901C218.906 168.901 214.809 171.707 214.809 175.169C214.809 178.63 218.906 181.436 223.959 181.436Z" fill="white"/>
<path d="M223.959 178.554C227.506 178.554 230.381 177.039 230.381 175.169C230.381 173.299 227.506 171.783 223.959 171.783C220.413 171.783 217.538 173.299 217.538 175.169C217.538 177.039 220.413 178.554 223.959 178.554Z" fill="#DD7D37"/>
<defs>
<filter id="filter0_d_333_6186" x="47.1235" y="61.4397" width="86.3618" height="41.8571" filterUnits="userSpaceOnUse" color-interpolation-filters="sRGB">
<feFlood flood-opacity="0" result="BackgroundImageFix"/>
<feColorMatrix in="SourceAlpha" type="matrix" values="0 0 0 0 0 0 0 0 0 0 0 0 0 0 0 0 0 0 127 0" result="hardAlpha"/>
<feOffset dy="1"/>
<feGaussianBlur stdDeviation="2"/>
<feComposite in2="hardAlpha" operator="out"/>
<feColorMatrix type="matrix" values="0 0 0 0 0 0 0 0 0 0 0 0 0 0 0 0 0 0 0.09 0"/>
<feBlend mode="normal" in2="BackgroundImageFix" result="effect1_dropShadow_333_6186"/>
<feBlend mode="normal" in="SourceGraphic" in2="effect1_dropShadow_333_6186" result="shape"/>
</filter>
<filter id="filter1_d_333_6186" x="252.324" y="20.9087" width="114.914" height="54.1985" filterUnits="userSpaceOnUse" color-interpolation-filters="sRGB">
<feFlood flood-opacity="0" result="BackgroundImageFix"/>
<feColorMatrix in="SourceAlpha" type="matrix" values="0 0 0 0 0 0 0 0 0 0 0 0 0 0 0 0 0 0 127 0" result="hardAlpha"/>
<feOffset dy="1"/>
<feGaussianBlur stdDeviation="2"/>
<feComposite in2="hardAlpha" operator="out"/>
<feColorMatrix type="matrix" values="0 0 0 0 0 0 0 0 0 0 0 0 0 0 0 0 0 0 0.13 0"/>
<feBlend mode="normal" in2="BackgroundImageFix" result="effect1_dropShadow_333_6186"/>
<feBlend mode="normal" in="SourceGraphic" in2="effect1_dropShadow_333_6186" result="shape"/>
</filter>
</defs>
</svg>
