<svg width="22" height="22" viewBox="0 0 22 22" fill="none" xmlns="http://www.w3.org/2000/svg">
<path d="M11 18.5625C6.82917 18.5625 3.4375 15.1708 3.4375 11C3.4375 6.82917 6.82917 3.4375 11 3.4375C15.1708 3.4375 18.5625 6.82917 18.5625 11C18.5625 15.1708 15.1708 18.5625 11 18.5625ZM11 4.8125C7.59 4.8125 4.8125 7.59 4.8125 11C4.8125 14.41 7.59 17.1875 11 17.1875C14.41 17.1875 17.1875 14.41 17.1875 11C17.1875 7.59 14.41 4.8125 11 4.8125Z" fill="#344054"/>
<path d="M11 14.4375C9.1025 14.4375 7.5625 12.8975 7.5625 11C7.5625 9.1025 9.1025 7.5625 11 7.5625C12.8975 7.5625 14.4375 9.1025 14.4375 11C14.4375 12.8975 12.8975 14.4375 11 14.4375ZM11 8.9375C9.86333 8.9375 8.9375 9.86333 8.9375 11C8.9375 12.1367 9.86333 13.0625 11 13.0625C12.1367 13.0625 13.0625 12.1367 13.0625 11C13.0625 9.86333 12.1367 8.9375 11 8.9375Z" fill="#344054"/>
<path d="M11 4.35384C10.6242 4.35384 10.3125 4.04217 10.3125 3.66634V1.83301C10.3125 1.45717 10.6242 1.14551 11 1.14551C11.3758 1.14551 11.6875 1.45717 11.6875 1.83301V3.66634C11.6875 4.04217 11.3758 4.35384 11 4.35384Z" fill="#344054"/>
<path d="M3.66634 11.6875H1.83301C1.45717 11.6875 1.14551 11.3758 1.14551 11C1.14551 10.6242 1.45717 10.3125 1.83301 10.3125H3.66634C4.04217 10.3125 4.35384 10.6242 4.35384 11C4.35384 11.3758 4.04217 11.6875 3.66634 11.6875Z" fill="#344054"/>
<path d="M11 20.8538C10.6242 20.8538 10.3125 20.5422 10.3125 20.1663V18.333C10.3125 17.9572 10.6242 17.6455 11 17.6455C11.3758 17.6455 11.6875 17.9572 11.6875 18.333V20.1663C11.6875 20.5422 11.3758 20.8538 11 20.8538Z" fill="#344054"/>
<path d="M20.1663 11.6875H18.333C17.9572 11.6875 17.6455 11.3758 17.6455 11C17.6455 10.6242 17.9572 10.3125 18.333 10.3125H20.1663C20.5422 10.3125 20.8538 10.6242 20.8538 11C20.8538 11.3758 20.5422 11.6875 20.1663 11.6875Z" fill="#344054"/>
</svg>
