<svg width="18" height="19" viewBox="0 0 18 19" fill="none" xmlns="http://www.w3.org/2000/svg">
<path d="M15.465 6.8375C14.6775 3.3725 11.6549 1.8125 8.99995 1.8125C8.99995 1.8125 8.99995 1.8125 8.99245 1.8125C6.34495 1.8125 3.31495 3.365 2.52745 6.83C1.64995 10.7 4.01995 13.9775 6.16495 16.04C6.95995 16.805 7.97995 17.1875 8.99995 17.1875C10.0199 17.1875 11.0399 16.805 11.8274 16.04C13.9724 13.9775 16.3425 10.7075 15.465 6.8375ZM8.99995 10.595C7.69495 10.595 6.63745 9.5375 6.63745 8.2325C6.63745 6.9275 7.69495 5.87 8.99995 5.87C10.3049 5.87 11.3624 6.9275 11.3624 8.2325C11.3624 9.5375 10.3049 10.595 8.99995 10.595Z" fill="#6D747D"/>
</svg>
