<svg width="20" height="20" viewBox="0 0 20 20" fill="none" xmlns="http://www.w3.org/2000/svg">
<path d="M7.5 5.9375C7.19097 5.9375 6.88887 6.02914 6.63192 6.20083C6.37497 6.37252 6.1747 6.61655 6.05644 6.90206C5.93818 7.18757 5.90723 7.50173 5.96752 7.80483C6.02781 8.10792 6.17663 8.38633 6.39515 8.60485C6.61367 8.82337 6.89208 8.97219 7.19517 9.03248C7.49827 9.09277 7.81243 9.06182 8.09794 8.94356C8.38345 8.8253 8.62748 8.62503 8.79917 8.36808C8.97086 8.11113 9.0625 7.80903 9.0625 7.5C9.06201 7.08575 8.89723 6.68861 8.60431 6.39569C8.31139 6.10278 7.91425 5.938 7.5 5.9375ZM7.5 8.4375C7.31458 8.4375 7.13333 8.38252 6.97915 8.2795C6.82498 8.17649 6.70482 8.03007 6.63386 7.85877C6.56291 7.68746 6.54434 7.49896 6.58051 7.3171C6.61669 7.13525 6.70598 6.9682 6.83709 6.83709C6.9682 6.70598 7.13525 6.61669 7.3171 6.58051C7.49896 6.54434 7.68746 6.56291 7.85877 6.63386C8.03007 6.70482 8.17649 6.82498 8.2795 6.97915C8.38252 7.13332 8.4375 7.31458 8.4375 7.5C8.43721 7.74855 8.33835 7.98684 8.16259 8.16259C7.98684 8.33835 7.74855 8.43721 7.5 8.4375ZM10.7813 20H15.1563C15.4048 19.9997 15.6431 19.9008 15.8188 19.7251C15.9946 19.5493 16.0935 19.3111 16.0938 19.0625V10.625C16.0935 10.3764 15.9946 10.1382 15.8188 9.96241C15.6431 9.78665 15.4048 9.68779 15.1563 9.6875H14.9663C14.7177 9.68779 14.4794 9.78665 14.3037 9.96241C14.1279 10.1382 14.029 10.3764 14.0288 10.625V12.0703H11.8638V10.625C11.8635 10.3764 11.7646 10.1382 11.5888 9.96241C11.4131 9.78665 11.1748 9.68779 10.9263 9.6875H10.7813C10.5327 9.68779 10.2944 9.78665 10.1187 9.96241C9.94291 10.1382 9.84404 10.3764 9.84375 10.625V19.0625C9.84404 19.3111 9.94291 19.5493 10.1187 19.7251C10.2944 19.9008 10.5327 19.9997 10.7813 20ZM11.8638 12.6953H14.0288V13.3594H11.8638V12.6953ZM10.4688 10.625C10.4689 10.5422 10.5018 10.4627 10.5604 10.4042C10.619 10.3456 10.6984 10.3126 10.7813 10.3125H10.9263C11.0091 10.3126 11.0885 10.3456 11.1471 10.4042C11.2057 10.4627 11.2386 10.5422 11.2388 10.625V13.6719C11.2388 13.7548 11.2717 13.8342 11.3303 13.8928C11.3889 13.9515 11.4684 13.9844 11.5513 13.9844H14.3413C14.4241 13.9844 14.5036 13.9515 14.5622 13.8928C14.6208 13.8342 14.6538 13.7548 14.6538 13.6719V10.625C14.6539 10.5422 14.6868 10.4627 14.7454 10.4042C14.804 10.3456 14.8834 10.3126 14.9663 10.3125H15.1563C15.2391 10.3126 15.3185 10.3456 15.3771 10.4042C15.4357 10.4627 15.4686 10.5422 15.4688 10.625V14.8438H10.4688V10.625ZM10.4688 15.4688H15.4688V17.6562H10.4688V15.4688ZM10.4688 18.2812H15.4688V19.0625C15.4686 19.1453 15.4357 19.2248 15.3771 19.2833C15.3185 19.3419 15.2391 19.3749 15.1563 19.375H10.7813C10.6984 19.3749 10.619 19.3419 10.5604 19.2833C10.5018 19.2248 10.4689 19.1453 10.4688 19.0625V18.2812Z" fill="#374151"/>
<path d="M9.90219 5.1975C10.2656 5.73788 10.4593 6.37443 10.4587 7.02563V9.09641C10.5648 9.07394 10.6729 9.06258 10.7812 9.0625H10.9262C10.9788 9.06252 11.0314 9.06518 11.0837 9.07047V7.02563C11.0845 6.25039 10.8538 5.49258 10.4212 4.84922L9.77531 3.88641C9.49082 3.46169 9.31022 2.976 9.24812 2.46859C9.37504 2.42935 9.4861 2.35061 9.56513 2.24383C9.64417 2.13706 9.68704 2.00784 9.6875 1.875V0.625C9.68733 0.45929 9.62143 0.300415 9.50426 0.183241C9.38708 0.0660666 9.22821 0.000165461 9.0625 0L5.9375 0C5.77179 0.000165461 5.61292 0.0660666 5.49574 0.183241C5.37857 0.300415 5.31267 0.45929 5.3125 0.625V1.875C5.31293 2.00787 5.35578 2.13712 5.43482 2.24393C5.51385 2.35073 5.62494 2.4295 5.75187 2.46875C5.68975 2.97611 5.50916 3.46174 5.22469 3.88641L4.57875 4.84922C4.14622 5.49258 3.91555 6.25039 3.91625 7.02563V9.53781C3.91635 9.58548 3.92731 9.6325 3.94828 9.67531L4.40078 10.5981L3.93875 11.5308C3.91737 11.5739 3.90625 11.6214 3.90625 11.6695V13.125C3.90735 13.1877 3.92721 13.2487 3.96328 13.3L4.40078 14.1919L3.93875 15.1245C3.91737 15.1677 3.90625 15.2151 3.90625 15.2633V18.5938C3.90666 18.9666 4.05495 19.324 4.31859 19.5877C4.58222 19.8513 4.93967 19.9996 5.3125 20H9.53437C9.39428 19.8154 9.29722 19.6019 9.25031 19.375H5.3125C5.10538 19.3748 4.90681 19.2924 4.76035 19.1459C4.61389 18.9994 4.5315 18.8009 4.53125 18.5938V18.4375H9.21875V17.8125H4.53125V15.3364L4.94312 14.5052H9.21875V13.8802H4.94406L4.53125 13.0384V11.7427L4.94312 10.9114H9.21875V10.625C9.219 10.5111 9.23173 10.3975 9.25672 10.2864H4.94406L4.54125 9.46531V7.02563C4.54065 6.37443 4.73444 5.73788 5.09781 5.1975L5.74391 4.23469C6.09166 3.71588 6.30907 3.1208 6.37766 2.5H8.62234C8.69093 3.1208 8.90833 3.71588 9.25609 4.23469L9.90219 5.1975ZM5.9375 1.875V0.625H9.0625L9.06297 1.875H5.9375Z" fill="#374151"/>
</svg>
