<svg width="20" height="20" viewBox="0 0 20 20" fill="none" xmlns="http://www.w3.org/2000/svg">
<g clip-path="url(#clip0_221_429)">
<path d="M1.875 18.4375H6.25C6.42281 18.4375 6.5625 18.2975 6.5625 18.125V13.75C6.5625 13.5775 6.42281 13.4375 6.25 13.4375H1.875C1.70219 13.4375 1.5625 13.5775 1.5625 13.75V18.125C1.5625 18.2975 1.70219 18.4375 1.875 18.4375ZM2.1875 14.0625H5.9375V17.8125H2.1875V14.0625ZM11.25 18.4375H14.375C14.5478 18.4375 14.6875 18.2975 14.6875 18.125V15C14.6875 14.8275 14.5478 14.6875 14.375 14.6875H11.25C11.0772 14.6875 10.9375 14.8275 10.9375 15V18.125C10.9375 18.2975 11.0772 18.4375 11.25 18.4375ZM11.5625 15.3125H14.0625V17.8125H11.5625V15.3125Z" fill="#374151"/>
<path d="M19.375 9.6875H17.6294L19.2834 8.03344C19.3422 7.975 19.375 7.89531 19.375 7.8125V0.9375C19.375 0.765 19.2353 0.625 19.0625 0.625H12.1875C12.1044 0.625 12.025 0.657812 11.9666 0.716562L0.404375 12.2787C0.3475 12.3353 0.3125 12.4134 0.3125 12.5V19.375C0.3125 19.5475 0.452188 19.6875 0.625 19.6875H7.5C7.58656 19.6875 7.66469 19.6525 7.72125 19.5956L9.6875 17.6294V19.375C9.6875 19.5475 9.82719 19.6875 10 19.6875H15.625C15.7116 19.6875 15.7897 19.6525 15.8463 19.5956L19.5959 15.8459C19.6547 15.7875 19.6875 15.7078 19.6875 15.625V10C19.6875 9.8275 19.5478 9.6875 19.375 9.6875ZM15.4956 13.4375H10.7544L13.8794 10.3125H18.6206L15.4956 13.4375ZM12.3169 1.25H18.3081L7.37063 12.1875H1.37937L12.3169 1.25ZM7.1875 19.0625H0.9375V12.8125H7.1875V19.0625ZM7.8125 18.6206V12.6294L18.75 1.69187V7.68313L16.7456 9.6875H13.75C13.6669 9.6875 13.5875 9.72031 13.5291 9.77906L9.77938 13.5287C9.7225 13.5853 9.6875 13.6634 9.6875 13.75V16.7456L7.8125 18.6206ZM15.3125 19.0625H10.3125V14.0625H15.3125V19.0625ZM15.9375 18.6206V13.8794L19.0625 10.7544V15.4956L15.9375 18.6206Z" fill="#374151"/>
</g>
<defs>
<clipPath id="clip0_221_429">
<rect width="20" height="20" fill="white"/>
</clipPath>
</defs>
</svg>
