<svg width="22" height="22" viewBox="0 0 22 22" fill="none" xmlns="http://www.w3.org/2000/svg">
<path d="M8.57258 2.23438C6.49324 2.23438 5.37158 6.91659 5.37158 11.3224C5.37158 15.7283 6.49358 20.4105 8.57293 20.4105H14.2874C16.3668 20.4105 17.4888 15.7283 17.4888 11.3228C17.4888 6.91728 16.3664 2.23438 14.2874 2.23438H8.57258ZM11.8767 19.7227L11.1514 18.7282L11.0713 17.3075C11.067 17.2389 11.0422 17.1731 11.0001 17.1187L10.0827 15.9246L10.5072 14.7256C10.5235 14.6797 10.5298 14.631 10.5259 14.5825C10.5219 14.534 10.5077 14.4869 10.4842 14.4444L9.68049 12.9924L10.2666 11.7181C10.2873 11.673 10.2981 11.624 10.2981 11.5744C10.2981 11.5248 10.2873 11.4758 10.2666 11.4307L9.67808 10.1509L10.4027 8.75325C10.4421 8.67733 10.4518 8.58945 10.4299 8.50678L10.0009 6.89116L10.7987 6.25625C10.8351 6.22731 10.8653 6.19128 10.8874 6.15033C10.9095 6.10938 10.9231 6.06437 10.9273 6.01803L11.0589 4.57016C11.4907 4.06542 11.8625 3.51229 12.1668 2.92188H13.0052C11.7512 4.37972 11.0861 7.93169 11.0861 11.3224C11.0861 14.7132 11.7512 18.2662 13.0052 19.723L11.8767 19.7227ZM9.75714 19.7227L9.03183 18.7282L8.95174 17.3075C8.94779 17.2384 8.92311 17.1722 8.88093 17.1174L7.96346 15.9232L8.38764 14.7242C8.40392 14.6784 8.41028 14.6296 8.40631 14.5811C8.40234 14.5326 8.38812 14.4856 8.36461 14.443L7.56264 12.991L8.14702 11.7167C8.16775 11.6717 8.17849 11.6226 8.17849 11.573C8.17849 11.5234 8.16775 11.4744 8.14702 11.4293L7.55852 10.1496L8.28452 8.75187C8.32392 8.67596 8.3336 8.58808 8.31168 8.50541L7.88268 6.88978L8.6788 6.25625C8.71524 6.22731 8.74542 6.19128 8.76752 6.15033C8.78962 6.10938 8.80317 6.06437 8.80736 6.01803L8.93764 4.56981C9.3699 4.06525 9.74215 3.51224 10.0469 2.92188H11.3783C11.1394 3.3692 10.8438 3.78376 10.4986 4.15525C10.4336 4.21323 10.3931 4.2937 10.3852 4.38041L10.2559 5.80937L9.39655 6.49138C9.3442 6.533 9.30513 6.58899 9.28412 6.65249C9.26312 6.71599 9.26109 6.78424 9.2783 6.84888L9.73102 8.55353L8.99058 9.9825C8.96649 10.0289 8.95332 10.0803 8.95207 10.1326C8.95082 10.1849 8.96152 10.2368 8.98336 10.2843L9.57633 11.573L8.98336 12.8617C8.96098 12.9106 8.95038 12.9641 8.95241 13.0178C8.95444 13.0716 8.96904 13.1241 8.99505 13.1711L9.80836 14.6396L9.37283 15.8689C9.35367 15.9229 9.34831 15.9808 9.35726 16.0375C9.36621 16.0941 9.38917 16.1476 9.42405 16.193L10.3907 17.4512L10.4704 18.8674C10.4741 18.9335 10.4968 18.9971 10.5357 19.0506L11.0252 19.7216L9.75714 19.7227ZM6.05874 11.3224C6.05874 6.37244 7.38355 2.92222 8.57258 2.92222H9.26008C9.02126 3.36955 8.72559 3.78411 8.38043 4.15559C8.31546 4.21357 8.27492 4.29404 8.26699 4.38075L8.13602 5.80937L7.27664 6.49138C7.22429 6.533 7.18522 6.58899 7.16422 6.65249C7.14321 6.71599 7.14119 6.78424 7.15839 6.84888L7.61111 8.55353L6.87068 9.9825C6.84658 10.0289 6.83341 10.0803 6.83216 10.1326C6.83091 10.1849 6.84161 10.2368 6.86346 10.2843L7.45643 11.573L6.86346 12.8617C6.84107 12.9106 6.83047 12.9641 6.8325 13.0178C6.83453 13.0716 6.84914 13.1241 6.87514 13.1711L7.68846 14.6396L7.25327 15.8696C7.23411 15.9236 7.22875 15.9815 7.2377 16.0381C7.24664 16.0948 7.2696 16.1482 7.30449 16.1937L8.27111 17.4518L8.35086 18.8681C8.35454 18.9342 8.37722 18.9978 8.41618 19.0513L8.90568 19.7223H8.57224C7.38355 19.7227 6.05874 16.2728 6.05874 11.3224ZM16.8009 11.3224C16.8009 16.2724 15.4761 19.723 14.2874 19.723C13.0987 19.723 11.7736 16.2728 11.7736 11.3224C11.7736 6.37209 13.097 2.92188 14.2874 2.92188C15.4778 2.92188 16.8009 6.37175 16.8009 11.3224Z" fill="#374151"/>
<path d="M12.6113 11.3225C12.6113 13.5184 12.987 17.6709 14.4085 17.6709C15.8299 17.6709 16.2056 13.5184 16.2056 11.3225C16.2056 9.12662 15.8299 4.97412 14.4085 4.97412C12.987 4.97412 12.6113 9.12662 12.6113 11.3225ZM14.4085 5.66162C14.7402 5.66162 15.5181 7.58662 15.5181 11.3225C15.5181 15.0584 14.7402 16.9834 14.4085 16.9834C14.0767 16.9834 13.2988 15.0584 13.2988 11.3225C13.2988 7.58662 14.0767 5.66162 14.4085 5.66162Z" fill="#374151"/>
</svg>
