<svg width="81" height="81" viewBox="0 0 81 81" fill="none" xmlns="http://www.w3.org/2000/svg">
<g clip-path="url(#clip0_385_6341)">
<path opacity="0.2" d="M56.8879 25.5316L57.3486 25.6815L57.5049 25.2765C57.6872 25.299 57.8706 25.311 58.0542 25.3126C59.3879 25.3181 60.6825 24.862 61.7182 24.0217C64.1988 22.003 66.2365 18.6554 67.2933 14.8332C67.5684 13.8592 67.7089 12.8522 67.7109 11.84C67.7123 11.4378 67.6848 11.036 67.6287 10.6377C67.5572 11.1998 67.4451 11.756 67.2933 12.302C66.2365 16.1242 64.1988 19.4718 61.7182 21.4904C60.6825 22.3308 59.3879 22.7869 58.0542 22.7814C57.6266 22.7792 57.2003 22.7325 56.7823 22.6421L55.5495 22.2808C56.1072 23.3151 56.5557 24.4045 56.8879 25.5316ZM23.2495 25.3126C23.3698 25.3126 23.49 25.3063 23.6102 25.3L24.1988 25.236C24.503 24.2751 24.8925 23.3433 25.3625 22.4517L24.1988 22.7054C23.8849 22.7563 23.5675 22.7817 23.2495 22.7814C22.278 22.7641 21.3208 22.5441 20.4392 22.1355C19.5576 21.7269 18.7711 21.1386 18.1301 20.4083C15.819 17.6591 14.3783 14.2843 13.9915 10.7136C13.9458 11.0874 13.9226 11.4635 13.9219 11.84C14.0223 15.9106 15.5066 19.8255 18.1301 22.9396C18.7711 23.6698 19.5576 24.2581 20.4392 24.6668C21.3208 25.0754 22.278 25.2954 23.2495 25.3126Z" fill="#676868"/>
<path d="M69.1398 29.4573C66.234 28.9346 65.0614 26.4135 64.6007 24.7966C67.0497 22.171 68.8126 18.9813 69.7328 15.5107C70.0674 14.3152 70.2388 13.08 70.2422 11.8385C70.1964 8.67993 68.9094 5.66622 66.6596 3.44878C64.4097 1.23134 61.3777 -0.0117187 58.2188 -0.0117188C55.0598 -0.0117187 52.0278 1.23134 49.7779 3.44878C47.5281 5.66622 46.2411 8.67993 46.1953 11.8385C46.1979 12.6731 46.2613 13.5064 46.3852 14.3318C47.3773 14.698 48.3333 15.1554 49.241 15.698C48.9113 14.4376 48.7385 13.1413 48.7266 11.8385C48.7763 9.35392 49.7982 6.98783 51.5729 5.24826C53.3476 3.50868 55.7336 2.53429 58.2188 2.53429C60.7039 2.53429 63.0899 3.50868 64.8646 5.24826C66.6393 6.98783 67.6612 9.35392 67.7109 11.8385C67.7079 12.8512 67.5674 13.8588 67.2933 14.8336C66.2333 18.6558 64.2001 22.004 61.715 24.0214C60.6826 24.8633 59.3895 25.3197 58.0574 25.3124C57.6281 25.3096 57.2002 25.2632 56.7804 25.1738C57.0896 26.1445 57.3103 27.1413 57.4398 28.1518C57.5802 28.1581 57.7188 28.1645 57.8663 28.167H57.9384C59.0894 28.1576 60.236 28.0235 61.3581 27.767C61.8561 27.6398 62.345 27.4798 62.8218 27.288C63.3451 28.4851 64.1537 29.5359 65.1768 30.3483C66.2 31.1608 67.4066 31.7102 68.6912 31.9487L68.7146 31.9531L68.731 31.9556C68.8241 31.9715 77.9138 33.5566 78.4624 39.9519C78.3991 40.8871 78.0865 45.3852 77.6967 49.6377C77.6525 49.9032 77.519 50.1457 77.3184 50.3252C77.1177 50.5047 76.8619 50.6104 76.5931 50.6249H58.9914C60.7405 51.2784 62.4101 52.1275 63.9685 53.1561H76.5931C77.4935 53.1416 78.3579 52.8 79.0249 52.1949C79.6919 51.5899 80.1159 50.7628 80.2178 49.868C80.6608 45.027 81 39.9436 81 39.9436C80.4482 31.2773 69.1398 29.4579 69.1398 29.4579V29.4573Z" fill="#2D4356"/>
<path d="M53.7195 51.7577C50.3023 51.1375 48.8278 48.2709 48.2077 46.2775C51.188 43.037 53.3282 39.115 54.4409 34.8552C54.8441 33.3872 55.0505 31.872 55.0547 30.3496C55.0547 26.4895 53.5213 22.7874 50.7917 20.0579C48.0622 17.3284 44.3601 15.7949 40.5 15.7949C36.6399 15.7949 32.9378 17.3284 30.2083 20.0579C27.4787 22.7874 25.9453 26.4895 25.9453 30.3496C26.0609 36.0085 28.0707 41.4652 31.6533 45.8472C31.1154 47.8342 29.6852 51.0932 26.0149 51.7577C26.0149 51.7577 12.0741 54.0041 11.3906 64.6987C11.3906 64.6987 11.5678 70.2864 12.2702 76.9499C12.4211 78.0578 12.9635 79.075 13.7991 79.8178C14.6348 80.5606 15.7086 80.9799 16.8265 80.9999H62.9142C64.0242 80.9808 65.0895 80.5588 65.9114 79.8126C66.7334 79.0663 67.256 78.0466 67.3819 76.9436C67.9261 70.9698 68.3438 64.6987 68.3438 64.6987C67.6603 54.0041 53.7195 51.7577 53.7195 51.7577ZM28.4766 30.3496C28.4766 27.1608 29.7433 24.1026 31.9981 21.8478C34.253 19.5929 37.3112 18.3262 40.5 18.3262C43.6888 18.3262 46.747 19.5929 49.0019 21.8478C51.2567 24.1026 52.5234 27.1608 52.5234 30.3496C52.52 31.6456 52.3433 32.9353 51.9982 34.1845C50.682 38.9938 48.1507 43.2084 45.0562 45.7586C43.7205 46.8653 42.0385 47.4678 40.3038 47.4609C39.0487 47.4445 37.8115 47.1599 36.6753 46.6262C35.5391 46.0925 34.5302 45.322 33.7162 44.3664C30.4448 40.4154 28.599 35.4778 28.4766 30.3496ZM64.857 76.7095C64.7926 77.1847 64.5624 77.6219 64.2069 77.9439C63.8514 78.2658 63.3935 78.4517 62.9142 78.4687H16.8265C16.334 78.4489 15.8632 78.261 15.4924 77.9363C15.1217 77.6116 14.8733 77.1697 14.7888 76.6841C14.1623 70.7357 13.9535 65.5973 13.9219 64.7366C14.5673 56.3139 26.2997 54.2762 26.4136 54.2573L26.4389 54.2509L26.4642 54.2446C30.2295 53.5675 32.3873 50.9223 33.5074 48.3088C34.2362 48.6374 34.992 48.9021 35.7666 49.0998C35.8235 49.1125 36.045 49.1631 36.3741 49.2264C37.625 49.7237 38.9577 49.9834 40.3038 49.9921C42.0092 49.9974 43.6872 49.5637 45.1765 48.7328C45.5372 48.5999 45.8852 48.4607 46.227 48.3088C47.347 50.9223 49.5049 53.5675 53.2702 54.2446L53.2955 54.2509H53.3145C53.4347 54.2763 65.1291 56.3076 65.8062 64.6987C65.7366 65.7491 65.3505 71.3875 64.857 76.7095Z" fill="#2D4356"/>
<path d="M52.5234 30.3496C52.52 31.6456 52.3433 32.9353 51.9982 34.1845C50.682 38.9938 48.1507 43.2084 45.0562 45.7586C43.7205 46.8653 42.0385 47.4678 40.3038 47.4609C39.0487 47.4445 37.8115 47.1599 36.6753 46.6262C35.5391 46.0925 34.5302 45.322 33.7162 44.3664C30.4448 40.4154 28.599 35.4778 28.4766 30.3496C28.4766 27.1608 29.7433 24.1026 31.9981 21.8478C34.253 19.5929 37.3112 18.3262 40.5 18.3262C43.6888 18.3262 46.747 19.5929 49.0019 21.8478C51.2567 24.1026 52.5234 27.1608 52.5234 30.3496Z" fill="white"/>
<path d="M20.7506 50.6249H4.40627C4.12586 50.6088 3.85863 50.5005 3.64628 50.3166C3.43393 50.1328 3.2884 49.8838 3.23241 49.6086C2.72995 44.8625 2.56226 40.7517 2.53441 39.9898C3.05016 33.5623 12.1766 31.9708 12.2626 31.9569L12.2861 31.9531L12.3095 31.9487C13.5941 31.7102 14.8007 31.1606 15.8239 30.348C16.8471 29.5355 17.6556 28.4846 18.1788 27.2874C18.6591 27.4808 19.1516 27.6421 19.6533 27.7702C20.7718 28.0244 21.9145 28.1575 23.0616 28.167H23.1337C23.2812 28.1651 23.4198 28.1575 23.5602 28.1518C23.6868 27.1628 23.9007 26.187 24.1994 25.2358C23.8863 25.2863 23.5698 25.3119 23.2527 25.3124C22.2807 25.2952 21.323 25.0753 20.4409 24.6667C19.5587 24.258 18.7717 23.6697 18.1301 22.9393C15.5078 19.8241 14.0237 15.9092 13.9219 11.8385C13.9716 9.35392 14.9935 6.98783 16.7682 5.24826C18.5429 3.50868 20.929 2.53429 23.4141 2.53429C25.8992 2.53429 28.2852 3.50868 30.0599 5.24826C31.8347 6.98783 32.8566 9.35392 32.9062 11.8385C32.9033 12.8509 32.7632 13.8582 32.4899 14.833C32.4392 15.0171 32.3747 15.1937 32.319 15.3759C33.2489 14.8682 34.2243 14.4487 35.2325 14.123C35.3655 13.3687 35.4341 12.6044 35.4375 11.8385C35.3917 8.67993 34.1048 5.66622 31.8549 3.44878C29.6051 1.23134 26.573 -0.0117188 23.4141 -0.0117188C20.2551 -0.0117187 17.2231 1.23134 14.9732 3.44878C12.7234 5.66622 11.4365 8.67993 11.3906 11.8385C11.4894 16.5289 13.2007 21.0422 16.2367 24.6188C16.2892 24.6783 16.3481 24.7289 16.4025 24.7871C15.9431 26.4033 14.7711 28.934 11.8608 29.4573C11.8608 29.4573 0.551812 31.2773 0 39.9436C0 39.9436 0.143648 44.4733 0.715078 49.8744C0.836313 50.7724 1.27533 51.5972 1.95253 52.1993C2.62973 52.8013 3.50026 53.1408 4.40627 53.1561H15.7684C17.3284 52.1273 18.9997 51.2781 20.7506 50.6249Z" fill="#2D4356"/>
<path opacity="0.2" d="M52.5234 30.3497C52.52 31.6457 52.3433 32.9354 51.9982 34.1846C50.682 38.9939 48.1507 43.2085 45.0562 45.7587C43.8414 46.7668 42.3355 47.359 40.7595 47.4483C40.6076 47.4547 40.4557 47.461 40.3038 47.461C40.1393 47.461 39.9684 47.4547 39.8039 47.4483C38.6362 47.3612 37.4971 47.0441 36.4524 46.5152C35.4076 45.9863 34.4778 45.2561 33.7162 44.3665C30.4448 40.4155 28.599 35.4779 28.4766 30.3497C28.4766 29.9511 28.4955 29.5587 28.5335 29.1727C28.9364 33.8216 30.744 38.238 33.7162 41.8353C34.5302 42.7909 35.5391 43.5614 36.6753 44.0951C37.8115 44.6288 39.0487 44.9134 40.3038 44.9297C42.0385 44.9367 43.7205 44.3342 45.0562 43.2275C48.1507 40.6772 50.682 36.4627 51.9982 31.6533C52.226 30.8247 52.3805 29.9777 52.4602 29.1221C52.5035 29.5298 52.5246 29.9397 52.5234 30.3497Z" fill="#676868"/>
<path d="M77.6967 49.6376C77.653 49.9029 77.5201 50.1454 77.3198 50.3249C77.1196 50.5044 76.8641 50.6102 76.5956 50.6248H58.9718C57.4162 50.024 55.8083 49.5685 54.1688 49.2642C53.3448 49.1193 52.5912 48.708 52.0235 48.0935H76.5956C76.8641 48.079 77.1196 47.9732 77.3198 47.7937C77.5201 47.6142 77.653 47.3717 77.6967 47.1064C77.9688 44.1448 78.3232 41.7319 78.4624 39.8145C78.5194 40.0739 78.0891 45.3851 77.6967 49.6376ZM27.7045 48.0935C27.155 48.7035 26.4181 49.1132 25.6099 49.2579C23.9593 49.5621 22.3408 50.0198 20.7752 50.6248H4.40438C4.12362 50.6097 3.85596 50.5012 3.64387 50.3166C3.43178 50.1321 3.28741 49.8819 3.23367 49.606C2.72742 44.8599 2.56289 40.7529 2.53125 39.9872C2.55023 39.7657 2.90461 43.9676 3.23367 47.0747C3.28741 47.3507 3.43178 47.6008 3.64387 47.7854C3.85596 47.97 4.12362 48.0784 4.40438 48.0935H27.7045Z" fill="#F15743"/>
<path opacity="0.3" d="M78.4624 39.9497C78.4434 40.2345 78.3991 40.8483 78.3422 41.6836C77.1462 35.9566 68.8184 34.5012 68.7298 34.4885L68.7171 34.4822H68.6918C67.4066 34.2432 66.1995 33.6933 65.1758 32.8803C64.1521 32.0673 63.3431 31.0161 62.8193 29.8184C62.3428 30.0098 61.8546 30.1705 61.3575 30.2993C60.236 30.554 59.0904 30.6876 57.9403 30.698H57.8644C57.7188 30.698 57.5796 30.6916 57.4404 30.6853C57.3096 29.6743 57.0893 28.6769 56.7823 27.7048C56.9827 27.7487 57.1855 27.7804 57.3898 27.7997C57.4088 27.9199 57.4277 28.0338 57.4404 28.1541C57.5796 28.1604 57.7188 28.1667 57.8644 28.1667H57.9403C59.0904 28.1564 60.236 28.0227 61.3575 27.768C61.8546 27.6392 62.3428 27.4786 62.8193 27.2871C63.3431 28.4848 64.1521 29.5361 65.1758 30.349C66.1995 31.162 67.4066 31.712 68.6918 31.9509H68.7171L68.7298 31.9573C68.8247 31.9699 77.9119 33.5583 78.4624 39.9497ZM65.8062 64.699C65.7872 64.9711 65.7492 65.5533 65.6923 66.3633C64.3127 58.6999 53.4284 56.8078 53.3145 56.7825H53.2955L53.2702 56.7762C49.5049 56.0991 47.347 53.4539 46.227 50.8404C45.8852 50.9923 45.5372 51.1315 45.1765 51.2644C43.6872 52.0953 42.0092 52.5289 40.3038 52.5237C38.9577 52.515 37.625 52.2553 36.3741 51.758C36.045 51.6947 35.8235 51.6441 35.7666 51.6314C34.992 51.4336 34.2362 51.169 33.5074 50.8404C32.3873 53.4539 30.2295 56.0991 26.4642 56.7762L26.4389 56.7825L26.4136 56.7888C26.306 56.8078 15.2191 58.7316 14.0041 66.5721C13.9535 65.6355 13.9282 64.9964 13.9219 64.737C14.5673 56.3142 26.2997 54.2766 26.4136 54.2576L26.4389 54.2513L26.4642 54.2449C30.2295 53.5678 32.3873 50.9227 33.5074 48.3091C34.2362 48.6377 34.992 48.9024 35.7666 49.1002C35.8235 49.1128 36.045 49.1634 36.3741 49.2267C37.4695 49.6602 38.6276 49.9144 39.8039 49.9798C39.9684 49.9861 40.1393 49.9924 40.3038 49.9924C40.4557 49.9924 40.6076 49.9861 40.7595 49.9798C42.3095 49.9186 43.8232 49.4914 45.1765 48.7331C45.5372 48.6002 45.8852 48.461 46.227 48.3091C47.347 50.9227 49.5049 53.5678 53.2702 54.2449L53.2955 54.2513H53.3145C53.4347 54.2766 65.1291 56.3079 65.8062 64.699Z" fill="#F9DBD7"/>
<path d="M65.8062 64.699C65.7366 65.7494 65.3505 71.3878 64.857 76.7098C64.7967 77.1534 64.5926 77.5651 64.276 77.8817C63.9594 78.1983 63.5477 78.4024 63.1041 78.4627C63.0408 78.4627 62.9775 78.469 62.9142 78.469H16.8265C16.334 78.4492 15.8632 78.2614 15.4924 77.9366C15.1217 77.6119 14.8733 77.17 14.7888 76.6845C14.1623 70.736 13.9535 65.5976 13.9219 64.737C13.9409 64.5028 13.9662 64.2687 14.0041 64.0409C14.118 66.2241 14.3522 69.9893 14.7888 74.1532C14.8733 74.6388 15.1217 75.0807 15.4924 75.4054C15.8632 75.7301 16.334 75.918 16.8265 75.9377H62.9142C63.3935 75.9207 63.8514 75.7348 64.2069 75.4129C64.5624 75.091 64.7926 74.6538 64.857 74.1785C65.224 70.2424 65.5277 66.1291 65.6923 63.832C65.7429 64.1105 65.7809 64.4016 65.8062 64.699Z" fill="#F15743"/>
<path opacity="0.3" d="M24.1988 27.768C23.901 28.72 23.6871 29.6961 23.5596 30.6853C23.4204 30.6916 23.2812 30.698 23.1356 30.698H23.0597C21.9137 30.6899 20.772 30.5563 19.6552 30.2993C19.1528 30.1743 18.6601 30.0136 18.1807 29.8184C17.6569 31.0161 16.8479 32.0673 15.8242 32.8803C14.8005 33.6933 13.5934 34.2432 12.3082 34.4822H12.2892L12.2639 34.4885C12.1753 34.5012 3.6893 35.982 2.61984 41.8545C2.56922 40.9116 2.53758 40.2534 2.53125 39.9877C3.05016 33.5646 12.1753 31.9699 12.2639 31.9573L12.2892 31.9509H12.3082C13.5934 31.712 14.8005 31.162 15.8242 30.349C16.8479 29.5361 17.6569 28.4848 18.1807 27.2871C18.6601 27.4823 19.1528 27.6431 19.6552 27.768C20.772 28.025 21.9137 28.1587 23.0597 28.1667H23.1356C23.2812 28.1667 23.4204 28.1604 23.5596 28.1541C23.5723 28.0465 23.5913 27.9389 23.6102 27.8313C23.8064 27.8187 24.0026 27.7997 24.1988 27.768Z" fill="#F9DBD7"/>
</g>
<defs>
<clipPath id="clip0_385_6341">
<rect width="81" height="81" fill="white"/>
</clipPath>
</defs>
</svg>
